<svg width="204" height="136" viewBox="0 0 204 136" fill="none" xmlns="http://www.w3.org/2000/svg">
<rect width="204" height="136" rx="10" fill="#FFEFE7"/>
<path d="M28.892 29.444H23.654L22.754 32H20.612L25.094 19.472H27.47L31.952 32H29.792L28.892 29.444ZM28.316 27.77L26.282 21.956L24.23 27.77H28.316ZM37.7348 30.164L40.5428 22.082H42.7208L38.9408 32H36.4928L32.7308 22.082H34.9268L37.7348 30.164ZM43.5879 26.996C43.5879 26 43.7919 25.118 44.1999 24.35C44.6199 23.582 45.1839 22.988 45.8919 22.568C46.6119 22.136 47.4039 21.92 48.2679 21.92C49.0479 21.92 49.7259 22.076 50.3019 22.388C50.8899 22.688 51.3579 23.066 51.7059 23.522V22.082H53.7759V32H51.7059V30.524C51.3579 30.992 50.8839 31.382 50.2839 31.694C49.6839 32.006 48.9999 32.162 48.2319 32.162C47.3799 32.162 46.5999 31.946 45.8919 31.514C45.1839 31.07 44.6199 30.458 44.1999 29.678C43.7919 28.886 43.5879 27.992 43.5879 26.996ZM51.7059 27.032C51.7059 26.348 51.5619 25.754 51.2739 25.25C50.9979 24.746 50.6319 24.362 50.1759 24.098C49.7199 23.834 49.2279 23.702 48.6999 23.702C48.1719 23.702 47.6799 23.834 47.2239 24.098C46.7679 24.35 46.3959 24.728 46.1079 25.232C45.8319 25.724 45.6939 26.312 45.6939 26.996C45.6939 27.68 45.8319 28.28 46.1079 28.796C46.3959 29.312 46.7679 29.708 47.2239 29.984C47.6919 30.248 48.1839 30.38 48.6999 30.38C49.2279 30.38 49.7199 30.248 50.1759 29.984C50.6319 29.72 50.9979 29.336 51.2739 28.832C51.5619 28.316 51.7059 27.716 51.7059 27.032ZM57.5151 20.768C57.1431 20.768 56.8311 20.642 56.5791 20.39C56.3271 20.138 56.2011 19.826 56.2011 19.454C56.2011 19.082 56.3271 18.77 56.5791 18.518C56.8311 18.266 57.1431 18.14 57.5151 18.14C57.8751 18.14 58.1811 18.266 58.4331 18.518C58.6851 18.77 58.8111 19.082 58.8111 19.454C58.8111 19.826 58.6851 20.138 58.4331 20.39C58.1811 20.642 57.8751 20.768 57.5151 20.768ZM58.5231 22.082V32H56.4711V22.082H58.5231ZM63.2692 18.68V32H61.2172V18.68H63.2692ZM65.2793 26.996C65.2793 26 65.4833 25.118 65.8913 24.35C66.3113 23.582 66.8753 22.988 67.5833 22.568C68.3033 22.136 69.0953 21.92 69.9593 21.92C70.7393 21.92 71.4173 22.076 71.9933 22.388C72.5813 22.688 73.0493 23.066 73.3973 23.522V22.082H75.4673V32H73.3973V30.524C73.0493 30.992 72.5753 31.382 71.9753 31.694C71.3753 32.006 70.6913 32.162 69.9233 32.162C69.0713 32.162 68.2913 31.946 67.5833 31.514C66.8753 31.07 66.3113 30.458 65.8913 29.678C65.4833 28.886 65.2793 27.992 65.2793 26.996ZM73.3973 27.032C73.3973 26.348 73.2533 25.754 72.9653 25.25C72.6893 24.746 72.3233 24.362 71.8673 24.098C71.4113 23.834 70.9193 23.702 70.3913 23.702C69.8633 23.702 69.3713 23.834 68.9153 24.098C68.4593 24.35 68.0873 24.728 67.7993 25.232C67.5233 25.724 67.3853 26.312 67.3853 26.996C67.3853 27.68 67.5233 28.28 67.7993 28.796C68.0873 29.312 68.4593 29.708 68.9153 29.984C69.3833 30.248 69.8753 30.38 70.3913 30.38C70.9193 30.38 71.4113 30.248 71.8673 29.984C72.3233 29.72 72.6893 29.336 72.9653 28.832C73.2533 28.316 73.3973 27.716 73.3973 27.032ZM80.2145 23.558C80.5625 23.078 81.0365 22.688 81.6365 22.388C82.2485 22.076 82.9265 21.92 83.6705 21.92C84.5465 21.92 85.3385 22.13 86.0465 22.55C86.7545 22.97 87.3125 23.57 87.7205 24.35C88.1285 25.118 88.3325 26 88.3325 26.996C88.3325 27.992 88.1285 28.886 87.7205 29.678C87.3125 30.458 86.7485 31.07 86.0285 31.514C85.3205 31.946 84.5345 32.162 83.6705 32.162C82.9025 32.162 82.2185 32.012 81.6185 31.712C81.0305 31.412 80.5625 31.028 80.2145 30.56V32H78.1625V18.68H80.2145V23.558ZM86.2445 26.996C86.2445 26.312 86.1005 25.724 85.8125 25.232C85.5365 24.728 85.1645 24.35 84.6965 24.098C84.2405 23.834 83.7485 23.702 83.2205 23.702C82.7045 23.702 82.2125 23.834 81.7445 24.098C81.2885 24.362 80.9165 24.746 80.6285 25.25C80.3525 25.754 80.2145 26.348 80.2145 27.032C80.2145 27.716 80.3525 28.316 80.6285 28.832C80.9165 29.336 81.2885 29.72 81.7445 29.984C82.2125 30.248 82.7045 30.38 83.2205 30.38C83.7485 30.38 84.2405 30.248 84.6965 29.984C85.1645 29.708 85.5365 29.312 85.8125 28.796C86.1005 28.28 86.2445 27.68 86.2445 26.996ZM92.4137 18.68V32H90.3617V18.68H92.4137ZM104.198 26.798C104.198 27.17 104.174 27.506 104.126 27.806H96.5478C96.6078 28.598 96.9018 29.234 97.4298 29.714C97.9578 30.194 98.6058 30.434 99.3738 30.434C100.478 30.434 101.258 29.972 101.714 29.048H103.928C103.628 29.96 103.082 30.71 102.29 31.298C101.51 31.874 100.538 32.162 99.3738 32.162C98.4258 32.162 97.5738 31.952 96.8178 31.532C96.0738 31.1 95.4858 30.5 95.0538 29.732C94.6338 28.952 94.4238 28.052 94.4238 27.032C94.4238 26.012 94.6278 25.118 95.0358 24.35C95.4558 23.57 96.0378 22.97 96.7818 22.55C97.5378 22.13 98.4018 21.92 99.3738 21.92C100.31 21.92 101.144 22.124 101.876 22.532C102.608 22.94 103.178 23.516 103.586 24.26C103.994 24.992 104.198 25.838 104.198 26.798ZM102.056 26.15C102.044 25.394 101.774 24.788 101.246 24.332C100.718 23.876 100.064 23.648 99.2838 23.648C98.5758 23.648 97.9698 23.876 97.4658 24.332C96.9618 24.776 96.6618 25.382 96.5658 26.15H102.056ZM119.641 23.216C119.641 23.852 119.491 24.452 119.191 25.016C118.891 25.58 118.411 26.042 117.751 26.402C117.091 26.75 116.245 26.924 115.213 26.924H112.945V32H110.893V19.49H115.213C116.173 19.49 116.983 19.658 117.643 19.994C118.315 20.318 118.813 20.762 119.137 21.326C119.473 21.89 119.641 22.52 119.641 23.216ZM115.213 25.25C115.993 25.25 116.575 25.076 116.959 24.728C117.343 24.368 117.535 23.864 117.535 23.216C117.535 21.848 116.761 21.164 115.213 21.164H112.945V25.25H115.213ZM125.9 32.162C124.964 32.162 124.118 31.952 123.362 31.532C122.606 31.1 122.012 30.5 121.58 29.732C121.148 28.952 120.932 28.052 120.932 27.032C120.932 26.024 121.154 25.13 121.598 24.35C122.042 23.57 122.648 22.97 123.416 22.55C124.184 22.13 125.042 21.92 125.99 21.92C126.938 21.92 127.796 22.13 128.564 22.55C129.332 22.97 129.938 23.57 130.382 24.35C130.826 25.13 131.048 26.024 131.048 27.032C131.048 28.04 130.82 28.934 130.364 29.714C129.908 30.494 129.284 31.1 128.492 31.532C127.712 31.952 126.848 32.162 125.9 32.162ZM125.9 30.38C126.428 30.38 126.92 30.254 127.376 30.002C127.844 29.75 128.222 29.372 128.51 28.868C128.798 28.364 128.942 27.752 128.942 27.032C128.942 26.312 128.804 25.706 128.528 25.214C128.252 24.71 127.886 24.332 127.43 24.08C126.974 23.828 126.482 23.702 125.954 23.702C125.426 23.702 124.934 23.828 124.478 24.08C124.034 24.332 123.68 24.71 123.416 25.214C123.152 25.706 123.02 26.312 123.02 27.032C123.02 28.1 123.29 28.928 123.83 29.516C124.382 30.092 125.072 30.38 125.9 30.38ZM136.677 32.162C135.897 32.162 135.195 32.024 134.571 31.748C133.959 31.46 133.473 31.076 133.113 30.596C132.753 30.104 132.561 29.558 132.537 28.958H134.661C134.697 29.378 134.895 29.732 135.255 30.02C135.627 30.296 136.089 30.434 136.641 30.434C137.217 30.434 137.661 30.326 137.973 30.11C138.297 29.882 138.459 29.594 138.459 29.246C138.459 28.874 138.279 28.598 137.919 28.418C137.571 28.238 137.013 28.04 136.245 27.824C135.501 27.62 134.895 27.422 134.427 27.23C133.959 27.038 133.551 26.744 133.203 26.348C132.867 25.952 132.699 25.43 132.699 24.782C132.699 24.254 132.855 23.774 133.167 23.342C133.479 22.898 133.923 22.55 134.499 22.298C135.087 22.046 135.759 21.92 136.515 21.92C137.643 21.92 138.549 22.208 139.233 22.784C139.929 23.348 140.301 24.122 140.349 25.106H138.297C138.261 24.662 138.081 24.308 137.757 24.044C137.433 23.78 136.995 23.648 136.443 23.648C135.903 23.648 135.489 23.75 135.201 23.954C134.913 24.158 134.769 24.428 134.769 24.764C134.769 25.028 134.865 25.25 135.057 25.43C135.249 25.61 135.483 25.754 135.759 25.862C136.035 25.958 136.443 26.084 136.983 26.24C137.703 26.432 138.291 26.63 138.747 26.834C139.215 27.026 139.617 27.314 139.953 27.698C140.289 28.082 140.463 28.592 140.475 29.228C140.475 29.792 140.319 30.296 140.007 30.74C139.695 31.184 139.251 31.532 138.675 31.784C138.111 32.036 137.445 32.162 136.677 32.162ZM143.736 20.768C143.364 20.768 143.052 20.642 142.8 20.39C142.548 20.138 142.422 19.826 142.422 19.454C142.422 19.082 142.548 18.77 142.8 18.518C143.052 18.266 143.364 18.14 143.736 18.14C144.096 18.14 144.402 18.266 144.654 18.518C144.906 18.77 145.032 19.082 145.032 19.454C145.032 19.826 144.906 20.138 144.654 20.39C144.402 20.642 144.096 20.768 143.736 20.768ZM144.744 22.082V32H142.692V22.082H144.744ZM149.832 23.756V29.246C149.832 29.618 149.916 29.888 150.084 30.056C150.264 30.212 150.564 30.29 150.984 30.29H152.244V32H150.624C149.7 32 148.992 31.784 148.5 31.352C148.008 30.92 147.762 30.218 147.762 29.246V23.756H146.592V22.082H147.762V19.616H149.832V22.082H152.244V23.756H149.832ZM155.179 20.768C154.807 20.768 154.495 20.642 154.243 20.39C153.991 20.138 153.865 19.826 153.865 19.454C153.865 19.082 153.991 18.77 154.243 18.518C154.495 18.266 154.807 18.14 155.179 18.14C155.539 18.14 155.845 18.266 156.097 18.518C156.349 18.77 156.475 19.082 156.475 19.454C156.475 19.826 156.349 20.138 156.097 20.39C155.845 20.642 155.539 20.768 155.179 20.768ZM156.187 22.082V32H154.135V22.082H156.187ZM163.183 32.162C162.247 32.162 161.401 31.952 160.645 31.532C159.889 31.1 159.295 30.5 158.863 29.732C158.431 28.952 158.215 28.052 158.215 27.032C158.215 26.024 158.437 25.13 158.881 24.35C159.325 23.57 159.931 22.97 160.699 22.55C161.467 22.13 162.325 21.92 163.273 21.92C164.221 21.92 165.079 22.13 165.847 22.55C166.615 22.97 167.221 23.57 167.665 24.35C168.109 25.13 168.331 26.024 168.331 27.032C168.331 28.04 168.103 28.934 167.647 29.714C167.191 30.494 166.567 31.1 165.775 31.532C164.995 31.952 164.131 32.162 163.183 32.162ZM163.183 30.38C163.711 30.38 164.203 30.254 164.659 30.002C165.127 29.75 165.505 29.372 165.793 28.868C166.081 28.364 166.225 27.752 166.225 27.032C166.225 26.312 166.087 25.706 165.811 25.214C165.535 24.71 165.169 24.332 164.713 24.08C164.257 23.828 163.765 23.702 163.237 23.702C162.709 23.702 162.217 23.828 161.761 24.08C161.317 24.332 160.963 24.71 160.699 25.214C160.435 25.706 160.303 26.312 160.303 27.032C160.303 28.1 160.573 28.928 161.113 29.516C161.665 30.092 162.355 30.38 163.183 30.38ZM175.364 21.92C176.144 21.92 176.84 22.082 177.452 22.406C178.076 22.73 178.562 23.21 178.91 23.846C179.258 24.482 179.432 25.25 179.432 26.15V32H177.398V26.456C177.398 25.568 177.176 24.89 176.732 24.422C176.288 23.942 175.682 23.702 174.914 23.702C174.146 23.702 173.534 23.942 173.078 24.422C172.634 24.89 172.412 25.568 172.412 26.456V32H170.36V22.082H172.412V23.216C172.748 22.808 173.174 22.49 173.69 22.262C174.218 22.034 174.776 21.92 175.364 21.92Z" fill="#161E54"/>
<path d="M28.892 29.444H23.654L22.754 32H20.612L25.094 19.472H27.47L31.952 32H29.792L28.892 29.444ZM28.316 27.77L26.282 21.956L24.23 27.77H28.316ZM37.7348 30.164L40.5428 22.082H42.7208L38.9408 32H36.4928L32.7308 22.082H34.9268L37.7348 30.164ZM43.5879 26.996C43.5879 26 43.7919 25.118 44.1999 24.35C44.6199 23.582 45.1839 22.988 45.8919 22.568C46.6119 22.136 47.4039 21.92 48.2679 21.92C49.0479 21.92 49.7259 22.076 50.3019 22.388C50.8899 22.688 51.3579 23.066 51.7059 23.522V22.082H53.7759V32H51.7059V30.524C51.3579 30.992 50.8839 31.382 50.2839 31.694C49.6839 32.006 48.9999 32.162 48.2319 32.162C47.3799 32.162 46.5999 31.946 45.8919 31.514C45.1839 31.07 44.6199 30.458 44.1999 29.678C43.7919 28.886 43.5879 27.992 43.5879 26.996ZM51.7059 27.032C51.7059 26.348 51.5619 25.754 51.2739 25.25C50.9979 24.746 50.6319 24.362 50.1759 24.098C49.7199 23.834 49.2279 23.702 48.6999 23.702C48.1719 23.702 47.6799 23.834 47.2239 24.098C46.7679 24.35 46.3959 24.728 46.1079 25.232C45.8319 25.724 45.6939 26.312 45.6939 26.996C45.6939 27.68 45.8319 28.28 46.1079 28.796C46.3959 29.312 46.7679 29.708 47.2239 29.984C47.6919 30.248 48.1839 30.38 48.6999 30.38C49.2279 30.38 49.7199 30.248 50.1759 29.984C50.6319 29.72 50.9979 29.336 51.2739 28.832C51.5619 28.316 51.7059 27.716 51.7059 27.032ZM57.5151 20.768C57.1431 20.768 56.8311 20.642 56.5791 20.39C56.3271 20.138 56.2011 19.826 56.2011 19.454C56.2011 19.082 56.3271 18.77 56.5791 18.518C56.8311 18.266 57.1431 18.14 57.5151 18.14C57.8751 18.14 58.1811 18.266 58.4331 18.518C58.6851 18.77 58.8111 19.082 58.8111 19.454C58.8111 19.826 58.6851 20.138 58.4331 20.39C58.1811 20.642 57.8751 20.768 57.5151 20.768ZM58.5231 22.082V32H56.4711V22.082H58.5231ZM63.2692 18.68V32H61.2172V18.68H63.2692ZM65.2793 26.996C65.2793 26 65.4833 25.118 65.8913 24.35C66.3113 23.582 66.8753 22.988 67.5833 22.568C68.3033 22.136 69.0953 21.92 69.9593 21.92C70.7393 21.92 71.4173 22.076 71.9933 22.388C72.5813 22.688 73.0493 23.066 73.3973 23.522V22.082H75.4673V32H73.3973V30.524C73.0493 30.992 72.5753 31.382 71.9753 31.694C71.3753 32.006 70.6913 32.162 69.9233 32.162C69.0713 32.162 68.2913 31.946 67.5833 31.514C66.8753 31.07 66.3113 30.458 65.8913 29.678C65.4833 28.886 65.2793 27.992 65.2793 26.996ZM73.3973 27.032C73.3973 26.348 73.2533 25.754 72.9653 25.25C72.6893 24.746 72.3233 24.362 71.8673 24.098C71.4113 23.834 70.9193 23.702 70.3913 23.702C69.8633 23.702 69.3713 23.834 68.9153 24.098C68.4593 24.35 68.0873 24.728 67.7993 25.232C67.5233 25.724 67.3853 26.312 67.3853 26.996C67.3853 27.68 67.5233 28.28 67.7993 28.796C68.0873 29.312 68.4593 29.708 68.9153 29.984C69.3833 30.248 69.8753 30.38 70.3913 30.38C70.9193 30.38 71.4113 30.248 71.8673 29.984C72.3233 29.72 72.6893 29.336 72.9653 28.832C73.2533 28.316 73.3973 27.716 73.3973 27.032ZM80.2145 23.558C80.5625 23.078 81.0365 22.688 81.6365 22.388C82.2485 22.076 82.9265 21.92 83.6705 21.92C84.5465 21.92 85.3385 22.13 86.0465 22.55C86.7545 22.97 87.3125 23.57 87.7205 24.35C88.1285 25.118 88.3325 26 88.3325 26.996C88.3325 27.992 88.1285 28.886 87.7205 29.678C87.3125 30.458 86.7485 31.07 86.0285 31.514C85.3205 31.946 84.5345 32.162 83.6705 32.162C82.9025 32.162 82.2185 32.012 81.6185 31.712C81.0305 31.412 80.5625 31.028 80.2145 30.56V32H78.1625V18.68H80.2145V23.558ZM86.2445 26.996C86.2445 26.312 86.1005 25.724 85.8125 25.232C85.5365 24.728 85.1645 24.35 84.6965 24.098C84.2405 23.834 83.7485 23.702 83.2205 23.702C82.7045 23.702 82.2125 23.834 81.7445 24.098C81.2885 24.362 80.9165 24.746 80.6285 25.25C80.3525 25.754 80.2145 26.348 80.2145 27.032C80.2145 27.716 80.3525 28.316 80.6285 28.832C80.9165 29.336 81.2885 29.72 81.7445 29.984C82.2125 30.248 82.7045 30.38 83.2205 30.38C83.7485 30.38 84.2405 30.248 84.6965 29.984C85.1645 29.708 85.5365 29.312 85.8125 28.796C86.1005 28.28 86.2445 27.68 86.2445 26.996ZM92.4137 18.68V32H90.3617V18.68H92.4137ZM104.198 26.798C104.198 27.17 104.174 27.506 104.126 27.806H96.5478C96.6078 28.598 96.9018 29.234 97.4298 29.714C97.9578 30.194 98.6058 30.434 99.3738 30.434C100.478 30.434 101.258 29.972 101.714 29.048H103.928C103.628 29.96 103.082 30.71 102.29 31.298C101.51 31.874 100.538 32.162 99.3738 32.162C98.4258 32.162 97.5738 31.952 96.8178 31.532C96.0738 31.1 95.4858 30.5 95.0538 29.732C94.6338 28.952 94.4238 28.052 94.4238 27.032C94.4238 26.012 94.6278 25.118 95.0358 24.35C95.4558 23.57 96.0378 22.97 96.7818 22.55C97.5378 22.13 98.4018 21.92 99.3738 21.92C100.31 21.92 101.144 22.124 101.876 22.532C102.608 22.94 103.178 23.516 103.586 24.26C103.994 24.992 104.198 25.838 104.198 26.798ZM102.056 26.15C102.044 25.394 101.774 24.788 101.246 24.332C100.718 23.876 100.064 23.648 99.2838 23.648C98.5758 23.648 97.9698 23.876 97.4658 24.332C96.9618 24.776 96.6618 25.382 96.5658 26.15H102.056ZM119.641 23.216C119.641 23.852 119.491 24.452 119.191 25.016C118.891 25.58 118.411 26.042 117.751 26.402C117.091 26.75 116.245 26.924 115.213 26.924H112.945V32H110.893V19.49H115.213C116.173 19.49 116.983 19.658 117.643 19.994C118.315 20.318 118.813 20.762 119.137 21.326C119.473 21.89 119.641 22.52 119.641 23.216ZM115.213 25.25C115.993 25.25 116.575 25.076 116.959 24.728C117.343 24.368 117.535 23.864 117.535 23.216C117.535 21.848 116.761 21.164 115.213 21.164H112.945V25.25H115.213ZM125.9 32.162C124.964 32.162 124.118 31.952 123.362 31.532C122.606 31.1 122.012 30.5 121.58 29.732C121.148 28.952 120.932 28.052 120.932 27.032C120.932 26.024 121.154 25.13 121.598 24.35C122.042 23.57 122.648 22.97 123.416 22.55C124.184 22.13 125.042 21.92 125.99 21.92C126.938 21.92 127.796 22.13 128.564 22.55C129.332 22.97 129.938 23.57 130.382 24.35C130.826 25.13 131.048 26.024 131.048 27.032C131.048 28.04 130.82 28.934 130.364 29.714C129.908 30.494 129.284 31.1 128.492 31.532C127.712 31.952 126.848 32.162 125.9 32.162ZM125.9 30.38C126.428 30.38 126.92 30.254 127.376 30.002C127.844 29.75 128.222 29.372 128.51 28.868C128.798 28.364 128.942 27.752 128.942 27.032C128.942 26.312 128.804 25.706 128.528 25.214C128.252 24.71 127.886 24.332 127.43 24.08C126.974 23.828 126.482 23.702 125.954 23.702C125.426 23.702 124.934 23.828 124.478 24.08C124.034 24.332 123.68 24.71 123.416 25.214C123.152 25.706 123.02 26.312 123.02 27.032C123.02 28.1 123.29 28.928 123.83 29.516C124.382 30.092 125.072 30.38 125.9 30.38ZM136.677 32.162C135.897 32.162 135.195 32.024 134.571 31.748C133.959 31.46 133.473 31.076 133.113 30.596C132.753 30.104 132.561 29.558 132.537 28.958H134.661C134.697 29.378 134.895 29.732 135.255 30.02C135.627 30.296 136.089 30.434 136.641 30.434C137.217 30.434 137.661 30.326 137.973 30.11C138.297 29.882 138.459 29.594 138.459 29.246C138.459 28.874 138.279 28.598 137.919 28.418C137.571 28.238 137.013 28.04 136.245 27.824C135.501 27.62 134.895 27.422 134.427 27.23C133.959 27.038 133.551 26.744 133.203 26.348C132.867 25.952 132.699 25.43 132.699 24.782C132.699 24.254 132.855 23.774 133.167 23.342C133.479 22.898 133.923 22.55 134.499 22.298C135.087 22.046 135.759 21.92 136.515 21.92C137.643 21.92 138.549 22.208 139.233 22.784C139.929 23.348 140.301 24.122 140.349 25.106H138.297C138.261 24.662 138.081 24.308 137.757 24.044C137.433 23.78 136.995 23.648 136.443 23.648C135.903 23.648 135.489 23.75 135.201 23.954C134.913 24.158 134.769 24.428 134.769 24.764C134.769 25.028 134.865 25.25 135.057 25.43C135.249 25.61 135.483 25.754 135.759 25.862C136.035 25.958 136.443 26.084 136.983 26.24C137.703 26.432 138.291 26.63 138.747 26.834C139.215 27.026 139.617 27.314 139.953 27.698C140.289 28.082 140.463 28.592 140.475 29.228C140.475 29.792 140.319 30.296 140.007 30.74C139.695 31.184 139.251 31.532 138.675 31.784C138.111 32.036 137.445 32.162 136.677 32.162ZM143.736 20.768C143.364 20.768 143.052 20.642 142.8 20.39C142.548 20.138 142.422 19.826 142.422 19.454C142.422 19.082 142.548 18.77 142.8 18.518C143.052 18.266 143.364 18.14 143.736 18.14C144.096 18.14 144.402 18.266 144.654 18.518C144.906 18.77 145.032 19.082 145.032 19.454C145.032 19.826 144.906 20.138 144.654 20.39C144.402 20.642 144.096 20.768 143.736 20.768ZM144.744 22.082V32H142.692V22.082H144.744ZM149.832 23.756V29.246C149.832 29.618 149.916 29.888 150.084 30.056C150.264 30.212 150.564 30.29 150.984 30.29H152.244V32H150.624C149.7 32 148.992 31.784 148.5 31.352C148.008 30.92 147.762 30.218 147.762 29.246V23.756H146.592V22.082H147.762V19.616H149.832V22.082H152.244V23.756H149.832ZM155.179 20.768C154.807 20.768 154.495 20.642 154.243 20.39C153.991 20.138 153.865 19.826 153.865 19.454C153.865 19.082 153.991 18.77 154.243 18.518C154.495 18.266 154.807 18.14 155.179 18.14C155.539 18.14 155.845 18.266 156.097 18.518C156.349 18.77 156.475 19.082 156.475 19.454C156.475 19.826 156.349 20.138 156.097 20.39C155.845 20.642 155.539 20.768 155.179 20.768ZM156.187 22.082V32H154.135V22.082H156.187ZM163.183 32.162C162.247 32.162 161.401 31.952 160.645 31.532C159.889 31.1 159.295 30.5 158.863 29.732C158.431 28.952 158.215 28.052 158.215 27.032C158.215 26.024 158.437 25.13 158.881 24.35C159.325 23.57 159.931 22.97 160.699 22.55C161.467 22.13 162.325 21.92 163.273 21.92C164.221 21.92 165.079 22.13 165.847 22.55C166.615 22.97 167.221 23.57 167.665 24.35C168.109 25.13 168.331 26.024 168.331 27.032C168.331 28.04 168.103 28.934 167.647 29.714C167.191 30.494 166.567 31.1 165.775 31.532C164.995 31.952 164.131 32.162 163.183 32.162ZM163.183 30.38C163.711 30.38 164.203 30.254 164.659 30.002C165.127 29.75 165.505 29.372 165.793 28.868C166.081 28.364 166.225 27.752 166.225 27.032C166.225 26.312 166.087 25.706 165.811 25.214C165.535 24.71 165.169 24.332 164.713 24.08C164.257 23.828 163.765 23.702 163.237 23.702C162.709 23.702 162.217 23.828 161.761 24.08C161.317 24.332 160.963 24.71 160.699 25.214C160.435 25.706 160.303 26.312 160.303 27.032C160.303 28.1 160.573 28.928 161.113 29.516C161.665 30.092 162.355 30.38 163.183 30.38ZM175.364 21.92C176.144 21.92 176.84 22.082 177.452 22.406C178.076 22.73 178.562 23.21 178.91 23.846C179.258 24.482 179.432 25.25 179.432 26.15V32H177.398V26.456C177.398 25.568 177.176 24.89 176.732 24.422C176.288 23.942 175.682 23.702 174.914 23.702C174.146 23.702 173.534 23.942 173.078 24.422C172.634 24.89 172.412 25.568 172.412 26.456V32H170.36V22.082H172.412V23.216C172.748 22.808 173.174 22.49 173.69 22.262C174.218 22.034 174.776 21.92 175.364 21.92Z" fill="black" fill-opacity="0.2"/>
<path d="M24.428 77.42C26.732 75.428 28.544 73.796 29.864 72.524C31.208 71.228 32.324 69.884 33.212 68.492C34.1 67.1 34.544 65.708 34.544 64.316C34.544 62.876 34.196 61.748 33.5 60.932C32.828 60.116 31.76 59.708 30.296 59.708C28.88 59.708 27.776 60.164 26.984 61.076C26.216 61.964 25.808 63.164 25.76 64.676H21.8C21.872 61.94 22.688 59.852 24.248 58.412C25.832 56.948 27.836 56.216 30.26 56.216C32.876 56.216 34.916 56.936 36.38 58.376C37.868 59.816 38.612 61.736 38.612 64.136C38.612 65.864 38.168 67.532 37.28 69.14C36.416 70.724 35.372 72.152 34.148 73.424C32.948 74.672 31.412 76.124 29.54 77.78L27.92 79.22H39.332V82.64H21.836V79.652L24.428 77.42ZM42.4333 77.528V74.432L54.5293 57.08H59.4973V73.964H62.8453V77.528H59.4973V83H55.4653V77.528H42.4333ZM55.6453 61.256L47.1493 73.964H55.6453V61.256Z" fill="#161E54"/>
<path d="M24.428 77.42C26.732 75.428 28.544 73.796 29.864 72.524C31.208 71.228 32.324 69.884 33.212 68.492C34.1 67.1 34.544 65.708 34.544 64.316C34.544 62.876 34.196 61.748 33.5 60.932C32.828 60.116 31.76 59.708 30.296 59.708C28.88 59.708 27.776 60.164 26.984 61.076C26.216 61.964 25.808 63.164 25.76 64.676H21.8C21.872 61.94 22.688 59.852 24.248 58.412C25.832 56.948 27.836 56.216 30.26 56.216C32.876 56.216 34.916 56.936 36.38 58.376C37.868 59.816 38.612 61.736 38.612 64.136C38.612 65.864 38.168 67.532 37.28 69.14C36.416 70.724 35.372 72.152 34.148 73.424C32.948 74.672 31.412 76.124 29.54 77.78L27.92 79.22H39.332V82.64H21.836V79.652L24.428 77.42ZM42.4333 77.528V74.432L54.5293 57.08H59.4973V73.964H62.8453V77.528H59.4973V83H55.4653V77.528H42.4333ZM55.6453 61.256L47.1493 73.964H55.6453V61.256Z" fill="black" fill-opacity="0.2"/>
<path d="M28.6328 113.172V114.359H20.4141V113.508L25.5078 105.625H26.6875L25.4219 107.906L22.0547 113.172H28.6328ZM27.0469 105.625V117H25.6016V105.625H27.0469ZM40.7969 105.625H42.2969V113.32C42.2969 114.174 42.1068 114.885 41.7266 115.453C41.3464 116.021 40.8411 116.448 40.2109 116.734C39.5859 117.016 38.9062 117.156 38.1719 117.156C37.401 117.156 36.7031 117.016 36.0781 116.734C35.4583 116.448 34.9661 116.021 34.6016 115.453C34.2422 114.885 34.0625 114.174 34.0625 113.32V105.625H35.5547V113.32C35.5547 113.914 35.6641 114.404 35.8828 114.789C36.1016 115.174 36.4062 115.461 36.7969 115.648C37.1927 115.836 37.651 115.93 38.1719 115.93C38.6979 115.93 39.1562 115.836 39.5469 115.648C39.9427 115.461 40.25 115.174 40.4688 114.789C40.6875 114.404 40.7969 113.914 40.7969 113.32V105.625ZM45.8906 109.875V117H44.4453V108.547H45.8516L45.8906 109.875ZM48.5312 108.5L48.5234 109.844C48.4036 109.818 48.2891 109.802 48.1797 109.797C48.0755 109.786 47.9557 109.781 47.8203 109.781C47.487 109.781 47.1927 109.833 46.9375 109.938C46.6823 110.042 46.4661 110.188 46.2891 110.375C46.112 110.562 45.9714 110.786 45.8672 111.047C45.7682 111.302 45.7031 111.583 45.6719 111.891L45.2656 112.125C45.2656 111.615 45.3151 111.135 45.4141 110.688C45.5182 110.24 45.6771 109.844 45.8906 109.5C46.1042 109.151 46.375 108.88 46.7031 108.688C47.0365 108.49 47.4323 108.391 47.8906 108.391C47.9948 108.391 48.1146 108.404 48.25 108.43C48.3854 108.451 48.4792 108.474 48.5312 108.5ZM55.1875 108.547H56.5V116.82C56.5 117.565 56.349 118.201 56.0469 118.727C55.7448 119.253 55.3229 119.651 54.7812 119.922C54.2448 120.198 53.625 120.336 52.9219 120.336C52.6302 120.336 52.2865 120.289 51.8906 120.195C51.5 120.107 51.1146 119.953 50.7344 119.734C50.3594 119.521 50.0443 119.232 49.7891 118.867L50.5469 118.008C50.901 118.435 51.2708 118.732 51.6562 118.898C52.0469 119.065 52.4323 119.148 52.8125 119.148C53.2708 119.148 53.6667 119.062 54 118.891C54.3333 118.719 54.5911 118.464 54.7734 118.125C54.9609 117.792 55.0547 117.38 55.0547 116.891V110.406L55.1875 108.547ZM49.3672 112.867V112.703C49.3672 112.057 49.4427 111.471 49.5938 110.945C49.75 110.414 49.9714 109.958 50.2578 109.578C50.5495 109.198 50.901 108.906 51.3125 108.703C51.724 108.495 52.1875 108.391 52.7031 108.391C53.2344 108.391 53.6979 108.484 54.0938 108.672C54.4948 108.854 54.8333 109.122 55.1094 109.477C55.3906 109.826 55.612 110.247 55.7734 110.742C55.9349 111.237 56.0469 111.797 56.1094 112.422V113.141C56.0521 113.76 55.9401 114.318 55.7734 114.812C55.612 115.307 55.3906 115.729 55.1094 116.078C54.8333 116.427 54.4948 116.695 54.0938 116.883C53.6927 117.065 53.224 117.156 52.6875 117.156C52.1823 117.156 51.724 117.049 51.3125 116.836C50.9062 116.622 50.5573 116.323 50.2656 115.938C49.974 115.552 49.75 115.099 49.5938 114.578C49.4427 114.052 49.3672 113.482 49.3672 112.867ZM50.8125 112.703V112.867C50.8125 113.289 50.8542 113.685 50.9375 114.055C51.026 114.424 51.1589 114.75 51.3359 115.031C51.5182 115.312 51.75 115.534 52.0312 115.695C52.3125 115.852 52.6484 115.93 53.0391 115.93C53.5182 115.93 53.9141 115.828 54.2266 115.625C54.5391 115.422 54.7865 115.154 54.9688 114.82C55.1562 114.487 55.3021 114.125 55.4062 113.734V111.852C55.349 111.565 55.2604 111.289 55.1406 111.023C55.026 110.753 54.875 110.513 54.6875 110.305C54.5052 110.091 54.2786 109.922 54.0078 109.797C53.737 109.672 53.4193 109.609 53.0547 109.609C52.6589 109.609 52.3177 109.693 52.0312 109.859C51.75 110.021 51.5182 110.245 51.3359 110.531C51.1589 110.812 51.026 111.141 50.9375 111.516C50.8542 111.885 50.8125 112.281 50.8125 112.703ZM62.2031 117.156C61.6146 117.156 61.0807 117.057 60.6016 116.859C60.1276 116.656 59.7188 116.372 59.375 116.008C59.0365 115.643 58.776 115.211 58.5938 114.711C58.4115 114.211 58.3203 113.664 58.3203 113.07V112.742C58.3203 112.055 58.4219 111.443 58.625 110.906C58.8281 110.365 59.1042 109.906 59.4531 109.531C59.8021 109.156 60.1979 108.872 60.6406 108.68C61.0833 108.487 61.5417 108.391 62.0156 108.391C62.6198 108.391 63.1406 108.495 63.5781 108.703C64.0208 108.911 64.3828 109.203 64.6641 109.578C64.9453 109.948 65.1536 110.385 65.2891 110.891C65.4245 111.391 65.4922 111.938 65.4922 112.531V113.18H59.1797V112H64.0469V111.891C64.026 111.516 63.9479 111.151 63.8125 110.797C63.6823 110.443 63.474 110.151 63.1875 109.922C62.901 109.693 62.5104 109.578 62.0156 109.578C61.6875 109.578 61.3854 109.648 61.1094 109.789C60.8333 109.924 60.5964 110.128 60.3984 110.398C60.2005 110.669 60.0469 111 59.9375 111.391C59.8281 111.781 59.7734 112.232 59.7734 112.742V113.07C59.7734 113.471 59.8281 113.849 59.9375 114.203C60.0521 114.552 60.2161 114.859 60.4297 115.125C60.6484 115.391 60.9115 115.599 61.2188 115.75C61.5312 115.901 61.8854 115.977 62.2812 115.977C62.7917 115.977 63.224 115.872 63.5781 115.664C63.9323 115.456 64.2422 115.177 64.5078 114.828L65.3828 115.523C65.2005 115.799 64.9688 116.062 64.6875 116.312C64.4062 116.562 64.0599 116.766 63.6484 116.922C63.2422 117.078 62.7604 117.156 62.2031 117.156ZM68.625 110.352V117H67.1797V108.547H68.5469L68.625 110.352ZM68.2812 112.453L67.6797 112.43C67.6849 111.852 67.7708 111.318 67.9375 110.828C68.1042 110.333 68.3385 109.904 68.6406 109.539C68.9427 109.174 69.3021 108.893 69.7188 108.695C70.1406 108.492 70.6068 108.391 71.1172 108.391C71.5339 108.391 71.9089 108.448 72.2422 108.562C72.5755 108.672 72.8594 108.849 73.0938 109.094C73.3333 109.339 73.5156 109.656 73.6406 110.047C73.7656 110.432 73.8281 110.904 73.8281 111.461V117H72.375V111.445C72.375 111.003 72.3099 110.648 72.1797 110.383C72.0495 110.112 71.8594 109.917 71.6094 109.797C71.3594 109.672 71.0521 109.609 70.6875 109.609C70.3281 109.609 70 109.685 69.7031 109.836C69.4115 109.987 69.1589 110.195 68.9453 110.461C68.737 110.727 68.5729 111.031 68.4531 111.375C68.3385 111.714 68.2812 112.073 68.2812 112.453ZM79.5625 108.547V109.656H74.9922V108.547H79.5625ZM76.5391 106.492H77.9844V114.906C77.9844 115.193 78.0286 115.409 78.1172 115.555C78.2057 115.701 78.3203 115.797 78.4609 115.844C78.6016 115.891 78.7526 115.914 78.9141 115.914C79.0339 115.914 79.1589 115.904 79.2891 115.883C79.4245 115.857 79.526 115.836 79.5938 115.82L79.6016 117C79.487 117.036 79.3359 117.07 79.1484 117.102C78.9661 117.138 78.7448 117.156 78.4844 117.156C78.1302 117.156 77.8047 117.086 77.5078 116.945C77.2109 116.805 76.974 116.57 76.7969 116.242C76.625 115.909 76.5391 115.461 76.5391 114.898V106.492ZM82.8281 105V117H81.375V105H82.8281ZM87.5234 116.125L89.875 108.547H91.4219L88.0312 118.305C87.9531 118.513 87.849 118.737 87.7188 118.977C87.5938 119.221 87.4323 119.453 87.2344 119.672C87.0365 119.891 86.7969 120.068 86.5156 120.203C86.2396 120.344 85.9089 120.414 85.5234 120.414C85.4089 120.414 85.263 120.398 85.0859 120.367C84.9089 120.336 84.7839 120.31 84.7109 120.289L84.7031 119.117C84.7448 119.122 84.8099 119.128 84.8984 119.133C84.9922 119.143 85.0573 119.148 85.0938 119.148C85.4219 119.148 85.7005 119.104 85.9297 119.016C86.1589 118.932 86.3516 118.789 86.5078 118.586C86.6693 118.388 86.8073 118.115 86.9219 117.766L87.5234 116.125ZM85.7969 108.547L87.9922 115.109L88.3672 116.633L87.3281 117.164L84.2188 108.547H85.7969ZM98.1406 110.352V117H96.6953V108.547H98.0625L98.1406 110.352ZM97.7969 112.453L97.1953 112.43C97.2005 111.852 97.2865 111.318 97.4531 110.828C97.6198 110.333 97.8542 109.904 98.1562 109.539C98.4583 109.174 98.8177 108.893 99.2344 108.695C99.6562 108.492 100.122 108.391 100.633 108.391C101.049 108.391 101.424 108.448 101.758 108.562C102.091 108.672 102.375 108.849 102.609 109.094C102.849 109.339 103.031 109.656 103.156 110.047C103.281 110.432 103.344 110.904 103.344 111.461V117H101.891V111.445C101.891 111.003 101.826 110.648 101.695 110.383C101.565 110.112 101.375 109.917 101.125 109.797C100.875 109.672 100.568 109.609 100.203 109.609C99.8438 109.609 99.5156 109.685 99.2188 109.836C98.9271 109.987 98.6745 110.195 98.4609 110.461C98.2526 110.727 98.0885 111.031 97.9688 111.375C97.8542 111.714 97.7969 112.073 97.7969 112.453ZM109.047 117.156C108.458 117.156 107.924 117.057 107.445 116.859C106.971 116.656 106.562 116.372 106.219 116.008C105.88 115.643 105.62 115.211 105.438 114.711C105.255 114.211 105.164 113.664 105.164 113.07V112.742C105.164 112.055 105.266 111.443 105.469 110.906C105.672 110.365 105.948 109.906 106.297 109.531C106.646 109.156 107.042 108.872 107.484 108.68C107.927 108.487 108.385 108.391 108.859 108.391C109.464 108.391 109.984 108.495 110.422 108.703C110.865 108.911 111.227 109.203 111.508 109.578C111.789 109.948 111.997 110.385 112.133 110.891C112.268 111.391 112.336 111.938 112.336 112.531V113.18H106.023V112H110.891V111.891C110.87 111.516 110.792 111.151 110.656 110.797C110.526 110.443 110.318 110.151 110.031 109.922C109.745 109.693 109.354 109.578 108.859 109.578C108.531 109.578 108.229 109.648 107.953 109.789C107.677 109.924 107.44 110.128 107.242 110.398C107.044 110.669 106.891 111 106.781 111.391C106.672 111.781 106.617 112.232 106.617 112.742V113.07C106.617 113.471 106.672 113.849 106.781 114.203C106.896 114.552 107.06 114.859 107.273 115.125C107.492 115.391 107.755 115.599 108.062 115.75C108.375 115.901 108.729 115.977 109.125 115.977C109.635 115.977 110.068 115.872 110.422 115.664C110.776 115.456 111.086 115.177 111.352 114.828L112.227 115.523C112.044 115.799 111.812 116.062 111.531 116.312C111.25 116.562 110.904 116.766 110.492 116.922C110.086 117.078 109.604 117.156 109.047 117.156ZM117.531 117.156C116.943 117.156 116.409 117.057 115.93 116.859C115.456 116.656 115.047 116.372 114.703 116.008C114.365 115.643 114.104 115.211 113.922 114.711C113.74 114.211 113.648 113.664 113.648 113.07V112.742C113.648 112.055 113.75 111.443 113.953 110.906C114.156 110.365 114.432 109.906 114.781 109.531C115.13 109.156 115.526 108.872 115.969 108.68C116.411 108.487 116.87 108.391 117.344 108.391C117.948 108.391 118.469 108.495 118.906 108.703C119.349 108.911 119.711 109.203 119.992 109.578C120.273 109.948 120.482 110.385 120.617 110.891C120.753 111.391 120.82 111.938 120.82 112.531V113.18H114.508V112H119.375V111.891C119.354 111.516 119.276 111.151 119.141 110.797C119.01 110.443 118.802 110.151 118.516 109.922C118.229 109.693 117.839 109.578 117.344 109.578C117.016 109.578 116.714 109.648 116.438 109.789C116.161 109.924 115.924 110.128 115.727 110.398C115.529 110.669 115.375 111 115.266 111.391C115.156 111.781 115.102 112.232 115.102 112.742V113.07C115.102 113.471 115.156 113.849 115.266 114.203C115.38 114.552 115.544 114.859 115.758 115.125C115.977 115.391 116.24 115.599 116.547 115.75C116.859 115.901 117.214 115.977 117.609 115.977C118.12 115.977 118.552 115.872 118.906 115.664C119.26 115.456 119.57 115.177 119.836 114.828L120.711 115.523C120.529 115.799 120.297 116.062 120.016 116.312C119.734 116.562 119.388 116.766 118.977 116.922C118.57 117.078 118.089 117.156 117.531 117.156ZM127.836 115.359V105H129.289V117H127.961L127.836 115.359ZM122.148 112.867V112.703C122.148 112.057 122.227 111.471 122.383 110.945C122.544 110.414 122.771 109.958 123.062 109.578C123.359 109.198 123.711 108.906 124.117 108.703C124.529 108.495 124.987 108.391 125.492 108.391C126.023 108.391 126.487 108.484 126.883 108.672C127.284 108.854 127.622 109.122 127.898 109.477C128.18 109.826 128.401 110.247 128.562 110.742C128.724 111.237 128.836 111.797 128.898 112.422V113.141C128.841 113.76 128.729 114.318 128.562 114.812C128.401 115.307 128.18 115.729 127.898 116.078C127.622 116.427 127.284 116.695 126.883 116.883C126.482 117.065 126.013 117.156 125.477 117.156C124.982 117.156 124.529 117.049 124.117 116.836C123.711 116.622 123.359 116.323 123.062 115.938C122.771 115.552 122.544 115.099 122.383 114.578C122.227 114.052 122.148 113.482 122.148 112.867ZM123.602 112.703V112.867C123.602 113.289 123.643 113.685 123.727 114.055C123.815 114.424 123.951 114.75 124.133 115.031C124.315 115.312 124.547 115.534 124.828 115.695C125.109 115.852 125.445 115.93 125.836 115.93C126.315 115.93 126.708 115.828 127.016 115.625C127.328 115.422 127.578 115.154 127.766 114.82C127.953 114.487 128.099 114.125 128.203 113.734V111.852C128.141 111.565 128.049 111.289 127.93 111.023C127.815 110.753 127.664 110.513 127.477 110.305C127.294 110.091 127.068 109.922 126.797 109.797C126.531 109.672 126.216 109.609 125.852 109.609C125.456 109.609 125.115 109.693 124.828 109.859C124.547 110.021 124.315 110.245 124.133 110.531C123.951 110.812 123.815 111.141 123.727 111.516C123.643 111.885 123.602 112.281 123.602 112.703ZM135.047 117.156C134.458 117.156 133.924 117.057 133.445 116.859C132.971 116.656 132.562 116.372 132.219 116.008C131.88 115.643 131.62 115.211 131.438 114.711C131.255 114.211 131.164 113.664 131.164 113.07V112.742C131.164 112.055 131.266 111.443 131.469 110.906C131.672 110.365 131.948 109.906 132.297 109.531C132.646 109.156 133.042 108.872 133.484 108.68C133.927 108.487 134.385 108.391 134.859 108.391C135.464 108.391 135.984 108.495 136.422 108.703C136.865 108.911 137.227 109.203 137.508 109.578C137.789 109.948 137.997 110.385 138.133 110.891C138.268 111.391 138.336 111.938 138.336 112.531V113.18H132.023V112H136.891V111.891C136.87 111.516 136.792 111.151 136.656 110.797C136.526 110.443 136.318 110.151 136.031 109.922C135.745 109.693 135.354 109.578 134.859 109.578C134.531 109.578 134.229 109.648 133.953 109.789C133.677 109.924 133.44 110.128 133.242 110.398C133.044 110.669 132.891 111 132.781 111.391C132.672 111.781 132.617 112.232 132.617 112.742V113.07C132.617 113.471 132.672 113.849 132.781 114.203C132.896 114.552 133.06 114.859 133.273 115.125C133.492 115.391 133.755 115.599 134.062 115.75C134.375 115.901 134.729 115.977 135.125 115.977C135.635 115.977 136.068 115.872 136.422 115.664C136.776 115.456 137.086 115.177 137.352 114.828L138.227 115.523C138.044 115.799 137.812 116.062 137.531 116.312C137.25 116.562 136.904 116.766 136.492 116.922C136.086 117.078 135.604 117.156 135.047 117.156ZM145.352 115.359V105H146.805V117H145.477L145.352 115.359ZM139.664 112.867V112.703C139.664 112.057 139.742 111.471 139.898 110.945C140.06 110.414 140.286 109.958 140.578 109.578C140.875 109.198 141.227 108.906 141.633 108.703C142.044 108.495 142.503 108.391 143.008 108.391C143.539 108.391 144.003 108.484 144.398 108.672C144.799 108.854 145.138 109.122 145.414 109.477C145.695 109.826 145.917 110.247 146.078 110.742C146.24 111.237 146.352 111.797 146.414 112.422V113.141C146.357 113.76 146.245 114.318 146.078 114.812C145.917 115.307 145.695 115.729 145.414 116.078C145.138 116.427 144.799 116.695 144.398 116.883C143.997 117.065 143.529 117.156 142.992 117.156C142.497 117.156 142.044 117.049 141.633 116.836C141.227 116.622 140.875 116.323 140.578 115.938C140.286 115.552 140.06 115.099 139.898 114.578C139.742 114.052 139.664 113.482 139.664 112.867ZM141.117 112.703V112.867C141.117 113.289 141.159 113.685 141.242 114.055C141.331 114.424 141.466 114.75 141.648 115.031C141.831 115.312 142.062 115.534 142.344 115.695C142.625 115.852 142.961 115.93 143.352 115.93C143.831 115.93 144.224 115.828 144.531 115.625C144.844 115.422 145.094 115.154 145.281 114.82C145.469 114.487 145.615 114.125 145.719 113.734V111.852C145.656 111.565 145.565 111.289 145.445 111.023C145.331 110.753 145.18 110.513 144.992 110.305C144.81 110.091 144.583 109.922 144.312 109.797C144.047 109.672 143.732 109.609 143.367 109.609C142.971 109.609 142.63 109.693 142.344 109.859C142.062 110.021 141.831 110.245 141.648 110.531C141.466 110.812 141.331 111.141 141.242 111.516C141.159 111.885 141.117 112.281 141.117 112.703Z" fill="#FF5151"/>
</svg>
