<svg width="204" height="136" viewBox="0 0 204 136" fill="none" xmlns="http://www.w3.org/2000/svg">
<rect width="204" height="136" rx="10" fill="#E8F0FB"/>
<path d="M28.172 19.49V28.508C28.172 29.624 27.83 30.506 27.146 31.154C26.474 31.802 25.586 32.126 24.482 32.126C23.378 32.126 22.484 31.802 21.8 31.154C21.128 30.506 20.792 29.624 20.792 28.508H22.862C22.874 29.06 23.012 29.498 23.276 29.822C23.552 30.146 23.954 30.308 24.482 30.308C25.01 30.308 25.412 30.146 25.688 29.822C25.964 29.486 26.102 29.048 26.102 28.508V19.49H28.172ZM35.8122 32.162C34.8762 32.162 34.0302 31.952 33.2742 31.532C32.5182 31.1 31.9242 30.5 31.4922 29.732C31.0602 28.952 30.8442 28.052 30.8442 27.032C30.8442 26.024 31.0662 25.13 31.5102 24.35C31.9542 23.57 32.5602 22.97 33.3282 22.55C34.0962 22.13 34.9542 21.92 35.9022 21.92C36.8502 21.92 37.7082 22.13 38.4762 22.55C39.2442 22.97 39.8502 23.57 40.2942 24.35C40.7382 25.13 40.9602 26.024 40.9602 27.032C40.9602 28.04 40.7322 28.934 40.2762 29.714C39.8202 30.494 39.1962 31.1 38.4042 31.532C37.6242 31.952 36.7602 32.162 35.8122 32.162ZM35.8122 30.38C36.3402 30.38 36.8322 30.254 37.2882 30.002C37.7562 29.75 38.1342 29.372 38.4222 28.868C38.7102 28.364 38.8542 27.752 38.8542 27.032C38.8542 26.312 38.7162 25.706 38.4402 25.214C38.1642 24.71 37.7982 24.332 37.3422 24.08C36.8862 23.828 36.3942 23.702 35.8662 23.702C35.3382 23.702 34.8462 23.828 34.3902 24.08C33.9462 24.332 33.5922 24.71 33.3282 25.214C33.0642 25.706 32.9322 26.312 32.9322 27.032C32.9322 28.1 33.2022 28.928 33.7422 29.516C34.2942 30.092 34.9842 30.38 35.8122 30.38ZM45.0407 23.558C45.3887 23.078 45.8627 22.688 46.4627 22.388C47.0747 22.076 47.7527 21.92 48.4967 21.92C49.3727 21.92 50.1647 22.13 50.8727 22.55C51.5807 22.97 52.1387 23.57 52.5467 24.35C52.9547 25.118 53.1587 26 53.1587 26.996C53.1587 27.992 52.9547 28.886 52.5467 29.678C52.1387 30.458 51.5747 31.07 50.8547 31.514C50.1467 31.946 49.3607 32.162 48.4967 32.162C47.7287 32.162 47.0447 32.012 46.4447 31.712C45.8567 31.412 45.3887 31.028 45.0407 30.56V32H42.9887V18.68H45.0407V23.558ZM51.0707 26.996C51.0707 26.312 50.9267 25.724 50.6387 25.232C50.3627 24.728 49.9907 24.35 49.5227 24.098C49.0667 23.834 48.5747 23.702 48.0467 23.702C47.5307 23.702 47.0387 23.834 46.5707 24.098C46.1147 24.362 45.7427 24.746 45.4547 25.25C45.1787 25.754 45.0407 26.348 45.0407 27.032C45.0407 27.716 45.1787 28.316 45.4547 28.832C45.7427 29.336 46.1147 29.72 46.5707 29.984C47.0387 30.248 47.5307 30.38 48.0467 30.38C48.5747 30.38 49.0667 30.248 49.5227 29.984C49.9907 29.708 50.3627 29.312 50.6387 28.796C50.9267 28.28 51.0707 27.68 51.0707 26.996ZM65.5697 32.126C64.4057 32.126 63.3317 31.856 62.3477 31.316C61.3757 30.764 60.6017 30.002 60.0257 29.03C59.4617 28.046 59.1797 26.942 59.1797 25.718C59.1797 24.494 59.4617 23.396 60.0257 22.424C60.6017 21.452 61.3757 20.696 62.3477 20.156C63.3317 19.604 64.4057 19.328 65.5697 19.328C66.7457 19.328 67.8197 19.604 68.7917 20.156C69.7757 20.696 70.5497 21.452 71.1137 22.424C71.6777 23.396 71.9597 24.494 71.9597 25.718C71.9597 26.942 71.6777 28.046 71.1137 29.03C70.5497 30.002 69.7757 30.764 68.7917 31.316C67.8197 31.856 66.7457 32.126 65.5697 32.126ZM65.5697 30.344C66.3977 30.344 67.1357 30.158 67.7837 29.786C68.4317 29.402 68.9357 28.862 69.2957 28.166C69.6677 27.458 69.8537 26.642 69.8537 25.718C69.8537 24.794 69.6677 23.984 69.2957 23.288C68.9357 22.592 68.4317 22.058 67.7837 21.686C67.1357 21.314 66.3977 21.128 65.5697 21.128C64.7417 21.128 64.0037 21.314 63.3557 21.686C62.7077 22.058 62.1977 22.592 61.8257 23.288C61.4657 23.984 61.2857 24.794 61.2857 25.718C61.2857 26.642 61.4657 27.458 61.8257 28.166C62.1977 28.862 62.7077 29.402 63.3557 29.786C64.0037 30.158 64.7417 30.344 65.5697 30.344ZM76.0309 23.54C76.3789 23.084 76.8529 22.7 77.4529 22.388C78.0529 22.076 78.7309 21.92 79.4869 21.92C80.3509 21.92 81.1369 22.136 81.8449 22.568C82.5649 22.988 83.1289 23.582 83.5369 24.35C83.9449 25.118 84.1489 26 84.1489 26.996C84.1489 27.992 83.9449 28.886 83.5369 29.678C83.1289 30.458 82.5649 31.07 81.8449 31.514C81.1369 31.946 80.3509 32.162 79.4869 32.162C78.7309 32.162 78.0589 32.012 77.4709 31.712C76.8829 31.4 76.4029 31.016 76.0309 30.56V36.716H73.9789V22.082H76.0309V23.54ZM82.0609 26.996C82.0609 26.312 81.9169 25.724 81.6289 25.232C81.3529 24.728 80.9809 24.35 80.5129 24.098C80.0569 23.834 79.5649 23.702 79.0369 23.702C78.5209 23.702 78.0289 23.834 77.5609 24.098C77.1049 24.362 76.7329 24.746 76.4449 25.25C76.1689 25.754 76.0309 26.348 76.0309 27.032C76.0309 27.716 76.1689 28.316 76.4449 28.832C76.7329 29.336 77.1049 29.72 77.5609 29.984C78.0289 30.248 78.5209 30.38 79.0369 30.38C79.5649 30.38 80.0569 30.248 80.5129 29.984C80.9809 29.708 81.3529 29.312 81.6289 28.796C81.9169 28.28 82.0609 27.68 82.0609 26.996ZM95.2681 26.798C95.2681 27.17 95.2441 27.506 95.1961 27.806H87.6181C87.6781 28.598 87.9721 29.234 88.5001 29.714C89.0281 30.194 89.6761 30.434 90.4441 30.434C91.5481 30.434 92.3281 29.972 92.7841 29.048H94.9981C94.6981 29.96 94.1521 30.71 93.3601 31.298C92.5801 31.874 91.6081 32.162 90.4441 32.162C89.4961 32.162 88.6441 31.952 87.8881 31.532C87.1441 31.1 86.5561 30.5 86.1241 29.732C85.7041 28.952 85.4941 28.052 85.4941 27.032C85.4941 26.012 85.6981 25.118 86.1061 24.35C86.5261 23.57 87.1081 22.97 87.8521 22.55C88.6081 22.13 89.4721 21.92 90.4441 21.92C91.3801 21.92 92.2141 22.124 92.9461 22.532C93.6781 22.94 94.2481 23.516 94.6561 24.26C95.0641 24.992 95.2681 25.838 95.2681 26.798ZM93.1261 26.15C93.1141 25.394 92.8441 24.788 92.3161 24.332C91.7881 23.876 91.1341 23.648 90.3541 23.648C89.6461 23.648 89.0401 23.876 88.5361 24.332C88.0321 24.776 87.7321 25.382 87.6361 26.15H93.1261ZM102.292 21.92C103.072 21.92 103.768 22.082 104.38 22.406C105.004 22.73 105.49 23.21 105.838 23.846C106.186 24.482 106.36 25.25 106.36 26.15V32H104.326V26.456C104.326 25.568 104.104 24.89 103.66 24.422C103.216 23.942 102.61 23.702 101.842 23.702C101.074 23.702 100.462 23.942 100.006 24.422C99.5615 24.89 99.3395 25.568 99.3395 26.456V32H97.2875V22.082H99.3395V23.216C99.6755 22.808 100.102 22.49 100.618 22.262C101.146 22.034 101.704 21.92 102.292 21.92Z" fill="#161E54"/>
<path d="M28.172 19.49V28.508C28.172 29.624 27.83 30.506 27.146 31.154C26.474 31.802 25.586 32.126 24.482 32.126C23.378 32.126 22.484 31.802 21.8 31.154C21.128 30.506 20.792 29.624 20.792 28.508H22.862C22.874 29.06 23.012 29.498 23.276 29.822C23.552 30.146 23.954 30.308 24.482 30.308C25.01 30.308 25.412 30.146 25.688 29.822C25.964 29.486 26.102 29.048 26.102 28.508V19.49H28.172ZM35.8122 32.162C34.8762 32.162 34.0302 31.952 33.2742 31.532C32.5182 31.1 31.9242 30.5 31.4922 29.732C31.0602 28.952 30.8442 28.052 30.8442 27.032C30.8442 26.024 31.0662 25.13 31.5102 24.35C31.9542 23.57 32.5602 22.97 33.3282 22.55C34.0962 22.13 34.9542 21.92 35.9022 21.92C36.8502 21.92 37.7082 22.13 38.4762 22.55C39.2442 22.97 39.8502 23.57 40.2942 24.35C40.7382 25.13 40.9602 26.024 40.9602 27.032C40.9602 28.04 40.7322 28.934 40.2762 29.714C39.8202 30.494 39.1962 31.1 38.4042 31.532C37.6242 31.952 36.7602 32.162 35.8122 32.162ZM35.8122 30.38C36.3402 30.38 36.8322 30.254 37.2882 30.002C37.7562 29.75 38.1342 29.372 38.4222 28.868C38.7102 28.364 38.8542 27.752 38.8542 27.032C38.8542 26.312 38.7162 25.706 38.4402 25.214C38.1642 24.71 37.7982 24.332 37.3422 24.08C36.8862 23.828 36.3942 23.702 35.8662 23.702C35.3382 23.702 34.8462 23.828 34.3902 24.08C33.9462 24.332 33.5922 24.71 33.3282 25.214C33.0642 25.706 32.9322 26.312 32.9322 27.032C32.9322 28.1 33.2022 28.928 33.7422 29.516C34.2942 30.092 34.9842 30.38 35.8122 30.38ZM45.0407 23.558C45.3887 23.078 45.8627 22.688 46.4627 22.388C47.0747 22.076 47.7527 21.92 48.4967 21.92C49.3727 21.92 50.1647 22.13 50.8727 22.55C51.5807 22.97 52.1387 23.57 52.5467 24.35C52.9547 25.118 53.1587 26 53.1587 26.996C53.1587 27.992 52.9547 28.886 52.5467 29.678C52.1387 30.458 51.5747 31.07 50.8547 31.514C50.1467 31.946 49.3607 32.162 48.4967 32.162C47.7287 32.162 47.0447 32.012 46.4447 31.712C45.8567 31.412 45.3887 31.028 45.0407 30.56V32H42.9887V18.68H45.0407V23.558ZM51.0707 26.996C51.0707 26.312 50.9267 25.724 50.6387 25.232C50.3627 24.728 49.9907 24.35 49.5227 24.098C49.0667 23.834 48.5747 23.702 48.0467 23.702C47.5307 23.702 47.0387 23.834 46.5707 24.098C46.1147 24.362 45.7427 24.746 45.4547 25.25C45.1787 25.754 45.0407 26.348 45.0407 27.032C45.0407 27.716 45.1787 28.316 45.4547 28.832C45.7427 29.336 46.1147 29.72 46.5707 29.984C47.0387 30.248 47.5307 30.38 48.0467 30.38C48.5747 30.38 49.0667 30.248 49.5227 29.984C49.9907 29.708 50.3627 29.312 50.6387 28.796C50.9267 28.28 51.0707 27.68 51.0707 26.996ZM65.5697 32.126C64.4057 32.126 63.3317 31.856 62.3477 31.316C61.3757 30.764 60.6017 30.002 60.0257 29.03C59.4617 28.046 59.1797 26.942 59.1797 25.718C59.1797 24.494 59.4617 23.396 60.0257 22.424C60.6017 21.452 61.3757 20.696 62.3477 20.156C63.3317 19.604 64.4057 19.328 65.5697 19.328C66.7457 19.328 67.8197 19.604 68.7917 20.156C69.7757 20.696 70.5497 21.452 71.1137 22.424C71.6777 23.396 71.9597 24.494 71.9597 25.718C71.9597 26.942 71.6777 28.046 71.1137 29.03C70.5497 30.002 69.7757 30.764 68.7917 31.316C67.8197 31.856 66.7457 32.126 65.5697 32.126ZM65.5697 30.344C66.3977 30.344 67.1357 30.158 67.7837 29.786C68.4317 29.402 68.9357 28.862 69.2957 28.166C69.6677 27.458 69.8537 26.642 69.8537 25.718C69.8537 24.794 69.6677 23.984 69.2957 23.288C68.9357 22.592 68.4317 22.058 67.7837 21.686C67.1357 21.314 66.3977 21.128 65.5697 21.128C64.7417 21.128 64.0037 21.314 63.3557 21.686C62.7077 22.058 62.1977 22.592 61.8257 23.288C61.4657 23.984 61.2857 24.794 61.2857 25.718C61.2857 26.642 61.4657 27.458 61.8257 28.166C62.1977 28.862 62.7077 29.402 63.3557 29.786C64.0037 30.158 64.7417 30.344 65.5697 30.344ZM76.0309 23.54C76.3789 23.084 76.8529 22.7 77.4529 22.388C78.0529 22.076 78.7309 21.92 79.4869 21.92C80.3509 21.92 81.1369 22.136 81.8449 22.568C82.5649 22.988 83.1289 23.582 83.5369 24.35C83.9449 25.118 84.1489 26 84.1489 26.996C84.1489 27.992 83.9449 28.886 83.5369 29.678C83.1289 30.458 82.5649 31.07 81.8449 31.514C81.1369 31.946 80.3509 32.162 79.4869 32.162C78.7309 32.162 78.0589 32.012 77.4709 31.712C76.8829 31.4 76.4029 31.016 76.0309 30.56V36.716H73.9789V22.082H76.0309V23.54ZM82.0609 26.996C82.0609 26.312 81.9169 25.724 81.6289 25.232C81.3529 24.728 80.9809 24.35 80.5129 24.098C80.0569 23.834 79.5649 23.702 79.0369 23.702C78.5209 23.702 78.0289 23.834 77.5609 24.098C77.1049 24.362 76.7329 24.746 76.4449 25.25C76.1689 25.754 76.0309 26.348 76.0309 27.032C76.0309 27.716 76.1689 28.316 76.4449 28.832C76.7329 29.336 77.1049 29.72 77.5609 29.984C78.0289 30.248 78.5209 30.38 79.0369 30.38C79.5649 30.38 80.0569 30.248 80.5129 29.984C80.9809 29.708 81.3529 29.312 81.6289 28.796C81.9169 28.28 82.0609 27.68 82.0609 26.996ZM95.2681 26.798C95.2681 27.17 95.2441 27.506 95.1961 27.806H87.6181C87.6781 28.598 87.9721 29.234 88.5001 29.714C89.0281 30.194 89.6761 30.434 90.4441 30.434C91.5481 30.434 92.3281 29.972 92.7841 29.048H94.9981C94.6981 29.96 94.1521 30.71 93.3601 31.298C92.5801 31.874 91.6081 32.162 90.4441 32.162C89.4961 32.162 88.6441 31.952 87.8881 31.532C87.1441 31.1 86.5561 30.5 86.1241 29.732C85.7041 28.952 85.4941 28.052 85.4941 27.032C85.4941 26.012 85.6981 25.118 86.1061 24.35C86.5261 23.57 87.1081 22.97 87.8521 22.55C88.6081 22.13 89.4721 21.92 90.4441 21.92C91.3801 21.92 92.2141 22.124 92.9461 22.532C93.6781 22.94 94.2481 23.516 94.6561 24.26C95.0641 24.992 95.2681 25.838 95.2681 26.798ZM93.1261 26.15C93.1141 25.394 92.8441 24.788 92.3161 24.332C91.7881 23.876 91.1341 23.648 90.3541 23.648C89.6461 23.648 89.0401 23.876 88.5361 24.332C88.0321 24.776 87.7321 25.382 87.6361 26.15H93.1261ZM102.292 21.92C103.072 21.92 103.768 22.082 104.38 22.406C105.004 22.73 105.49 23.21 105.838 23.846C106.186 24.482 106.36 25.25 106.36 26.15V32H104.326V26.456C104.326 25.568 104.104 24.89 103.66 24.422C103.216 23.942 102.61 23.702 101.842 23.702C101.074 23.702 100.462 23.942 100.006 24.422C99.5615 24.89 99.3395 25.568 99.3395 26.456V32H97.2875V22.082H99.3395V23.216C99.6755 22.808 100.102 22.49 100.618 22.262C101.146 22.034 101.704 21.92 102.292 21.92Z" fill="black" fill-opacity="0.2"/>
<path d="M21.62 60.5V56.756H29.108V83H24.968V60.5H21.62ZM34.7459 69.536C34.7459 65.384 35.4419 62.144 36.8339 59.816C38.2499 57.464 40.6739 56.288 44.1059 56.288C47.5379 56.288 49.9499 57.464 51.3419 59.816C52.7579 62.144 53.4659 65.384 53.4659 69.536C53.4659 73.736 52.7579 77.024 51.3419 79.4C49.9499 81.752 47.5379 82.928 44.1059 82.928C40.6739 82.928 38.2499 81.752 36.8339 79.4C35.4419 77.024 34.7459 73.736 34.7459 69.536ZM49.4339 69.536C49.4339 67.592 49.3019 65.948 49.0379 64.604C48.7979 63.26 48.2939 62.168 47.5259 61.328C46.7579 60.464 45.6179 60.032 44.1059 60.032C42.5939 60.032 41.4539 60.464 40.6859 61.328C39.9179 62.168 39.4019 63.26 39.1379 64.604C38.8979 65.948 38.7779 67.592 38.7779 69.536C38.7779 71.552 38.8979 73.244 39.1379 74.612C39.3779 75.98 39.8819 77.084 40.6499 77.924C41.4419 78.764 42.5939 79.184 44.1059 79.184C45.6179 79.184 46.7579 78.764 47.5259 77.924C48.3179 77.084 48.8339 75.98 49.0739 74.612C49.3139 73.244 49.4339 71.552 49.4339 69.536Z" fill="#161E54"/>
<path d="M21.62 60.5V56.756H29.108V83H24.968V60.5H21.62ZM34.7459 69.536C34.7459 65.384 35.4419 62.144 36.8339 59.816C38.2499 57.464 40.6739 56.288 44.1059 56.288C47.5379 56.288 49.9499 57.464 51.3419 59.816C52.7579 62.144 53.4659 65.384 53.4659 69.536C53.4659 73.736 52.7579 77.024 51.3419 79.4C49.9499 81.752 47.5379 82.928 44.1059 82.928C40.6739 82.928 38.2499 81.752 36.8339 79.4C35.4419 77.024 34.7459 73.736 34.7459 69.536ZM49.4339 69.536C49.4339 67.592 49.3019 65.948 49.0379 64.604C48.7979 63.26 48.2939 62.168 47.5259 61.328C46.7579 60.464 45.6179 60.032 44.1059 60.032C42.5939 60.032 41.4539 60.464 40.6859 61.328C39.9179 62.168 39.4019 63.26 39.1379 64.604C38.8979 65.948 38.7779 67.592 38.7779 69.536C38.7779 71.552 38.8979 73.244 39.1379 74.612C39.3779 75.98 39.8819 77.084 40.6499 77.924C41.4419 78.764 42.5939 79.184 44.1059 79.184C45.6179 79.184 46.7579 78.764 47.5259 77.924C48.3179 77.084 48.8339 75.98 49.0739 74.612C49.3139 73.244 49.4339 71.552 49.4339 69.536Z" fill="black" fill-opacity="0.2"/>
<path d="M28.6328 113.172V114.359H20.4141V113.508L25.5078 105.625H26.6875L25.4219 107.906L22.0547 113.172H28.6328ZM27.0469 105.625V117H25.6016V105.625H27.0469ZM38.5 106.633L34.7344 117H33.1953L37.5312 105.625H38.5234L38.5 106.633ZM41.6562 117L37.8828 106.633L37.8594 105.625H38.8516L43.2031 117H41.6562ZM41.4609 112.789V114.023H35.0703V112.789H41.4609ZM47.8906 115.969C48.2344 115.969 48.5521 115.898 48.8438 115.758C49.1354 115.617 49.375 115.424 49.5625 115.18C49.75 114.93 49.8568 114.646 49.8828 114.328H51.2578C51.2318 114.828 51.0625 115.294 50.75 115.727C50.4427 116.154 50.0391 116.5 49.5391 116.766C49.0391 117.026 48.4896 117.156 47.8906 117.156C47.2552 117.156 46.7005 117.044 46.2266 116.82C45.7578 116.596 45.3672 116.289 45.0547 115.898C44.7474 115.508 44.5156 115.06 44.3594 114.555C44.2083 114.044 44.1328 113.505 44.1328 112.938V112.609C44.1328 112.042 44.2083 111.505 44.3594 111C44.5156 110.49 44.7474 110.039 45.0547 109.648C45.3672 109.258 45.7578 108.951 46.2266 108.727C46.7005 108.503 47.2552 108.391 47.8906 108.391C48.5521 108.391 49.1302 108.526 49.625 108.797C50.1198 109.062 50.5078 109.427 50.7891 109.891C51.0755 110.349 51.2318 110.87 51.2578 111.453H49.8828C49.8568 111.104 49.7578 110.789 49.5859 110.508C49.4193 110.227 49.1901 110.003 48.8984 109.836C48.612 109.664 48.276 109.578 47.8906 109.578C47.4479 109.578 47.0755 109.667 46.7734 109.844C46.4766 110.016 46.2396 110.25 46.0625 110.547C45.8906 110.839 45.7656 111.164 45.6875 111.523C45.6146 111.878 45.5781 112.24 45.5781 112.609V112.938C45.5781 113.307 45.6146 113.672 45.6875 114.031C45.7604 114.391 45.8828 114.716 46.0547 115.008C46.2318 115.299 46.4688 115.534 46.7656 115.711C47.0677 115.883 47.4427 115.969 47.8906 115.969ZM56.4219 108.547V109.656H51.8516V108.547H56.4219ZM53.3984 106.492H54.8438V114.906C54.8438 115.193 54.888 115.409 54.9766 115.555C55.0651 115.701 55.1797 115.797 55.3203 115.844C55.4609 115.891 55.612 115.914 55.7734 115.914C55.8932 115.914 56.0182 115.904 56.1484 115.883C56.2839 115.857 56.3854 115.836 56.4531 115.82L56.4609 117C56.3464 117.036 56.1953 117.07 56.0078 117.102C55.8255 117.138 55.6042 117.156 55.3438 117.156C54.9896 117.156 54.6641 117.086 54.3672 116.945C54.0703 116.805 53.8333 116.57 53.6562 116.242C53.4844 115.909 53.3984 115.461 53.3984 114.898V106.492ZM59.6875 108.547V117H58.2344V108.547H59.6875ZM58.125 106.305C58.125 106.07 58.1953 105.872 58.3359 105.711C58.4818 105.549 58.6953 105.469 58.9766 105.469C59.2526 105.469 59.4635 105.549 59.6094 105.711C59.7604 105.872 59.8359 106.07 59.8359 106.305C59.8359 106.529 59.7604 106.721 59.6094 106.883C59.4635 107.039 59.2526 107.117 58.9766 107.117C58.6953 107.117 58.4818 107.039 58.3359 106.883C58.1953 106.721 58.125 106.529 58.125 106.305ZM64.5781 115.695L66.8906 108.547H68.3672L65.3281 117H64.3594L64.5781 115.695ZM62.6484 108.547L65.0312 115.734L65.1953 117H64.2266L61.1641 108.547H62.6484ZM73.1562 117.156C72.5677 117.156 72.0339 117.057 71.5547 116.859C71.0807 116.656 70.6719 116.372 70.3281 116.008C69.9896 115.643 69.7292 115.211 69.5469 114.711C69.3646 114.211 69.2734 113.664 69.2734 113.07V112.742C69.2734 112.055 69.375 111.443 69.5781 110.906C69.7812 110.365 70.0573 109.906 70.4062 109.531C70.7552 109.156 71.151 108.872 71.5938 108.68C72.0365 108.487 72.4948 108.391 72.9688 108.391C73.5729 108.391 74.0938 108.495 74.5312 108.703C74.974 108.911 75.3359 109.203 75.6172 109.578C75.8984 109.948 76.1068 110.385 76.2422 110.891C76.3776 111.391 76.4453 111.938 76.4453 112.531V113.18H70.1328V112H75V111.891C74.9792 111.516 74.901 111.151 74.7656 110.797C74.6354 110.443 74.4271 110.151 74.1406 109.922C73.8542 109.693 73.4635 109.578 72.9688 109.578C72.6406 109.578 72.3385 109.648 72.0625 109.789C71.7865 109.924 71.5495 110.128 71.3516 110.398C71.1536 110.669 71 111 70.8906 111.391C70.7812 111.781 70.7266 112.232 70.7266 112.742V113.07C70.7266 113.471 70.7812 113.849 70.8906 114.203C71.0052 114.552 71.1693 114.859 71.3828 115.125C71.6016 115.391 71.8646 115.599 72.1719 115.75C72.4844 115.901 72.8385 115.977 73.2344 115.977C73.7448 115.977 74.1771 115.872 74.5312 115.664C74.8854 115.456 75.1953 115.177 75.4609 114.828L76.3359 115.523C76.1536 115.799 75.9219 116.062 75.6406 116.312C75.3594 116.562 75.013 116.766 74.6016 116.922C74.1953 117.078 73.7135 117.156 73.1562 117.156ZM83.5469 105V117H82.1016V105H83.5469ZM83.2031 112.453L82.6016 112.43C82.6068 111.852 82.6927 111.318 82.8594 110.828C83.026 110.333 83.2604 109.904 83.5625 109.539C83.8646 109.174 84.224 108.893 84.6406 108.695C85.0625 108.492 85.5286 108.391 86.0391 108.391C86.4557 108.391 86.8307 108.448 87.1641 108.562C87.4974 108.672 87.7812 108.849 88.0156 109.094C88.2552 109.339 88.4375 109.656 88.5625 110.047C88.6875 110.432 88.75 110.904 88.75 111.461V117H87.2969V111.445C87.2969 111.003 87.2318 110.648 87.1016 110.383C86.9714 110.112 86.7812 109.917 86.5312 109.797C86.2812 109.672 85.974 109.609 85.6094 109.609C85.25 109.609 84.9219 109.685 84.625 109.836C84.3333 109.987 84.0807 110.195 83.8672 110.461C83.6589 110.727 83.4948 111.031 83.375 111.375C83.2604 111.714 83.2031 112.073 83.2031 112.453ZM92.4844 108.547V117H91.0312V108.547H92.4844ZM90.9219 106.305C90.9219 106.07 90.9922 105.872 91.1328 105.711C91.2786 105.549 91.4922 105.469 91.7734 105.469C92.0495 105.469 92.2604 105.549 92.4062 105.711C92.5573 105.872 92.6328 106.07 92.6328 106.305C92.6328 106.529 92.5573 106.721 92.4062 106.883C92.2604 107.039 92.0495 107.117 91.7734 107.117C91.4922 107.117 91.2786 107.039 91.1328 106.883C90.9922 106.721 90.9219 106.529 90.9219 106.305ZM96.25 109.875V117H94.8047V108.547H96.2109L96.25 109.875ZM98.8906 108.5L98.8828 109.844C98.763 109.818 98.6484 109.802 98.5391 109.797C98.4349 109.786 98.3151 109.781 98.1797 109.781C97.8464 109.781 97.5521 109.833 97.2969 109.938C97.0417 110.042 96.8255 110.188 96.6484 110.375C96.4714 110.562 96.3307 110.786 96.2266 111.047C96.1276 111.302 96.0625 111.583 96.0312 111.891L95.625 112.125C95.625 111.615 95.6745 111.135 95.7734 110.688C95.8776 110.24 96.0365 109.844 96.25 109.5C96.4635 109.151 96.7344 108.88 97.0625 108.688C97.3958 108.49 97.7917 108.391 98.25 108.391C98.3542 108.391 98.474 108.404 98.6094 108.43C98.7448 108.451 98.8385 108.474 98.8906 108.5ZM101.797 108.547V117H100.344V108.547H101.797ZM100.234 106.305C100.234 106.07 100.305 105.872 100.445 105.711C100.591 105.549 100.805 105.469 101.086 105.469C101.362 105.469 101.573 105.549 101.719 105.711C101.87 105.872 101.945 106.07 101.945 106.305C101.945 106.529 101.87 106.721 101.719 106.883C101.573 107.039 101.362 107.117 101.086 107.117C100.805 107.117 100.591 107.039 100.445 106.883C100.305 106.721 100.234 106.529 100.234 106.305ZM105.562 110.352V117H104.117V108.547H105.484L105.562 110.352ZM105.219 112.453L104.617 112.43C104.622 111.852 104.708 111.318 104.875 110.828C105.042 110.333 105.276 109.904 105.578 109.539C105.88 109.174 106.24 108.893 106.656 108.695C107.078 108.492 107.544 108.391 108.055 108.391C108.471 108.391 108.846 108.448 109.18 108.562C109.513 108.672 109.797 108.849 110.031 109.094C110.271 109.339 110.453 109.656 110.578 110.047C110.703 110.432 110.766 110.904 110.766 111.461V117H109.312V111.445C109.312 111.003 109.247 110.648 109.117 110.383C108.987 110.112 108.797 109.917 108.547 109.797C108.297 109.672 107.99 109.609 107.625 109.609C107.266 109.609 106.938 109.685 106.641 109.836C106.349 109.987 106.096 110.195 105.883 110.461C105.674 110.727 105.51 111.031 105.391 111.375C105.276 111.714 105.219 112.073 105.219 112.453ZM118.438 108.547H119.75V116.82C119.75 117.565 119.599 118.201 119.297 118.727C118.995 119.253 118.573 119.651 118.031 119.922C117.495 120.198 116.875 120.336 116.172 120.336C115.88 120.336 115.536 120.289 115.141 120.195C114.75 120.107 114.365 119.953 113.984 119.734C113.609 119.521 113.294 119.232 113.039 118.867L113.797 118.008C114.151 118.435 114.521 118.732 114.906 118.898C115.297 119.065 115.682 119.148 116.062 119.148C116.521 119.148 116.917 119.062 117.25 118.891C117.583 118.719 117.841 118.464 118.023 118.125C118.211 117.792 118.305 117.38 118.305 116.891V110.406L118.438 108.547ZM112.617 112.867V112.703C112.617 112.057 112.693 111.471 112.844 110.945C113 110.414 113.221 109.958 113.508 109.578C113.799 109.198 114.151 108.906 114.562 108.703C114.974 108.495 115.438 108.391 115.953 108.391C116.484 108.391 116.948 108.484 117.344 108.672C117.745 108.854 118.083 109.122 118.359 109.477C118.641 109.826 118.862 110.247 119.023 110.742C119.185 111.237 119.297 111.797 119.359 112.422V113.141C119.302 113.76 119.19 114.318 119.023 114.812C118.862 115.307 118.641 115.729 118.359 116.078C118.083 116.427 117.745 116.695 117.344 116.883C116.943 117.065 116.474 117.156 115.938 117.156C115.432 117.156 114.974 117.049 114.562 116.836C114.156 116.622 113.807 116.323 113.516 115.938C113.224 115.552 113 115.099 112.844 114.578C112.693 114.052 112.617 113.482 112.617 112.867ZM114.062 112.703V112.867C114.062 113.289 114.104 113.685 114.188 114.055C114.276 114.424 114.409 114.75 114.586 115.031C114.768 115.312 115 115.534 115.281 115.695C115.562 115.852 115.898 115.93 116.289 115.93C116.768 115.93 117.164 115.828 117.477 115.625C117.789 115.422 118.036 115.154 118.219 114.82C118.406 114.487 118.552 114.125 118.656 113.734V111.852C118.599 111.565 118.51 111.289 118.391 111.023C118.276 110.753 118.125 110.513 117.938 110.305C117.755 110.091 117.529 109.922 117.258 109.797C116.987 109.672 116.669 109.609 116.305 109.609C115.909 109.609 115.568 109.693 115.281 109.859C115 110.021 114.768 110.245 114.586 110.531C114.409 110.812 114.276 111.141 114.188 111.516C114.104 111.885 114.062 112.281 114.062 112.703Z" fill="#3786F1"/>
</svg>
