<svg width="204" height="136" viewBox="0 0 204 136" fill="none" xmlns="http://www.w3.org/2000/svg">
<rect width="204" height="136" rx="10" fill="#FDEBF9"/>
<path d="M31.628 32H29.576L23.402 22.658V32H21.35V19.472H23.402L29.576 28.796V19.472H31.628V32ZM43.4127 26.798C43.4127 27.17 43.3887 27.506 43.3407 27.806H35.7627C35.8227 28.598 36.1167 29.234 36.6447 29.714C37.1727 30.194 37.8207 30.434 38.5887 30.434C39.6927 30.434 40.4727 29.972 40.9287 29.048H43.1427C42.8427 29.96 42.2967 30.71 41.5047 31.298C40.7247 31.874 39.7527 32.162 38.5887 32.162C37.6407 32.162 36.7887 31.952 36.0327 31.532C35.2887 31.1 34.7007 30.5 34.2687 29.732C33.8487 28.952 33.6387 28.052 33.6387 27.032C33.6387 26.012 33.8427 25.118 34.2507 24.35C34.6707 23.57 35.2527 22.97 35.9967 22.55C36.7527 22.13 37.6167 21.92 38.5887 21.92C39.5247 21.92 40.3587 22.124 41.0907 22.532C41.8227 22.94 42.3927 23.516 42.8007 24.26C43.2087 24.992 43.4127 25.838 43.4127 26.798ZM41.2707 26.15C41.2587 25.394 40.9887 24.788 40.4607 24.332C39.9327 23.876 39.2787 23.648 38.4987 23.648C37.7907 23.648 37.1847 23.876 36.6807 24.332C36.1767 24.776 35.8767 25.382 35.7807 26.15H41.2707ZM58.752 22.082L55.674 32H53.514L51.516 24.674L49.518 32H47.358L44.262 22.082H46.35L48.42 30.056L50.526 22.082H52.668L54.684 30.02L56.736 22.082H58.752ZM67.0133 21.146V24.818H71.3333V26.492H67.0133V30.326H71.8733V32H64.9613V19.472H71.8733V21.146H67.0133ZM86.4068 21.92C87.1868 21.92 87.8828 22.082 88.4948 22.406C89.1188 22.73 89.6048 23.21 89.9528 23.846C90.3128 24.482 90.4928 25.25 90.4928 26.15V32H88.4588V26.456C88.4588 25.568 88.2368 24.89 87.7928 24.422C87.3488 23.942 86.7428 23.702 85.9748 23.702C85.2068 23.702 84.5948 23.942 84.1388 24.422C83.6948 24.89 83.4728 25.568 83.4728 26.456V32H81.4388V26.456C81.4388 25.568 81.2168 24.89 80.7728 24.422C80.3288 23.942 79.7228 23.702 78.9548 23.702C78.1868 23.702 77.5748 23.942 77.1188 24.422C76.6748 24.89 76.4528 25.568 76.4528 26.456V32H74.4008V22.082H76.4528V23.216C76.7888 22.808 77.2148 22.49 77.7308 22.262C78.2468 22.034 78.7988 21.92 79.3868 21.92C80.1788 21.92 80.8868 22.088 81.5108 22.424C82.1348 22.76 82.6148 23.246 82.9508 23.882C83.2508 23.282 83.7188 22.808 84.3548 22.46C84.9908 22.1 85.6748 21.92 86.4068 21.92ZM95.1559 23.54C95.5039 23.084 95.9779 22.7 96.5779 22.388C97.1779 22.076 97.8559 21.92 98.6119 21.92C99.4759 21.92 100.262 22.136 100.97 22.568C101.69 22.988 102.254 23.582 102.662 24.35C103.07 25.118 103.274 26 103.274 26.996C103.274 27.992 103.07 28.886 102.662 29.678C102.254 30.458 101.69 31.07 100.97 31.514C100.262 31.946 99.4759 32.162 98.6119 32.162C97.8559 32.162 97.1839 32.012 96.5959 31.712C96.0079 31.4 95.5279 31.016 95.1559 30.56V36.716H93.1039V22.082H95.1559V23.54ZM101.186 26.996C101.186 26.312 101.042 25.724 100.754 25.232C100.478 24.728 100.106 24.35 99.6379 24.098C99.1819 23.834 98.6899 23.702 98.1619 23.702C97.6459 23.702 97.1539 23.834 96.6859 24.098C96.2299 24.362 95.8579 24.746 95.5699 25.25C95.2939 25.754 95.1559 26.348 95.1559 27.032C95.1559 27.716 95.2939 28.316 95.5699 28.832C95.8579 29.336 96.2299 29.72 96.6859 29.984C97.1539 30.248 97.6459 30.38 98.1619 30.38C98.6899 30.38 99.1819 30.248 99.6379 29.984C100.106 29.708 100.478 29.312 100.754 28.796C101.042 28.28 101.186 27.68 101.186 26.996ZM107.355 18.68V32H105.303V18.68H107.355ZM114.351 32.162C113.415 32.162 112.569 31.952 111.813 31.532C111.057 31.1 110.463 30.5 110.031 29.732C109.599 28.952 109.383 28.052 109.383 27.032C109.383 26.024 109.605 25.13 110.049 24.35C110.493 23.57 111.099 22.97 111.867 22.55C112.635 22.13 113.493 21.92 114.441 21.92C115.389 21.92 116.247 22.13 117.015 22.55C117.783 22.97 118.389 23.57 118.833 24.35C119.277 25.13 119.499 26.024 119.499 27.032C119.499 28.04 119.271 28.934 118.815 29.714C118.359 30.494 117.735 31.1 116.943 31.532C116.163 31.952 115.299 32.162 114.351 32.162ZM114.351 30.38C114.879 30.38 115.371 30.254 115.827 30.002C116.295 29.75 116.673 29.372 116.961 28.868C117.249 28.364 117.393 27.752 117.393 27.032C117.393 26.312 117.255 25.706 116.979 25.214C116.703 24.71 116.337 24.332 115.881 24.08C115.425 23.828 114.933 23.702 114.405 23.702C113.877 23.702 113.385 23.828 112.929 24.08C112.485 24.332 112.131 24.71 111.867 25.214C111.603 25.706 111.471 26.312 111.471 27.032C111.471 28.1 111.741 28.928 112.281 29.516C112.833 30.092 113.523 30.38 114.351 30.38ZM130.456 22.082L124.372 36.662H122.248L124.264 31.838L120.358 22.082H122.644L125.434 29.642L128.332 22.082H130.456ZM141.094 26.798C141.094 27.17 141.07 27.506 141.022 27.806H133.444C133.504 28.598 133.798 29.234 134.326 29.714C134.854 30.194 135.502 30.434 136.27 30.434C137.374 30.434 138.154 29.972 138.61 29.048H140.824C140.524 29.96 139.978 30.71 139.186 31.298C138.406 31.874 137.434 32.162 136.27 32.162C135.322 32.162 134.47 31.952 133.714 31.532C132.97 31.1 132.382 30.5 131.95 29.732C131.53 28.952 131.32 28.052 131.32 27.032C131.32 26.012 131.524 25.118 131.932 24.35C132.352 23.57 132.934 22.97 133.678 22.55C134.434 22.13 135.298 21.92 136.27 21.92C137.206 21.92 138.04 22.124 138.772 22.532C139.504 22.94 140.074 23.516 140.482 24.26C140.89 24.992 141.094 25.838 141.094 26.798ZM138.952 26.15C138.94 25.394 138.67 24.788 138.142 24.332C137.614 23.876 136.96 23.648 136.18 23.648C135.472 23.648 134.866 23.876 134.362 24.332C133.858 24.776 133.558 25.382 133.462 26.15H138.952ZM152.204 26.798C152.204 27.17 152.18 27.506 152.132 27.806H144.554C144.614 28.598 144.908 29.234 145.436 29.714C145.964 30.194 146.612 30.434 147.38 30.434C148.484 30.434 149.264 29.972 149.72 29.048H151.934C151.634 29.96 151.088 30.71 150.296 31.298C149.516 31.874 148.544 32.162 147.38 32.162C146.432 32.162 145.58 31.952 144.824 31.532C144.08 31.1 143.492 30.5 143.06 29.732C142.64 28.952 142.43 28.052 142.43 27.032C142.43 26.012 142.634 25.118 143.042 24.35C143.462 23.57 144.044 22.97 144.788 22.55C145.544 22.13 146.408 21.92 147.38 21.92C148.316 21.92 149.15 22.124 149.882 22.532C150.614 22.94 151.184 23.516 151.592 24.26C152 24.992 152.204 25.838 152.204 26.798ZM150.062 26.15C150.05 25.394 149.78 24.788 149.252 24.332C148.724 23.876 148.07 23.648 147.29 23.648C146.582 23.648 145.976 23.876 145.472 24.332C144.968 24.776 144.668 25.382 144.572 26.15H150.062ZM157.823 32.162C157.043 32.162 156.341 32.024 155.717 31.748C155.105 31.46 154.619 31.076 154.259 30.596C153.899 30.104 153.707 29.558 153.683 28.958H155.807C155.843 29.378 156.041 29.732 156.401 30.02C156.773 30.296 157.235 30.434 157.787 30.434C158.363 30.434 158.807 30.326 159.119 30.11C159.443 29.882 159.605 29.594 159.605 29.246C159.605 28.874 159.425 28.598 159.065 28.418C158.717 28.238 158.159 28.04 157.391 27.824C156.647 27.62 156.041 27.422 155.573 27.23C155.105 27.038 154.697 26.744 154.349 26.348C154.013 25.952 153.845 25.43 153.845 24.782C153.845 24.254 154.001 23.774 154.313 23.342C154.625 22.898 155.069 22.55 155.645 22.298C156.233 22.046 156.905 21.92 157.661 21.92C158.789 21.92 159.695 22.208 160.379 22.784C161.075 23.348 161.447 24.122 161.495 25.106H159.443C159.407 24.662 159.227 24.308 158.903 24.044C158.579 23.78 158.141 23.648 157.589 23.648C157.049 23.648 156.635 23.75 156.347 23.954C156.059 24.158 155.915 24.428 155.915 24.764C155.915 25.028 156.011 25.25 156.203 25.43C156.395 25.61 156.629 25.754 156.905 25.862C157.181 25.958 157.589 26.084 158.129 26.24C158.849 26.432 159.437 26.63 159.893 26.834C160.361 27.026 160.763 27.314 161.099 27.698C161.435 28.082 161.609 28.592 161.621 29.228C161.621 29.792 161.465 30.296 161.153 30.74C160.841 31.184 160.397 31.532 159.821 31.784C159.257 32.036 158.591 32.162 157.823 32.162Z" fill="#161E54"/>
<path d="M31.628 32H29.576L23.402 22.658V32H21.35V19.472H23.402L29.576 28.796V19.472H31.628V32ZM43.4127 26.798C43.4127 27.17 43.3887 27.506 43.3407 27.806H35.7627C35.8227 28.598 36.1167 29.234 36.6447 29.714C37.1727 30.194 37.8207 30.434 38.5887 30.434C39.6927 30.434 40.4727 29.972 40.9287 29.048H43.1427C42.8427 29.96 42.2967 30.71 41.5047 31.298C40.7247 31.874 39.7527 32.162 38.5887 32.162C37.6407 32.162 36.7887 31.952 36.0327 31.532C35.2887 31.1 34.7007 30.5 34.2687 29.732C33.8487 28.952 33.6387 28.052 33.6387 27.032C33.6387 26.012 33.8427 25.118 34.2507 24.35C34.6707 23.57 35.2527 22.97 35.9967 22.55C36.7527 22.13 37.6167 21.92 38.5887 21.92C39.5247 21.92 40.3587 22.124 41.0907 22.532C41.8227 22.94 42.3927 23.516 42.8007 24.26C43.2087 24.992 43.4127 25.838 43.4127 26.798ZM41.2707 26.15C41.2587 25.394 40.9887 24.788 40.4607 24.332C39.9327 23.876 39.2787 23.648 38.4987 23.648C37.7907 23.648 37.1847 23.876 36.6807 24.332C36.1767 24.776 35.8767 25.382 35.7807 26.15H41.2707ZM58.752 22.082L55.674 32H53.514L51.516 24.674L49.518 32H47.358L44.262 22.082H46.35L48.42 30.056L50.526 22.082H52.668L54.684 30.02L56.736 22.082H58.752ZM67.0133 21.146V24.818H71.3333V26.492H67.0133V30.326H71.8733V32H64.9613V19.472H71.8733V21.146H67.0133ZM86.4068 21.92C87.1868 21.92 87.8828 22.082 88.4948 22.406C89.1188 22.73 89.6048 23.21 89.9528 23.846C90.3128 24.482 90.4928 25.25 90.4928 26.15V32H88.4588V26.456C88.4588 25.568 88.2368 24.89 87.7928 24.422C87.3488 23.942 86.7428 23.702 85.9748 23.702C85.2068 23.702 84.5948 23.942 84.1388 24.422C83.6948 24.89 83.4728 25.568 83.4728 26.456V32H81.4388V26.456C81.4388 25.568 81.2168 24.89 80.7728 24.422C80.3288 23.942 79.7228 23.702 78.9548 23.702C78.1868 23.702 77.5748 23.942 77.1188 24.422C76.6748 24.89 76.4528 25.568 76.4528 26.456V32H74.4008V22.082H76.4528V23.216C76.7888 22.808 77.2148 22.49 77.7308 22.262C78.2468 22.034 78.7988 21.92 79.3868 21.92C80.1788 21.92 80.8868 22.088 81.5108 22.424C82.1348 22.76 82.6148 23.246 82.9508 23.882C83.2508 23.282 83.7188 22.808 84.3548 22.46C84.9908 22.1 85.6748 21.92 86.4068 21.92ZM95.1559 23.54C95.5039 23.084 95.9779 22.7 96.5779 22.388C97.1779 22.076 97.8559 21.92 98.6119 21.92C99.4759 21.92 100.262 22.136 100.97 22.568C101.69 22.988 102.254 23.582 102.662 24.35C103.07 25.118 103.274 26 103.274 26.996C103.274 27.992 103.07 28.886 102.662 29.678C102.254 30.458 101.69 31.07 100.97 31.514C100.262 31.946 99.4759 32.162 98.6119 32.162C97.8559 32.162 97.1839 32.012 96.5959 31.712C96.0079 31.4 95.5279 31.016 95.1559 30.56V36.716H93.1039V22.082H95.1559V23.54ZM101.186 26.996C101.186 26.312 101.042 25.724 100.754 25.232C100.478 24.728 100.106 24.35 99.6379 24.098C99.1819 23.834 98.6899 23.702 98.1619 23.702C97.6459 23.702 97.1539 23.834 96.6859 24.098C96.2299 24.362 95.8579 24.746 95.5699 25.25C95.2939 25.754 95.1559 26.348 95.1559 27.032C95.1559 27.716 95.2939 28.316 95.5699 28.832C95.8579 29.336 96.2299 29.72 96.6859 29.984C97.1539 30.248 97.6459 30.38 98.1619 30.38C98.6899 30.38 99.1819 30.248 99.6379 29.984C100.106 29.708 100.478 29.312 100.754 28.796C101.042 28.28 101.186 27.68 101.186 26.996ZM107.355 18.68V32H105.303V18.68H107.355ZM114.351 32.162C113.415 32.162 112.569 31.952 111.813 31.532C111.057 31.1 110.463 30.5 110.031 29.732C109.599 28.952 109.383 28.052 109.383 27.032C109.383 26.024 109.605 25.13 110.049 24.35C110.493 23.57 111.099 22.97 111.867 22.55C112.635 22.13 113.493 21.92 114.441 21.92C115.389 21.92 116.247 22.13 117.015 22.55C117.783 22.97 118.389 23.57 118.833 24.35C119.277 25.13 119.499 26.024 119.499 27.032C119.499 28.04 119.271 28.934 118.815 29.714C118.359 30.494 117.735 31.1 116.943 31.532C116.163 31.952 115.299 32.162 114.351 32.162ZM114.351 30.38C114.879 30.38 115.371 30.254 115.827 30.002C116.295 29.75 116.673 29.372 116.961 28.868C117.249 28.364 117.393 27.752 117.393 27.032C117.393 26.312 117.255 25.706 116.979 25.214C116.703 24.71 116.337 24.332 115.881 24.08C115.425 23.828 114.933 23.702 114.405 23.702C113.877 23.702 113.385 23.828 112.929 24.08C112.485 24.332 112.131 24.71 111.867 25.214C111.603 25.706 111.471 26.312 111.471 27.032C111.471 28.1 111.741 28.928 112.281 29.516C112.833 30.092 113.523 30.38 114.351 30.38ZM130.456 22.082L124.372 36.662H122.248L124.264 31.838L120.358 22.082H122.644L125.434 29.642L128.332 22.082H130.456ZM141.094 26.798C141.094 27.17 141.07 27.506 141.022 27.806H133.444C133.504 28.598 133.798 29.234 134.326 29.714C134.854 30.194 135.502 30.434 136.27 30.434C137.374 30.434 138.154 29.972 138.61 29.048H140.824C140.524 29.96 139.978 30.71 139.186 31.298C138.406 31.874 137.434 32.162 136.27 32.162C135.322 32.162 134.47 31.952 133.714 31.532C132.97 31.1 132.382 30.5 131.95 29.732C131.53 28.952 131.32 28.052 131.32 27.032C131.32 26.012 131.524 25.118 131.932 24.35C132.352 23.57 132.934 22.97 133.678 22.55C134.434 22.13 135.298 21.92 136.27 21.92C137.206 21.92 138.04 22.124 138.772 22.532C139.504 22.94 140.074 23.516 140.482 24.26C140.89 24.992 141.094 25.838 141.094 26.798ZM138.952 26.15C138.94 25.394 138.67 24.788 138.142 24.332C137.614 23.876 136.96 23.648 136.18 23.648C135.472 23.648 134.866 23.876 134.362 24.332C133.858 24.776 133.558 25.382 133.462 26.15H138.952ZM152.204 26.798C152.204 27.17 152.18 27.506 152.132 27.806H144.554C144.614 28.598 144.908 29.234 145.436 29.714C145.964 30.194 146.612 30.434 147.38 30.434C148.484 30.434 149.264 29.972 149.72 29.048H151.934C151.634 29.96 151.088 30.71 150.296 31.298C149.516 31.874 148.544 32.162 147.38 32.162C146.432 32.162 145.58 31.952 144.824 31.532C144.08 31.1 143.492 30.5 143.06 29.732C142.64 28.952 142.43 28.052 142.43 27.032C142.43 26.012 142.634 25.118 143.042 24.35C143.462 23.57 144.044 22.97 144.788 22.55C145.544 22.13 146.408 21.92 147.38 21.92C148.316 21.92 149.15 22.124 149.882 22.532C150.614 22.94 151.184 23.516 151.592 24.26C152 24.992 152.204 25.838 152.204 26.798ZM150.062 26.15C150.05 25.394 149.78 24.788 149.252 24.332C148.724 23.876 148.07 23.648 147.29 23.648C146.582 23.648 145.976 23.876 145.472 24.332C144.968 24.776 144.668 25.382 144.572 26.15H150.062ZM157.823 32.162C157.043 32.162 156.341 32.024 155.717 31.748C155.105 31.46 154.619 31.076 154.259 30.596C153.899 30.104 153.707 29.558 153.683 28.958H155.807C155.843 29.378 156.041 29.732 156.401 30.02C156.773 30.296 157.235 30.434 157.787 30.434C158.363 30.434 158.807 30.326 159.119 30.11C159.443 29.882 159.605 29.594 159.605 29.246C159.605 28.874 159.425 28.598 159.065 28.418C158.717 28.238 158.159 28.04 157.391 27.824C156.647 27.62 156.041 27.422 155.573 27.23C155.105 27.038 154.697 26.744 154.349 26.348C154.013 25.952 153.845 25.43 153.845 24.782C153.845 24.254 154.001 23.774 154.313 23.342C154.625 22.898 155.069 22.55 155.645 22.298C156.233 22.046 156.905 21.92 157.661 21.92C158.789 21.92 159.695 22.208 160.379 22.784C161.075 23.348 161.447 24.122 161.495 25.106H159.443C159.407 24.662 159.227 24.308 158.903 24.044C158.579 23.78 158.141 23.648 157.589 23.648C157.049 23.648 156.635 23.75 156.347 23.954C156.059 24.158 155.915 24.428 155.915 24.764C155.915 25.028 156.011 25.25 156.203 25.43C156.395 25.61 156.629 25.754 156.905 25.862C157.181 25.958 157.589 26.084 158.129 26.24C158.849 26.432 159.437 26.63 159.893 26.834C160.361 27.026 160.763 27.314 161.099 27.698C161.435 28.082 161.609 28.592 161.621 29.228C161.621 29.792 161.465 30.296 161.153 30.74C160.841 31.184 160.397 31.532 159.821 31.784C159.257 32.036 158.591 32.162 157.823 32.162Z" fill="black" fill-opacity="0.2"/>
<path d="M24.428 77.42C26.732 75.428 28.544 73.796 29.864 72.524C31.208 71.228 32.324 69.884 33.212 68.492C34.1 67.1 34.544 65.708 34.544 64.316C34.544 62.876 34.196 61.748 33.5 60.932C32.828 60.116 31.76 59.708 30.296 59.708C28.88 59.708 27.776 60.164 26.984 61.076C26.216 61.964 25.808 63.164 25.76 64.676H21.8C21.872 61.94 22.688 59.852 24.248 58.412C25.832 56.948 27.836 56.216 30.26 56.216C32.876 56.216 34.916 56.936 36.38 58.376C37.868 59.816 38.612 61.736 38.612 64.136C38.612 65.864 38.168 67.532 37.28 69.14C36.416 70.724 35.372 72.152 34.148 73.424C32.948 74.672 31.412 76.124 29.54 77.78L27.92 79.22H39.332V82.64H21.836V79.652L24.428 77.42ZM42.4333 77.528V74.432L54.5293 57.08H59.4973V73.964H62.8453V77.528H59.4973V83H55.4653V77.528H42.4333ZM55.6453 61.256L47.1493 73.964H55.6453V61.256Z" fill="#161E54"/>
<path d="M24.428 77.42C26.732 75.428 28.544 73.796 29.864 72.524C31.208 71.228 32.324 69.884 33.212 68.492C34.1 67.1 34.544 65.708 34.544 64.316C34.544 62.876 34.196 61.748 33.5 60.932C32.828 60.116 31.76 59.708 30.296 59.708C28.88 59.708 27.776 60.164 26.984 61.076C26.216 61.964 25.808 63.164 25.76 64.676H21.8C21.872 61.94 22.688 59.852 24.248 58.412C25.832 56.948 27.836 56.216 30.26 56.216C32.876 56.216 34.916 56.936 36.38 58.376C37.868 59.816 38.612 61.736 38.612 64.136C38.612 65.864 38.168 67.532 37.28 69.14C36.416 70.724 35.372 72.152 34.148 73.424C32.948 74.672 31.412 76.124 29.54 77.78L27.92 79.22H39.332V82.64H21.836V79.652L24.428 77.42ZM42.4333 77.528V74.432L54.5293 57.08H59.4973V73.964H62.8453V77.528H59.4973V83H55.4653V77.528H42.4333ZM55.6453 61.256L47.1493 73.964H55.6453V61.256Z" fill="black" fill-opacity="0.2"/>
<path d="M28.6328 113.172V114.359H20.4141V113.508L25.5078 105.625H26.6875L25.4219 107.906L22.0547 113.172H28.6328ZM27.0469 105.625V117H25.6016V105.625H27.0469ZM37.3672 117H34.9922L35.0078 115.773H37.3672C38.1797 115.773 38.8568 115.604 39.3984 115.266C39.9401 114.922 40.3464 114.443 40.6172 113.828C40.8932 113.208 41.0312 112.484 41.0312 111.656V110.961C41.0312 110.31 40.9531 109.732 40.7969 109.227C40.6406 108.716 40.4115 108.286 40.1094 107.938C39.8073 107.583 39.4375 107.315 39 107.133C38.5677 106.951 38.0703 106.859 37.5078 106.859H34.9453V105.625H37.5078C38.2526 105.625 38.9323 105.75 39.5469 106C40.1615 106.245 40.6901 106.602 41.1328 107.07C41.5807 107.534 41.9245 108.096 42.1641 108.758C42.4036 109.414 42.5234 110.154 42.5234 110.977V111.656C42.5234 112.479 42.4036 113.221 42.1641 113.883C41.9245 114.539 41.5781 115.099 41.125 115.562C40.6771 116.026 40.1354 116.383 39.5 116.633C38.8698 116.878 38.1589 117 37.3672 117ZM35.7969 105.625V117H34.2891V105.625H35.7969ZM48.0781 117.156C47.4896 117.156 46.9557 117.057 46.4766 116.859C46.0026 116.656 45.5938 116.372 45.25 116.008C44.9115 115.643 44.651 115.211 44.4688 114.711C44.2865 114.211 44.1953 113.664 44.1953 113.07V112.742C44.1953 112.055 44.2969 111.443 44.5 110.906C44.7031 110.365 44.9792 109.906 45.3281 109.531C45.6771 109.156 46.0729 108.872 46.5156 108.68C46.9583 108.487 47.4167 108.391 47.8906 108.391C48.4948 108.391 49.0156 108.495 49.4531 108.703C49.8958 108.911 50.2578 109.203 50.5391 109.578C50.8203 109.948 51.0286 110.385 51.1641 110.891C51.2995 111.391 51.3672 111.938 51.3672 112.531V113.18H45.0547V112H49.9219V111.891C49.901 111.516 49.8229 111.151 49.6875 110.797C49.5573 110.443 49.349 110.151 49.0625 109.922C48.776 109.693 48.3854 109.578 47.8906 109.578C47.5625 109.578 47.2604 109.648 46.9844 109.789C46.7083 109.924 46.4714 110.128 46.2734 110.398C46.0755 110.669 45.9219 111 45.8125 111.391C45.7031 111.781 45.6484 112.232 45.6484 112.742V113.07C45.6484 113.471 45.7031 113.849 45.8125 114.203C45.9271 114.552 46.0911 114.859 46.3047 115.125C46.5234 115.391 46.7865 115.599 47.0938 115.75C47.4062 115.901 47.7604 115.977 48.1562 115.977C48.6667 115.977 49.099 115.872 49.4531 115.664C49.8073 115.456 50.1172 115.177 50.3828 114.828L51.2578 115.523C51.0755 115.799 50.8438 116.062 50.5625 116.312C50.2812 116.562 49.9349 116.766 49.5234 116.922C49.1172 117.078 48.6354 117.156 48.0781 117.156ZM54.5 110.172V120.25H53.0469V108.547H54.375L54.5 110.172ZM60.1953 112.703V112.867C60.1953 113.482 60.1224 114.052 59.9766 114.578C59.8307 115.099 59.6172 115.552 59.3359 115.938C59.0599 116.323 58.7188 116.622 58.3125 116.836C57.9062 117.049 57.4401 117.156 56.9141 117.156C56.3776 117.156 55.9036 117.068 55.4922 116.891C55.0807 116.714 54.7318 116.456 54.4453 116.117C54.1589 115.779 53.9297 115.372 53.7578 114.898C53.5911 114.424 53.4766 113.891 53.4141 113.297V112.422C53.4766 111.797 53.5938 111.237 53.7656 110.742C53.9375 110.247 54.1641 109.826 54.4453 109.477C54.7318 109.122 55.0781 108.854 55.4844 108.672C55.8906 108.484 56.3594 108.391 56.8906 108.391C57.4219 108.391 57.8932 108.495 58.3047 108.703C58.7161 108.906 59.0625 109.198 59.3438 109.578C59.625 109.958 59.8359 110.414 59.9766 110.945C60.1224 111.471 60.1953 112.057 60.1953 112.703ZM58.7422 112.867V112.703C58.7422 112.281 58.6979 111.885 58.6094 111.516C58.5208 111.141 58.3828 110.812 58.1953 110.531C58.013 110.245 57.7786 110.021 57.4922 109.859C57.2057 109.693 56.8646 109.609 56.4688 109.609C56.1042 109.609 55.7865 109.672 55.5156 109.797C55.25 109.922 55.0234 110.091 54.8359 110.305C54.6484 110.513 54.4948 110.753 54.375 111.023C54.2604 111.289 54.1745 111.565 54.1172 111.852V113.875C54.2214 114.24 54.3672 114.583 54.5547 114.906C54.7422 115.224 54.9922 115.482 55.3047 115.68C55.6172 115.872 56.0104 115.969 56.4844 115.969C56.875 115.969 57.2109 115.888 57.4922 115.727C57.7786 115.56 58.013 115.333 58.1953 115.047C58.3828 114.76 58.5208 114.432 58.6094 114.062C58.6979 113.688 58.7422 113.289 58.7422 112.867ZM67.0234 115.555V111.203C67.0234 110.87 66.9557 110.581 66.8203 110.336C66.6901 110.086 66.4922 109.893 66.2266 109.758C65.9609 109.622 65.6328 109.555 65.2422 109.555C64.8776 109.555 64.5573 109.617 64.2812 109.742C64.0104 109.867 63.7969 110.031 63.6406 110.234C63.4896 110.438 63.4141 110.656 63.4141 110.891H61.9688C61.9688 110.589 62.0469 110.289 62.2031 109.992C62.3594 109.695 62.5833 109.427 62.875 109.188C63.1719 108.943 63.526 108.75 63.9375 108.609C64.3542 108.464 64.8177 108.391 65.3281 108.391C65.9427 108.391 66.4844 108.495 66.9531 108.703C67.4271 108.911 67.7969 109.227 68.0625 109.648C68.3333 110.065 68.4688 110.589 68.4688 111.219V115.156C68.4688 115.438 68.4922 115.737 68.5391 116.055C68.5911 116.372 68.6667 116.646 68.7656 116.875V117H67.2578C67.1849 116.833 67.1276 116.612 67.0859 116.336C67.0443 116.055 67.0234 115.794 67.0234 115.555ZM67.2734 111.875L67.2891 112.891H65.8281C65.4167 112.891 65.0495 112.924 64.7266 112.992C64.4036 113.055 64.1328 113.151 63.9141 113.281C63.6953 113.411 63.5286 113.576 63.4141 113.773C63.2995 113.966 63.2422 114.193 63.2422 114.453C63.2422 114.719 63.3021 114.961 63.4219 115.18C63.5417 115.398 63.7214 115.573 63.9609 115.703C64.2057 115.828 64.5052 115.891 64.8594 115.891C65.3021 115.891 65.6927 115.797 66.0312 115.609C66.3698 115.422 66.638 115.193 66.8359 114.922C67.0391 114.651 67.1484 114.388 67.1641 114.133L67.7812 114.828C67.7448 115.047 67.6458 115.289 67.4844 115.555C67.3229 115.82 67.1068 116.076 66.8359 116.32C66.5703 116.56 66.2526 116.76 65.8828 116.922C65.5182 117.078 65.1068 117.156 64.6484 117.156C64.0755 117.156 63.5729 117.044 63.1406 116.82C62.7135 116.596 62.3802 116.297 62.1406 115.922C61.9062 115.542 61.7891 115.117 61.7891 114.648C61.7891 114.195 61.8776 113.797 62.0547 113.453C62.2318 113.104 62.487 112.815 62.8203 112.586C63.1536 112.352 63.5547 112.174 64.0234 112.055C64.4922 111.935 65.0156 111.875 65.5938 111.875H67.2734ZM72.1875 109.875V117H70.7422V108.547H72.1484L72.1875 109.875ZM74.8281 108.5L74.8203 109.844C74.7005 109.818 74.5859 109.802 74.4766 109.797C74.3724 109.786 74.2526 109.781 74.1172 109.781C73.7839 109.781 73.4896 109.833 73.2344 109.938C72.9792 110.042 72.763 110.188 72.5859 110.375C72.4089 110.562 72.2682 110.786 72.1641 111.047C72.0651 111.302 72 111.583 71.9688 111.891L71.5625 112.125C71.5625 111.615 71.612 111.135 71.7109 110.688C71.8151 110.24 71.974 109.844 72.1875 109.5C72.401 109.151 72.6719 108.88 73 108.688C73.3333 108.49 73.7292 108.391 74.1875 108.391C74.2917 108.391 74.4115 108.404 74.5469 108.43C74.6823 108.451 74.776 108.474 74.8281 108.5ZM80.0938 108.547V109.656H75.5234V108.547H80.0938ZM77.0703 106.492H78.5156V114.906C78.5156 115.193 78.5599 115.409 78.6484 115.555C78.737 115.701 78.8516 115.797 78.9922 115.844C79.1328 115.891 79.2839 115.914 79.4453 115.914C79.5651 115.914 79.6901 115.904 79.8203 115.883C79.9557 115.857 80.0573 115.836 80.125 115.82L80.1328 117C80.0182 117.036 79.8672 117.07 79.6797 117.102C79.4974 117.138 79.276 117.156 79.0156 117.156C78.6615 117.156 78.3359 117.086 78.0391 116.945C77.7422 116.805 77.5052 116.57 77.3281 116.242C77.1562 115.909 77.0703 115.461 77.0703 114.898V106.492ZM83.2266 110.227V117H81.7734V108.547H83.1484L83.2266 110.227ZM82.9297 112.453L82.2578 112.43C82.263 111.852 82.3385 111.318 82.4844 110.828C82.6302 110.333 82.8464 109.904 83.1328 109.539C83.4193 109.174 83.776 108.893 84.2031 108.695C84.6302 108.492 85.125 108.391 85.6875 108.391C86.0833 108.391 86.4479 108.448 86.7812 108.562C87.1146 108.672 87.4036 108.846 87.6484 109.086C87.8932 109.326 88.0833 109.633 88.2188 110.008C88.3542 110.383 88.4219 110.836 88.4219 111.367V117H86.9766V111.438C86.9766 110.995 86.901 110.641 86.75 110.375C86.6042 110.109 86.3958 109.917 86.125 109.797C85.8542 109.672 85.5365 109.609 85.1719 109.609C84.7448 109.609 84.388 109.685 84.1016 109.836C83.8151 109.987 83.5859 110.195 83.4141 110.461C83.2422 110.727 83.1172 111.031 83.0391 111.375C82.9661 111.714 82.9297 112.073 82.9297 112.453ZM88.4062 111.656L87.4375 111.953C87.4427 111.49 87.5182 111.044 87.6641 110.617C87.8151 110.19 88.0312 109.81 88.3125 109.477C88.599 109.143 88.9505 108.88 89.3672 108.688C89.7839 108.49 90.2604 108.391 90.7969 108.391C91.25 108.391 91.651 108.451 92 108.57C92.3542 108.69 92.651 108.875 92.8906 109.125C93.1354 109.37 93.3203 109.685 93.4453 110.07C93.5703 110.456 93.6328 110.914 93.6328 111.445V117H92.1797V111.43C92.1797 110.956 92.1042 110.589 91.9531 110.328C91.8073 110.062 91.599 109.878 91.3281 109.773C91.0625 109.664 90.7448 109.609 90.375 109.609C90.0573 109.609 89.776 109.664 89.5312 109.773C89.2865 109.883 89.0807 110.034 88.9141 110.227C88.7474 110.414 88.6198 110.63 88.5312 110.875C88.4479 111.12 88.4062 111.38 88.4062 111.656ZM99.3281 117.156C98.7396 117.156 98.2057 117.057 97.7266 116.859C97.2526 116.656 96.8438 116.372 96.5 116.008C96.1615 115.643 95.901 115.211 95.7188 114.711C95.5365 114.211 95.4453 113.664 95.4453 113.07V112.742C95.4453 112.055 95.5469 111.443 95.75 110.906C95.9531 110.365 96.2292 109.906 96.5781 109.531C96.9271 109.156 97.3229 108.872 97.7656 108.68C98.2083 108.487 98.6667 108.391 99.1406 108.391C99.7448 108.391 100.266 108.495 100.703 108.703C101.146 108.911 101.508 109.203 101.789 109.578C102.07 109.948 102.279 110.385 102.414 110.891C102.549 111.391 102.617 111.938 102.617 112.531V113.18H96.3047V112H101.172V111.891C101.151 111.516 101.073 111.151 100.938 110.797C100.807 110.443 100.599 110.151 100.312 109.922C100.026 109.693 99.6354 109.578 99.1406 109.578C98.8125 109.578 98.5104 109.648 98.2344 109.789C97.9583 109.924 97.7214 110.128 97.5234 110.398C97.3255 110.669 97.1719 111 97.0625 111.391C96.9531 111.781 96.8984 112.232 96.8984 112.742V113.07C96.8984 113.471 96.9531 113.849 97.0625 114.203C97.1771 114.552 97.3411 114.859 97.5547 115.125C97.7734 115.391 98.0365 115.599 98.3438 115.75C98.6562 115.901 99.0104 115.977 99.4062 115.977C99.9167 115.977 100.349 115.872 100.703 115.664C101.057 115.456 101.367 115.177 101.633 114.828L102.508 115.523C102.326 115.799 102.094 116.062 101.812 116.312C101.531 116.562 101.185 116.766 100.773 116.922C100.367 117.078 99.8854 117.156 99.3281 117.156ZM105.75 110.352V117H104.305V108.547H105.672L105.75 110.352ZM105.406 112.453L104.805 112.43C104.81 111.852 104.896 111.318 105.062 110.828C105.229 110.333 105.464 109.904 105.766 109.539C106.068 109.174 106.427 108.893 106.844 108.695C107.266 108.492 107.732 108.391 108.242 108.391C108.659 108.391 109.034 108.448 109.367 108.562C109.701 108.672 109.984 108.849 110.219 109.094C110.458 109.339 110.641 109.656 110.766 110.047C110.891 110.432 110.953 110.904 110.953 111.461V117H109.5V111.445C109.5 111.003 109.435 110.648 109.305 110.383C109.174 110.112 108.984 109.917 108.734 109.797C108.484 109.672 108.177 109.609 107.812 109.609C107.453 109.609 107.125 109.685 106.828 109.836C106.536 109.987 106.284 110.195 106.07 110.461C105.862 110.727 105.698 111.031 105.578 111.375C105.464 111.714 105.406 112.073 105.406 112.453ZM116.688 108.547V109.656H112.117V108.547H116.688ZM113.664 106.492H115.109V114.906C115.109 115.193 115.154 115.409 115.242 115.555C115.331 115.701 115.445 115.797 115.586 115.844C115.727 115.891 115.878 115.914 116.039 115.914C116.159 115.914 116.284 115.904 116.414 115.883C116.549 115.857 116.651 115.836 116.719 115.82L116.727 117C116.612 117.036 116.461 117.07 116.273 117.102C116.091 117.138 115.87 117.156 115.609 117.156C115.255 117.156 114.93 117.086 114.633 116.945C114.336 116.805 114.099 116.57 113.922 116.242C113.75 115.909 113.664 115.461 113.664 114.898V106.492Z" fill="#EE61CF"/>
</svg>
