<svg width="427" height="258" viewBox="0 0 427 258" fill="none" xmlns="http://www.w3.org/2000/svg">
<rect width="427" height="258" rx="10" fill="#161E54"/>
<rect width="427" height="258" rx="10" fill="black" fill-opacity="0.2"/>
<path opacity="0.6" d="M27.7451 83H26.5635V77.292L24.8203 77.8877V76.8867L27.5938 75.8662H27.7451V83ZM34.8496 80.0068C34.8496 81.029 34.6576 81.8005 34.2734 82.3213C33.8926 82.8389 33.3115 83.0977 32.5303 83.0977C31.762 83.0977 31.1826 82.8454 30.792 82.3408C30.4046 81.833 30.2061 81.0827 30.1963 80.0898V78.8594C30.1963 77.8372 30.3867 77.0706 30.7676 76.5596C31.1517 76.0485 31.736 75.793 32.5205 75.793C33.2985 75.793 33.8779 76.042 34.2588 76.54C34.6429 77.0381 34.8398 77.7835 34.8496 78.7764V80.0068ZM33.6631 78.6787C33.6631 78.0114 33.5719 77.5231 33.3896 77.2139C33.2074 76.9014 32.9176 76.7451 32.5205 76.7451C32.1331 76.7451 31.8483 76.8932 31.666 77.1895C31.4837 77.4824 31.3877 77.9414 31.3779 78.5664V80.1777C31.3779 80.8418 31.4707 81.3366 31.6562 81.6621C31.8418 81.9876 32.1331 82.1504 32.5303 82.1504C32.9111 82.1504 33.1927 82.0007 33.375 81.7012C33.5573 81.3984 33.6533 80.9264 33.6631 80.2852V78.6787ZM36.7148 81.75C36.9362 81.75 37.1071 81.8135 37.2275 81.9404C37.348 82.0641 37.4082 82.2204 37.4082 82.4092C37.4082 82.5947 37.348 82.7493 37.2275 82.873C37.1071 82.9935 36.9362 83.0537 36.7148 83.0537C36.5033 83.0537 36.3356 82.9935 36.2119 82.873C36.0882 82.7526 36.0264 82.598 36.0264 82.4092C36.0264 82.2204 36.0866 82.0641 36.207 81.9404C36.3275 81.8135 36.4967 81.75 36.7148 81.75ZM42.7061 80.4658H43.5898V81.418H42.7061V83H41.5195V81.418H38.4482L38.4141 80.6953L41.4805 75.8906H42.7061V80.4658ZM39.6592 80.4658H41.5195V77.4971L41.4316 77.6533L39.6592 80.4658ZM49.0098 80.0068C49.0098 81.029 48.8177 81.8005 48.4336 82.3213C48.0527 82.8389 47.4717 83.0977 46.6904 83.0977C45.9222 83.0977 45.3428 82.8454 44.9521 82.3408C44.5648 81.833 44.3662 81.0827 44.3564 80.0898V78.8594C44.3564 77.8372 44.5469 77.0706 44.9277 76.5596C45.3118 76.0485 45.8962 75.793 46.6807 75.793C47.4587 75.793 48.0381 76.042 48.4189 76.54C48.8031 77.0381 49 77.7835 49.0098 78.7764V80.0068ZM47.8232 78.6787C47.8232 78.0114 47.7321 77.5231 47.5498 77.2139C47.3675 76.9014 47.0778 76.7451 46.6807 76.7451C46.2933 76.7451 46.0085 76.8932 45.8262 77.1895C45.6439 77.4824 45.5479 77.9414 45.5381 78.5664V80.1777C45.5381 80.8418 45.6309 81.3366 45.8164 81.6621C46.002 81.9876 46.2933 82.1504 46.6904 82.1504C47.0713 82.1504 47.3529 82.0007 47.5352 81.7012C47.7174 81.3984 47.8135 80.9264 47.8232 80.2852V78.6787ZM56.7197 81.3447H53.9658L53.3896 83H52.1055L54.791 75.8906H55.8994L58.5898 83H57.3008L56.7197 81.3447ZM54.3125 80.3486H56.373L55.3428 77.3994L54.3125 80.3486ZM61.002 75.8906L63.0527 81.3398L65.0986 75.8906H66.6953V83H65.4648V80.6562L65.5869 77.5215L63.4873 83H62.6035L60.5088 77.5264L60.6309 80.6562V83H59.4004V75.8906H61.002ZM68.2139 84.6016L67.5742 84.2207C67.763 83.9245 67.8916 83.6657 67.96 83.4443C68.0316 83.2262 68.069 83.0033 68.0723 82.7754V81.8525H69.1416L69.1367 82.707C69.1335 83.0521 69.0456 83.3971 68.873 83.7422C68.7038 84.0905 68.484 84.377 68.2139 84.6016ZM76.9443 79.9873H74.083V83H72.8477V75.8906H77.3643V76.8867H74.083V79.001H76.9443V79.9873ZM80.8701 78.8008C80.7139 78.7747 80.5527 78.7617 80.3867 78.7617C79.8431 78.7617 79.4769 78.9701 79.2881 79.3867V83H78.1016V77.7168H79.2344L79.2637 78.3076C79.5501 77.8486 79.9473 77.6191 80.4551 77.6191C80.6243 77.6191 80.7643 77.6419 80.875 77.6875L80.8701 78.8008ZM82.8818 83H81.6953V77.7168H82.8818V83ZM81.6221 76.3447C81.6221 76.1624 81.679 76.0111 81.793 75.8906C81.9102 75.7702 82.0762 75.71 82.291 75.71C82.5059 75.71 82.6719 75.7702 82.7891 75.8906C82.9062 76.0111 82.9648 76.1624 82.9648 76.3447C82.9648 76.5238 82.9062 76.6735 82.7891 76.7939C82.6719 76.9111 82.5059 76.9697 82.291 76.9697C82.0762 76.9697 81.9102 76.9111 81.793 76.7939C81.679 76.6735 81.6221 76.5238 81.6221 76.3447ZM89.8057 83H88.624V77.292L86.8809 77.8877V76.8867L89.6543 75.8662H89.8057V83ZM96.9102 80.0068C96.9102 81.029 96.7181 81.8005 96.334 82.3213C95.9531 82.8389 95.3721 83.0977 94.5908 83.0977C93.8226 83.0977 93.2432 82.8454 92.8525 82.3408C92.4652 81.833 92.2666 81.0827 92.2568 80.0898V78.8594C92.2568 77.8372 92.4473 77.0706 92.8281 76.5596C93.2122 76.0485 93.7965 75.793 94.5811 75.793C95.359 75.793 95.9385 76.042 96.3193 76.54C96.7035 77.0381 96.9004 77.7835 96.9102 78.7764V80.0068ZM95.7236 78.6787C95.7236 78.0114 95.6325 77.5231 95.4502 77.2139C95.2679 76.9014 94.9782 76.7451 94.5811 76.7451C94.1937 76.7451 93.9089 76.8932 93.7266 77.1895C93.5443 77.4824 93.4482 77.9414 93.4385 78.5664V80.1777C93.4385 80.8418 93.5312 81.3366 93.7168 81.6621C93.9023 81.9876 94.1937 82.1504 94.5908 82.1504C94.9717 82.1504 95.2533 82.0007 95.4355 81.7012C95.6178 81.3984 95.7139 80.9264 95.7236 80.2852V78.6787ZM104.356 81.1689C104.356 80.8564 104.246 80.6156 104.024 80.4463C103.806 80.277 103.411 80.1061 102.838 79.9336C102.265 79.7611 101.809 79.569 101.471 79.3574C100.823 78.9505 100.499 78.4199 100.499 77.7656C100.499 77.1927 100.732 76.7207 101.197 76.3496C101.666 75.9785 102.273 75.793 103.019 75.793C103.513 75.793 103.954 75.8841 104.342 76.0664C104.729 76.2487 105.034 76.5091 105.255 76.8477C105.476 77.1829 105.587 77.5557 105.587 77.9658H104.356C104.356 77.5947 104.239 77.305 104.005 77.0967C103.774 76.8851 103.442 76.7793 103.009 76.7793C102.605 76.7793 102.291 76.8656 102.066 77.0381C101.845 77.2106 101.734 77.4515 101.734 77.7607C101.734 78.0212 101.855 78.2393 102.096 78.415C102.337 78.5876 102.734 78.7568 103.287 78.9229C103.84 79.0856 104.285 79.2728 104.62 79.4844C104.955 79.6927 105.201 79.9336 105.357 80.207C105.514 80.4772 105.592 80.7946 105.592 81.1592C105.592 81.7516 105.364 82.2236 104.908 82.5752C104.456 82.9235 103.84 83.0977 103.062 83.0977C102.548 83.0977 102.075 83.0033 101.642 82.8145C101.212 82.6224 100.877 82.3587 100.636 82.0234C100.398 81.6882 100.279 81.2975 100.279 80.8516H101.515C101.515 81.2552 101.648 81.5677 101.915 81.7891C102.182 82.0104 102.564 82.1211 103.062 82.1211C103.492 82.1211 103.814 82.0348 104.029 81.8623C104.247 81.6865 104.356 81.4554 104.356 81.1689ZM108.888 83.0977C108.136 83.0977 107.525 82.8617 107.057 82.3896C106.591 81.9144 106.358 81.2829 106.358 80.4951V80.3486C106.358 79.8213 106.459 79.3509 106.661 78.9375C106.866 78.5208 107.153 78.1969 107.521 77.9658C107.888 77.7347 108.299 77.6191 108.751 77.6191C109.47 77.6191 110.025 77.8486 110.416 78.3076C110.81 78.7666 111.007 79.416 111.007 80.2559V80.7344H107.555C107.59 81.1706 107.735 81.5156 107.989 81.7695C108.246 82.0234 108.569 82.1504 108.956 82.1504C109.5 82.1504 109.942 81.9307 110.284 81.4912L110.924 82.1016C110.712 82.4173 110.429 82.6631 110.074 82.8389C109.723 83.0114 109.327 83.0977 108.888 83.0977ZM108.746 78.5713C108.421 78.5713 108.157 78.6852 107.955 78.9131C107.757 79.141 107.63 79.4583 107.574 79.8652H109.835V79.7773C109.809 79.3802 109.703 79.0807 109.518 78.8789C109.332 78.6738 109.075 78.5713 108.746 78.5713ZM116.559 80.4121C116.559 81.2292 116.373 81.8818 116.002 82.3701C115.631 82.8551 115.133 83.0977 114.508 83.0977C113.928 83.0977 113.465 82.9072 113.116 82.5264V85.0312H111.93V77.7168H113.023L113.072 78.2539C113.421 77.8307 113.894 77.6191 114.493 77.6191C115.138 77.6191 115.642 77.86 116.007 78.3418C116.375 78.8203 116.559 79.486 116.559 80.3389V80.4121ZM115.377 80.3096C115.377 79.7822 115.271 79.3639 115.06 79.0547C114.851 78.7454 114.552 78.5908 114.161 78.5908C113.676 78.5908 113.328 78.791 113.116 79.1914V81.5352C113.331 81.9453 113.683 82.1504 114.171 82.1504C114.549 82.1504 114.843 81.999 115.055 81.6963C115.27 81.3903 115.377 80.9281 115.377 80.3096ZM119.054 76.4326V77.7168H119.986V78.5957H119.054V81.5449C119.054 81.7467 119.093 81.8932 119.171 81.9844C119.252 82.0723 119.396 82.1162 119.601 82.1162C119.737 82.1162 119.876 82.0999 120.016 82.0674V82.9854C119.745 83.0602 119.485 83.0977 119.234 83.0977C118.323 83.0977 117.867 82.5947 117.867 81.5889V78.5957H116.998V77.7168H117.867V76.4326H119.054ZM128.092 83H123.312V82.1846L125.68 79.6016C126.021 79.2207 126.264 78.9033 126.407 78.6494C126.554 78.3923 126.627 78.1351 126.627 77.8779C126.627 77.5394 126.531 77.266 126.339 77.0576C126.15 76.8493 125.895 76.7451 125.572 76.7451C125.188 76.7451 124.89 76.8623 124.679 77.0967C124.467 77.3311 124.361 77.6517 124.361 78.0586H123.175C123.175 77.6257 123.272 77.2367 123.468 76.8916C123.666 76.5433 123.948 76.2731 124.312 76.0811C124.68 75.889 125.104 75.793 125.582 75.793C126.272 75.793 126.816 75.9671 127.213 76.3154C127.613 76.6605 127.813 77.139 127.813 77.751C127.813 78.1058 127.713 78.4785 127.511 78.8691C127.312 79.2565 126.985 79.6976 126.529 80.1924L124.791 82.0527H128.092V83ZM133.629 80.0068C133.629 81.029 133.437 81.8005 133.053 82.3213C132.672 82.8389 132.091 83.0977 131.31 83.0977C130.541 83.0977 129.962 82.8454 129.571 82.3408C129.184 81.833 128.985 81.0827 128.976 80.0898V78.8594C128.976 77.8372 129.166 77.0706 129.547 76.5596C129.931 76.0485 130.515 75.793 131.3 75.793C132.078 75.793 132.657 76.042 133.038 76.54C133.422 77.0381 133.619 77.7835 133.629 78.7764V80.0068ZM132.442 78.6787C132.442 78.0114 132.351 77.5231 132.169 77.2139C131.987 76.9014 131.697 76.7451 131.3 76.7451C130.912 76.7451 130.628 76.8932 130.445 77.1895C130.263 77.4824 130.167 77.9414 130.157 78.5664V80.1777C130.157 80.8418 130.25 81.3366 130.436 81.6621C130.621 81.9876 130.912 82.1504 131.31 82.1504C131.69 82.1504 131.972 82.0007 132.154 81.7012C132.337 81.3984 132.433 80.9264 132.442 80.2852V78.6787ZM139.459 83H134.679V82.1846L137.047 79.6016C137.389 79.2207 137.631 78.9033 137.774 78.6494C137.921 78.3923 137.994 78.1351 137.994 77.8779C137.994 77.5394 137.898 77.266 137.706 77.0576C137.517 76.8493 137.262 76.7451 136.939 76.7451C136.555 76.7451 136.257 76.8623 136.046 77.0967C135.834 77.3311 135.729 77.6517 135.729 78.0586H134.542C134.542 77.6257 134.64 77.2367 134.835 76.8916C135.034 76.5433 135.315 76.2731 135.68 76.0811C136.048 75.889 136.471 75.793 136.949 75.793C137.639 75.793 138.183 75.9671 138.58 76.3154C138.98 76.6605 139.181 77.139 139.181 77.751C139.181 78.1058 139.08 78.4785 138.878 78.8691C138.679 79.2565 138.352 79.6976 137.896 80.1924L136.158 82.0527H139.459V83ZM143.575 83H142.394V77.292L140.65 77.8877V76.8867L143.424 75.8662H143.575V83Z" fill="white"/>
<path d="M34.62 99.49L30.48 107.464V112H28.428V107.464L24.27 99.49H26.556L29.454 105.628L32.352 99.49H34.62ZM40.5504 112.162C39.6144 112.162 38.7684 111.952 38.0124 111.532C37.2564 111.1 36.6624 110.5 36.2304 109.732C35.7984 108.952 35.5824 108.052 35.5824 107.032C35.5824 106.024 35.8044 105.13 36.2484 104.35C36.6924 103.57 37.2984 102.97 38.0664 102.55C38.8344 102.13 39.6924 101.92 40.6404 101.92C41.5884 101.92 42.4464 102.13 43.2144 102.55C43.9824 102.97 44.5884 103.57 45.0324 104.35C45.4764 105.13 45.6984 106.024 45.6984 107.032C45.6984 108.04 45.4704 108.934 45.0144 109.714C44.5584 110.494 43.9344 111.1 43.1424 111.532C42.3624 111.952 41.4984 112.162 40.5504 112.162ZM40.5504 110.38C41.0784 110.38 41.5704 110.254 42.0264 110.002C42.4944 109.75 42.8724 109.372 43.1604 108.868C43.4484 108.364 43.5924 107.752 43.5924 107.032C43.5924 106.312 43.4544 105.706 43.1784 105.214C42.9024 104.71 42.5364 104.332 42.0804 104.08C41.6244 103.828 41.1324 103.702 40.6044 103.702C40.0764 103.702 39.5844 103.828 39.1284 104.08C38.6844 104.332 38.3304 104.71 38.0664 105.214C37.8024 105.706 37.6704 106.312 37.6704 107.032C37.6704 108.1 37.9404 108.928 38.4804 109.516C39.0324 110.092 39.7224 110.38 40.5504 110.38ZM56.709 102.082V112H54.657V110.83C54.333 111.238 53.907 111.562 53.379 111.802C52.863 112.03 52.311 112.144 51.723 112.144C50.943 112.144 50.241 111.982 49.617 111.658C49.005 111.334 48.519 110.854 48.159 110.218C47.811 109.582 47.637 108.814 47.637 107.914V102.082H49.671V107.608C49.671 108.496 49.893 109.18 50.337 109.66C50.781 110.128 51.387 110.362 52.155 110.362C52.923 110.362 53.529 110.128 53.973 109.66C54.429 109.18 54.657 108.496 54.657 107.608V102.082H56.709ZM72.8402 103.216C72.8402 103.852 72.6902 104.452 72.3902 105.016C72.0902 105.58 71.6102 106.042 70.9502 106.402C70.2902 106.75 69.4442 106.924 68.4122 106.924H66.1442V112H64.0922V99.49H68.4122C69.3722 99.49 70.1822 99.658 70.8422 99.994C71.5142 100.318 72.0122 100.762 72.3362 101.326C72.6722 101.89 72.8402 102.52 72.8402 103.216ZM68.4122 105.25C69.1922 105.25 69.7742 105.076 70.1582 104.728C70.5422 104.368 70.7342 103.864 70.7342 103.216C70.7342 101.848 69.9602 101.164 68.4122 101.164H66.1442V105.25H68.4122ZM79.0993 112.162C78.1633 112.162 77.3173 111.952 76.5613 111.532C75.8053 111.1 75.2113 110.5 74.7793 109.732C74.3473 108.952 74.1313 108.052 74.1313 107.032C74.1313 106.024 74.3533 105.13 74.7973 104.35C75.2413 103.57 75.8473 102.97 76.6153 102.55C77.3833 102.13 78.2413 101.92 79.1893 101.92C80.1373 101.92 80.9953 102.13 81.7633 102.55C82.5313 102.97 83.1373 103.57 83.5813 104.35C84.0253 105.13 84.2473 106.024 84.2473 107.032C84.2473 108.04 84.0193 108.934 83.5633 109.714C83.1073 110.494 82.4833 111.1 81.6913 111.532C80.9113 111.952 80.0473 112.162 79.0993 112.162ZM79.0993 110.38C79.6273 110.38 80.1193 110.254 80.5753 110.002C81.0433 109.75 81.4213 109.372 81.7093 108.868C81.9973 108.364 82.1413 107.752 82.1413 107.032C82.1413 106.312 82.0033 105.706 81.7273 105.214C81.4513 104.71 81.0853 104.332 80.6293 104.08C80.1733 103.828 79.6813 103.702 79.1533 103.702C78.6253 103.702 78.1333 103.828 77.6773 104.08C77.2333 104.332 76.8793 104.71 76.6153 105.214C76.3513 105.706 76.2193 106.312 76.2193 107.032C76.2193 108.1 76.4893 108.928 77.0293 109.516C77.5813 110.092 78.2713 110.38 79.0993 110.38ZM89.8758 112.162C89.0958 112.162 88.3938 112.024 87.7698 111.748C87.1578 111.46 86.6718 111.076 86.3118 110.596C85.9518 110.104 85.7598 109.558 85.7358 108.958H87.8598C87.8958 109.378 88.0938 109.732 88.4538 110.02C88.8258 110.296 89.2878 110.434 89.8398 110.434C90.4158 110.434 90.8598 110.326 91.1718 110.11C91.4958 109.882 91.6578 109.594 91.6578 109.246C91.6578 108.874 91.4778 108.598 91.1178 108.418C90.7698 108.238 90.2118 108.04 89.4438 107.824C88.6998 107.62 88.0938 107.422 87.6258 107.23C87.1578 107.038 86.7498 106.744 86.4018 106.348C86.0658 105.952 85.8978 105.43 85.8978 104.782C85.8978 104.254 86.0538 103.774 86.3658 103.342C86.6778 102.898 87.1218 102.55 87.6978 102.298C88.2858 102.046 88.9578 101.92 89.7138 101.92C90.8418 101.92 91.7478 102.208 92.4318 102.784C93.1278 103.348 93.4998 104.122 93.5478 105.106H91.4958C91.4598 104.662 91.2798 104.308 90.9558 104.044C90.6318 103.78 90.1938 103.648 89.6418 103.648C89.1018 103.648 88.6878 103.75 88.3998 103.954C88.1118 104.158 87.9678 104.428 87.9678 104.764C87.9678 105.028 88.0638 105.25 88.2558 105.43C88.4478 105.61 88.6818 105.754 88.9578 105.862C89.2338 105.958 89.6418 106.084 90.1818 106.24C90.9018 106.432 91.4898 106.63 91.9458 106.834C92.4138 107.026 92.8158 107.314 93.1518 107.698C93.4878 108.082 93.6618 108.592 93.6738 109.228C93.6738 109.792 93.5178 110.296 93.2058 110.74C92.8938 111.184 92.4498 111.532 91.8738 111.784C91.3098 112.036 90.6438 112.162 89.8758 112.162ZM98.285 103.756V109.246C98.285 109.618 98.369 109.888 98.537 110.056C98.717 110.212 99.017 110.29 99.437 110.29H100.697V112H99.077C98.153 112 97.445 111.784 96.953 111.352C96.461 110.92 96.215 110.218 96.215 109.246V103.756H95.045V102.082H96.215V99.616H98.285V102.082H100.697V103.756H98.285ZM111.678 106.798C111.678 107.17 111.654 107.506 111.606 107.806H104.028C104.088 108.598 104.382 109.234 104.91 109.714C105.438 110.194 106.086 110.434 106.854 110.434C107.958 110.434 108.738 109.972 109.194 109.048H111.408C111.108 109.96 110.562 110.71 109.77 111.298C108.99 111.874 108.018 112.162 106.854 112.162C105.906 112.162 105.054 111.952 104.298 111.532C103.554 111.1 102.966 110.5 102.534 109.732C102.114 108.952 101.904 108.052 101.904 107.032C101.904 106.012 102.108 105.118 102.516 104.35C102.936 103.57 103.518 102.97 104.262 102.55C105.018 102.13 105.882 101.92 106.854 101.92C107.79 101.92 108.624 102.124 109.356 102.532C110.088 102.94 110.658 103.516 111.066 104.26C111.474 104.992 111.678 105.838 111.678 106.798ZM109.536 106.15C109.524 105.394 109.254 104.788 108.726 104.332C108.198 103.876 107.544 103.648 106.764 103.648C106.056 103.648 105.45 103.876 104.946 104.332C104.442 104.776 104.142 105.382 104.046 106.15H109.536ZM113.014 106.996C113.014 106 113.218 105.118 113.626 104.35C114.046 103.582 114.61 102.988 115.318 102.568C116.038 102.136 116.836 101.92 117.712 101.92C118.36 101.92 118.996 102.064 119.62 102.352C120.256 102.628 120.76 103 121.132 103.468V98.68H123.202V112H121.132V110.506C120.796 110.986 120.328 111.382 119.728 111.694C119.14 112.006 118.462 112.162 117.694 112.162C116.83 112.162 116.038 111.946 115.318 111.514C114.61 111.07 114.046 110.458 113.626 109.678C113.218 108.886 113.014 107.992 113.014 106.996ZM121.132 107.032C121.132 106.348 120.988 105.754 120.7 105.25C120.424 104.746 120.058 104.362 119.602 104.098C119.146 103.834 118.654 103.702 118.126 103.702C117.598 103.702 117.106 103.834 116.65 104.098C116.194 104.35 115.822 104.728 115.534 105.232C115.258 105.724 115.12 106.312 115.12 106.996C115.12 107.68 115.258 108.28 115.534 108.796C115.822 109.312 116.194 109.708 116.65 109.984C117.118 110.248 117.61 110.38 118.126 110.38C118.654 110.38 119.146 110.248 119.602 109.984C120.058 109.72 120.424 109.336 120.7 108.832C120.988 108.316 121.132 107.716 121.132 107.032ZM129.889 106.996C129.889 106 130.093 105.118 130.501 104.35C130.921 103.582 131.485 102.988 132.193 102.568C132.913 102.136 133.705 101.92 134.569 101.92C135.349 101.92 136.027 102.076 136.603 102.388C137.191 102.688 137.659 103.066 138.007 103.522V102.082H140.077V112H138.007V110.524C137.659 110.992 137.185 111.382 136.585 111.694C135.985 112.006 135.301 112.162 134.533 112.162C133.681 112.162 132.901 111.946 132.193 111.514C131.485 111.07 130.921 110.458 130.501 109.678C130.093 108.886 129.889 107.992 129.889 106.996ZM138.007 107.032C138.007 106.348 137.863 105.754 137.575 105.25C137.299 104.746 136.933 104.362 136.477 104.098C136.021 103.834 135.529 103.702 135.001 103.702C134.473 103.702 133.981 103.834 133.525 104.098C133.069 104.35 132.697 104.728 132.409 105.232C132.133 105.724 131.995 106.312 131.995 106.996C131.995 107.68 132.133 108.28 132.409 108.796C132.697 109.312 133.069 109.708 133.525 109.984C133.993 110.248 134.485 110.38 135.001 110.38C135.529 110.38 136.021 110.248 136.477 109.984C136.933 109.72 137.299 109.336 137.575 108.832C137.863 108.316 138.007 107.716 138.007 107.032ZM157.726 112H155.674L149.5 102.658V112H147.448V99.472H149.5L155.674 108.796V99.472H157.726V112ZM169.51 106.798C169.51 107.17 169.486 107.506 169.438 107.806H161.86C161.92 108.598 162.214 109.234 162.742 109.714C163.27 110.194 163.918 110.434 164.686 110.434C165.79 110.434 166.57 109.972 167.026 109.048H169.24C168.94 109.96 168.394 110.71 167.602 111.298C166.822 111.874 165.85 112.162 164.686 112.162C163.738 112.162 162.886 111.952 162.13 111.532C161.386 111.1 160.798 110.5 160.366 109.732C159.946 108.952 159.736 108.052 159.736 107.032C159.736 106.012 159.94 105.118 160.348 104.35C160.768 103.57 161.35 102.97 162.094 102.55C162.85 102.13 163.714 101.92 164.686 101.92C165.622 101.92 166.456 102.124 167.188 102.532C167.92 102.94 168.49 103.516 168.898 104.26C169.306 104.992 169.51 105.838 169.51 106.798ZM167.368 106.15C167.356 105.394 167.086 104.788 166.558 104.332C166.03 103.876 165.376 103.648 164.596 103.648C163.888 103.648 163.282 103.876 162.778 104.332C162.274 104.776 161.974 105.382 161.878 106.15H167.368ZM184.85 102.082L181.772 112H179.612L177.614 104.674L175.616 112H173.456L170.36 102.082H172.448L174.518 110.056L176.624 102.082H178.766L180.782 110.02L182.834 102.082H184.85ZM197.881 99.49V108.508C197.881 109.624 197.539 110.506 196.855 111.154C196.183 111.802 195.295 112.126 194.191 112.126C193.087 112.126 192.193 111.802 191.509 111.154C190.837 110.506 190.501 109.624 190.501 108.508H192.571C192.583 109.06 192.721 109.498 192.985 109.822C193.261 110.146 193.663 110.308 194.191 110.308C194.719 110.308 195.121 110.146 195.397 109.822C195.673 109.486 195.811 109.048 195.811 108.508V99.49H197.881ZM205.521 112.162C204.585 112.162 203.739 111.952 202.983 111.532C202.227 111.1 201.633 110.5 201.201 109.732C200.769 108.952 200.553 108.052 200.553 107.032C200.553 106.024 200.775 105.13 201.219 104.35C201.663 103.57 202.269 102.97 203.037 102.55C203.805 102.13 204.663 101.92 205.611 101.92C206.559 101.92 207.417 102.13 208.185 102.55C208.953 102.97 209.559 103.57 210.003 104.35C210.447 105.13 210.669 106.024 210.669 107.032C210.669 108.04 210.441 108.934 209.985 109.714C209.529 110.494 208.905 111.1 208.113 111.532C207.333 111.952 206.469 112.162 205.521 112.162ZM205.521 110.38C206.049 110.38 206.541 110.254 206.997 110.002C207.465 109.75 207.843 109.372 208.131 108.868C208.419 108.364 208.563 107.752 208.563 107.032C208.563 106.312 208.425 105.706 208.149 105.214C207.873 104.71 207.507 104.332 207.051 104.08C206.595 103.828 206.103 103.702 205.575 103.702C205.047 103.702 204.555 103.828 204.099 104.08C203.655 104.332 203.301 104.71 203.037 105.214C202.773 105.706 202.641 106.312 202.641 107.032C202.641 108.1 202.911 108.928 203.451 109.516C204.003 110.092 204.693 110.38 205.521 110.38ZM214.75 103.558C215.098 103.078 215.572 102.688 216.172 102.388C216.784 102.076 217.462 101.92 218.206 101.92C219.082 101.92 219.874 102.13 220.582 102.55C221.29 102.97 221.848 103.57 222.256 104.35C222.664 105.118 222.868 106 222.868 106.996C222.868 107.992 222.664 108.886 222.256 109.678C221.848 110.458 221.284 111.07 220.564 111.514C219.856 111.946 219.07 112.162 218.206 112.162C217.438 112.162 216.754 112.012 216.154 111.712C215.566 111.412 215.098 111.028 214.75 110.56V112H212.698V98.68H214.75V103.558ZM220.78 106.996C220.78 106.312 220.636 105.724 220.348 105.232C220.072 104.728 219.7 104.35 219.232 104.098C218.776 103.834 218.284 103.702 217.756 103.702C217.24 103.702 216.748 103.834 216.28 104.098C215.824 104.362 215.452 104.746 215.164 105.25C214.888 105.754 214.75 106.348 214.75 107.032C214.75 107.716 214.888 108.316 215.164 108.832C215.452 109.336 215.824 109.72 216.28 109.984C216.748 110.248 217.24 110.38 217.756 110.38C218.284 110.38 218.776 110.248 219.232 109.984C219.7 109.708 220.072 109.312 220.348 108.796C220.636 108.28 220.78 107.68 220.78 106.996Z" fill="white"/>
<path opacity="0.8" d="M27.6846 136.372L26.4678 137.637V141H25.1553V131.047H26.4678V135.969L30.8906 131.047H32.4766L28.5596 135.442L32.7842 141H31.2119L27.6846 136.372ZM35.1084 141H33.8438V133.604H35.1084V141ZM33.7412 131.642C33.7412 131.437 33.8027 131.263 33.9258 131.122C34.0534 130.981 34.2402 130.91 34.4863 130.91C34.7324 130.91 34.9193 130.981 35.0469 131.122C35.1745 131.263 35.2383 131.437 35.2383 131.642C35.2383 131.847 35.1745 132.018 35.0469 132.154C34.9193 132.291 34.7324 132.359 34.4863 132.359C34.2402 132.359 34.0534 132.291 33.9258 132.154C33.8027 132.018 33.7412 131.847 33.7412 131.642ZM38.335 133.604L38.376 134.533C38.9411 133.822 39.6794 133.467 40.5908 133.467C42.154 133.467 42.9424 134.349 42.9561 136.112V141H41.6914V136.105C41.6868 135.572 41.5638 135.178 41.3223 134.923C41.0853 134.668 40.7139 134.54 40.208 134.54C39.7979 134.54 39.4378 134.649 39.1279 134.868C38.818 135.087 38.5765 135.374 38.4033 135.729V141H37.1387V133.604H38.335ZM44.5557 137.24C44.5557 136.105 44.8245 135.194 45.3623 134.506C45.9001 133.813 46.6042 133.467 47.4746 133.467C48.3405 133.467 49.0264 133.763 49.5322 134.355V130.5H50.7969V141H49.6348L49.5732 140.207C49.0674 140.827 48.3633 141.137 47.4609 141.137C46.6042 141.137 45.9046 140.786 45.3623 140.084C44.8245 139.382 44.5557 138.466 44.5557 137.336V137.24ZM45.8203 137.384C45.8203 138.222 45.9935 138.879 46.3398 139.353C46.6862 139.826 47.1647 140.063 47.7754 140.063C48.5775 140.063 49.1631 139.703 49.5322 138.983V135.586C49.154 134.889 48.5729 134.54 47.7891 134.54C47.1693 134.54 46.6862 134.779 46.3398 135.258C45.9935 135.736 45.8203 136.445 45.8203 137.384ZM54.1396 141H52.875V130.5H54.1396V141ZM58.5898 139.147L60.3125 133.604H61.666L58.6924 142.142C58.2321 143.372 57.5007 143.987 56.498 143.987L56.2588 143.967L55.7871 143.878V142.853L56.1289 142.88C56.5573 142.88 56.89 142.793 57.127 142.62C57.3685 142.447 57.5667 142.13 57.7217 141.67L58.002 140.918L55.3633 133.604H56.7441L58.5898 139.147ZM69.2402 140.104C69.6914 140.104 70.0856 139.968 70.4229 139.694C70.7601 139.421 70.9469 139.079 70.9834 138.669H72.1797C72.1569 139.093 72.0111 139.496 71.7422 139.879C71.4733 140.262 71.1133 140.567 70.6621 140.795C70.2155 141.023 69.7415 141.137 69.2402 141.137C68.2331 141.137 67.431 140.802 66.834 140.132C66.2415 139.457 65.9453 138.537 65.9453 137.37V137.158C65.9453 136.438 66.0775 135.798 66.3418 135.237C66.6061 134.677 66.9844 134.242 67.4766 133.932C67.9733 133.622 68.5589 133.467 69.2334 133.467C70.0628 133.467 70.751 133.715 71.2979 134.212C71.8493 134.709 72.1432 135.354 72.1797 136.146H70.9834C70.9469 135.668 70.7646 135.276 70.4365 134.971C70.113 134.661 69.7119 134.506 69.2334 134.506C68.5908 134.506 68.0918 134.738 67.7363 135.203C67.3854 135.663 67.21 136.331 67.21 137.206V137.445C67.21 138.298 67.3854 138.954 67.7363 139.414C68.0872 139.874 68.5885 140.104 69.2402 140.104ZM74.8662 134.499C75.4268 133.811 76.1559 133.467 77.0537 133.467C78.6169 133.467 79.4053 134.349 79.4189 136.112V141H78.1543V136.105C78.1497 135.572 78.0267 135.178 77.7852 134.923C77.5482 134.668 77.1768 134.54 76.6709 134.54C76.2607 134.54 75.9007 134.649 75.5908 134.868C75.2809 135.087 75.0394 135.374 74.8662 135.729V141H73.6016V130.5H74.8662V134.499ZM84.3818 141.137C83.3792 141.137 82.5635 140.809 81.9346 140.152C81.3057 139.492 80.9912 138.61 80.9912 137.507V137.274C80.9912 136.541 81.1302 135.887 81.4082 135.312C81.6908 134.734 82.0827 134.283 82.584 133.959C83.0898 133.631 83.6367 133.467 84.2246 133.467C85.1862 133.467 85.9336 133.784 86.4668 134.417C87 135.05 87.2666 135.957 87.2666 137.138V137.664H82.2559C82.2741 138.393 82.486 138.983 82.8916 139.435C83.3018 139.881 83.8213 140.104 84.4502 140.104C84.8968 140.104 85.2751 140.013 85.585 139.831C85.8949 139.649 86.166 139.407 86.3984 139.106L87.1709 139.708C86.5511 140.66 85.6214 141.137 84.3818 141.137ZM84.2246 134.506C83.7142 134.506 83.2858 134.693 82.9395 135.066C82.5931 135.436 82.3789 135.955 82.2969 136.625H86.002V136.529C85.9655 135.887 85.7923 135.39 85.4824 135.039C85.1725 134.684 84.7533 134.506 84.2246 134.506ZM91.7031 140.104C92.1543 140.104 92.5485 139.968 92.8857 139.694C93.223 139.421 93.4098 139.079 93.4463 138.669H94.6426C94.6198 139.093 94.474 139.496 94.2051 139.879C93.9362 140.262 93.5762 140.567 93.125 140.795C92.6784 141.023 92.2044 141.137 91.7031 141.137C90.696 141.137 89.8939 140.802 89.2969 140.132C88.7044 139.457 88.4082 138.537 88.4082 137.37V137.158C88.4082 136.438 88.5404 135.798 88.8047 135.237C89.069 134.677 89.4473 134.242 89.9395 133.932C90.4362 133.622 91.0218 133.467 91.6963 133.467C92.5257 133.467 93.2139 133.715 93.7607 134.212C94.3122 134.709 94.6061 135.354 94.6426 136.146H93.4463C93.4098 135.668 93.2275 135.276 92.8994 134.971C92.5758 134.661 92.1748 134.506 91.6963 134.506C91.0537 134.506 90.5547 134.738 90.1992 135.203C89.8483 135.663 89.6729 136.331 89.6729 137.206V137.445C89.6729 138.298 89.8483 138.954 90.1992 139.414C90.5501 139.874 91.0514 140.104 91.7031 140.104ZM98.1289 137.575L97.3359 138.402V141H96.0713V130.5H97.3359V136.851L98.0127 136.037L100.316 133.604H101.854L98.9766 136.693L102.189 141H100.706L98.1289 137.575ZM108.349 131.812V133.604H109.729V134.581H108.349V139.168C108.349 139.464 108.41 139.688 108.533 139.838C108.656 139.984 108.866 140.057 109.162 140.057C109.308 140.057 109.508 140.029 109.764 139.975V141C109.431 141.091 109.107 141.137 108.793 141.137C108.228 141.137 107.802 140.966 107.515 140.624C107.228 140.282 107.084 139.797 107.084 139.168V134.581H105.737V133.604H107.084V131.812H108.349ZM112.478 134.499C113.038 133.811 113.767 133.467 114.665 133.467C116.228 133.467 117.017 134.349 117.03 136.112V141H115.766V136.105C115.761 135.572 115.638 135.178 115.396 134.923C115.16 134.668 114.788 134.54 114.282 134.54C113.872 134.54 113.512 134.649 113.202 134.868C112.892 135.087 112.651 135.374 112.478 135.729V141H111.213V130.5H112.478V134.499ZM121.993 141.137C120.991 141.137 120.175 140.809 119.546 140.152C118.917 139.492 118.603 138.61 118.603 137.507V137.274C118.603 136.541 118.742 135.887 119.02 135.312C119.302 134.734 119.694 134.283 120.195 133.959C120.701 133.631 121.248 133.467 121.836 133.467C122.798 133.467 123.545 133.784 124.078 134.417C124.611 135.05 124.878 135.957 124.878 137.138V137.664H119.867C119.885 138.393 120.097 138.983 120.503 139.435C120.913 139.881 121.433 140.104 122.062 140.104C122.508 140.104 122.886 140.013 123.196 139.831C123.506 139.649 123.777 139.407 124.01 139.106L124.782 139.708C124.162 140.66 123.233 141.137 121.993 141.137ZM121.836 134.506C121.326 134.506 120.897 134.693 120.551 135.066C120.204 135.436 119.99 135.955 119.908 136.625H123.613V136.529C123.577 135.887 123.404 135.39 123.094 135.039C122.784 134.684 122.365 134.506 121.836 134.506ZM133.396 134.738C133.204 134.706 132.997 134.69 132.773 134.69C131.944 134.69 131.381 135.044 131.085 135.75V141H129.82V133.604H131.051L131.071 134.458C131.486 133.797 132.074 133.467 132.835 133.467C133.081 133.467 133.268 133.499 133.396 133.562V134.738ZM137.497 141.137C136.494 141.137 135.679 140.809 135.05 140.152C134.421 139.492 134.106 138.61 134.106 137.507V137.274C134.106 136.541 134.245 135.887 134.523 135.312C134.806 134.734 135.198 134.283 135.699 133.959C136.205 133.631 136.752 133.467 137.34 133.467C138.301 133.467 139.049 133.784 139.582 134.417C140.115 135.05 140.382 135.957 140.382 137.138V137.664H135.371C135.389 138.393 135.601 138.983 136.007 139.435C136.417 139.881 136.937 140.104 137.565 140.104C138.012 140.104 138.39 140.013 138.7 139.831C139.01 139.649 139.281 139.407 139.514 139.106L140.286 139.708C139.666 140.66 138.737 141.137 137.497 141.137ZM137.34 134.506C136.829 134.506 136.401 134.693 136.055 135.066C135.708 135.436 135.494 135.955 135.412 136.625H139.117V136.529C139.081 135.887 138.908 135.39 138.598 135.039C138.288 134.684 137.868 134.506 137.34 134.506ZM141.544 137.24C141.544 136.078 141.811 135.16 142.344 134.485C142.877 133.806 143.592 133.467 144.49 133.467C145.365 133.467 146.056 133.761 146.562 134.349L146.616 133.604H147.778V143.844H146.514V140.316C146.003 140.863 145.324 141.137 144.477 141.137C143.583 141.137 142.87 140.79 142.337 140.098C141.808 139.4 141.544 138.478 141.544 137.329V137.24ZM142.809 137.384C142.809 138.231 142.986 138.897 143.342 139.38C143.702 139.863 144.185 140.104 144.791 140.104C145.543 140.104 146.117 139.772 146.514 139.106V135.483C146.113 134.832 145.543 134.506 144.805 134.506C144.194 134.506 143.709 134.75 143.349 135.237C142.989 135.72 142.809 136.436 142.809 137.384ZM154.375 140.269C153.883 140.847 153.16 141.137 152.208 141.137C151.42 141.137 150.818 140.909 150.403 140.453C149.993 139.993 149.786 139.314 149.781 138.416V133.604H151.046V138.382C151.046 139.503 151.502 140.063 152.413 140.063C153.379 140.063 154.022 139.703 154.341 138.983V133.604H155.605V141H154.402L154.375 140.269ZM158.907 141H157.643V133.604H158.907V141ZM157.54 131.642C157.54 131.437 157.602 131.263 157.725 131.122C157.852 130.981 158.039 130.91 158.285 130.91C158.531 130.91 158.718 130.981 158.846 131.122C158.973 131.263 159.037 131.437 159.037 131.642C159.037 131.847 158.973 132.018 158.846 132.154C158.718 132.291 158.531 132.359 158.285 132.359C158.039 132.359 157.852 132.291 157.725 132.154C157.602 132.018 157.54 131.847 157.54 131.642ZM164.513 134.738C164.321 134.706 164.114 134.69 163.891 134.69C163.061 134.69 162.498 135.044 162.202 135.75V141H160.938V133.604H162.168L162.188 134.458C162.603 133.797 163.191 133.467 163.952 133.467C164.198 133.467 164.385 133.499 164.513 133.562V134.738ZM168.614 141.137C167.612 141.137 166.796 140.809 166.167 140.152C165.538 139.492 165.224 138.61 165.224 137.507V137.274C165.224 136.541 165.363 135.887 165.641 135.312C165.923 134.734 166.315 134.283 166.816 133.959C167.322 133.631 167.869 133.467 168.457 133.467C169.419 133.467 170.166 133.784 170.699 134.417C171.232 135.05 171.499 135.957 171.499 137.138V137.664H166.488C166.507 138.393 166.718 138.983 167.124 139.435C167.534 139.881 168.054 140.104 168.683 140.104C169.129 140.104 169.507 140.013 169.817 139.831C170.127 139.649 170.398 139.407 170.631 139.106L171.403 139.708C170.784 140.66 169.854 141.137 168.614 141.137ZM168.457 134.506C167.947 134.506 167.518 134.693 167.172 135.066C166.826 135.436 166.611 135.955 166.529 136.625H170.234V136.529C170.198 135.887 170.025 135.39 169.715 135.039C169.405 134.684 168.986 134.506 168.457 134.506ZM174.158 133.604L174.192 134.424C174.735 133.786 175.466 133.467 176.387 133.467C177.421 133.467 178.125 133.863 178.499 134.656C178.745 134.301 179.064 134.014 179.456 133.795C179.853 133.576 180.32 133.467 180.857 133.467C182.48 133.467 183.305 134.326 183.332 136.044V141H182.067V136.119C182.067 135.59 181.947 135.196 181.705 134.937C181.464 134.672 181.058 134.54 180.488 134.54C180.019 134.54 179.629 134.681 179.319 134.964C179.009 135.242 178.829 135.618 178.779 136.092V141H177.508V136.153C177.508 135.078 176.981 134.54 175.929 134.54C175.099 134.54 174.532 134.893 174.227 135.6V141H172.962V133.604H174.158ZM188.315 141.137C187.313 141.137 186.497 140.809 185.868 140.152C185.239 139.492 184.925 138.61 184.925 137.507V137.274C184.925 136.541 185.064 135.887 185.342 135.312C185.624 134.734 186.016 134.283 186.518 133.959C187.023 133.631 187.57 133.467 188.158 133.467C189.12 133.467 189.867 133.784 190.4 134.417C190.934 135.05 191.2 135.957 191.2 137.138V137.664H186.189C186.208 138.393 186.42 138.983 186.825 139.435C187.235 139.881 187.755 140.104 188.384 140.104C188.83 140.104 189.209 140.013 189.519 139.831C189.828 139.649 190.1 139.407 190.332 139.106L191.104 139.708C190.485 140.66 189.555 141.137 188.315 141.137ZM188.158 134.506C187.648 134.506 187.219 134.693 186.873 135.066C186.527 135.436 186.312 135.955 186.23 136.625H189.936V136.529C189.899 135.887 189.726 135.39 189.416 135.039C189.106 134.684 188.687 134.506 188.158 134.506ZM193.866 133.604L193.907 134.533C194.472 133.822 195.211 133.467 196.122 133.467C197.685 133.467 198.474 134.349 198.487 136.112V141H197.223V136.105C197.218 135.572 197.095 135.178 196.854 134.923C196.617 134.668 196.245 134.54 195.739 134.54C195.329 134.54 194.969 134.649 194.659 134.868C194.349 135.087 194.108 135.374 193.935 135.729V141H192.67V133.604H193.866ZM202.11 131.812V133.604H203.491V134.581H202.11V139.168C202.11 139.464 202.172 139.688 202.295 139.838C202.418 139.984 202.628 140.057 202.924 140.057C203.07 140.057 203.27 140.029 203.525 139.975V141C203.193 141.091 202.869 141.137 202.555 141.137C201.99 141.137 201.563 140.966 201.276 140.624C200.989 140.282 200.846 139.797 200.846 139.168V134.581H199.499V133.604H200.846V131.812H202.11ZM209.281 139.038C209.281 138.696 209.151 138.432 208.892 138.245C208.636 138.054 208.188 137.89 207.545 137.753C206.907 137.616 206.399 137.452 206.021 137.261C205.647 137.069 205.369 136.841 205.187 136.577C205.009 136.313 204.92 135.998 204.92 135.634C204.92 135.028 205.175 134.515 205.686 134.096C206.201 133.676 206.857 133.467 207.654 133.467C208.493 133.467 209.172 133.683 209.691 134.116C210.215 134.549 210.478 135.103 210.478 135.777H209.206C209.206 135.431 209.058 135.132 208.762 134.882C208.47 134.631 208.101 134.506 207.654 134.506C207.194 134.506 206.834 134.606 206.574 134.807C206.314 135.007 206.185 135.269 206.185 135.593C206.185 135.898 206.305 136.128 206.547 136.283C206.788 136.438 207.224 136.586 207.853 136.728C208.486 136.869 208.999 137.037 209.391 137.233C209.783 137.429 210.072 137.666 210.259 137.944C210.45 138.218 210.546 138.553 210.546 138.949C210.546 139.61 210.282 140.141 209.753 140.542C209.224 140.938 208.538 141.137 207.695 141.137C207.103 141.137 206.579 141.032 206.123 140.822C205.667 140.613 205.31 140.321 205.05 139.947C204.795 139.569 204.667 139.161 204.667 138.724H205.932C205.954 139.147 206.123 139.485 206.438 139.735C206.757 139.981 207.176 140.104 207.695 140.104C208.174 140.104 208.557 140.009 208.844 139.817C209.135 139.621 209.281 139.362 209.281 139.038ZM220.232 141C220.16 140.854 220.1 140.594 220.055 140.221C219.467 140.831 218.765 141.137 217.949 141.137C217.22 141.137 216.621 140.932 216.151 140.521C215.687 140.107 215.454 139.583 215.454 138.949C215.454 138.179 215.746 137.582 216.329 137.158C216.917 136.73 217.742 136.516 218.804 136.516H220.034V135.935C220.034 135.493 219.902 135.142 219.638 134.882C219.373 134.618 218.984 134.485 218.469 134.485C218.018 134.485 217.639 134.599 217.334 134.827C217.029 135.055 216.876 135.331 216.876 135.654H215.604C215.604 135.285 215.734 134.93 215.994 134.588C216.258 134.242 216.614 133.968 217.061 133.768C217.512 133.567 218.006 133.467 218.544 133.467C219.396 133.467 220.064 133.681 220.547 134.109C221.03 134.533 221.281 135.119 221.299 135.866V139.271C221.299 139.95 221.385 140.49 221.559 140.891V141H220.232ZM218.134 140.036C218.53 140.036 218.906 139.934 219.262 139.729C219.617 139.523 219.875 139.257 220.034 138.929V137.411H219.043C217.493 137.411 216.719 137.865 216.719 138.771C216.719 139.168 216.851 139.478 217.115 139.701C217.38 139.924 217.719 140.036 218.134 140.036ZM224.478 133.604L224.519 134.533C225.084 133.822 225.822 133.467 226.733 133.467C228.297 133.467 229.085 134.349 229.099 136.112V141H227.834V136.105C227.829 135.572 227.706 135.178 227.465 134.923C227.228 134.668 226.856 134.54 226.351 134.54C225.94 134.54 225.58 134.649 225.271 134.868C224.961 135.087 224.719 135.374 224.546 135.729V141H223.281V133.604H224.478ZM230.698 137.24C230.698 136.105 230.967 135.194 231.505 134.506C232.043 133.813 232.747 133.467 233.617 133.467C234.483 133.467 235.169 133.763 235.675 134.355V130.5H236.939V141H235.777L235.716 140.207C235.21 140.827 234.506 141.137 233.604 141.137C232.747 141.137 232.047 140.786 231.505 140.084C230.967 139.382 230.698 138.466 230.698 137.336V137.24ZM231.963 137.384C231.963 138.222 232.136 138.879 232.482 139.353C232.829 139.826 233.307 140.063 233.918 140.063C234.72 140.063 235.306 139.703 235.675 138.983V135.586C235.297 134.889 234.715 134.54 233.932 134.54C233.312 134.54 232.829 134.779 232.482 135.258C232.136 135.736 231.963 136.445 231.963 137.384ZM244.097 131.812V133.604H245.478V134.581H244.097V139.168C244.097 139.464 244.158 139.688 244.281 139.838C244.404 139.984 244.614 140.057 244.91 140.057C245.056 140.057 245.257 140.029 245.512 139.975V141C245.179 141.091 244.855 141.137 244.541 141.137C243.976 141.137 243.55 140.966 243.263 140.624C242.976 140.282 242.832 139.797 242.832 139.168V134.581H241.485V133.604H242.832V131.812H244.097ZM250.03 141.137C249.028 141.137 248.212 140.809 247.583 140.152C246.954 139.492 246.64 138.61 246.64 137.507V137.274C246.64 136.541 246.779 135.887 247.057 135.312C247.339 134.734 247.731 134.283 248.232 133.959C248.738 133.631 249.285 133.467 249.873 133.467C250.835 133.467 251.582 133.784 252.115 134.417C252.648 135.05 252.915 135.957 252.915 137.138V137.664H247.904C247.923 138.393 248.134 138.983 248.54 139.435C248.95 139.881 249.47 140.104 250.099 140.104C250.545 140.104 250.924 140.013 251.233 139.831C251.543 139.649 251.814 139.407 252.047 139.106L252.819 139.708C252.2 140.66 251.27 141.137 250.03 141.137ZM249.873 134.506C249.363 134.506 248.934 134.693 248.588 135.066C248.242 135.436 248.027 135.955 247.945 136.625H251.65V136.529C251.614 135.887 251.441 135.39 251.131 135.039C250.821 134.684 250.402 134.506 249.873 134.506ZM257.96 134.738C257.769 134.706 257.561 134.69 257.338 134.69C256.508 134.69 255.946 135.044 255.649 135.75V141H254.385V133.604H255.615L255.636 134.458C256.05 133.797 256.638 133.467 257.399 133.467C257.646 133.467 257.832 133.499 257.96 133.562V134.738ZM260.318 133.604L260.353 134.424C260.895 133.786 261.626 133.467 262.547 133.467C263.581 133.467 264.285 133.863 264.659 134.656C264.905 134.301 265.224 134.014 265.616 133.795C266.013 133.576 266.48 133.467 267.018 133.467C268.64 133.467 269.465 134.326 269.492 136.044V141H268.228V136.119C268.228 135.59 268.107 135.196 267.865 134.937C267.624 134.672 267.218 134.54 266.648 134.54C266.179 134.54 265.789 134.681 265.479 134.964C265.17 135.242 264.99 135.618 264.939 136.092V141H263.668V136.153C263.668 135.078 263.142 134.54 262.089 134.54C261.259 134.54 260.692 134.893 260.387 135.6V141H259.122V133.604H260.318ZM275.713 139.038C275.713 138.696 275.583 138.432 275.323 138.245C275.068 138.054 274.619 137.89 273.977 137.753C273.339 137.616 272.83 137.452 272.452 137.261C272.078 137.069 271.8 136.841 271.618 136.577C271.44 136.313 271.352 135.998 271.352 135.634C271.352 135.028 271.607 134.515 272.117 134.096C272.632 133.676 273.288 133.467 274.086 133.467C274.924 133.467 275.604 133.683 276.123 134.116C276.647 134.549 276.909 135.103 276.909 135.777H275.638C275.638 135.431 275.49 135.132 275.193 134.882C274.902 134.631 274.533 134.506 274.086 134.506C273.626 134.506 273.266 134.606 273.006 134.807C272.746 135.007 272.616 135.269 272.616 135.593C272.616 135.898 272.737 136.128 272.979 136.283C273.22 136.438 273.655 136.586 274.284 136.728C274.918 136.869 275.43 137.037 275.822 137.233C276.214 137.429 276.504 137.666 276.69 137.944C276.882 138.218 276.978 138.553 276.978 138.949C276.978 139.61 276.713 140.141 276.185 140.542C275.656 140.938 274.97 141.137 274.127 141.137C273.535 141.137 273.01 141.032 272.555 140.822C272.099 140.613 271.741 140.321 271.481 139.947C271.226 139.569 271.099 139.161 271.099 138.724H272.363C272.386 139.147 272.555 139.485 272.869 139.735C273.188 139.981 273.607 140.104 274.127 140.104C274.605 140.104 274.988 140.009 275.275 139.817C275.567 139.621 275.713 139.362 275.713 139.038ZM281.763 137.233C281.763 136.509 281.904 135.857 282.187 135.278C282.474 134.7 282.87 134.253 283.376 133.938C283.886 133.624 284.467 133.467 285.119 133.467C286.126 133.467 286.94 133.815 287.56 134.513C288.184 135.21 288.496 136.137 288.496 137.295V137.384C288.496 138.104 288.357 138.751 288.079 139.325C287.806 139.895 287.411 140.339 286.896 140.658C286.386 140.977 285.798 141.137 285.133 141.137C284.13 141.137 283.317 140.788 282.692 140.091C282.073 139.394 281.763 138.471 281.763 137.322V137.233ZM283.034 137.384C283.034 138.204 283.223 138.863 283.602 139.359C283.984 139.856 284.495 140.104 285.133 140.104C285.775 140.104 286.286 139.854 286.664 139.353C287.042 138.847 287.231 138.14 287.231 137.233C287.231 136.422 287.038 135.766 286.65 135.265C286.268 134.759 285.757 134.506 285.119 134.506C284.495 134.506 283.991 134.754 283.608 135.251C283.226 135.748 283.034 136.459 283.034 137.384ZM290.704 141V134.581H289.535V133.604H290.704V132.845C290.704 132.052 290.916 131.439 291.34 131.006C291.764 130.573 292.363 130.356 293.138 130.356C293.429 130.356 293.719 130.395 294.006 130.473L293.938 131.498C293.723 131.457 293.495 131.437 293.254 131.437C292.844 131.437 292.527 131.557 292.304 131.799C292.08 132.036 291.969 132.378 291.969 132.824V133.604H293.548V134.581H291.969V141H290.704ZM304.971 139.257L306.393 133.604H307.657L305.504 141H304.479L302.681 135.395L300.931 141H299.905L297.759 133.604H299.017L300.473 139.141L302.195 133.604H303.214L304.971 139.257ZM308.614 137.233C308.614 136.509 308.756 135.857 309.038 135.278C309.325 134.7 309.722 134.253 310.228 133.938C310.738 133.624 311.319 133.467 311.971 133.467C312.978 133.467 313.791 133.815 314.411 134.513C315.035 135.21 315.348 136.137 315.348 137.295V137.384C315.348 138.104 315.209 138.751 314.931 139.325C314.657 139.895 314.263 140.339 313.748 140.658C313.238 140.977 312.65 141.137 311.984 141.137C310.982 141.137 310.168 140.788 309.544 140.091C308.924 139.394 308.614 138.471 308.614 137.322V137.233ZM309.886 137.384C309.886 138.204 310.075 138.863 310.453 139.359C310.836 139.856 311.346 140.104 311.984 140.104C312.627 140.104 313.137 139.854 313.516 139.353C313.894 138.847 314.083 138.14 314.083 137.233C314.083 136.422 313.889 135.766 313.502 135.265C313.119 134.759 312.609 134.506 311.971 134.506C311.346 134.506 310.843 134.754 310.46 135.251C310.077 135.748 309.886 136.459 309.886 137.384ZM320.509 134.738C320.317 134.706 320.11 134.69 319.887 134.69C319.057 134.69 318.494 135.044 318.198 135.75V141H316.934V133.604H318.164L318.185 134.458C318.599 133.797 319.187 133.467 319.948 133.467C320.194 133.467 320.381 133.499 320.509 133.562V134.738ZM323.742 137.575L322.949 138.402V141H321.685V130.5H322.949V136.851L323.626 136.037L325.93 133.604H327.468L324.59 136.693L327.803 141H326.319L323.742 137.575ZM336.812 141C336.74 140.854 336.68 140.594 336.635 140.221C336.047 140.831 335.345 141.137 334.529 141.137C333.8 141.137 333.201 140.932 332.731 140.521C332.267 140.107 332.034 139.583 332.034 138.949C332.034 138.179 332.326 137.582 332.909 137.158C333.497 136.73 334.322 136.516 335.384 136.516H336.614V135.935C336.614 135.493 336.482 135.142 336.218 134.882C335.953 134.618 335.564 134.485 335.049 134.485C334.598 134.485 334.219 134.599 333.914 134.827C333.609 135.055 333.456 135.331 333.456 135.654H332.185C332.185 135.285 332.314 134.93 332.574 134.588C332.839 134.242 333.194 133.968 333.641 133.768C334.092 133.567 334.586 133.467 335.124 133.467C335.976 133.467 336.644 133.681 337.127 134.109C337.61 134.533 337.861 135.119 337.879 135.866V139.271C337.879 139.95 337.965 140.49 338.139 140.891V141H336.812ZM334.714 140.036C335.11 140.036 335.486 139.934 335.842 139.729C336.197 139.523 336.455 139.257 336.614 138.929V137.411H335.623C334.074 137.411 333.299 137.865 333.299 138.771C333.299 139.168 333.431 139.478 333.695 139.701C333.96 139.924 334.299 140.036 334.714 140.036ZM341.058 133.604L341.099 134.533C341.664 133.822 342.402 133.467 343.313 133.467C344.877 133.467 345.665 134.349 345.679 136.112V141H344.414V136.105C344.41 135.572 344.286 135.178 344.045 134.923C343.808 134.668 343.437 134.54 342.931 134.54C342.521 134.54 342.16 134.649 341.851 134.868C341.541 135.087 341.299 135.374 341.126 135.729V141H339.861V133.604H341.058ZM347.278 137.24C347.278 136.105 347.547 135.194 348.085 134.506C348.623 133.813 349.327 133.467 350.197 133.467C351.063 133.467 351.749 133.763 352.255 134.355V130.5H353.52V141H352.357L352.296 140.207C351.79 140.827 351.086 141.137 350.184 141.137C349.327 141.137 348.627 140.786 348.085 140.084C347.547 139.382 347.278 138.466 347.278 137.336V137.24ZM348.543 137.384C348.543 138.222 348.716 138.879 349.062 139.353C349.409 139.826 349.887 140.063 350.498 140.063C351.3 140.063 351.886 139.703 352.255 138.983V135.586C351.877 134.889 351.296 134.54 350.512 134.54C349.892 134.54 349.409 134.779 349.062 135.258C348.716 135.736 348.543 136.445 348.543 137.384ZM26.1465 153.604L26.1807 154.424C26.723 153.786 27.4544 153.467 28.375 153.467C29.4095 153.467 30.1136 153.863 30.4873 154.656C30.7334 154.301 31.0524 154.014 31.4443 153.795C31.8408 153.576 32.3079 153.467 32.8457 153.467C34.4681 153.467 35.293 154.326 35.3203 156.044V161H34.0557V156.119C34.0557 155.59 33.9349 155.196 33.6934 154.937C33.4518 154.672 33.0462 154.54 32.4766 154.54C32.0072 154.54 31.6175 154.681 31.3076 154.964C30.9977 155.242 30.8177 155.618 30.7676 156.092V161H29.4961V156.153C29.4961 155.078 28.9697 154.54 27.917 154.54C27.0876 154.54 26.5202 154.893 26.2148 155.6V161H24.9502V153.604H26.1465ZM41.8008 161C41.7279 160.854 41.6686 160.594 41.623 160.221C41.0352 160.831 40.3333 161.137 39.5176 161.137C38.7884 161.137 38.1891 160.932 37.7197 160.521C37.2549 160.107 37.0225 159.583 37.0225 158.949C37.0225 158.179 37.3141 157.582 37.8975 157.158C38.4854 156.73 39.3102 156.516 40.3721 156.516H41.6025V155.935C41.6025 155.493 41.4704 155.142 41.2061 154.882C40.9417 154.618 40.5521 154.485 40.0371 154.485C39.5859 154.485 39.2077 154.599 38.9023 154.827C38.597 155.055 38.4443 155.331 38.4443 155.654H37.1729C37.1729 155.285 37.3027 154.93 37.5625 154.588C37.8268 154.242 38.1823 153.968 38.6289 153.768C39.0801 153.567 39.5745 153.467 40.1123 153.467C40.9645 153.467 41.6322 153.681 42.1152 154.109C42.5983 154.533 42.849 155.119 42.8672 155.866V159.271C42.8672 159.95 42.9538 160.49 43.127 160.891V161H41.8008ZM39.7021 160.036C40.0986 160.036 40.4746 159.934 40.8301 159.729C41.1855 159.523 41.443 159.257 41.6025 158.929V157.411H40.6113C39.0618 157.411 38.2871 157.865 38.2871 158.771C38.2871 159.168 38.4193 159.478 38.6836 159.701C38.9479 159.924 39.2874 160.036 39.7021 160.036ZM46.9141 157.575L46.1211 158.402V161H44.8564V150.5H46.1211V156.851L46.7979 156.037L49.1016 153.604H50.6396L47.7617 156.693L50.9746 161H49.4912L46.9141 157.575ZM54.8779 161.137C53.8753 161.137 53.0596 160.809 52.4307 160.152C51.8018 159.492 51.4873 158.61 51.4873 157.507V157.274C51.4873 156.541 51.6263 155.887 51.9043 155.312C52.1868 154.734 52.5788 154.283 53.0801 153.959C53.5859 153.631 54.1328 153.467 54.7207 153.467C55.6823 153.467 56.4297 153.784 56.9629 154.417C57.4961 155.05 57.7627 155.957 57.7627 157.138V157.664H52.752C52.7702 158.393 52.9821 158.983 53.3877 159.435C53.7979 159.881 54.3174 160.104 54.9463 160.104C55.3929 160.104 55.7712 160.013 56.0811 159.831C56.391 159.649 56.6621 159.407 56.8945 159.106L57.667 159.708C57.0472 160.66 56.1175 161.137 54.8779 161.137ZM54.7207 154.506C54.2103 154.506 53.7819 154.693 53.4355 155.066C53.0892 155.436 52.875 155.955 52.793 156.625H56.498V156.529C56.4616 155.887 56.2884 155.39 55.9785 155.039C55.6686 154.684 55.2493 154.506 54.7207 154.506ZM67.0117 159.038C67.0117 158.696 66.8818 158.432 66.6221 158.245C66.3669 158.054 65.918 157.89 65.2754 157.753C64.6374 157.616 64.1292 157.452 63.751 157.261C63.3773 157.069 63.0993 156.841 62.917 156.577C62.7393 156.313 62.6504 155.998 62.6504 155.634C62.6504 155.028 62.9056 154.515 63.416 154.096C63.931 153.676 64.5872 153.467 65.3848 153.467C66.2233 153.467 66.9023 153.683 67.4219 154.116C67.946 154.549 68.208 155.103 68.208 155.777H66.9365C66.9365 155.431 66.7884 155.132 66.4922 154.882C66.2005 154.631 65.8314 154.506 65.3848 154.506C64.9245 154.506 64.5645 154.606 64.3047 154.807C64.0449 155.007 63.915 155.269 63.915 155.593C63.915 155.898 64.0358 156.128 64.2773 156.283C64.5189 156.438 64.9541 156.586 65.583 156.728C66.2165 156.869 66.7292 157.037 67.1211 157.233C67.513 157.429 67.8024 157.666 67.9893 157.944C68.1807 158.218 68.2764 158.553 68.2764 158.949C68.2764 159.61 68.012 160.141 67.4834 160.542C66.9548 160.938 66.2689 161.137 65.4258 161.137C64.8333 161.137 64.3092 161.032 63.8535 160.822C63.3978 160.613 63.04 160.321 62.7803 159.947C62.5251 159.569 62.3975 159.161 62.3975 158.724H63.6621C63.6849 159.147 63.8535 159.485 64.168 159.735C64.487 159.981 64.9062 160.104 65.4258 160.104C65.9043 160.104 66.2871 160.009 66.5742 159.817C66.8659 159.621 67.0117 159.362 67.0117 159.038ZM74.4902 160.269C73.998 160.847 73.2757 161.137 72.3232 161.137C71.5348 161.137 70.9333 160.909 70.5186 160.453C70.1084 159.993 69.901 159.314 69.8965 158.416V153.604H71.1611V158.382C71.1611 159.503 71.6169 160.063 72.5283 160.063C73.4945 160.063 74.137 159.703 74.4561 158.983V153.604H75.7207V161H74.5176L74.4902 160.269ZM81.2236 154.738C81.0322 154.706 80.8249 154.69 80.6016 154.69C79.7721 154.69 79.2093 155.044 78.9131 155.75V161H77.6484V153.604H78.8789L78.8994 154.458C79.3141 153.797 79.902 153.467 80.6631 153.467C80.9092 153.467 81.096 153.499 81.2236 153.562V154.738ZM85.3252 161.137C84.3226 161.137 83.5068 160.809 82.8779 160.152C82.249 159.492 81.9346 158.61 81.9346 157.507V157.274C81.9346 156.541 82.0736 155.887 82.3516 155.312C82.6341 154.734 83.026 154.283 83.5273 153.959C84.0332 153.631 84.5801 153.467 85.168 153.467C86.1296 153.467 86.877 153.784 87.4102 154.417C87.9434 155.05 88.21 155.957 88.21 157.138V157.664H83.1992C83.2174 158.393 83.4294 158.983 83.835 159.435C84.2451 159.881 84.7646 160.104 85.3936 160.104C85.8402 160.104 86.2184 160.013 86.5283 159.831C86.8382 159.649 87.1094 159.407 87.3418 159.106L88.1143 159.708C87.4945 160.66 86.5648 161.137 85.3252 161.137ZM85.168 154.506C84.6576 154.506 84.2292 154.693 83.8828 155.066C83.5365 155.436 83.3223 155.955 83.2402 156.625H86.9453V156.529C86.9089 155.887 86.7357 155.39 86.4258 155.039C86.1159 154.684 85.6966 154.506 85.168 154.506ZM96.2217 161.137C95.2191 161.137 94.4033 160.809 93.7744 160.152C93.1455 159.492 92.8311 158.61 92.8311 157.507V157.274C92.8311 156.541 92.9701 155.887 93.248 155.312C93.5306 154.734 93.9225 154.283 94.4238 153.959C94.9297 153.631 95.4766 153.467 96.0645 153.467C97.026 153.467 97.7734 153.784 98.3066 154.417C98.8398 155.05 99.1064 155.957 99.1064 157.138V157.664H94.0957C94.1139 158.393 94.3258 158.983 94.7314 159.435C95.1416 159.881 95.6611 160.104 96.29 160.104C96.7367 160.104 97.1149 160.013 97.4248 159.831C97.7347 159.649 98.0059 159.407 98.2383 159.106L99.0107 159.708C98.391 160.66 97.4613 161.137 96.2217 161.137ZM96.0645 154.506C95.554 154.506 95.1257 154.693 94.7793 155.066C94.4329 155.436 94.2188 155.955 94.1367 156.625H97.8418V156.529C97.8053 155.887 97.6322 155.39 97.3223 155.039C97.0124 154.684 96.5931 154.506 96.0645 154.506ZM102.921 159.284L104.753 153.604H106.045L103.393 161H102.429L99.749 153.604H101.041L102.921 159.284ZM110.235 161.137C109.233 161.137 108.417 160.809 107.788 160.152C107.159 159.492 106.845 158.61 106.845 157.507V157.274C106.845 156.541 106.984 155.887 107.262 155.312C107.544 154.734 107.936 154.283 108.438 153.959C108.943 153.631 109.49 153.467 110.078 153.467C111.04 153.467 111.787 153.784 112.32 154.417C112.854 155.05 113.12 155.957 113.12 157.138V157.664H108.109C108.128 158.393 108.34 158.983 108.745 159.435C109.155 159.881 109.675 160.104 110.304 160.104C110.75 160.104 111.129 160.013 111.438 159.831C111.748 159.649 112.02 159.407 112.252 159.106L113.024 159.708C112.405 160.66 111.475 161.137 110.235 161.137ZM110.078 154.506C109.568 154.506 109.139 154.693 108.793 155.066C108.447 155.436 108.232 155.955 108.15 156.625H111.855V156.529C111.819 155.887 111.646 155.39 111.336 155.039C111.026 154.684 110.607 154.506 110.078 154.506ZM118.165 154.738C117.974 154.706 117.766 154.69 117.543 154.69C116.714 154.69 116.151 155.044 115.854 155.75V161H114.59V153.604H115.82L115.841 154.458C116.256 153.797 116.843 153.467 117.604 153.467C117.851 153.467 118.037 153.499 118.165 153.562V154.738ZM121.877 159.147L123.6 153.604H124.953L121.979 162.142C121.519 163.372 120.788 163.987 119.785 163.987L119.546 163.967L119.074 163.878V162.853L119.416 162.88C119.844 162.88 120.177 162.793 120.414 162.62C120.656 162.447 120.854 162.13 121.009 161.67L121.289 160.918L118.65 153.604H120.031L121.877 159.147ZM127.804 151.812V153.604H129.185V154.581H127.804V159.168C127.804 159.464 127.865 159.688 127.988 159.838C128.111 159.984 128.321 160.057 128.617 160.057C128.763 160.057 128.964 160.029 129.219 159.975V161C128.886 161.091 128.562 161.137 128.248 161.137C127.683 161.137 127.257 160.966 126.97 160.624C126.683 160.282 126.539 159.797 126.539 159.168V154.581H125.192V153.604H126.539V151.812H127.804ZM131.933 154.499C132.493 153.811 133.222 153.467 134.12 153.467C135.683 153.467 136.472 154.349 136.485 156.112V161H135.221V156.105C135.216 155.572 135.093 155.178 134.852 154.923C134.615 154.668 134.243 154.54 133.737 154.54C133.327 154.54 132.967 154.649 132.657 154.868C132.347 155.087 132.106 155.374 131.933 155.729V161H130.668V150.5H131.933V154.499ZM139.753 161H138.488V153.604H139.753V161ZM138.386 151.642C138.386 151.437 138.447 151.263 138.57 151.122C138.698 150.981 138.885 150.91 139.131 150.91C139.377 150.91 139.564 150.981 139.691 151.122C139.819 151.263 139.883 151.437 139.883 151.642C139.883 151.847 139.819 152.018 139.691 152.154C139.564 152.291 139.377 152.359 139.131 152.359C138.885 152.359 138.698 152.291 138.57 152.154C138.447 152.018 138.386 151.847 138.386 151.642ZM142.979 153.604L143.021 154.533C143.586 153.822 144.324 153.467 145.235 153.467C146.799 153.467 147.587 154.349 147.601 156.112V161H146.336V156.105C146.331 155.572 146.208 155.178 145.967 154.923C145.73 154.668 145.358 154.54 144.853 154.54C144.442 154.54 144.082 154.649 143.772 154.868C143.463 155.087 143.221 155.374 143.048 155.729V161H141.783V153.604H142.979ZM149.207 157.24C149.207 156.087 149.474 155.171 150.007 154.492C150.54 153.809 151.246 153.467 152.126 153.467C153.028 153.467 153.732 153.786 154.238 154.424L154.3 153.604H155.455V160.822C155.455 161.779 155.17 162.534 154.601 163.085C154.035 163.636 153.274 163.912 152.317 163.912C151.784 163.912 151.262 163.798 150.752 163.57C150.242 163.342 149.852 163.03 149.583 162.634L150.239 161.875C150.782 162.545 151.445 162.88 152.229 162.88C152.844 162.88 153.322 162.707 153.664 162.36C154.01 162.014 154.184 161.526 154.184 160.897V160.262C153.678 160.845 152.987 161.137 152.112 161.137C151.246 161.137 150.545 160.788 150.007 160.091C149.474 159.394 149.207 158.443 149.207 157.24ZM150.479 157.384C150.479 158.218 150.649 158.874 150.991 159.353C151.333 159.826 151.812 160.063 152.427 160.063C153.224 160.063 153.81 159.701 154.184 158.977V155.6C153.796 154.893 153.215 154.54 152.44 154.54C151.825 154.54 151.344 154.779 150.998 155.258C150.652 155.736 150.479 156.445 150.479 157.384ZM162.216 161H160.951V153.604H162.216V161ZM160.849 151.642C160.849 151.437 160.91 151.263 161.033 151.122C161.161 150.981 161.348 150.91 161.594 150.91C161.84 150.91 162.027 150.981 162.154 151.122C162.282 151.263 162.346 151.437 162.346 151.642C162.346 151.847 162.282 152.018 162.154 152.154C162.027 152.291 161.84 152.359 161.594 152.359C161.348 152.359 161.161 152.291 161.033 152.154C160.91 152.018 160.849 151.847 160.849 151.642ZM168.553 159.038C168.553 158.696 168.423 158.432 168.163 158.245C167.908 158.054 167.459 157.89 166.816 157.753C166.178 157.616 165.67 157.452 165.292 157.261C164.918 157.069 164.64 156.841 164.458 156.577C164.28 156.313 164.191 155.998 164.191 155.634C164.191 155.028 164.447 154.515 164.957 154.096C165.472 153.676 166.128 153.467 166.926 153.467C167.764 153.467 168.443 153.683 168.963 154.116C169.487 154.549 169.749 155.103 169.749 155.777H168.478C168.478 155.431 168.329 155.132 168.033 154.882C167.742 154.631 167.372 154.506 166.926 154.506C166.465 154.506 166.105 154.606 165.846 154.807C165.586 155.007 165.456 155.269 165.456 155.593C165.456 155.898 165.577 156.128 165.818 156.283C166.06 156.438 166.495 156.586 167.124 156.728C167.757 156.869 168.27 157.037 168.662 157.233C169.054 157.429 169.343 157.666 169.53 157.944C169.722 158.218 169.817 158.553 169.817 158.949C169.817 159.61 169.553 160.141 169.024 160.542C168.496 160.938 167.81 161.137 166.967 161.137C166.374 161.137 165.85 161.032 165.395 160.822C164.939 160.613 164.581 160.321 164.321 159.947C164.066 159.569 163.938 159.161 163.938 158.724H165.203C165.226 159.147 165.395 159.485 165.709 159.735C166.028 159.981 166.447 160.104 166.967 160.104C167.445 160.104 167.828 160.009 168.115 159.817C168.407 159.621 168.553 159.362 168.553 159.038ZM178.513 154.738C178.321 154.706 178.114 154.69 177.891 154.69C177.061 154.69 176.498 155.044 176.202 155.75V161H174.938V153.604H176.168L176.188 154.458C176.603 153.797 177.191 153.467 177.952 153.467C178.198 153.467 178.385 153.499 178.513 153.562V154.738ZM181.056 161H179.791V153.604H181.056V161ZM179.688 151.642C179.688 151.437 179.75 151.263 179.873 151.122C180.001 150.981 180.188 150.91 180.434 150.91C180.68 150.91 180.867 150.981 180.994 151.122C181.122 151.263 181.186 151.437 181.186 151.642C181.186 151.847 181.122 152.018 180.994 152.154C180.867 152.291 180.68 152.359 180.434 152.359C180.188 152.359 180.001 152.291 179.873 152.154C179.75 152.018 179.688 151.847 179.688 151.642ZM182.785 157.24C182.785 156.087 183.052 155.171 183.585 154.492C184.118 153.809 184.825 153.467 185.704 153.467C186.606 153.467 187.311 153.786 187.816 154.424L187.878 153.604H189.033V160.822C189.033 161.779 188.748 162.534 188.179 163.085C187.614 163.636 186.853 163.912 185.896 163.912C185.362 163.912 184.84 163.798 184.33 163.57C183.82 163.342 183.43 163.03 183.161 162.634L183.817 161.875C184.36 162.545 185.023 162.88 185.807 162.88C186.422 162.88 186.9 162.707 187.242 162.36C187.589 162.014 187.762 161.526 187.762 160.897V160.262C187.256 160.845 186.565 161.137 185.69 161.137C184.825 161.137 184.123 160.788 183.585 160.091C183.052 159.394 182.785 158.443 182.785 157.24ZM184.057 157.384C184.057 158.218 184.228 158.874 184.569 159.353C184.911 159.826 185.39 160.063 186.005 160.063C186.802 160.063 187.388 159.701 187.762 158.977V155.6C187.374 154.893 186.793 154.54 186.019 154.54C185.403 154.54 184.923 154.779 184.576 155.258C184.23 155.736 184.057 156.445 184.057 157.384ZM192.212 154.499C192.772 153.811 193.502 153.467 194.399 153.467C195.963 153.467 196.751 154.349 196.765 156.112V161H195.5V156.105C195.495 155.572 195.372 155.178 195.131 154.923C194.894 154.668 194.522 154.54 194.017 154.54C193.606 154.54 193.246 154.649 192.937 154.868C192.627 155.087 192.385 155.374 192.212 155.729V161H190.947V150.5H192.212V154.499ZM200.374 151.812V153.604H201.755V154.581H200.374V159.168C200.374 159.464 200.436 159.688 200.559 159.838C200.682 159.984 200.891 160.057 201.188 160.057C201.333 160.057 201.534 160.029 201.789 159.975V161C201.456 161.091 201.133 161.137 200.818 161.137C200.253 161.137 199.827 160.966 199.54 160.624C199.253 160.282 199.109 159.797 199.109 159.168V154.581H197.763V153.604H199.109V151.812H200.374ZM203.266 160.337C203.266 160.118 203.329 159.936 203.457 159.79C203.589 159.644 203.785 159.571 204.045 159.571C204.305 159.571 204.501 159.644 204.633 159.79C204.77 159.936 204.838 160.118 204.838 160.337C204.838 160.547 204.77 160.722 204.633 160.863C204.501 161.005 204.305 161.075 204.045 161.075C203.785 161.075 203.589 161.005 203.457 160.863C203.329 160.722 203.266 160.547 203.266 160.337Z" fill="white"/>
<path d="M31.084 207.742V208.778H28.424V217.5H27.15V208.778H24.476V207.742H31.084ZM35.9982 217.626C35.2796 217.626 34.6262 217.463 34.0382 217.136C33.4596 216.809 33.0022 216.347 32.6662 215.75C32.3396 215.143 32.1762 214.443 32.1762 213.65C32.1762 212.866 32.3442 212.175 32.6802 211.578C33.0256 210.971 33.4922 210.509 34.0802 210.192C34.6682 209.865 35.3262 209.702 36.0542 209.702C36.7822 209.702 37.4402 209.865 38.0282 210.192C38.6162 210.509 39.0782 210.967 39.4142 211.564C39.7596 212.161 39.9322 212.857 39.9322 213.65C39.9322 214.443 39.7549 215.143 39.4002 215.75C39.0549 216.347 38.5836 216.809 37.9862 217.136C37.3889 217.463 36.7262 217.626 35.9982 217.626ZM35.9982 216.506C36.4556 216.506 36.8849 216.399 37.2862 216.184C37.6876 215.969 38.0096 215.647 38.2522 215.218C38.5042 214.789 38.6302 214.266 38.6302 213.65C38.6302 213.034 38.5089 212.511 38.2662 212.082C38.0236 211.653 37.7062 211.335 37.3142 211.13C36.9222 210.915 36.4976 210.808 36.0402 210.808C35.5736 210.808 35.1442 210.915 34.7522 211.13C34.3696 211.335 34.0616 211.653 33.8282 212.082C33.5949 212.511 33.4782 213.034 33.4782 213.65C33.4782 214.275 33.5902 214.803 33.8142 215.232C34.0476 215.661 34.3556 215.983 34.7382 216.198C35.1209 216.403 35.5409 216.506 35.9982 216.506ZM41.1313 213.636C41.1313 212.852 41.29 212.166 41.6073 211.578C41.9246 210.981 42.3586 210.519 42.9093 210.192C43.4693 209.865 44.0946 209.702 44.7853 209.702C45.3826 209.702 45.938 209.842 46.4513 210.122C46.9646 210.393 47.3566 210.752 47.6273 211.2V207.14H48.9153V217.5H47.6273V216.058C47.3753 216.515 47.002 216.893 46.5073 217.192C46.0126 217.481 45.434 217.626 44.7713 217.626C44.09 217.626 43.4693 217.458 42.9093 217.122C42.3586 216.786 41.9246 216.315 41.6073 215.708C41.29 215.101 41.1313 214.411 41.1313 213.636ZM47.6273 213.65C47.6273 213.071 47.5106 212.567 47.2773 212.138C47.044 211.709 46.7266 211.382 46.3253 211.158C45.9333 210.925 45.4993 210.808 45.0233 210.808C44.5473 210.808 44.1133 210.92 43.7213 211.144C43.3293 211.368 43.0166 211.695 42.7833 212.124C42.55 212.553 42.4333 213.057 42.4333 213.636C42.4333 214.224 42.55 214.737 42.7833 215.176C43.0166 215.605 43.3293 215.937 43.7213 216.17C44.1133 216.394 44.5473 216.506 45.0233 216.506C45.4993 216.506 45.9333 216.394 46.3253 216.17C46.7266 215.937 47.044 215.605 47.2773 215.176C47.5106 214.737 47.6273 214.229 47.6273 213.65ZM50.5922 213.636C50.5922 212.852 50.7509 212.166 51.0682 211.578C51.3856 210.981 51.8196 210.519 52.3702 210.192C52.9302 209.865 53.5509 209.702 54.2322 209.702C54.9042 209.702 55.4876 209.847 55.9822 210.136C56.4769 210.425 56.8456 210.789 57.0882 211.228V209.828H58.3762V217.5H57.0882V216.072C56.8362 216.52 56.4582 216.893 55.9542 217.192C55.4596 217.481 54.8809 217.626 54.2182 217.626C53.5369 217.626 52.9209 217.458 52.3702 217.122C51.8196 216.786 51.3856 216.315 51.0682 215.708C50.7509 215.101 50.5922 214.411 50.5922 213.636ZM57.0882 213.65C57.0882 213.071 56.9716 212.567 56.7382 212.138C56.5049 211.709 56.1876 211.382 55.7862 211.158C55.3942 210.925 54.9602 210.808 54.4842 210.808C54.0082 210.808 53.5742 210.92 53.1822 211.144C52.7902 211.368 52.4776 211.695 52.2442 212.124C52.0109 212.553 51.8942 213.057 51.8942 213.636C51.8942 214.224 52.0109 214.737 52.2442 215.176C52.4776 215.605 52.7902 215.937 53.1822 216.17C53.5742 216.394 54.0082 216.506 54.4842 216.506C54.9602 216.506 55.3942 216.394 55.7862 216.17C56.1876 215.937 56.5049 215.605 56.7382 215.176C56.9716 214.737 57.0882 214.229 57.0882 213.65ZM67.1372 209.828L62.5172 221.112H61.2012L62.7132 217.416L59.6192 209.828H61.0332L63.4412 216.044L65.8212 209.828H67.1372ZM78.7583 209.828L74.1383 221.112H72.8223L74.3343 217.416L71.2403 209.828H72.6543L75.0623 216.044L77.4423 209.828H78.7583ZM83.3849 217.626C82.6663 217.626 82.0129 217.463 81.4249 217.136C80.8463 216.809 80.3889 216.347 80.0529 215.75C79.7263 215.143 79.5629 214.443 79.5629 213.65C79.5629 212.866 79.7309 212.175 80.0669 211.578C80.4123 210.971 80.8789 210.509 81.4669 210.192C82.0549 209.865 82.7129 209.702 83.4409 209.702C84.1689 209.702 84.8269 209.865 85.4149 210.192C86.0029 210.509 86.4649 210.967 86.8009 211.564C87.1463 212.161 87.3189 212.857 87.3189 213.65C87.3189 214.443 87.1416 215.143 86.7869 215.75C86.4416 216.347 85.9703 216.809 85.3729 217.136C84.7756 217.463 84.1129 217.626 83.3849 217.626ZM83.3849 216.506C83.8423 216.506 84.2716 216.399 84.6729 216.184C85.0743 215.969 85.3963 215.647 85.6389 215.218C85.8909 214.789 86.0169 214.266 86.0169 213.65C86.0169 213.034 85.8956 212.511 85.6529 212.082C85.4103 211.653 85.0929 211.335 84.7009 211.13C84.3089 210.915 83.8843 210.808 83.4269 210.808C82.9603 210.808 82.5309 210.915 82.1389 211.13C81.7563 211.335 81.4483 211.653 81.2149 212.082C80.9816 212.511 80.8649 213.034 80.8649 213.65C80.8649 214.275 80.9769 214.803 81.2009 215.232C81.4343 215.661 81.7423 215.983 82.1249 216.198C82.5076 216.403 82.9276 216.506 83.3849 216.506ZM95.798 209.828V217.5H94.524V216.366C94.2813 216.758 93.9407 217.066 93.502 217.29C93.0727 217.505 92.5967 217.612 92.074 217.612C91.4767 217.612 90.94 217.491 90.464 217.248C89.988 216.996 89.61 216.623 89.33 216.128C89.0593 215.633 88.924 215.031 88.924 214.322V209.828H90.184V214.154C90.184 214.91 90.3753 215.493 90.758 215.904C91.1407 216.305 91.6633 216.506 92.326 216.506C93.0073 216.506 93.544 216.296 93.936 215.876C94.328 215.456 94.524 214.845 94.524 214.042V209.828H95.798ZM110.908 209.688C111.505 209.688 112.037 209.814 112.504 210.066C112.97 210.309 113.339 210.677 113.61 211.172C113.88 211.667 114.016 212.269 114.016 212.978V217.5H112.756V213.16C112.756 212.395 112.564 211.811 112.182 211.41C111.808 210.999 111.3 210.794 110.656 210.794C109.993 210.794 109.466 211.009 109.074 211.438C108.682 211.858 108.486 212.469 108.486 213.272V217.5H107.226V213.16C107.226 212.395 107.034 211.811 106.652 211.41C106.278 210.999 105.77 210.794 105.126 210.794C104.463 210.794 103.936 211.009 103.544 211.438C103.152 211.858 102.956 212.469 102.956 213.272V217.5H101.682V209.828H102.956V210.934C103.208 210.533 103.544 210.225 103.964 210.01C104.393 209.795 104.864 209.688 105.378 209.688C106.022 209.688 106.591 209.833 107.086 210.122C107.58 210.411 107.949 210.836 108.192 211.396C108.406 210.855 108.761 210.435 109.256 210.136C109.75 209.837 110.301 209.688 110.908 209.688ZM115.629 213.636C115.629 212.852 115.788 212.166 116.105 211.578C116.423 210.981 116.857 210.519 117.407 210.192C117.967 209.865 118.588 209.702 119.269 209.702C119.941 209.702 120.525 209.847 121.019 210.136C121.514 210.425 121.883 210.789 122.125 211.228V209.828H123.413V217.5H122.125V216.072C121.873 216.52 121.495 216.893 120.991 217.192C120.497 217.481 119.918 217.626 119.255 217.626C118.574 217.626 117.958 217.458 117.407 217.122C116.857 216.786 116.423 216.315 116.105 215.708C115.788 215.101 115.629 214.411 115.629 213.636ZM122.125 213.65C122.125 213.071 122.009 212.567 121.775 212.138C121.542 211.709 121.225 211.382 120.823 211.158C120.431 210.925 119.997 210.808 119.521 210.808C119.045 210.808 118.611 210.92 118.219 211.144C117.827 211.368 117.515 211.695 117.281 212.124C117.048 212.553 116.931 213.057 116.931 213.636C116.931 214.224 117.048 214.737 117.281 215.176C117.515 215.605 117.827 215.937 118.219 216.17C118.611 216.394 119.045 216.506 119.521 216.506C119.997 216.506 120.431 216.394 120.823 216.17C121.225 215.937 121.542 215.605 121.775 215.176C122.009 214.737 122.125 214.229 122.125 213.65ZM129.85 217.5L126.84 214.112V217.5H125.566V207.14H126.84V213.23L129.794 209.828H131.572L127.96 213.65L131.586 217.5H129.85ZM139.771 213.37C139.771 213.613 139.757 213.869 139.729 214.14H133.597C133.644 214.896 133.901 215.489 134.367 215.918C134.843 216.338 135.417 216.548 136.089 216.548C136.64 216.548 137.097 216.422 137.461 216.17C137.835 215.909 138.096 215.563 138.245 215.134H139.617C139.412 215.871 139.001 216.473 138.385 216.94C137.769 217.397 137.004 217.626 136.089 217.626C135.361 217.626 134.708 217.463 134.129 217.136C133.56 216.809 133.112 216.347 132.785 215.75C132.459 215.143 132.295 214.443 132.295 213.65C132.295 212.857 132.454 212.161 132.771 211.564C133.089 210.967 133.532 210.509 134.101 210.192C134.68 209.865 135.343 209.702 136.089 209.702C136.817 209.702 137.461 209.861 138.021 210.178C138.581 210.495 139.011 210.934 139.309 211.494C139.617 212.045 139.771 212.67 139.771 213.37ZM138.455 213.104C138.455 212.619 138.348 212.203 138.133 211.858C137.919 211.503 137.625 211.237 137.251 211.06C136.887 210.873 136.481 210.78 136.033 210.78C135.389 210.78 134.839 210.985 134.381 211.396C133.933 211.807 133.677 212.376 133.611 213.104H138.455ZM144.169 217.626C143.581 217.626 143.054 217.528 142.587 217.332C142.12 217.127 141.752 216.847 141.481 216.492C141.21 216.128 141.061 215.713 141.033 215.246H142.349C142.386 215.629 142.564 215.941 142.881 216.184C143.208 216.427 143.632 216.548 144.155 216.548C144.64 216.548 145.023 216.441 145.303 216.226C145.583 216.011 145.723 215.741 145.723 215.414C145.723 215.078 145.574 214.831 145.275 214.672C144.976 214.504 144.514 214.341 143.889 214.182C143.32 214.033 142.853 213.883 142.489 213.734C142.134 213.575 141.826 213.347 141.565 213.048C141.313 212.74 141.187 212.339 141.187 211.844C141.187 211.452 141.304 211.093 141.537 210.766C141.77 210.439 142.102 210.183 142.531 209.996C142.96 209.8 143.45 209.702 144.001 209.702C144.85 209.702 145.536 209.917 146.059 210.346C146.582 210.775 146.862 211.363 146.899 212.11H145.625C145.597 211.709 145.434 211.387 145.135 211.144C144.846 210.901 144.454 210.78 143.959 210.78C143.502 210.78 143.138 210.878 142.867 211.074C142.596 211.27 142.461 211.527 142.461 211.844C142.461 212.096 142.54 212.306 142.699 212.474C142.867 212.633 143.072 212.763 143.315 212.866C143.567 212.959 143.912 213.067 144.351 213.188C144.902 213.337 145.35 213.487 145.695 213.636C146.04 213.776 146.334 213.991 146.577 214.28C146.829 214.569 146.96 214.947 146.969 215.414C146.969 215.834 146.852 216.212 146.619 216.548C146.386 216.884 146.054 217.15 145.625 217.346C145.205 217.533 144.72 217.626 144.169 217.626ZM151.954 208.54V207.378H154.586V217.5H153.298V208.54H151.954ZM156.62 216.478C157.806 215.526 158.734 214.747 159.406 214.14C160.078 213.524 160.643 212.885 161.1 212.222C161.567 211.55 161.8 210.892 161.8 210.248C161.8 209.641 161.651 209.165 161.352 208.82C161.063 208.465 160.592 208.288 159.938 208.288C159.304 208.288 158.809 208.489 158.454 208.89C158.109 209.282 157.922 209.809 157.894 210.472H156.662C156.7 209.427 157.017 208.619 157.614 208.05C158.212 207.481 158.982 207.196 159.924 207.196C160.886 207.196 161.646 207.462 162.206 207.994C162.776 208.526 163.06 209.259 163.06 210.192C163.06 210.967 162.827 211.723 162.36 212.46C161.903 213.188 161.38 213.832 160.792 214.392C160.204 214.943 159.453 215.587 158.538 216.324H163.354V217.388H156.62V216.478ZM174.537 215.33H170.281L169.497 217.5H168.153L171.681 207.798H173.151L176.665 217.5H175.321L174.537 215.33ZM174.173 214.294L172.409 209.366L170.645 214.294H174.173ZM177.727 213.65C177.727 212.857 177.886 212.166 178.203 211.578C178.52 210.981 178.959 210.519 179.519 210.192C180.088 209.865 180.737 209.702 181.465 209.702C182.408 209.702 183.182 209.931 183.789 210.388C184.405 210.845 184.811 211.48 185.007 212.292H183.635C183.504 211.825 183.248 211.457 182.865 211.186C182.492 210.915 182.025 210.78 181.465 210.78C180.737 210.78 180.149 211.032 179.701 211.536C179.253 212.031 179.029 212.735 179.029 213.65C179.029 214.574 179.253 215.288 179.701 215.792C180.149 216.296 180.737 216.548 181.465 216.548C182.025 216.548 182.492 216.417 182.865 216.156C183.238 215.895 183.495 215.521 183.635 215.036H185.007C184.802 215.82 184.391 216.45 183.775 216.926C183.159 217.393 182.389 217.626 181.465 217.626C180.737 217.626 180.088 217.463 179.519 217.136C178.959 216.809 178.52 216.347 178.203 215.75C177.886 215.153 177.727 214.453 177.727 213.65ZM188.261 210.878V215.4C188.261 215.773 188.34 216.039 188.499 216.198C188.658 216.347 188.933 216.422 189.325 216.422H190.263V217.5H189.115C188.406 217.5 187.874 217.337 187.519 217.01C187.164 216.683 186.987 216.147 186.987 215.4V210.878H185.993V209.828H186.987V207.896H188.261V209.828H190.263V210.878H188.261ZM192.465 208.582C192.222 208.582 192.017 208.498 191.849 208.33C191.681 208.162 191.597 207.957 191.597 207.714C191.597 207.471 191.681 207.266 191.849 207.098C192.017 206.93 192.222 206.846 192.465 206.846C192.698 206.846 192.894 206.93 193.053 207.098C193.221 207.266 193.305 207.471 193.305 207.714C193.305 207.957 193.221 208.162 193.053 208.33C192.894 208.498 192.698 208.582 192.465 208.582ZM193.081 209.828V217.5H191.807V209.828H193.081ZM198.108 216.324L200.488 209.828H201.846L198.836 217.5H197.352L194.342 209.828H195.714L198.108 216.324ZM203.757 208.582C203.515 208.582 203.309 208.498 203.141 208.33C202.973 208.162 202.889 207.957 202.889 207.714C202.889 207.471 202.973 207.266 203.141 207.098C203.309 206.93 203.515 206.846 203.757 206.846C203.991 206.846 204.187 206.93 204.345 207.098C204.513 207.266 204.597 207.471 204.597 207.714C204.597 207.957 204.513 208.162 204.345 208.33C204.187 208.498 203.991 208.582 203.757 208.582ZM204.373 209.828V217.5H203.099V209.828H204.373ZM208.099 210.878V215.4C208.099 215.773 208.178 216.039 208.337 216.198C208.495 216.347 208.771 216.422 209.163 216.422H210.101V217.5H208.953C208.243 217.5 207.711 217.337 207.357 217.01C207.002 216.683 206.825 216.147 206.825 215.4V210.878H205.831V209.828H206.825V207.896H208.099V209.828H210.101V210.878H208.099ZM218.252 209.828L213.632 221.112H212.316L213.828 217.416L210.734 209.828H212.148L214.556 216.044L216.936 209.828H218.252Z" fill="white"/>
<rect x="254" y="194" width="139" height="38" rx="4" fill="#FF5151"/>
<path d="M276.596 218.098C275.943 218.098 275.355 217.986 274.832 217.762C274.309 217.529 273.899 217.202 273.6 216.782C273.301 216.362 273.152 215.872 273.152 215.312H274.86C274.897 215.732 275.061 216.077 275.35 216.348C275.649 216.619 276.064 216.754 276.596 216.754C277.147 216.754 277.576 216.623 277.884 216.362C278.192 216.091 278.346 215.746 278.346 215.326C278.346 214.999 278.248 214.733 278.052 214.528C277.865 214.323 277.627 214.164 277.338 214.052C277.058 213.94 276.666 213.819 276.162 213.688C275.527 213.52 275.009 213.352 274.608 213.184C274.216 213.007 273.88 212.736 273.6 212.372C273.32 212.008 273.18 211.523 273.18 210.916C273.18 210.356 273.32 209.866 273.6 209.446C273.88 209.026 274.272 208.704 274.776 208.48C275.28 208.256 275.863 208.144 276.526 208.144C277.469 208.144 278.239 208.382 278.836 208.858C279.443 209.325 279.779 209.969 279.844 210.79H278.08C278.052 210.435 277.884 210.132 277.576 209.88C277.268 209.628 276.862 209.502 276.358 209.502C275.901 209.502 275.527 209.619 275.238 209.852C274.949 210.085 274.804 210.421 274.804 210.86C274.804 211.159 274.893 211.406 275.07 211.602C275.257 211.789 275.49 211.938 275.77 212.05C276.05 212.162 276.433 212.283 276.918 212.414C277.562 212.591 278.085 212.769 278.486 212.946C278.897 213.123 279.242 213.399 279.522 213.772C279.811 214.136 279.956 214.626 279.956 215.242C279.956 215.737 279.821 216.203 279.55 216.642C279.289 217.081 278.901 217.435 278.388 217.706C277.884 217.967 277.287 218.098 276.596 218.098ZM288.909 213.954C288.909 214.243 288.89 214.505 288.853 214.738H282.959C283.006 215.354 283.234 215.849 283.645 216.222C284.056 216.595 284.56 216.782 285.157 216.782C286.016 216.782 286.622 216.423 286.977 215.704H288.699C288.466 216.413 288.041 216.997 287.425 217.454C286.818 217.902 286.062 218.126 285.157 218.126C284.42 218.126 283.757 217.963 283.169 217.636C282.59 217.3 282.133 216.833 281.797 216.236C281.47 215.629 281.307 214.929 281.307 214.136C281.307 213.343 281.466 212.647 281.783 212.05C282.11 211.443 282.562 210.977 283.141 210.65C283.729 210.323 284.401 210.16 285.157 210.16C285.885 210.16 286.534 210.319 287.103 210.636C287.672 210.953 288.116 211.401 288.433 211.98C288.75 212.549 288.909 213.207 288.909 213.954ZM287.243 213.45C287.234 212.862 287.024 212.391 286.613 212.036C286.202 211.681 285.694 211.504 285.087 211.504C284.536 211.504 284.065 211.681 283.673 212.036C283.281 212.381 283.048 212.853 282.973 213.45H287.243ZM297.55 213.954C297.55 214.243 297.531 214.505 297.494 214.738H291.6C291.646 215.354 291.875 215.849 292.286 216.222C292.696 216.595 293.2 216.782 293.798 216.782C294.656 216.782 295.263 216.423 295.618 215.704H297.34C297.106 216.413 296.682 216.997 296.066 217.454C295.459 217.902 294.703 218.126 293.798 218.126C293.06 218.126 292.398 217.963 291.81 217.636C291.231 217.3 290.774 216.833 290.438 216.236C290.111 215.629 289.948 214.929 289.948 214.136C289.948 213.343 290.106 212.647 290.424 212.05C290.75 211.443 291.203 210.977 291.782 210.65C292.37 210.323 293.042 210.16 293.798 210.16C294.526 210.16 295.174 210.319 295.744 210.636C296.313 210.953 296.756 211.401 297.074 211.98C297.391 212.549 297.55 213.207 297.55 213.954ZM295.884 213.45C295.874 212.862 295.664 212.391 295.254 212.036C294.843 211.681 294.334 211.504 293.728 211.504C293.177 211.504 292.706 211.681 292.314 212.036C291.922 212.381 291.688 212.853 291.614 213.45H295.884ZM308.623 216.012H304.549L303.849 218H302.183L305.669 208.256H307.517L311.003 218H309.323L308.623 216.012ZM308.175 214.71L306.593 210.188L304.997 214.71H308.175ZM314.115 207.64V218H312.519V207.64H314.115ZM317.806 207.64V218H316.21V207.64H317.806ZM329.404 216.012H325.33L324.63 218H322.964L326.45 208.256H328.298L331.784 218H330.104L329.404 216.012ZM328.956 214.71L327.374 210.188L325.778 214.71H328.956ZM332.768 214.136C332.768 213.343 332.927 212.647 333.244 212.05C333.571 211.443 334.019 210.977 334.588 210.65C335.157 210.323 335.811 210.16 336.548 210.16C337.481 210.16 338.251 210.384 338.858 210.832C339.474 211.271 339.889 211.901 340.104 212.722H338.382C338.242 212.339 338.018 212.041 337.71 211.826C337.402 211.611 337.015 211.504 336.548 211.504C335.895 211.504 335.372 211.737 334.98 212.204C334.597 212.661 334.406 213.305 334.406 214.136C334.406 214.967 334.597 215.615 334.98 216.082C335.372 216.549 335.895 216.782 336.548 216.782C337.472 216.782 338.083 216.376 338.382 215.564H340.104C339.88 216.348 339.46 216.973 338.844 217.44C338.228 217.897 337.463 218.126 336.548 218.126C335.811 218.126 335.157 217.963 334.588 217.636C334.019 217.3 333.571 216.833 333.244 216.236C332.927 215.629 332.768 214.929 332.768 214.136ZM343.557 211.588V215.858C343.557 216.147 343.622 216.357 343.753 216.488C343.893 216.609 344.126 216.67 344.453 216.67H345.433V218H344.173C343.454 218 342.903 217.832 342.521 217.496C342.138 217.16 341.947 216.614 341.947 215.858V211.588H341.037V210.286H341.947V208.368H343.557V210.286H345.433V211.588H343.557ZM347.716 209.264C347.426 209.264 347.184 209.166 346.988 208.97C346.792 208.774 346.694 208.531 346.694 208.242C346.694 207.953 346.792 207.71 346.988 207.514C347.184 207.318 347.426 207.22 347.716 207.22C347.996 207.22 348.234 207.318 348.43 207.514C348.626 207.71 348.724 207.953 348.724 208.242C348.724 208.531 348.626 208.774 348.43 208.97C348.234 209.166 347.996 209.264 347.716 209.264ZM348.5 210.286V218H346.904V210.286H348.5ZM353.577 216.572L355.761 210.286H357.455L354.515 218H352.611L349.685 210.286H351.393L353.577 216.572ZM359.473 209.264C359.184 209.264 358.941 209.166 358.745 208.97C358.549 208.774 358.451 208.531 358.451 208.242C358.451 207.953 358.549 207.71 358.745 207.514C358.941 207.318 359.184 207.22 359.473 207.22C359.753 207.22 359.991 207.318 360.187 207.514C360.383 207.71 360.481 207.953 360.481 208.242C360.481 208.531 360.383 208.774 360.187 208.97C359.991 209.166 359.753 209.264 359.473 209.264ZM360.257 210.286V218H358.661V210.286H360.257ZM364.215 211.588V215.858C364.215 216.147 364.28 216.357 364.411 216.488C364.551 216.609 364.784 216.67 365.111 216.67H366.091V218H364.831C364.112 218 363.561 217.832 363.179 217.496C362.796 217.16 362.605 216.614 362.605 215.858V211.588H361.695V210.286H362.605V208.368H364.215V210.286H366.091V211.588H364.215ZM374.506 210.286L369.774 221.626H368.122L369.69 217.874L366.652 210.286H368.43L370.6 216.166L372.854 210.286H374.506Z" fill="white"/>
<path d="M0 10C0 4.47715 4.47715 0 10 0H417C422.523 0 427 4.47715 427 10V48H0V10Z" fill="#1B204A"/>
<path d="M31.848 30L28.968 24.996H27.402V30H25.35V17.49H29.67C30.63 17.49 31.44 17.658 32.1 17.994C32.772 18.33 33.27 18.78 33.594 19.344C33.93 19.908 34.098 20.538 34.098 21.234C34.098 22.05 33.858 22.794 33.378 23.466C32.91 24.126 32.184 24.576 31.2 24.816L34.296 30H31.848ZM27.402 23.358H29.67C30.438 23.358 31.014 23.166 31.398 22.782C31.794 22.398 31.992 21.882 31.992 21.234C31.992 20.586 31.8 20.082 31.416 19.722C31.032 19.35 30.45 19.164 29.67 19.164H27.402V23.358ZM45.813 24.798C45.813 25.17 45.789 25.506 45.741 25.806H38.163C38.223 26.598 38.517 27.234 39.045 27.714C39.573 28.194 40.221 28.434 40.989 28.434C42.093 28.434 42.873 27.972 43.329 27.048H45.543C45.243 27.96 44.697 28.71 43.905 29.298C43.125 29.874 42.153 30.162 40.989 30.162C40.041 30.162 39.189 29.952 38.433 29.532C37.689 29.1 37.101 28.5 36.669 27.732C36.249 26.952 36.039 26.052 36.039 25.032C36.039 24.012 36.243 23.118 36.651 22.35C37.071 21.57 37.653 20.97 38.397 20.55C39.153 20.13 40.017 19.92 40.989 19.92C41.925 19.92 42.759 20.124 43.491 20.532C44.223 20.94 44.793 21.516 45.201 22.26C45.609 22.992 45.813 23.838 45.813 24.798ZM43.671 24.15C43.659 23.394 43.389 22.788 42.861 22.332C42.333 21.876 41.679 21.648 40.899 21.648C40.191 21.648 39.585 21.876 39.081 22.332C38.577 22.776 38.277 23.382 38.181 24.15H43.671ZM47.1484 25.032C47.1484 24.012 47.3524 23.118 47.7604 22.35C48.1804 21.57 48.7564 20.97 49.4884 20.55C50.2204 20.13 51.0604 19.92 52.0084 19.92C53.2084 19.92 54.1984 20.208 54.9784 20.784C55.7704 21.348 56.3044 22.158 56.5804 23.214H54.3664C54.1864 22.722 53.8984 22.338 53.5024 22.062C53.1064 21.786 52.6084 21.648 52.0084 21.648C51.1684 21.648 50.4964 21.948 49.9924 22.548C49.5004 23.136 49.2544 23.964 49.2544 25.032C49.2544 26.1 49.5004 26.934 49.9924 27.534C50.4964 28.134 51.1684 28.434 52.0084 28.434C53.1964 28.434 53.9824 27.912 54.3664 26.868H56.5804C56.2924 27.876 55.7524 28.68 54.9604 29.28C54.1684 29.868 53.1844 30.162 52.0084 30.162C51.0604 30.162 50.2204 29.952 49.4884 29.532C48.7564 29.1 48.1804 28.5 47.7604 27.732C47.3524 26.952 47.1484 26.052 47.1484 25.032ZM67.7154 24.798C67.7154 25.17 67.6914 25.506 67.6434 25.806H60.0654C60.1254 26.598 60.4194 27.234 60.9474 27.714C61.4754 28.194 62.1234 28.434 62.8914 28.434C63.9954 28.434 64.7754 27.972 65.2314 27.048H67.4454C67.1454 27.96 66.5994 28.71 65.8074 29.298C65.0274 29.874 64.0554 30.162 62.8914 30.162C61.9434 30.162 61.0914 29.952 60.3354 29.532C59.5914 29.1 59.0034 28.5 58.5714 27.732C58.1514 26.952 57.9414 26.052 57.9414 25.032C57.9414 24.012 58.1454 23.118 58.5534 22.35C58.9734 21.57 59.5554 20.97 60.2994 20.55C61.0554 20.13 61.9194 19.92 62.8914 19.92C63.8274 19.92 64.6614 20.124 65.3934 20.532C66.1254 20.94 66.6954 21.516 67.1034 22.26C67.5114 22.992 67.7154 23.838 67.7154 24.798ZM65.5734 24.15C65.5614 23.394 65.2914 22.788 64.7634 22.332C64.2354 21.876 63.5814 21.648 62.8014 21.648C62.0934 21.648 61.4874 21.876 60.9834 22.332C60.4794 22.776 60.1794 23.382 60.0834 24.15H65.5734ZM74.7388 19.92C75.5188 19.92 76.2148 20.082 76.8268 20.406C77.4508 20.73 77.9368 21.21 78.2848 21.846C78.6328 22.482 78.8068 23.25 78.8068 24.15V30H76.7728V24.456C76.7728 23.568 76.5508 22.89 76.1068 22.422C75.6628 21.942 75.0568 21.702 74.2888 21.702C73.5208 21.702 72.9088 21.942 72.4528 22.422C72.0088 22.89 71.7868 23.568 71.7868 24.456V30H69.7348V20.082H71.7868V21.216C72.1228 20.808 72.5488 20.49 73.0648 20.262C73.5928 20.034 74.1508 19.92 74.7388 19.92ZM83.8182 21.756V27.246C83.8182 27.618 83.9022 27.888 84.0702 28.056C84.2502 28.212 84.5502 28.29 84.9702 28.29H86.2302V30H84.6102C83.6862 30 82.9782 29.784 82.4862 29.352C81.9942 28.92 81.7482 28.218 81.7482 27.246V21.756H80.5782V20.082H81.7482V17.616H83.8182V20.082H86.2302V21.756H83.8182ZM90.1735 16.68V30H88.1215V16.68H90.1735ZM101.796 20.082L95.7116 34.662H93.5876L95.6036 29.838L91.6976 20.082H93.9836L96.7736 27.642L99.6716 20.082H101.796ZM115.562 27.444H110.324L109.424 30H107.282L111.764 17.472H114.14L118.622 30H116.462L115.562 27.444ZM114.986 25.77L112.952 19.956L110.9 25.77H114.986ZM119.887 25.032C119.887 24.012 120.091 23.118 120.499 22.35C120.919 21.57 121.495 20.97 122.227 20.55C122.959 20.13 123.799 19.92 124.747 19.92C125.947 19.92 126.937 20.208 127.717 20.784C128.509 21.348 129.043 22.158 129.319 23.214H127.105C126.925 22.722 126.637 22.338 126.241 22.062C125.845 21.786 125.347 21.648 124.747 21.648C123.907 21.648 123.235 21.948 122.731 22.548C122.239 23.136 121.993 23.964 121.993 25.032C121.993 26.1 122.239 26.934 122.731 27.534C123.235 28.134 123.907 28.434 124.747 28.434C125.935 28.434 126.721 27.912 127.105 26.868H129.319C129.031 27.876 128.491 28.68 127.699 29.28C126.907 29.868 125.923 30.162 124.747 30.162C123.799 30.162 122.959 29.952 122.227 29.532C121.495 29.1 120.919 28.5 120.499 27.732C120.091 26.952 119.887 26.052 119.887 25.032ZM133.758 21.756V27.246C133.758 27.618 133.842 27.888 134.01 28.056C134.19 28.212 134.49 28.29 134.91 28.29H136.17V30H134.55C133.626 30 132.918 29.784 132.426 29.352C131.934 28.92 131.688 28.218 131.688 27.246V21.756H130.518V20.082H131.688V17.616H133.758V20.082H136.17V21.756H133.758ZM139.105 18.768C138.733 18.768 138.421 18.642 138.169 18.39C137.917 18.138 137.791 17.826 137.791 17.454C137.791 17.082 137.917 16.77 138.169 16.518C138.421 16.266 138.733 16.14 139.105 16.14C139.465 16.14 139.771 16.266 140.023 16.518C140.275 16.77 140.401 17.082 140.401 17.454C140.401 17.826 140.275 18.138 140.023 18.39C139.771 18.642 139.465 18.768 139.105 18.768ZM140.113 20.082V30H138.061V20.082H140.113ZM146.641 28.164L149.449 20.082H151.627L147.847 30H145.399L141.637 20.082H143.833L146.641 28.164ZM154.222 18.768C153.85 18.768 153.538 18.642 153.286 18.39C153.034 18.138 152.908 17.826 152.908 17.454C152.908 17.082 153.034 16.77 153.286 16.518C153.538 16.266 153.85 16.14 154.222 16.14C154.582 16.14 154.888 16.266 155.14 16.518C155.392 16.77 155.518 17.082 155.518 17.454C155.518 17.826 155.392 18.138 155.14 18.39C154.888 18.642 154.582 18.768 154.222 18.768ZM155.23 20.082V30H153.178V20.082H155.23ZM160.318 21.756V27.246C160.318 27.618 160.402 27.888 160.57 28.056C160.75 28.212 161.05 28.29 161.47 28.29H162.73V30H161.11C160.186 30 159.478 29.784 158.986 29.352C158.494 28.92 158.248 28.218 158.248 27.246V21.756H157.078V20.082H158.248V17.616H160.318V20.082H162.73V21.756H160.318ZM173.549 20.082L167.465 34.662H165.341L167.357 29.838L163.451 20.082H165.737L168.527 27.642L171.425 20.082H173.549Z" fill="white"/>
</svg>
