<svg width="242" height="900" viewBox="0 0 242 900" fill="none" xmlns="http://www.w3.org/2000/svg">
<g clip-path="url(#clip0_1_165)">
<path d="M50.1263 51.3431H59.5563C63.5953 51.3721 66.9203 53.6641 67.4293 57.5701H68.4413C68.9533 53.6451 72.3083 51.3411 76.3733 51.3411H85.2473V59.3411H79.0203V60.2121H85.6823C85.7979 60.2121 85.9088 60.1662 85.9906 60.0844C86.0723 60.0026 86.1183 59.8917 86.1183 59.7761V50.9021C86.1183 50.7865 86.0723 50.6756 85.9906 50.5938C85.9088 50.512 85.7979 50.4661 85.6823 50.4661H76.3723C72.3073 50.4661 68.9523 48.1661 68.4403 44.2361H67.4283C66.9163 48.1621 63.5613 50.4661 59.4963 50.4661H50.5673C50.6023 47.8721 50.6583 43.7861 50.6773 42.4661H56.8533V41.5941H50.3183C50.2971 41.5908 50.2757 41.5892 50.2543 41.5891C50.1333 41.5891 49.8603 41.6321 49.8193 42.0301C49.8193 42.0391 49.8193 42.0481 49.8193 42.0561C49.8193 42.0641 49.8193 42.0961 49.8193 42.1171L49.8003 43.4061C49.7883 44.2381 49.7733 45.3481 49.7583 46.4581L49.6983 50.8971C49.6975 50.9548 49.7081 51.0121 49.7296 51.0656C49.751 51.1192 49.7829 51.1679 49.8233 51.2091C49.9037 51.2905 50.012 51.3384 50.1263 51.3431Z" fill="#0A337A"/>
<path d="M61.0842 60.4062H74.7842V59.1582H61.0842V60.4062Z" fill="#0A337A"/>
<path d="M54.5332 69.4021H54.5852C55.8413 69.4126 57.0571 68.9597 58.0002 68.1301C58.5331 67.6602 58.9592 67.0817 59.25 66.4336C59.5408 65.7854 59.6895 65.0825 59.6862 64.3721V52.9281H58.4382V64.3721C58.4411 64.9187 58.3241 65.4593 58.0955 65.9558C57.8669 66.4524 57.5323 66.8928 57.1152 67.2461C56.4105 67.8405 55.5161 68.1627 54.5942 68.1541H54.5323C53.9856 68.1569 53.445 68.0399 52.9485 67.8114C52.4519 67.5828 52.0115 67.2482 51.6582 66.8311C51.0638 66.1264 50.7416 65.232 50.7502 64.3101V64.2481C50.7416 63.3262 51.0638 62.4318 51.6582 61.7271C52.0116 61.31 52.452 60.9755 52.9485 60.7469C53.4451 60.5183 53.9857 60.4013 54.5323 60.4041H57.0382V59.1581H54.5323C53.8218 59.1548 53.1189 59.3036 52.4708 59.5944C51.8226 59.8852 51.2441 60.3113 50.7742 60.8441C49.9452 61.7871 49.4927 63.0025 49.5032 64.2581V64.3011C49.4927 65.5571 49.9456 66.773 50.7752 67.7161C51.2451 68.249 51.8236 68.6751 52.4717 68.9659C53.1199 69.2567 53.8228 69.4054 54.5332 69.4021Z" fill="#0A337A"/>
<path d="M61.0852 42.6532H74.7852V41.4052H61.0852V42.6532Z" fill="#0A337A"/>
<path d="M59.6862 37.7251C59.7016 36.7574 60.0714 35.8289 60.7255 35.1155C61.3795 34.4021 62.2725 33.9534 63.2352 33.8541C63.7565 33.8185 64.2795 33.8903 64.7719 34.0651C65.2642 34.2398 65.7155 34.5138 66.0977 34.8701C66.4799 35.2263 66.7849 35.6572 66.9938 36.1361C67.2027 36.615 67.3111 37.1316 67.3122 37.6541V40.0051H68.5562V37.6541C68.5562 36.3119 68.023 35.0246 67.0739 34.0755C66.1247 33.1263 64.8374 32.5931 63.4952 32.5931C62.1529 32.5931 60.8657 33.1263 59.9165 34.0755C58.9674 35.0246 58.4342 36.3119 58.4342 37.6541V48.8781H59.6822L59.6862 37.7251Z" fill="#0A337A"/>
<path d="M84.7452 33.9822C83.7848 33.0807 82.5134 32.5849 81.1963 32.5982C80.2779 32.5926 79.3765 32.8467 78.5963 33.3312C77.8635 33.7846 77.2586 34.4175 76.8386 35.1699C76.4187 35.9224 76.1976 36.7695 76.1963 37.6312V48.8902H77.4443V37.6282C77.4463 36.9802 77.6134 36.3435 77.9297 35.778C78.246 35.2125 78.7012 34.737 79.2523 34.3962C79.8431 34.0306 80.5255 33.8399 81.2203 33.8462C82.2125 33.8355 83.1705 34.2085 83.8943 34.8872C84.4426 35.408 84.8222 36.0814 84.9839 36.8201C85.1457 37.5589 85.0823 38.3293 84.8018 39.0316C84.5214 39.734 84.0368 40.3362 83.4106 40.7603C82.7845 41.1845 82.0455 41.4112 81.2892 41.4112H78.8403V42.6592H81.2892C82.295 42.6591 83.2776 42.3576 84.1102 41.7935C84.9429 41.2295 85.5873 40.4287 85.9603 39.4948C86.3333 38.5608 86.4178 37.5364 86.2028 36.5539C85.9878 35.5715 85.4833 34.676 84.7543 33.9832L84.7452 33.9822Z" fill="#0A337A"/>
<path d="M76.1862 64.2111C76.1755 65.2016 75.7912 66.1514 75.1102 66.8706C74.4292 67.5899 73.5016 68.0254 72.5133 68.0901C72.001 68.1089 71.4903 68.0243 71.0116 67.8412C70.5328 67.6582 70.0958 67.3805 69.7268 67.0247C69.3578 66.669 69.0643 66.2425 68.8639 65.7708C68.6635 65.299 68.5602 64.7917 68.5603 64.2791V61.8041H67.3123V64.2791C67.3105 64.9439 67.4405 65.6024 67.6949 66.2166C67.9493 66.8307 68.3229 67.3883 68.7943 67.8571L68.8193 67.8821C69.764 68.8184 71.0411 69.3423 72.3712 69.3391H72.4433C73.7714 69.3153 75.0374 68.7724 75.9701 67.8266C76.9027 66.8808 77.428 65.6074 77.4332 64.2791V52.9321H76.1853L76.1862 64.2111Z" fill="#0A337A"/>
<path d="M109.388 41.8445L104.666 55.0635L99.9655 41.8746L96.3156 41.8865L102.976 60.4545L106.367 60.4435L113.014 41.8356L109.388 41.8445Z" fill="#0A337A"/>
<path d="M123.589 46.3305V47.8305C123.033 47.2417 122.362 46.7737 121.617 46.4554C120.873 46.1372 120.07 45.9755 119.26 45.9805C115.687 45.9915 112.796 48.9525 112.81 53.2505C112.823 57.4705 115.887 60.4645 119.383 60.4505C120.178 60.4577 120.966 60.2991 121.696 59.9847C122.426 59.6703 123.083 59.207 123.623 58.6245V60.0745L127.066 60.0635L127.023 46.3165L123.589 46.3305ZM119.999 57.2935C119.483 57.2851 118.973 57.1709 118.502 56.9582C118.031 56.7455 117.609 56.4387 117.261 56.0566C116.913 55.6745 116.647 55.2253 116.479 54.7365C116.311 54.2477 116.245 53.7297 116.284 53.2145C116.277 50.9625 117.695 49.1455 119.974 49.1375C121.003 49.2115 121.966 49.6715 122.67 50.4254C123.374 51.1793 123.767 52.1715 123.77 53.2029C123.774 54.2344 123.387 55.229 122.688 55.9874C121.989 56.7458 121.029 57.212 120 57.2925L119.999 57.2935Z" fill="#0A337A"/>
<path d="M135.696 51.7495L134.425 51.1065C133.673 50.7205 133.18 50.4895 133.179 49.9715C133.179 49.4275 133.72 49.1414 134.419 49.1394C135.35 49.2252 136.208 49.6769 136.807 50.3955L138.923 48.2405C138.398 47.5321 137.714 46.9578 136.925 46.5643C136.136 46.1709 135.266 45.9695 134.385 45.9765C133.83 45.9359 133.273 46.0075 132.746 46.187C132.22 46.3665 131.735 46.6502 131.32 47.0212C130.906 47.3921 130.57 47.8428 130.334 48.3462C130.097 48.8497 129.964 49.3956 129.944 49.9515C129.949 51.6855 131.067 53.0295 133.271 54.1355L134.438 54.7275C135.398 55.2165 135.968 55.6545 135.97 56.2505C135.97 56.8715 135.3 57.3654 134.446 57.3684C133.312 57.2368 132.277 56.6615 131.567 55.7685L129.451 58.1045C130.007 58.8535 130.736 59.4573 131.576 59.8648C132.415 60.2723 133.341 60.4715 134.274 60.4455C137.274 60.4365 139.213 58.5915 139.206 56.1325C139.199 54.0955 137.978 52.9075 135.696 51.7495Z" fill="#0A337A"/>
<path d="M144.998 46.6957L141.555 46.7065L141.598 60.4545L145.041 60.4437L144.998 46.6957Z" fill="#0A337A"/>
<path d="M143.245 40.5986C142.963 40.5922 142.683 40.6415 142.42 40.7436C142.157 40.8457 141.917 40.9987 141.713 41.1937C141.509 41.3888 141.346 41.622 141.232 41.8802C141.119 42.1385 141.057 42.4165 141.051 42.6985C141.04 42.9995 141.089 43.2997 141.194 43.582C141.299 43.8642 141.458 44.1231 141.663 44.3436C141.868 44.5642 142.115 44.7422 142.389 44.8674C142.663 44.9927 142.958 45.0627 143.259 45.0735C143.549 45.0728 143.835 45.015 144.101 44.9036C144.368 44.7922 144.61 44.6293 144.814 44.4243C145.018 44.2192 145.179 43.9759 145.289 43.7085C145.399 43.441 145.455 43.1546 145.453 42.8655C145.458 42.5715 145.404 42.2796 145.296 42.0063C145.187 41.7331 145.025 41.484 144.82 41.2734C144.615 41.0627 144.37 40.8947 144.1 40.7789C143.83 40.6631 143.539 40.6018 143.245 40.5986Z" fill="#0A337A"/>
<path d="M154.008 46.6896L151.963 46.6956L151.947 41.6216L148.504 41.6326L148.52 46.7066L146.76 46.7116L146.769 49.6636L148.529 49.6586L148.563 60.4586L152.006 60.4476L151.972 49.6476L154.017 49.6406L154.008 46.6896Z" fill="#0A337A"/>
<path d="M164.518 46.3616L164.541 53.6886C164.548 56.0186 163.801 57.2886 161.963 57.2956C160.151 57.3016 159.37 56.0096 159.363 53.5496L159.341 46.3776L155.898 46.3885L155.917 52.6796C155.872 53.6485 155.918 54.6194 156.056 55.5796C156.61 58.7886 158.656 60.4646 161.974 60.4546C162.794 60.512 163.618 60.3846 164.383 60.082C165.148 59.7793 165.836 59.309 166.396 58.7056C167.841 57.0956 167.99 55.2316 167.982 52.6946L167.962 46.3516L164.518 46.3616Z" fill="#0A337A"/>
<path d="M191.446 47.8855C190.989 47.3634 190.421 46.9495 189.785 46.6738C189.148 46.3981 188.458 46.2675 187.765 46.2915C186.851 46.2816 185.95 46.5033 185.146 46.936C184.342 47.3686 183.66 47.998 183.165 48.7655C182.803 48.0123 182.231 47.3802 181.517 46.9459C180.803 46.5116 179.979 46.2936 179.144 46.3185C178.331 46.3225 177.528 46.4988 176.788 46.8358C176.048 47.1728 175.388 47.6628 174.852 48.2735V46.6945L171.409 46.7055L171.452 60.4525L174.895 60.4415L174.874 53.7105C174.865 50.8885 176.103 49.4865 177.812 49.4815C179.728 49.4755 180.251 51.1045 180.259 53.7715L180.28 60.4255L183.723 60.4145L183.701 53.6315C183.692 50.8095 184.93 49.4595 186.665 49.4535C188.218 49.4535 189.024 50.5595 189.032 52.8115L189.056 60.3975L192.499 60.3865L192.474 52.3345C192.464 50.5235 192.356 49.0225 191.446 47.8855Z" fill="#0A337A"/>
</g>
<path opacity="0.5" d="M32.7891 135.469L35.25 142.008L37.7051 135.469H39.6211V144H38.1445V141.188L38.291 137.426L35.7715 144H34.7109L32.1973 137.432L32.3438 141.188V144H30.8672V135.469H32.7891ZM46.2598 142.014H42.9551L42.2637 144H40.7227L43.9453 135.469H45.2754L48.5039 144H46.957L46.2598 142.014ZM43.3711 140.818H45.8438L44.6074 137.279L43.3711 140.818ZM51.041 144H49.5645V135.469H51.041V144ZM59.6309 144H58.1484L54.3457 137.947V144H52.8633V135.469H54.3457L58.1602 141.545V135.469H59.6309V144ZM66.293 135.469L68.7539 142.008L71.209 135.469H73.125V144H71.6484V141.188L71.7949 137.426L69.2754 144H68.2148L65.7012 137.432L65.8477 141.188V144H64.3711V135.469H66.293ZM79.8691 140.191H76.3652V142.816H80.4609V144H74.8828V135.469H80.4199V136.664H76.3652V139.02H79.8691V140.191ZM88.4355 144H86.9531L83.1504 137.947V144H81.668V135.469H83.1504L86.9648 141.545V135.469H88.4355V144ZM96.4277 135.469V141.17C96.4277 142.076 96.1367 142.795 95.5547 143.326C94.9766 143.854 94.2051 144.117 93.2402 144.117C92.2637 144.117 91.4883 143.857 90.9141 143.338C90.3398 142.814 90.0527 142.09 90.0527 141.164V135.469H91.5293V141.176C91.5293 141.746 91.6738 142.182 91.9629 142.482C92.252 142.783 92.6777 142.934 93.2402 142.934C94.3809 142.934 94.9512 142.332 94.9512 141.129V135.469H96.4277Z" fill="#686868"/>
<path d="M33 188H41V178H33V188ZM33 196H41V190H33V196ZM43 196H51V186H43V196ZM43 178V184H51V178H43Z" fill="#FF5151"/>
<path d="M82.832 181.88C84.016 181.88 85.0507 182.109 85.936 182.568C86.832 183.016 87.52 183.667 88 184.52C88.4907 185.363 88.736 186.349 88.736 187.48C88.736 188.611 88.4907 189.592 88 190.424C87.52 191.256 86.832 191.896 85.936 192.344C85.0507 192.781 84.016 193 82.832 193H79.2V181.88H82.832ZM82.832 191.512C84.1333 191.512 85.1307 191.16 85.824 190.456C86.5173 189.752 86.864 188.76 86.864 187.48C86.864 186.189 86.5173 185.181 85.824 184.456C85.1307 183.731 84.1333 183.368 82.832 183.368H81.024V191.512H82.832ZM89.9358 188.552C89.9358 187.667 90.1171 186.883 90.4798 186.2C90.8531 185.517 91.3544 184.989 91.9838 184.616C92.6238 184.232 93.3278 184.04 94.0958 184.04C94.7891 184.04 95.3918 184.179 95.9038 184.456C96.4264 184.723 96.8424 185.059 97.1518 185.464V184.184H98.9918V193H97.1518V191.688C96.8424 192.104 96.4211 192.451 95.8878 192.728C95.3544 193.005 94.7464 193.144 94.0638 193.144C93.3064 193.144 92.6131 192.952 91.9838 192.568C91.3544 192.173 90.8531 191.629 90.4798 190.936C90.1171 190.232 89.9358 189.437 89.9358 188.552ZM97.1518 188.584C97.1518 187.976 97.0238 187.448 96.7678 187C96.5224 186.552 96.1971 186.211 95.7918 185.976C95.3864 185.741 94.9491 185.624 94.4798 185.624C94.0104 185.624 93.5731 185.741 93.1678 185.976C92.7624 186.2 92.4318 186.536 92.1758 186.984C91.9304 187.421 91.8078 187.944 91.8078 188.552C91.8078 189.16 91.9304 189.693 92.1758 190.152C92.4318 190.611 92.7624 190.963 93.1678 191.208C93.5838 191.443 94.0211 191.56 94.4798 191.56C94.9491 191.56 95.3864 191.443 95.7918 191.208C96.1971 190.973 96.5224 190.632 96.7678 190.184C97.0238 189.725 97.1518 189.192 97.1518 188.584ZM104.588 193.144C103.894 193.144 103.27 193.021 102.716 192.776C102.172 192.52 101.74 192.179 101.42 191.752C101.1 191.315 100.929 190.829 100.908 190.296H102.796C102.828 190.669 103.004 190.984 103.324 191.24C103.654 191.485 104.065 191.608 104.556 191.608C105.068 191.608 105.462 191.512 105.74 191.32C106.028 191.117 106.172 190.861 106.172 190.552C106.172 190.221 106.012 189.976 105.692 189.816C105.382 189.656 104.886 189.48 104.204 189.288C103.542 189.107 103.004 188.931 102.588 188.76C102.172 188.589 101.809 188.328 101.5 187.976C101.201 187.624 101.052 187.16 101.052 186.584C101.052 186.115 101.19 185.688 101.468 185.304C101.745 184.909 102.14 184.6 102.652 184.376C103.174 184.152 103.772 184.04 104.444 184.04C105.446 184.04 106.252 184.296 106.86 184.808C107.478 185.309 107.809 185.997 107.852 186.872H106.028C105.996 186.477 105.836 186.163 105.548 185.928C105.26 185.693 104.87 185.576 104.38 185.576C103.9 185.576 103.532 185.667 103.276 185.848C103.02 186.029 102.892 186.269 102.892 186.568C102.892 186.803 102.977 187 103.148 187.16C103.318 187.32 103.526 187.448 103.772 187.544C104.017 187.629 104.38 187.741 104.86 187.88C105.5 188.051 106.022 188.227 106.428 188.408C106.844 188.579 107.201 188.835 107.5 189.176C107.798 189.517 107.953 189.971 107.964 190.536C107.964 191.037 107.825 191.485 107.548 191.88C107.27 192.275 106.876 192.584 106.364 192.808C105.862 193.032 105.27 193.144 104.588 193.144ZM114.494 184.04C115.166 184.04 115.764 184.184 116.286 184.472C116.82 184.76 117.236 185.187 117.534 185.752C117.844 186.317 117.998 187 117.998 187.8V193H116.19V188.072C116.19 187.283 115.993 186.68 115.598 186.264C115.204 185.837 114.665 185.624 113.982 185.624C113.3 185.624 112.756 185.837 112.35 186.264C111.956 186.68 111.758 187.283 111.758 188.072V193H109.934V181.16H111.758V185.208C112.068 184.835 112.457 184.547 112.926 184.344C113.406 184.141 113.929 184.04 114.494 184.04ZM122.149 185.496C122.458 185.069 122.88 184.723 123.413 184.456C123.957 184.179 124.56 184.04 125.221 184.04C126 184.04 126.704 184.227 127.333 184.6C127.962 184.973 128.458 185.507 128.821 186.2C129.184 186.883 129.365 187.667 129.365 188.552C129.365 189.437 129.184 190.232 128.821 190.936C128.458 191.629 127.957 192.173 127.317 192.568C126.688 192.952 125.989 193.144 125.221 193.144C124.538 193.144 123.93 193.011 123.397 192.744C122.874 192.477 122.458 192.136 122.149 191.72V193H120.325V181.16H122.149V185.496ZM127.509 188.552C127.509 187.944 127.381 187.421 127.125 186.984C126.88 186.536 126.549 186.2 126.133 185.976C125.728 185.741 125.29 185.624 124.821 185.624C124.362 185.624 123.925 185.741 123.509 185.976C123.104 186.211 122.773 186.552 122.517 187C122.272 187.448 122.149 187.976 122.149 188.584C122.149 189.192 122.272 189.725 122.517 190.184C122.773 190.632 123.104 190.973 123.509 191.208C123.925 191.443 124.362 191.56 124.821 191.56C125.29 191.56 125.728 191.443 126.133 191.208C126.549 190.963 126.88 190.611 127.125 190.152C127.381 189.693 127.509 189.16 127.509 188.552ZM134.993 193.144C134.161 193.144 133.409 192.957 132.737 192.584C132.065 192.2 131.537 191.667 131.153 190.984C130.769 190.291 130.577 189.491 130.577 188.584C130.577 187.688 130.774 186.893 131.169 186.2C131.563 185.507 132.102 184.973 132.785 184.6C133.467 184.227 134.23 184.04 135.073 184.04C135.915 184.04 136.678 184.227 137.361 184.6C138.043 184.973 138.582 185.507 138.977 186.2C139.371 186.893 139.569 187.688 139.569 188.584C139.569 189.48 139.366 190.275 138.961 190.968C138.555 191.661 138.001 192.2 137.297 192.584C136.603 192.957 135.835 193.144 134.993 193.144ZM134.993 191.56C135.462 191.56 135.899 191.448 136.305 191.224C136.721 191 137.057 190.664 137.313 190.216C137.569 189.768 137.697 189.224 137.697 188.584C137.697 187.944 137.574 187.405 137.329 186.968C137.083 186.52 136.758 186.184 136.353 185.96C135.947 185.736 135.51 185.624 135.041 185.624C134.571 185.624 134.134 185.736 133.729 185.96C133.334 186.184 133.019 186.52 132.785 186.968C132.55 187.405 132.433 187.944 132.433 188.584C132.433 189.533 132.673 190.269 133.153 190.792C133.643 191.304 134.257 191.56 134.993 191.56ZM140.764 188.552C140.764 187.667 140.945 186.883 141.308 186.2C141.681 185.517 142.183 184.989 142.812 184.616C143.452 184.232 144.156 184.04 144.924 184.04C145.617 184.04 146.22 184.179 146.732 184.456C147.255 184.723 147.671 185.059 147.98 185.464V184.184H149.82V193H147.98V191.688C147.671 192.104 147.249 192.451 146.716 192.728C146.183 193.005 145.575 193.144 144.892 193.144C144.135 193.144 143.441 192.952 142.812 192.568C142.183 192.173 141.681 191.629 141.308 190.936C140.945 190.232 140.764 189.437 140.764 188.552ZM147.98 188.584C147.98 187.976 147.852 187.448 147.596 187C147.351 186.552 147.025 186.211 146.62 185.976C146.215 185.741 145.777 185.624 145.308 185.624C144.839 185.624 144.401 185.741 143.996 185.976C143.591 186.2 143.26 186.536 143.004 186.984C142.759 187.421 142.636 187.944 142.636 188.552C142.636 189.16 142.759 189.693 143.004 190.152C143.26 190.611 143.591 190.963 143.996 191.208C144.412 191.443 144.849 191.56 145.308 191.56C145.777 191.56 146.215 191.443 146.62 191.208C147.025 190.973 147.351 190.632 147.596 190.184C147.852 189.725 147.98 189.192 147.98 188.584ZM154.04 185.464C154.306 185.016 154.658 184.669 155.096 184.424C155.544 184.168 156.072 184.04 156.68 184.04V185.928H156.216C155.501 185.928 154.957 186.109 154.584 186.472C154.221 186.835 154.04 187.464 154.04 188.36V193H152.216V184.184H154.04V185.464ZM157.748 188.552C157.748 187.667 157.93 186.883 158.292 186.2C158.666 185.517 159.167 184.989 159.796 184.616C160.436 184.232 161.146 184.04 161.924 184.04C162.5 184.04 163.066 184.168 163.62 184.424C164.186 184.669 164.634 185 164.964 185.416V181.16H166.804V193H164.964V191.672C164.666 192.099 164.25 192.451 163.716 192.728C163.194 193.005 162.591 193.144 161.908 193.144C161.14 193.144 160.436 192.952 159.796 192.568C159.167 192.173 158.666 191.629 158.292 190.936C157.93 190.232 157.748 189.437 157.748 188.552ZM164.964 188.584C164.964 187.976 164.836 187.448 164.58 187C164.335 186.552 164.01 186.211 163.604 185.976C163.199 185.741 162.762 185.624 162.292 185.624C161.823 185.624 161.386 185.741 160.98 185.976C160.575 186.2 160.244 186.536 159.988 186.984C159.743 187.421 159.62 187.944 159.62 188.552C159.62 189.16 159.743 189.693 159.988 190.152C160.244 190.611 160.575 190.963 160.98 191.208C161.396 191.443 161.834 191.56 162.292 191.56C162.762 191.56 163.199 191.443 163.604 191.208C164.01 190.973 164.335 190.632 164.58 190.184C164.836 189.725 164.964 189.192 164.964 188.584Z" fill="#FF5151"/>
<path d="M35 239C35 239.791 35.2346 240.564 35.6741 241.222C36.1136 241.88 36.7384 242.393 37.4693 242.696C38.2002 242.998 39.0044 243.077 39.7804 242.923C40.5563 242.769 41.269 242.388 41.8284 241.828C42.3878 241.269 42.7688 240.556 42.9231 239.78C43.0775 239.004 42.9983 238.2 42.6955 237.469C42.3928 236.738 41.8801 236.114 41.2223 235.674C40.5645 235.235 39.7911 235 39 235C37.9391 235 36.9217 235.421 36.1716 236.172C35.4214 236.922 35 237.939 35 239Z" fill="#B2B2B2"/>
<rect x="33" y="245" width="12" height="6" rx="3" fill="#B2B2B2"/>
<path fill-rule="evenodd" clip-rule="evenodd" d="M49 239H47V241L45 241V243H47V245H49V243H51V241L49 241V239Z" fill="#B2B2B2"/>
<path d="M85.104 249L82.448 244.44H80.688V249H79.232V237.848H82.832C83.6747 237.848 84.384 237.992 84.96 238.28C85.5467 238.568 85.984 238.957 86.272 239.448C86.56 239.939 86.704 240.499 86.704 241.128C86.704 241.896 86.48 242.573 86.032 243.16C85.5947 243.747 84.9333 244.136 84.048 244.328L86.848 249H85.104ZM80.688 243.272H82.832C83.6213 243.272 84.2133 243.08 84.608 242.696C85.0027 242.301 85.2 241.779 85.2 241.128C85.2 240.467 85.0027 239.955 84.608 239.592C84.224 239.229 83.632 239.048 82.832 239.048H80.688V243.272ZM96.9664 244.28C96.9664 244.557 96.9504 244.851 96.9184 245.16H89.9104C89.9637 246.024 90.257 246.701 90.7904 247.192C91.3344 247.672 91.9904 247.912 92.7584 247.912C93.3877 247.912 93.9104 247.768 94.3264 247.48C94.753 247.181 95.0517 246.787 95.2224 246.296H96.7904C96.5557 247.139 96.0864 247.827 95.3824 248.36C94.6784 248.883 93.8037 249.144 92.7584 249.144C91.9264 249.144 91.1797 248.957 90.5184 248.584C89.8677 248.211 89.3557 247.683 88.9824 247C88.609 246.307 88.4224 245.507 88.4224 244.6C88.4224 243.693 88.6037 242.899 88.9664 242.216C89.329 241.533 89.8357 241.011 90.4864 240.648C91.1477 240.275 91.905 240.088 92.7584 240.088C93.5904 240.088 94.3264 240.269 94.9664 240.632C95.6064 240.995 96.097 241.496 96.4384 242.136C96.7904 242.765 96.9664 243.48 96.9664 244.28ZM95.4624 243.976C95.4624 243.421 95.3397 242.947 95.0944 242.552C94.849 242.147 94.513 241.843 94.0864 241.64C93.6704 241.427 93.2064 241.32 92.6944 241.32C91.9584 241.32 91.329 241.555 90.8064 242.024C90.2944 242.493 90.001 243.144 89.9264 243.976H95.4624ZM98.3443 244.6C98.3443 243.693 98.5256 242.904 98.8883 242.232C99.2509 241.549 99.7523 241.021 100.392 240.648C101.043 240.275 101.784 240.088 102.616 240.088C103.694 240.088 104.579 240.349 105.272 240.872C105.976 241.395 106.44 242.12 106.664 243.048H105.096C104.947 242.515 104.654 242.093 104.216 241.784C103.79 241.475 103.256 241.32 102.616 241.32C101.784 241.32 101.112 241.608 100.6 242.184C100.088 242.749 99.8323 243.555 99.8323 244.6C99.8323 245.656 100.088 246.472 100.6 247.048C101.112 247.624 101.784 247.912 102.616 247.912C103.256 247.912 103.79 247.763 104.216 247.464C104.643 247.165 104.936 246.739 105.096 246.184H106.664C106.43 247.08 105.96 247.8 105.256 248.344C104.552 248.877 103.672 249.144 102.616 249.144C101.784 249.144 101.043 248.957 100.392 248.584C99.7523 248.211 99.2509 247.683 98.8883 247C98.5256 246.317 98.3443 245.517 98.3443 244.6ZM110.063 241.656C110.319 241.155 110.682 240.765 111.151 240.488C111.631 240.211 112.212 240.072 112.895 240.072V241.576H112.511C110.879 241.576 110.063 242.461 110.063 244.232V249H108.607V240.232H110.063V241.656ZM122.352 240.232V249H120.896V247.704C120.618 248.152 120.229 248.504 119.728 248.76C119.237 249.005 118.693 249.128 118.096 249.128C117.413 249.128 116.8 248.989 116.256 248.712C115.712 248.424 115.28 247.997 114.96 247.432C114.65 246.867 114.496 246.179 114.496 245.368V240.232H115.936V245.176C115.936 246.04 116.154 246.707 116.592 247.176C117.029 247.635 117.626 247.864 118.384 247.864C119.162 247.864 119.776 247.624 120.224 247.144C120.672 246.664 120.896 245.965 120.896 245.048V240.232H122.352ZM125.562 238.808C125.285 238.808 125.05 238.712 124.858 238.52C124.666 238.328 124.57 238.093 124.57 237.816C124.57 237.539 124.666 237.304 124.858 237.112C125.05 236.92 125.285 236.824 125.562 236.824C125.829 236.824 126.053 236.92 126.234 237.112C126.426 237.304 126.522 237.539 126.522 237.816C126.522 238.093 126.426 238.328 126.234 238.52C126.053 238.712 125.829 238.808 125.562 238.808ZM126.266 240.232V249H124.81V240.232H126.266ZM130.524 241.432V246.6C130.524 247.027 130.614 247.331 130.796 247.512C130.977 247.683 131.292 247.768 131.74 247.768H132.812V249H131.5C130.689 249 130.081 248.813 129.676 248.44C129.27 248.067 129.068 247.453 129.068 246.6V241.432H127.932V240.232H129.068V238.024H130.524V240.232H132.812V241.432H130.524ZM145.12 240.072C145.802 240.072 146.41 240.216 146.944 240.504C147.477 240.781 147.898 241.203 148.208 241.768C148.517 242.333 148.672 243.021 148.672 243.832V249H147.232V244.04C147.232 243.165 147.013 242.499 146.576 242.04C146.149 241.571 145.568 241.336 144.832 241.336C144.074 241.336 143.472 241.581 143.024 242.072C142.576 242.552 142.352 243.251 142.352 244.168V249H140.912V244.04C140.912 243.165 140.693 242.499 140.256 242.04C139.829 241.571 139.248 241.336 138.512 241.336C137.754 241.336 137.152 241.581 136.704 242.072C136.256 242.552 136.032 243.251 136.032 244.168V249H134.576V240.232H136.032V241.496C136.32 241.037 136.704 240.685 137.184 240.44C137.674 240.195 138.213 240.072 138.8 240.072C139.536 240.072 140.186 240.237 140.752 240.568C141.317 240.899 141.738 241.384 142.016 242.024C142.261 241.405 142.666 240.925 143.232 240.584C143.797 240.243 144.426 240.072 145.12 240.072ZM159.06 244.28C159.06 244.557 159.044 244.851 159.012 245.16H152.004C152.057 246.024 152.351 246.701 152.884 247.192C153.428 247.672 154.084 247.912 154.852 247.912C155.481 247.912 156.004 247.768 156.42 247.48C156.847 247.181 157.145 246.787 157.316 246.296H158.884C158.649 247.139 158.18 247.827 157.476 248.36C156.772 248.883 155.897 249.144 154.852 249.144C154.02 249.144 153.273 248.957 152.612 248.584C151.961 248.211 151.449 247.683 151.076 247C150.703 246.307 150.516 245.507 150.516 244.6C150.516 243.693 150.697 242.899 151.06 242.216C151.423 241.533 151.929 241.011 152.58 240.648C153.241 240.275 153.999 240.088 154.852 240.088C155.684 240.088 156.42 240.269 157.06 240.632C157.7 240.995 158.191 241.496 158.532 242.136C158.884 242.765 159.06 243.48 159.06 244.28ZM157.556 243.976C157.556 243.421 157.433 242.947 157.188 242.552C156.943 242.147 156.607 241.843 156.18 241.64C155.764 241.427 155.3 241.32 154.788 241.32C154.052 241.32 153.423 241.555 152.9 242.024C152.388 242.493 152.095 243.144 152.02 243.976H157.556ZM165.254 240.072C166.321 240.072 167.185 240.397 167.846 241.048C168.507 241.688 168.838 242.616 168.838 243.832V249H167.398V244.04C167.398 243.165 167.179 242.499 166.742 242.04C166.305 241.571 165.707 241.336 164.95 241.336C164.182 241.336 163.569 241.576 163.11 242.056C162.662 242.536 162.438 243.235 162.438 244.152V249H160.982V240.232H162.438V241.48C162.726 241.032 163.115 240.685 163.606 240.44C164.107 240.195 164.657 240.072 165.254 240.072ZM172.992 241.432V246.6C172.992 247.027 173.083 247.331 173.264 247.512C173.446 247.683 173.76 247.768 174.208 247.768H175.28V249H173.968C173.158 249 172.55 248.813 172.144 248.44C171.739 248.067 171.536 247.453 171.536 246.6V241.432H170.4V240.232H171.536V238.024H172.992V240.232H175.28V241.432H172.992Z" fill="#686868"/>
<path d="M48.2222 291.8H46.4444V290H44.6667V291.8H39.3333V290H37.5556V291.8H35.7778C34.7973 291.8 34 292.607 34 293.6V306.2C34 307.193 34.7973 308 35.7778 308H48.2222C49.2027 308 50 307.193 50 306.2V293.6C50 292.607 49.2027 291.8 48.2222 291.8ZM47.3333 305.3H42V299.9H47.3333V305.3ZM48.2222 296.3H35.7778V294.5H48.2222V296.3Z" fill="#B2B2B2"/>
<path d="M82.768 305.112C82.032 305.112 81.3707 304.984 80.784 304.728C80.208 304.461 79.7547 304.099 79.424 303.64C79.0933 303.171 78.9227 302.632 78.912 302.024H80.464C80.5173 302.547 80.7307 302.989 81.104 303.352C81.488 303.704 82.0427 303.88 82.768 303.88C83.4613 303.88 84.0053 303.709 84.4 303.368C84.8053 303.016 85.008 302.568 85.008 302.024C85.008 301.597 84.8907 301.251 84.656 300.984C84.4213 300.717 84.128 300.515 83.776 300.376C83.424 300.237 82.9493 300.088 82.352 299.928C81.616 299.736 81.024 299.544 80.576 299.352C80.1387 299.16 79.76 298.861 79.44 298.456C79.1307 298.04 78.976 297.485 78.976 296.792C78.976 296.184 79.1307 295.645 79.44 295.176C79.7493 294.707 80.1813 294.344 80.736 294.088C81.3013 293.832 81.9467 293.704 82.672 293.704C83.7173 293.704 84.5707 293.965 85.232 294.488C85.904 295.011 86.2827 295.704 86.368 296.568H84.768C84.7147 296.141 84.4907 295.768 84.096 295.448C83.7013 295.117 83.1787 294.952 82.528 294.952C81.92 294.952 81.424 295.112 81.04 295.432C80.656 295.741 80.464 296.179 80.464 296.744C80.464 297.149 80.576 297.48 80.8 297.736C81.0347 297.992 81.3173 298.189 81.648 298.328C81.9893 298.456 82.464 298.605 83.072 298.776C83.808 298.979 84.4 299.181 84.848 299.384C85.296 299.576 85.68 299.88 86 300.296C86.32 300.701 86.48 301.256 86.48 301.96C86.48 302.504 86.336 303.016 86.048 303.496C85.76 303.976 85.3333 304.365 84.768 304.664C84.2027 304.963 83.536 305.112 82.768 305.112ZM88.0786 300.6C88.0786 299.693 88.26 298.904 88.6226 298.232C88.9853 297.549 89.4866 297.021 90.1266 296.648C90.7773 296.275 91.5186 296.088 92.3506 296.088C93.428 296.088 94.3133 296.349 95.0066 296.872C95.7106 297.395 96.1746 298.12 96.3986 299.048H94.8306C94.6813 298.515 94.388 298.093 93.9506 297.784C93.524 297.475 92.9906 297.32 92.3506 297.32C91.5186 297.32 90.8466 297.608 90.3346 298.184C89.8226 298.749 89.5666 299.555 89.5666 300.6C89.5666 301.656 89.8226 302.472 90.3346 303.048C90.8466 303.624 91.5186 303.912 92.3506 303.912C92.9906 303.912 93.524 303.763 93.9506 303.464C94.3773 303.165 94.6706 302.739 94.8306 302.184H96.3986C96.164 303.08 95.6946 303.8 94.9906 304.344C94.2866 304.877 93.4066 305.144 92.3506 305.144C91.5186 305.144 90.7773 304.957 90.1266 304.584C89.4866 304.211 88.9853 303.683 88.6226 303C88.26 302.317 88.0786 301.517 88.0786 300.6ZM102.693 296.072C103.355 296.072 103.952 296.216 104.485 296.504C105.019 296.781 105.435 297.203 105.733 297.768C106.043 298.333 106.197 299.021 106.197 299.832V305H104.757V300.04C104.757 299.165 104.539 298.499 104.101 298.04C103.664 297.571 103.067 297.336 102.309 297.336C101.541 297.336 100.928 297.576 100.469 298.056C100.021 298.536 99.7974 299.235 99.7974 300.152V305H98.3414V293.16H99.7974V297.48C100.085 297.032 100.48 296.685 100.981 296.44C101.493 296.195 102.064 296.072 102.693 296.072ZM116.576 300.28C116.576 300.557 116.56 300.851 116.528 301.16H109.52C109.573 302.024 109.866 302.701 110.4 303.192C110.944 303.672 111.6 303.912 112.368 303.912C112.997 303.912 113.52 303.768 113.936 303.48C114.362 303.181 114.661 302.787 114.832 302.296H116.4C116.165 303.139 115.696 303.827 114.992 304.36C114.288 304.883 113.413 305.144 112.368 305.144C111.536 305.144 110.789 304.957 110.128 304.584C109.477 304.211 108.965 303.683 108.592 303C108.218 302.307 108.032 301.507 108.032 300.6C108.032 299.693 108.213 298.899 108.576 298.216C108.938 297.533 109.445 297.011 110.096 296.648C110.757 296.275 111.514 296.088 112.368 296.088C113.2 296.088 113.936 296.269 114.576 296.632C115.216 296.995 115.706 297.496 116.048 298.136C116.4 298.765 116.576 299.48 116.576 300.28ZM115.072 299.976C115.072 299.421 114.949 298.947 114.704 298.552C114.458 298.147 114.122 297.843 113.696 297.64C113.28 297.427 112.816 297.32 112.304 297.32C111.568 297.32 110.938 297.555 110.416 298.024C109.904 298.493 109.61 299.144 109.536 299.976H115.072ZM117.954 300.584C117.954 299.688 118.135 298.904 118.498 298.232C118.86 297.549 119.356 297.021 119.986 296.648C120.626 296.275 121.34 296.088 122.13 296.088C122.812 296.088 123.447 296.248 124.034 296.568C124.62 296.877 125.068 297.288 125.378 297.8V293.16H126.85V305H125.378V303.352C125.09 303.875 124.663 304.307 124.098 304.648C123.532 304.979 122.871 305.144 122.114 305.144C121.335 305.144 120.626 304.952 119.986 304.568C119.356 304.184 118.86 303.645 118.498 302.952C118.135 302.259 117.954 301.469 117.954 300.584ZM125.378 300.6C125.378 299.939 125.244 299.363 124.978 298.872C124.711 298.381 124.348 298.008 123.89 297.752C123.442 297.485 122.946 297.352 122.402 297.352C121.858 297.352 121.362 297.48 120.914 297.736C120.466 297.992 120.108 298.365 119.842 298.856C119.575 299.347 119.442 299.923 119.442 300.584C119.442 301.256 119.575 301.843 119.842 302.344C120.108 302.835 120.466 303.213 120.914 303.48C121.362 303.736 121.858 303.864 122.402 303.864C122.946 303.864 123.442 303.736 123.89 303.48C124.348 303.213 124.711 302.835 124.978 302.344C125.244 301.843 125.378 301.261 125.378 300.6ZM137.086 296.232V305H135.63V303.704C135.353 304.152 134.963 304.504 134.462 304.76C133.971 305.005 133.427 305.128 132.83 305.128C132.147 305.128 131.534 304.989 130.99 304.712C130.446 304.424 130.014 303.997 129.694 303.432C129.385 302.867 129.23 302.179 129.23 301.368V296.232H130.67V301.176C130.67 302.04 130.889 302.707 131.326 303.176C131.763 303.635 132.361 303.864 133.118 303.864C133.897 303.864 134.51 303.624 134.958 303.144C135.406 302.664 135.63 301.965 135.63 301.048V296.232H137.086ZM141.001 293.16V305H139.545V293.16H141.001ZM151.482 300.28C151.482 300.557 151.466 300.851 151.434 301.16H144.426C144.479 302.024 144.773 302.701 145.306 303.192C145.85 303.672 146.506 303.912 147.274 303.912C147.903 303.912 148.426 303.768 148.842 303.48C149.269 303.181 149.567 302.787 149.738 302.296H151.306C151.071 303.139 150.602 303.827 149.898 304.36C149.194 304.883 148.319 305.144 147.274 305.144C146.442 305.144 145.695 304.957 145.034 304.584C144.383 304.211 143.871 303.683 143.498 303C143.125 302.307 142.938 301.507 142.938 300.6C142.938 299.693 143.119 298.899 143.482 298.216C143.845 297.533 144.351 297.011 145.002 296.648C145.663 296.275 146.421 296.088 147.274 296.088C148.106 296.088 148.842 296.269 149.482 296.632C150.122 296.995 150.613 297.496 150.954 298.136C151.306 298.765 151.482 299.48 151.482 300.28ZM149.978 299.976C149.978 299.421 149.855 298.947 149.61 298.552C149.365 298.147 149.029 297.843 148.602 297.64C148.186 297.427 147.722 297.32 147.21 297.32C146.474 297.32 145.845 297.555 145.322 298.024C144.81 298.493 144.517 299.144 144.442 299.976H149.978Z" fill="#686868"/>
<path d="M43 351C43 351.796 42.6839 352.559 42.1213 353.121C41.5587 353.684 40.7956 354 40 354C39.2044 354 38.4413 353.684 37.8787 353.121C37.3161 352.559 37 351.796 37 351C37 350.204 37.3161 349.441 37.8787 348.879C38.4413 348.316 39.2044 348 40 348C40.7956 348 41.5587 348.316 42.1213 348.879C42.6839 349.441 43 350.204 43 351Z" fill="#B2B2B2"/>
<path d="M48 353C48 353.53 47.7893 354.039 47.4142 354.414C47.0391 354.789 46.5304 355 46 355C45.4696 355 44.9609 354.789 44.5858 354.414C44.2107 354.039 44 353.53 44 353C44 352.47 44.2107 351.961 44.5858 351.586C44.9609 351.211 45.4696 351 46 351C46.5304 351 47.0391 351.211 47.4142 351.586C47.7893 351.961 48 352.47 48 353Z" fill="#B2B2B2"/>
<path d="M36 353C36 353.53 35.7893 354.039 35.4142 354.414C35.0391 354.789 34.5304 355 34 355C33.4696 355 32.9609 354.789 32.5858 354.414C32.2107 354.039 32 353.53 32 353C32 352.47 32.2107 351.961 32.5858 351.586C32.9609 351.211 33.4696 351 34 351C34.5304 351 35.0391 351.211 35.4142 351.586C35.7893 351.961 36 352.47 36 353Z" fill="#B2B2B2"/>
<path d="M46 363V360C46.0014 358.983 45.7433 357.983 45.25 357.094C45.6933 356.981 46.1568 356.97 46.6049 357.063C47.053 357.156 47.474 357.35 47.8357 357.63C48.1974 357.91 48.4903 358.269 48.6921 358.68C48.8939 359.091 48.9992 359.542 49 360V363H46Z" fill="#B2B2B2"/>
<path d="M34.75 357.094C34.2567 357.983 33.9986 358.983 34 360V363H31V360C30.9998 359.542 31.1045 359.09 31.3059 358.679C31.5074 358.268 31.8004 357.908 32.1624 357.627C32.5244 357.347 32.9458 357.153 33.3943 357.06C33.8428 356.968 34.3066 356.979 34.75 357.094Z" fill="#B2B2B2"/>
<rect x="36" y="356" width="8" height="7" rx="3" fill="#B2B2B2"/>
<path d="M76.688 351.032V354.76H80.752V355.96H76.688V359.8H81.232V361H75.232V349.832H81.232V351.032H76.688ZM93.9791 352.072C94.6618 352.072 95.2698 352.216 95.8031 352.504C96.3365 352.781 96.7578 353.203 97.0671 353.768C97.3765 354.333 97.5311 355.021 97.5311 355.832V361H96.0911V356.04C96.0911 355.165 95.8725 354.499 95.4351 354.04C95.0085 353.571 94.4271 353.336 93.6911 353.336C92.9338 353.336 92.3311 353.581 91.8831 354.072C91.4351 354.552 91.2111 355.251 91.2111 356.168V361H89.7711V356.04C89.7711 355.165 89.5525 354.499 89.1151 354.04C88.6885 353.571 88.1071 353.336 87.3711 353.336C86.6138 353.336 86.0111 353.581 85.5631 354.072C85.1151 354.552 84.8911 355.251 84.8911 356.168V361H83.4351V352.232H84.8911V353.496C85.1791 353.037 85.5631 352.685 86.0431 352.44C86.5338 352.195 87.0725 352.072 87.6591 352.072C88.3951 352.072 89.0458 352.237 89.6111 352.568C90.1765 352.899 90.5978 353.384 90.8751 354.024C91.1205 353.405 91.5258 352.925 92.0911 352.584C92.6565 352.243 93.2858 352.072 93.9791 352.072ZM101.376 353.848C101.664 353.347 102.09 352.931 102.656 352.6C103.232 352.259 103.898 352.088 104.656 352.088C105.434 352.088 106.138 352.275 106.767 352.648C107.407 353.021 107.909 353.549 108.272 354.232C108.634 354.904 108.816 355.688 108.816 356.584C108.816 357.469 108.634 358.259 108.272 358.952C107.909 359.645 107.407 360.184 106.767 360.568C106.138 360.952 105.434 361.144 104.656 361.144C103.909 361.144 103.248 360.979 102.672 360.648C102.106 360.307 101.674 359.885 101.376 359.384V365.16H99.9195V352.232H101.376V353.848ZM107.328 356.584C107.328 355.923 107.194 355.347 106.928 354.856C106.661 354.365 106.298 353.992 105.84 353.736C105.392 353.48 104.896 353.352 104.352 353.352C103.818 353.352 103.322 353.485 102.864 353.752C102.416 354.008 102.053 354.387 101.776 354.888C101.509 355.379 101.376 355.949 101.376 356.6C101.376 357.261 101.509 357.843 101.776 358.344C102.053 358.835 102.416 359.213 102.864 359.48C103.322 359.736 103.818 359.864 104.352 359.864C104.896 359.864 105.392 359.736 105.84 359.48C106.298 359.213 106.661 358.835 106.928 358.344C107.194 357.843 107.328 357.256 107.328 356.584ZM112.188 349.16V361H110.732V349.16H112.188ZM118.494 361.144C117.672 361.144 116.926 360.957 116.254 360.584C115.592 360.211 115.07 359.683 114.686 359C114.312 358.307 114.126 357.507 114.126 356.6C114.126 355.704 114.318 354.915 114.702 354.232C115.096 353.539 115.63 353.011 116.302 352.648C116.974 352.275 117.726 352.088 118.558 352.088C119.39 352.088 120.142 352.275 120.814 352.648C121.486 353.011 122.014 353.533 122.398 354.216C122.792 354.899 122.99 355.693 122.99 356.6C122.99 357.507 122.787 358.307 122.382 359C121.987 359.683 121.448 360.211 120.766 360.584C120.083 360.957 119.326 361.144 118.494 361.144ZM118.494 359.864C119.016 359.864 119.507 359.741 119.966 359.496C120.424 359.251 120.792 358.883 121.07 358.392C121.358 357.901 121.502 357.304 121.502 356.6C121.502 355.896 121.363 355.299 121.086 354.808C120.808 354.317 120.446 353.955 119.998 353.72C119.55 353.475 119.064 353.352 118.542 353.352C118.008 353.352 117.518 353.475 117.07 353.72C116.632 353.955 116.28 354.317 116.014 354.808C115.747 355.299 115.614 355.896 115.614 356.6C115.614 357.315 115.742 357.917 115.998 358.408C116.264 358.899 116.616 359.267 117.054 359.512C117.491 359.747 117.971 359.864 118.494 359.864ZM132.456 352.232L127.176 365.128H125.672L127.4 360.904L123.864 352.232H125.48L128.232 359.336L130.952 352.232H132.456ZM141.92 356.28C141.92 356.557 141.904 356.851 141.872 357.16H134.864C134.917 358.024 135.21 358.701 135.744 359.192C136.288 359.672 136.944 359.912 137.712 359.912C138.341 359.912 138.864 359.768 139.28 359.48C139.706 359.181 140.005 358.787 140.176 358.296H141.744C141.509 359.139 141.04 359.827 140.336 360.36C139.632 360.883 138.757 361.144 137.712 361.144C136.88 361.144 136.133 360.957 135.472 360.584C134.821 360.211 134.309 359.683 133.936 359C133.562 358.307 133.376 357.507 133.376 356.6C133.376 355.693 133.557 354.899 133.92 354.216C134.282 353.533 134.789 353.011 135.44 352.648C136.101 352.275 136.858 352.088 137.712 352.088C138.544 352.088 139.28 352.269 139.92 352.632C140.56 352.995 141.05 353.496 141.392 354.136C141.744 354.765 141.92 355.48 141.92 356.28ZM140.416 355.976C140.416 355.421 140.293 354.947 140.048 354.552C139.802 354.147 139.466 353.843 139.04 353.64C138.624 353.427 138.16 353.32 137.648 353.32C136.912 353.32 136.282 353.555 135.76 354.024C135.248 354.493 134.954 355.144 134.88 355.976H140.416ZM151.841 356.28C151.841 356.557 151.825 356.851 151.793 357.16H144.785C144.839 358.024 145.132 358.701 145.665 359.192C146.209 359.672 146.865 359.912 147.633 359.912C148.263 359.912 148.785 359.768 149.201 359.48C149.628 359.181 149.927 358.787 150.097 358.296H151.665C151.431 359.139 150.961 359.827 150.257 360.36C149.553 360.883 148.679 361.144 147.633 361.144C146.801 361.144 146.055 360.957 145.393 360.584C144.743 360.211 144.231 359.683 143.857 359C143.484 358.307 143.297 357.507 143.297 356.6C143.297 355.693 143.479 354.899 143.841 354.216C144.204 353.533 144.711 353.011 145.361 352.648C146.023 352.275 146.78 352.088 147.633 352.088C148.465 352.088 149.201 352.269 149.841 352.632C150.481 352.995 150.972 353.496 151.313 354.136C151.665 354.765 151.841 355.48 151.841 356.28ZM150.337 355.976C150.337 355.421 150.215 354.947 149.969 354.552C149.724 354.147 149.388 353.843 148.961 353.64C148.545 353.427 148.081 353.32 147.569 353.32C146.833 353.32 146.204 353.555 145.681 354.024C145.169 354.493 144.876 355.144 144.801 355.976H150.337Z" fill="#686868"/>
<path d="M42 402C37.032 402 33 406.032 33 411C33 415.968 37.032 420 42 420C46.968 420 51 415.968 51 411C51 406.032 46.968 402 42 402ZM38.4 415.95C37.8033 415.95 37.231 415.713 36.809 415.291C36.3871 414.869 36.15 414.297 36.15 413.7C36.15 413.103 36.3871 412.531 36.809 412.109C37.231 411.687 37.8033 411.45 38.4 411.45C38.9967 411.45 39.569 411.687 39.991 412.109C40.4129 412.531 40.65 413.103 40.65 413.7C40.65 414.297 40.4129 414.869 39.991 415.291C39.569 415.713 38.9967 415.95 38.4 415.95ZM39.75 407.4C39.75 406.803 39.9871 406.231 40.409 405.809C40.831 405.387 41.4033 405.15 42 405.15C42.5967 405.15 43.169 405.387 43.591 405.809C44.0129 406.231 44.25 406.803 44.25 407.4C44.25 407.997 44.0129 408.569 43.591 408.991C43.169 409.413 42.5967 409.65 42 409.65C41.4033 409.65 40.831 409.413 40.409 408.991C39.9871 408.569 39.75 407.997 39.75 407.4ZM45.6 415.95C45.0033 415.95 44.431 415.713 44.009 415.291C43.5871 414.869 43.35 414.297 43.35 413.7C43.35 413.103 43.5871 412.531 44.009 412.109C44.431 411.687 45.0033 411.45 45.6 411.45C46.1967 411.45 46.769 411.687 47.191 412.109C47.6129 412.531 47.85 413.103 47.85 413.7C47.85 414.297 47.6129 414.869 47.191 415.291C46.769 415.713 46.1967 415.95 45.6 415.95Z" fill="#B2B2B2"/>
<path d="M82.704 405.848C83.92 405.848 84.9707 406.077 85.856 406.536C86.752 406.984 87.4347 407.629 87.904 408.472C88.384 409.315 88.624 410.307 88.624 411.448C88.624 412.589 88.384 413.581 87.904 414.424C87.4347 415.256 86.752 415.896 85.856 416.344C84.9707 416.781 83.92 417 82.704 417H79.232V405.848H82.704ZM82.704 415.8C84.144 415.8 85.2427 415.421 86 414.664C86.7573 413.896 87.136 412.824 87.136 411.448C87.136 410.061 86.752 408.979 85.984 408.2C85.2267 407.421 84.1333 407.032 82.704 407.032H80.688V415.8H82.704ZM98.5445 412.28C98.5445 412.557 98.5285 412.851 98.4965 413.16H91.4885C91.5418 414.024 91.8352 414.701 92.3685 415.192C92.9125 415.672 93.5685 415.912 94.3365 415.912C94.9658 415.912 95.4885 415.768 95.9045 415.48C96.3312 415.181 96.6298 414.787 96.8005 414.296H98.3685C98.1338 415.139 97.6645 415.827 96.9605 416.36C96.2565 416.883 95.3818 417.144 94.3365 417.144C93.5045 417.144 92.7578 416.957 92.0965 416.584C91.4458 416.211 90.9338 415.683 90.5605 415C90.1872 414.307 90.0005 413.507 90.0005 412.6C90.0005 411.693 90.1818 410.899 90.5445 410.216C90.9072 409.533 91.4138 409.011 92.0645 408.648C92.7258 408.275 93.4832 408.088 94.3365 408.088C95.1685 408.088 95.9045 408.269 96.5445 408.632C97.1845 408.995 97.6752 409.496 98.0165 410.136C98.3685 410.765 98.5445 411.48 98.5445 412.28ZM97.0405 411.976C97.0405 411.421 96.9178 410.947 96.6725 410.552C96.4272 410.147 96.0912 409.843 95.6645 409.64C95.2485 409.427 94.7845 409.32 94.2725 409.32C93.5365 409.32 92.9072 409.555 92.3845 410.024C91.8725 410.493 91.5792 411.144 91.5045 411.976H97.0405ZM101.922 409.848C102.21 409.347 102.637 408.931 103.202 408.6C103.778 408.259 104.445 408.088 105.202 408.088C105.981 408.088 106.685 408.275 107.314 408.648C107.954 409.021 108.456 409.549 108.818 410.232C109.181 410.904 109.362 411.688 109.362 412.584C109.362 413.469 109.181 414.259 108.818 414.952C108.456 415.645 107.954 416.184 107.314 416.568C106.685 416.952 105.981 417.144 105.202 417.144C104.456 417.144 103.794 416.979 103.218 416.648C102.653 416.307 102.221 415.885 101.922 415.384V421.16H100.466V408.232H101.922V409.848ZM107.874 412.584C107.874 411.923 107.741 411.347 107.474 410.856C107.208 410.365 106.845 409.992 106.386 409.736C105.938 409.48 105.442 409.352 104.898 409.352C104.365 409.352 103.869 409.485 103.41 409.752C102.962 410.008 102.6 410.387 102.322 410.888C102.056 411.379 101.922 411.949 101.922 412.6C101.922 413.261 102.056 413.843 102.322 414.344C102.6 414.835 102.962 415.213 103.41 415.48C103.869 415.736 104.365 415.864 104.898 415.864C105.442 415.864 105.938 415.736 106.386 415.48C106.845 415.213 107.208 414.835 107.474 414.344C107.741 413.843 107.874 413.256 107.874 412.584ZM110.735 412.584C110.735 411.688 110.916 410.904 111.279 410.232C111.642 409.549 112.138 409.021 112.767 408.648C113.407 408.275 114.116 408.088 114.895 408.088C115.663 408.088 116.33 408.253 116.895 408.584C117.46 408.915 117.882 409.331 118.159 409.832V408.232H119.631V417H118.159V415.368C117.871 415.88 117.439 416.307 116.863 416.648C116.298 416.979 115.636 417.144 114.879 417.144C114.1 417.144 113.396 416.952 112.767 416.568C112.138 416.184 111.642 415.645 111.279 414.952C110.916 414.259 110.735 413.469 110.735 412.584ZM118.159 412.6C118.159 411.939 118.026 411.363 117.759 410.872C117.492 410.381 117.13 410.008 116.671 409.752C116.223 409.485 115.727 409.352 115.183 409.352C114.639 409.352 114.143 409.48 113.695 409.736C113.247 409.992 112.89 410.365 112.623 410.856C112.356 411.347 112.223 411.923 112.223 412.584C112.223 413.256 112.356 413.843 112.623 414.344C112.89 414.835 113.247 415.213 113.695 415.48C114.143 415.736 114.639 415.864 115.183 415.864C115.727 415.864 116.223 415.736 116.671 415.48C117.13 415.213 117.492 414.835 117.759 414.344C118.026 413.843 118.159 413.261 118.159 412.6ZM123.547 409.656C123.803 409.155 124.166 408.765 124.635 408.488C125.115 408.211 125.697 408.072 126.379 408.072V409.576H125.995C124.363 409.576 123.547 410.461 123.547 412.232V417H122.091V408.232H123.547V409.656ZM129.836 409.432V414.6C129.836 415.027 129.927 415.331 130.108 415.512C130.289 415.683 130.604 415.768 131.052 415.768H132.124V417H130.812C130.001 417 129.393 416.813 128.988 416.44C128.583 416.067 128.38 415.453 128.38 414.6V409.432H127.244V408.232H128.38V406.024H129.836V408.232H132.124V409.432H129.836ZM144.432 408.072C145.115 408.072 145.723 408.216 146.256 408.504C146.79 408.781 147.211 409.203 147.52 409.768C147.83 410.333 147.984 411.021 147.984 411.832V417H146.544V412.04C146.544 411.165 146.326 410.499 145.888 410.04C145.462 409.571 144.88 409.336 144.144 409.336C143.387 409.336 142.784 409.581 142.336 410.072C141.888 410.552 141.664 411.251 141.664 412.168V417H140.224V412.04C140.224 411.165 140.006 410.499 139.568 410.04C139.142 409.571 138.56 409.336 137.824 409.336C137.067 409.336 136.464 409.581 136.016 410.072C135.568 410.552 135.344 411.251 135.344 412.168V417H133.888V408.232H135.344V409.496C135.632 409.037 136.016 408.685 136.496 408.44C136.987 408.195 137.526 408.072 138.112 408.072C138.848 408.072 139.499 408.237 140.064 408.568C140.63 408.899 141.051 409.384 141.328 410.024C141.574 409.405 141.979 408.925 142.544 408.584C143.11 408.243 143.739 408.072 144.432 408.072ZM158.373 412.28C158.373 412.557 158.357 412.851 158.325 413.16H151.317C151.37 414.024 151.663 414.701 152.197 415.192C152.741 415.672 153.397 415.912 154.165 415.912C154.794 415.912 155.317 415.768 155.733 415.48C156.159 415.181 156.458 414.787 156.629 414.296H158.197C157.962 415.139 157.493 415.827 156.789 416.36C156.085 416.883 155.21 417.144 154.165 417.144C153.333 417.144 152.586 416.957 151.925 416.584C151.274 416.211 150.762 415.683 150.389 415C150.015 414.307 149.829 413.507 149.829 412.6C149.829 411.693 150.01 410.899 150.373 410.216C150.735 409.533 151.242 409.011 151.893 408.648C152.554 408.275 153.311 408.088 154.165 408.088C154.997 408.088 155.733 408.269 156.373 408.632C157.013 408.995 157.503 409.496 157.845 410.136C158.197 410.765 158.373 411.48 158.373 412.28ZM156.869 411.976C156.869 411.421 156.746 410.947 156.501 410.552C156.255 410.147 155.919 409.843 155.493 409.64C155.077 409.427 154.613 409.32 154.101 409.32C153.365 409.32 152.735 409.555 152.213 410.024C151.701 410.493 151.407 411.144 151.333 411.976H156.869ZM164.567 408.072C165.633 408.072 166.497 408.397 167.159 409.048C167.82 409.688 168.151 410.616 168.151 411.832V417H166.711V412.04C166.711 411.165 166.492 410.499 166.055 410.04C165.617 409.571 165.02 409.336 164.263 409.336C163.495 409.336 162.881 409.576 162.423 410.056C161.975 410.536 161.751 411.235 161.751 412.152V417H160.295V408.232H161.751V409.48C162.039 409.032 162.428 408.685 162.919 408.44C163.42 408.195 163.969 408.072 164.567 408.072ZM172.305 409.432V414.6C172.305 415.027 172.396 415.331 172.577 415.512C172.758 415.683 173.073 415.768 173.521 415.768H174.593V417H173.281C172.47 417 171.862 416.813 171.457 416.44C171.052 416.067 170.849 415.453 170.849 414.6V409.432H169.713V408.232H170.849V406.024H172.305V408.232H174.593V409.432H172.305Z" fill="#686868"/>
<path opacity="0.5" d="M37.6758 496.957C37.6758 497.793 37.5312 498.527 37.2422 499.16C36.9531 499.789 36.5391 500.273 36 500.613C35.4648 500.949 34.8477 501.117 34.1484 501.117C33.457 501.117 32.8398 500.949 32.2969 500.613C31.7578 500.273 31.3398 499.791 31.043 499.166C30.75 498.541 30.6016 497.82 30.5977 497.004V496.523C30.5977 495.691 30.7441 494.957 31.0371 494.32C31.334 493.684 31.75 493.197 32.2852 492.861C32.8242 492.521 33.4414 492.352 34.1367 492.352C34.832 492.352 35.4473 492.52 35.9824 492.855C36.5215 493.188 36.9375 493.668 37.2305 494.297C37.5234 494.922 37.6719 495.65 37.6758 496.482V496.957ZM36.1934 496.512C36.1934 495.566 36.0137 494.842 35.6543 494.338C35.2988 493.834 34.793 493.582 34.1367 493.582C33.4961 493.582 32.9941 493.834 32.6309 494.338C32.2715 494.838 32.0879 495.547 32.0801 496.465V496.957C32.0801 497.895 32.2617 498.619 32.625 499.131C32.9922 499.643 33.5 499.898 34.1484 499.898C34.8047 499.898 35.3086 499.648 35.6602 499.148C36.0156 498.648 36.1934 497.918 36.1934 496.957V496.512ZM44.8125 493.664H42.1523V501H40.6816V493.664H38.0449V492.469H44.8125V493.664ZM52.7109 501H51.2344V497.209H47.4199V501H45.9375V492.469H47.4199V496.02H51.2344V492.469H52.7109V501ZM59.4551 497.191H55.9512V499.816H60.0469V501H54.4688V492.469H60.0059V493.664H55.9512V496.02H59.4551V497.191ZM64.3887 497.713H62.7363V501H61.2539V492.469H64.2539C65.2383 492.469 65.998 492.689 66.5332 493.131C67.0684 493.572 67.3359 494.211 67.3359 495.047C67.3359 495.617 67.1973 496.096 66.9199 496.482C66.6465 496.865 66.2637 497.16 65.7715 497.367L67.6875 500.924V501H66.0996L64.3887 497.713ZM62.7363 496.523H64.2598C64.7598 496.523 65.1504 496.398 65.4316 496.148C65.7129 495.895 65.8535 495.549 65.8535 495.111C65.8535 494.654 65.7227 494.301 65.4609 494.051C65.2031 493.801 64.8164 493.672 64.3008 493.664H62.7363V496.523Z" fill="#686868"/>
<path d="M42 535C37.0374 535 33 539.037 33 544V547.729C33 548.65 33.8073 549.4 34.8 549.4H35.7C35.9387 549.4 36.1676 549.305 36.3364 549.136C36.5052 548.968 36.6 548.739 36.6 548.5V543.871C36.6 543.633 36.5052 543.404 36.3364 543.235C36.1676 543.066 35.9387 542.971 35.7 542.971H34.8828C35.3832 539.488 38.3802 536.8 42 536.8C45.6198 536.8 48.6168 539.488 49.1172 542.971H48.3C48.0613 542.971 47.8324 543.066 47.6636 543.235C47.4948 543.404 47.4 543.633 47.4 543.871V549.4C47.4 550.393 46.5927 551.2 45.6 551.2H43.8V550.3H40.2V553H45.6C47.5854 553 49.2 551.385 49.2 549.4C50.1927 549.4 51 548.65 51 547.729V544C51 539.037 46.9626 535 42 535Z" fill="#B2B2B2"/>
<path d="M82.768 550.112C82.032 550.112 81.3707 549.984 80.784 549.728C80.208 549.461 79.7547 549.099 79.424 548.64C79.0933 548.171 78.9227 547.632 78.912 547.024H80.464C80.5173 547.547 80.7307 547.989 81.104 548.352C81.488 548.704 82.0427 548.88 82.768 548.88C83.4613 548.88 84.0053 548.709 84.4 548.368C84.8053 548.016 85.008 547.568 85.008 547.024C85.008 546.597 84.8907 546.251 84.656 545.984C84.4213 545.717 84.128 545.515 83.776 545.376C83.424 545.237 82.9493 545.088 82.352 544.928C81.616 544.736 81.024 544.544 80.576 544.352C80.1387 544.16 79.76 543.861 79.44 543.456C79.1307 543.04 78.976 542.485 78.976 541.792C78.976 541.184 79.1307 540.645 79.44 540.176C79.7493 539.707 80.1813 539.344 80.736 539.088C81.3013 538.832 81.9467 538.704 82.672 538.704C83.7173 538.704 84.5707 538.965 85.232 539.488C85.904 540.011 86.2827 540.704 86.368 541.568H84.768C84.7147 541.141 84.4907 540.768 84.096 540.448C83.7013 540.117 83.1787 539.952 82.528 539.952C81.92 539.952 81.424 540.112 81.04 540.432C80.656 540.741 80.464 541.179 80.464 541.744C80.464 542.149 80.576 542.48 80.8 542.736C81.0347 542.992 81.3173 543.189 81.648 543.328C81.9893 543.456 82.464 543.605 83.072 543.776C83.808 543.979 84.4 544.181 84.848 544.384C85.296 544.576 85.68 544.88 86 545.296C86.32 545.701 86.48 546.256 86.48 546.96C86.48 547.504 86.336 548.016 86.048 548.496C85.76 548.976 85.3333 549.365 84.768 549.664C84.2027 549.963 83.536 550.112 82.768 550.112ZM96.3986 541.232V550H94.9426V548.704C94.6653 549.152 94.276 549.504 93.7746 549.76C93.284 550.005 92.74 550.128 92.1426 550.128C91.46 550.128 90.8466 549.989 90.3026 549.712C89.7586 549.424 89.3266 548.997 89.0066 548.432C88.6973 547.867 88.5426 547.179 88.5426 546.368V541.232H89.9826V546.176C89.9826 547.04 90.2013 547.707 90.6386 548.176C91.076 548.635 91.6733 548.864 92.4306 548.864C93.2093 548.864 93.8226 548.624 94.2706 548.144C94.7186 547.664 94.9426 546.965 94.9426 546.048V541.232H96.3986ZM100.313 542.848C100.601 542.347 101.028 541.931 101.593 541.6C102.169 541.259 102.836 541.088 103.593 541.088C104.372 541.088 105.076 541.275 105.705 541.648C106.345 542.021 106.846 542.549 107.209 543.232C107.572 543.904 107.753 544.688 107.753 545.584C107.753 546.469 107.572 547.259 107.209 547.952C106.846 548.645 106.345 549.184 105.705 549.568C105.076 549.952 104.372 550.144 103.593 550.144C102.846 550.144 102.185 549.979 101.609 549.648C101.044 549.307 100.612 548.885 100.313 548.384V554.16H98.857V541.232H100.313V542.848ZM106.265 545.584C106.265 544.923 106.132 544.347 105.865 543.856C105.598 543.365 105.236 542.992 104.777 542.736C104.329 542.48 103.833 542.352 103.289 542.352C102.756 542.352 102.26 542.485 101.801 542.752C101.353 543.008 100.99 543.387 100.713 543.888C100.446 544.379 100.313 544.949 100.313 545.6C100.313 546.261 100.446 546.843 100.713 547.344C100.99 547.835 101.353 548.213 101.801 548.48C102.26 548.736 102.756 548.864 103.289 548.864C103.833 548.864 104.329 548.736 104.777 548.48C105.236 548.213 105.598 547.835 105.865 547.344C106.132 546.843 106.265 546.256 106.265 545.584ZM111.126 542.848C111.414 542.347 111.84 541.931 112.406 541.6C112.982 541.259 113.648 541.088 114.406 541.088C115.184 541.088 115.888 541.275 116.517 541.648C117.157 542.021 117.659 542.549 118.022 543.232C118.384 543.904 118.566 544.688 118.566 545.584C118.566 546.469 118.384 547.259 118.022 547.952C117.659 548.645 117.157 549.184 116.517 549.568C115.888 549.952 115.184 550.144 114.406 550.144C113.659 550.144 112.998 549.979 112.422 549.648C111.856 549.307 111.424 548.885 111.126 548.384V554.16H109.67V541.232H111.126V542.848ZM117.078 545.584C117.078 544.923 116.944 544.347 116.678 543.856C116.411 543.365 116.048 542.992 115.59 542.736C115.142 542.48 114.646 542.352 114.102 542.352C113.568 542.352 113.072 542.485 112.614 542.752C112.166 543.008 111.803 543.387 111.526 543.888C111.259 544.379 111.126 544.949 111.126 545.6C111.126 546.261 111.259 546.843 111.526 547.344C111.803 547.835 112.166 548.213 112.614 548.48C113.072 548.736 113.568 548.864 114.102 548.864C114.646 548.864 115.142 548.736 115.59 548.48C116.048 548.213 116.411 547.835 116.678 547.344C116.944 546.843 117.078 546.256 117.078 545.584ZM124.306 550.144C123.485 550.144 122.738 549.957 122.066 549.584C121.405 549.211 120.882 548.683 120.498 548C120.125 547.307 119.938 546.507 119.938 545.6C119.938 544.704 120.13 543.915 120.514 543.232C120.909 542.539 121.442 542.011 122.114 541.648C122.786 541.275 123.538 541.088 124.37 541.088C125.202 541.088 125.954 541.275 126.626 541.648C127.298 542.011 127.826 542.533 128.21 543.216C128.605 543.899 128.802 544.693 128.802 545.6C128.802 546.507 128.599 547.307 128.194 548C127.799 548.683 127.261 549.211 126.578 549.584C125.895 549.957 125.138 550.144 124.306 550.144ZM124.306 548.864C124.829 548.864 125.319 548.741 125.778 548.496C126.237 548.251 126.605 547.883 126.882 547.392C127.17 546.901 127.314 546.304 127.314 545.6C127.314 544.896 127.175 544.299 126.898 543.808C126.621 543.317 126.258 542.955 125.81 542.72C125.362 542.475 124.877 542.352 124.354 542.352C123.821 542.352 123.33 542.475 122.882 542.72C122.445 542.955 122.093 543.317 121.826 543.808C121.559 544.299 121.426 544.896 121.426 545.6C121.426 546.315 121.554 546.917 121.81 547.408C122.077 547.899 122.429 548.267 122.866 548.512C123.303 548.747 123.783 548.864 124.306 548.864ZM132.172 542.656C132.428 542.155 132.791 541.765 133.26 541.488C133.74 541.211 134.322 541.072 135.004 541.072V542.576H134.62C132.988 542.576 132.172 543.461 132.172 545.232V550H130.716V541.232H132.172V542.656ZM138.461 542.432V547.6C138.461 548.027 138.552 548.331 138.733 548.512C138.914 548.683 139.229 548.768 139.677 548.768H140.749V550H139.437C138.626 550 138.018 549.813 137.613 549.44C137.208 549.067 137.005 548.453 137.005 547.6V542.432H135.869V541.232H137.005V539.024H138.461V541.232H140.749V542.432H138.461Z" fill="#686868"/>
<path d="M43.3703 608H40.0943C39.889 608 39.6899 607.93 39.53 607.801C39.37 607.673 39.2589 607.493 39.215 607.293L38.8487 605.597C38.36 605.383 37.8967 605.115 37.4672 604.799L35.8139 605.325C35.6182 605.388 35.407 605.381 35.2155 605.307C35.0239 605.233 34.8635 605.095 34.7609 604.918L33.1193 602.082C33.0177 601.904 32.9796 601.696 33.0111 601.494C33.0427 601.291 33.142 601.105 33.293 600.967L34.5755 599.797C34.5171 599.266 34.5171 598.732 34.5755 598.202L33.293 597.034C33.1418 596.896 33.0423 596.71 33.0108 596.507C32.9792 596.304 33.0175 596.097 33.1193 595.918L34.7573 593.081C34.8599 592.903 35.0203 592.765 35.2119 592.691C35.4034 592.617 35.6146 592.611 35.8103 592.673L37.4636 593.199C37.6832 593.037 37.9118 592.886 38.1476 592.749C38.3753 592.622 38.6093 592.506 38.8487 592.402L39.2159 590.708C39.2596 590.508 39.3705 590.328 39.5303 590.199C39.69 590.071 39.889 590 40.0943 590H43.3703C43.5755 590 43.7745 590.071 43.9343 590.199C44.094 590.328 44.205 590.508 44.2487 590.708L44.6195 592.403C44.8715 592.515 45.1181 592.64 45.3566 592.779C45.5789 592.908 45.794 593.049 46.001 593.201L47.6552 592.675C47.8507 592.613 48.0617 592.619 48.253 592.693C48.4444 592.767 48.6047 592.905 48.7073 593.082L50.3453 595.92C50.5541 596.286 50.4821 596.75 50.1716 597.035L48.8891 598.205C48.9474 598.735 48.9474 599.27 48.8891 599.8L50.1716 600.97C50.4821 601.256 50.5541 601.719 50.3453 602.085L48.7073 604.923C48.6046 605.101 48.4442 605.238 48.2527 605.312C48.0611 605.387 47.85 605.393 47.6543 605.331L46.001 604.804C45.5718 605.12 45.1087 605.388 44.6204 605.601L44.2487 607.293C44.2048 607.493 44.0938 607.672 43.934 607.801C43.7743 607.93 43.5754 608 43.3703 608ZM41.7287 595.4C40.7739 595.4 39.8582 595.779 39.1831 596.454C38.508 597.13 38.1287 598.045 38.1287 599C38.1287 599.955 38.508 600.87 39.1831 601.546C39.8582 602.221 40.7739 602.6 41.7287 602.6C42.6834 602.6 43.5991 602.221 44.2743 601.546C44.9494 600.87 45.3287 599.955 45.3287 599C45.3287 598.045 44.9494 597.13 44.2743 596.454C43.5991 595.779 42.6834 595.4 41.7287 595.4Z" fill="#B2B2B2"/>
<path d="M82.768 606.112C82.032 606.112 81.3707 605.984 80.784 605.728C80.208 605.461 79.7547 605.099 79.424 604.64C79.0933 604.171 78.9227 603.632 78.912 603.024H80.464C80.5173 603.547 80.7307 603.989 81.104 604.352C81.488 604.704 82.0427 604.88 82.768 604.88C83.4613 604.88 84.0053 604.709 84.4 604.368C84.8053 604.016 85.008 603.568 85.008 603.024C85.008 602.597 84.8907 602.251 84.656 601.984C84.4213 601.717 84.128 601.515 83.776 601.376C83.424 601.237 82.9493 601.088 82.352 600.928C81.616 600.736 81.024 600.544 80.576 600.352C80.1387 600.16 79.76 599.861 79.44 599.456C79.1307 599.04 78.976 598.485 78.976 597.792C78.976 597.184 79.1307 596.645 79.44 596.176C79.7493 595.707 80.1813 595.344 80.736 595.088C81.3013 594.832 81.9467 594.704 82.672 594.704C83.7173 594.704 84.5707 594.965 85.232 595.488C85.904 596.011 86.2827 596.704 86.368 597.568H84.768C84.7147 597.141 84.4907 596.768 84.096 596.448C83.7013 596.117 83.1787 595.952 82.528 595.952C81.92 595.952 81.424 596.112 81.04 596.432C80.656 596.741 80.464 597.179 80.464 597.744C80.464 598.149 80.576 598.48 80.8 598.736C81.0347 598.992 81.3173 599.189 81.648 599.328C81.9893 599.456 82.464 599.605 83.072 599.776C83.808 599.979 84.4 600.181 84.848 600.384C85.296 600.576 85.68 600.88 86 601.296C86.32 601.701 86.48 602.256 86.48 602.96C86.48 603.504 86.336 604.016 86.048 604.496C85.76 604.976 85.3333 605.365 84.768 605.664C84.2027 605.963 83.536 606.112 82.768 606.112ZM96.6226 601.28C96.6226 601.557 96.6066 601.851 96.5746 602.16H89.5666C89.62 603.024 89.9133 603.701 90.4466 604.192C90.9906 604.672 91.6466 604.912 92.4146 604.912C93.044 604.912 93.5666 604.768 93.9826 604.48C94.4093 604.181 94.708 603.787 94.8786 603.296H96.4466C96.212 604.139 95.7426 604.827 95.0386 605.36C94.3346 605.883 93.46 606.144 92.4146 606.144C91.5826 606.144 90.836 605.957 90.1746 605.584C89.524 605.211 89.012 604.683 88.6386 604C88.2653 603.307 88.0786 602.507 88.0786 601.6C88.0786 600.693 88.26 599.899 88.6226 599.216C88.9853 598.533 89.492 598.011 90.1426 597.648C90.804 597.275 91.5613 597.088 92.4146 597.088C93.2466 597.088 93.9826 597.269 94.6226 597.632C95.2626 597.995 95.7533 598.496 96.0946 599.136C96.4466 599.765 96.6226 600.48 96.6226 601.28ZM95.1186 600.976C95.1186 600.421 94.996 599.947 94.7506 599.552C94.5053 599.147 94.1693 598.843 93.7426 598.64C93.3266 598.427 92.8626 598.32 92.3506 598.32C91.6146 598.32 90.9853 598.555 90.4626 599.024C89.9506 599.493 89.6573 600.144 89.5826 600.976H95.1186ZM100.321 598.432V603.6C100.321 604.027 100.411 604.331 100.593 604.512C100.774 604.683 101.089 604.768 101.536 604.768H102.609V606H101.297C100.486 606 99.8778 605.813 99.4725 605.44C99.0672 605.067 98.8645 604.453 98.8645 603.6V598.432H97.7285V597.232H98.8645V595.024H100.321V597.232H102.609V598.432H100.321ZM106.149 598.432V603.6C106.149 604.027 106.239 604.331 106.421 604.512C106.602 604.683 106.917 604.768 107.365 604.768H108.437V606H107.125C106.314 606 105.706 605.813 105.301 605.44C104.895 605.067 104.693 604.453 104.693 603.6V598.432H103.557V597.232H104.693V595.024H106.149V597.232H108.437V598.432H106.149ZM110.953 595.808C110.675 595.808 110.441 595.712 110.249 595.52C110.057 595.328 109.961 595.093 109.961 594.816C109.961 594.539 110.057 594.304 110.249 594.112C110.441 593.92 110.675 593.824 110.953 593.824C111.219 593.824 111.443 593.92 111.625 594.112C111.817 594.304 111.913 594.539 111.913 594.816C111.913 595.093 111.817 595.328 111.625 595.52C111.443 595.712 111.219 595.808 110.953 595.808ZM111.657 597.232V606H110.201V597.232H111.657ZM118.41 597.072C119.477 597.072 120.341 597.397 121.002 598.048C121.664 598.688 121.994 599.616 121.994 600.832V606H120.554V601.04C120.554 600.165 120.336 599.499 119.898 599.04C119.461 598.571 118.864 598.336 118.106 598.336C117.338 598.336 116.725 598.576 116.266 599.056C115.818 599.536 115.594 600.235 115.594 601.152V606H114.138V597.232H115.594V598.48C115.882 598.032 116.272 597.685 116.762 597.44C117.264 597.195 117.813 597.072 118.41 597.072ZM127.989 597.088C128.746 597.088 129.407 597.253 129.973 597.584C130.549 597.915 130.975 598.331 131.253 598.832V597.232H132.725V606.192C132.725 606.992 132.554 607.701 132.213 608.32C131.871 608.949 131.381 609.44 130.741 609.792C130.111 610.144 129.375 610.32 128.533 610.32C127.381 610.32 126.421 610.048 125.653 609.504C124.885 608.96 124.431 608.219 124.293 607.28H125.733C125.893 607.813 126.223 608.24 126.725 608.56C127.226 608.891 127.829 609.056 128.533 609.056C129.333 609.056 129.983 608.805 130.485 608.304C130.997 607.803 131.253 607.099 131.253 606.192V604.352C130.965 604.864 130.538 605.291 129.973 605.632C129.407 605.973 128.746 606.144 127.989 606.144C127.21 606.144 126.501 605.952 125.861 605.568C125.231 605.184 124.735 604.645 124.373 603.952C124.01 603.259 123.829 602.469 123.829 601.584C123.829 600.688 124.01 599.904 124.373 599.232C124.735 598.549 125.231 598.021 125.861 597.648C126.501 597.275 127.21 597.088 127.989 597.088ZM131.253 601.6C131.253 600.939 131.119 600.363 130.853 599.872C130.586 599.381 130.223 599.008 129.765 598.752C129.317 598.485 128.821 598.352 128.277 598.352C127.733 598.352 127.237 598.48 126.789 598.736C126.341 598.992 125.983 599.365 125.717 599.856C125.45 600.347 125.317 600.923 125.317 601.584C125.317 602.256 125.45 602.843 125.717 603.344C125.983 603.835 126.341 604.213 126.789 604.48C127.237 604.736 127.733 604.864 128.277 604.864C128.821 604.864 129.317 604.736 129.765 604.48C130.223 604.213 130.586 603.835 130.853 603.344C131.119 602.843 131.253 602.261 131.253 601.6ZM138.289 606.144C137.617 606.144 137.014 606.032 136.481 605.808C135.948 605.573 135.526 605.253 135.217 604.848C134.908 604.432 134.737 603.957 134.705 603.424H136.209C136.252 603.861 136.454 604.219 136.817 604.496C137.19 604.773 137.676 604.912 138.273 604.912C138.828 604.912 139.265 604.789 139.585 604.544C139.905 604.299 140.065 603.989 140.065 603.616C140.065 603.232 139.894 602.949 139.553 602.768C139.212 602.576 138.684 602.389 137.969 602.208C137.318 602.037 136.785 601.867 136.369 601.696C135.964 601.515 135.612 601.253 135.313 600.912C135.025 600.56 134.881 600.101 134.881 599.536C134.881 599.088 135.014 598.677 135.281 598.304C135.548 597.931 135.926 597.637 136.417 597.424C136.908 597.2 137.468 597.088 138.097 597.088C139.068 597.088 139.852 597.333 140.449 597.824C141.046 598.315 141.366 598.987 141.409 599.84H139.953C139.921 599.381 139.734 599.013 139.393 598.736C139.062 598.459 138.614 598.32 138.049 598.32C137.526 598.32 137.11 598.432 136.801 598.656C136.492 598.88 136.337 599.173 136.337 599.536C136.337 599.824 136.428 600.064 136.609 600.256C136.801 600.437 137.036 600.587 137.313 600.704C137.601 600.811 137.996 600.933 138.497 601.072C139.126 601.243 139.638 601.413 140.033 601.584C140.428 601.744 140.764 601.989 141.041 602.32C141.329 602.651 141.478 603.083 141.489 603.616C141.489 604.096 141.356 604.528 141.089 604.912C140.822 605.296 140.444 605.6 139.953 605.824C139.473 606.037 138.918 606.144 138.289 606.144Z" fill="#686868"/>
<defs>
<clipPath id="clip0_1_165">
<rect width="142.994" height="36.804" fill="white" transform="translate(49.5031 32.598)"/>
</clipPath>
</defs>
</svg>
