<svg width="312" height="190" viewBox="0 0 312 190" fill="none" xmlns="http://www.w3.org/2000/svg">
<rect x="0.5" y="0.5" width="311" height="189" rx="9.5" fill="white"/>
<rect x="0.5" y="0.5" width="311" height="189" rx="9.5" stroke="#E0E0E0"/>
<path d="M29.432 27.49V29.164H26.102V40H24.05V29.164H20.702V27.49H29.432ZM30.8262 34.996C30.8262 34 31.0302 33.118 31.4382 32.35C31.8582 31.582 32.4222 30.988 33.1302 30.568C33.8502 30.136 34.6422 29.92 35.5062 29.92C36.2862 29.92 36.9642 30.076 37.5402 30.388C38.1282 30.688 38.5962 31.066 38.9442 31.522V30.082H41.0142V40H38.9442V38.524C38.5962 38.992 38.1222 39.382 37.5222 39.694C36.9222 40.006 36.2382 40.162 35.4702 40.162C34.6182 40.162 33.8382 39.946 33.1302 39.514C32.4222 39.07 31.8582 38.458 31.4382 37.678C31.0302 36.886 30.8262 35.992 30.8262 34.996ZM38.9442 35.032C38.9442 34.348 38.8002 33.754 38.5122 33.25C38.2362 32.746 37.8702 32.362 37.4142 32.098C36.9582 31.834 36.4662 31.702 35.9382 31.702C35.4102 31.702 34.9182 31.834 34.4622 32.098C34.0062 32.35 33.6342 32.728 33.3462 33.232C33.0702 33.724 32.9322 34.312 32.9322 34.996C32.9322 35.68 33.0702 36.28 33.3462 36.796C33.6342 37.312 34.0062 37.708 34.4622 37.984C34.9302 38.248 35.4222 38.38 35.9382 38.38C36.4662 38.38 36.9582 38.248 37.4142 37.984C37.8702 37.72 38.2362 37.336 38.5122 36.832C38.8002 36.316 38.9442 35.716 38.9442 35.032ZM45.7614 26.68V40H43.7094V26.68H45.7614ZM57.5455 34.798C57.5455 35.17 57.5215 35.506 57.4735 35.806H49.8955C49.9555 36.598 50.2495 37.234 50.7775 37.714C51.3055 38.194 51.9535 38.434 52.7215 38.434C53.8255 38.434 54.6055 37.972 55.0615 37.048H57.2755C56.9755 37.96 56.4295 38.71 55.6375 39.298C54.8575 39.874 53.8855 40.162 52.7215 40.162C51.7735 40.162 50.9215 39.952 50.1655 39.532C49.4215 39.1 48.8335 38.5 48.4015 37.732C47.9815 36.952 47.7715 36.052 47.7715 35.032C47.7715 34.012 47.9755 33.118 48.3835 32.35C48.8035 31.57 49.3855 30.97 50.1295 30.55C50.8855 30.13 51.7495 29.92 52.7215 29.92C53.6575 29.92 54.4915 30.124 55.2235 30.532C55.9555 30.94 56.5255 31.516 56.9335 32.26C57.3415 32.992 57.5455 33.838 57.5455 34.798ZM55.4035 34.15C55.3915 33.394 55.1215 32.788 54.5935 32.332C54.0655 31.876 53.4115 31.648 52.6315 31.648C51.9235 31.648 51.3175 31.876 50.8135 32.332C50.3095 32.776 50.0095 33.382 49.9135 34.15H55.4035ZM64.5688 29.92C65.3488 29.92 66.0448 30.082 66.6568 30.406C67.2808 30.73 67.7668 31.21 68.1148 31.846C68.4628 32.482 68.6368 33.25 68.6368 34.15V40H66.6028V34.456C66.6028 33.568 66.3808 32.89 65.9368 32.422C65.4928 31.942 64.8868 31.702 64.1188 31.702C63.3508 31.702 62.7388 31.942 62.2828 32.422C61.8388 32.89 61.6168 33.568 61.6168 34.456V40H59.5648V30.082H61.6168V31.216C61.9528 30.808 62.3788 30.49 62.8948 30.262C63.4228 30.034 63.9808 29.92 64.5688 29.92ZM73.6483 31.756V37.246C73.6483 37.618 73.7323 37.888 73.9003 38.056C74.0803 38.212 74.3803 38.29 74.8003 38.29H76.0603V40H74.4403C73.5163 40 72.8083 39.784 72.3163 39.352C71.8243 38.92 71.5783 38.218 71.5783 37.246V31.756H70.4083V30.082H71.5783V27.616H73.6483V30.082H76.0603V31.756H73.6483ZM89.1253 40L86.2453 34.996H84.6793V40H82.6273V27.49H86.9473C87.9073 27.49 88.7173 27.658 89.3773 27.994C90.0493 28.33 90.5473 28.78 90.8713 29.344C91.2073 29.908 91.3753 30.538 91.3753 31.234C91.3753 32.05 91.1353 32.794 90.6553 33.466C90.1873 34.126 89.4613 34.576 88.4773 34.816L91.5733 40H89.1253ZM84.6793 33.358H86.9473C87.7153 33.358 88.2913 33.166 88.6753 32.782C89.0713 32.398 89.2693 31.882 89.2693 31.234C89.2693 30.586 89.0773 30.082 88.6933 29.722C88.3093 29.35 87.7273 29.164 86.9473 29.164H84.6793V33.358ZM103.09 34.798C103.09 35.17 103.066 35.506 103.018 35.806H95.4404C95.5004 36.598 95.7944 37.234 96.3224 37.714C96.8504 38.194 97.4984 38.434 98.2664 38.434C99.3704 38.434 100.15 37.972 100.606 37.048H102.82C102.52 37.96 101.974 38.71 101.182 39.298C100.402 39.874 99.4304 40.162 98.2664 40.162C97.3184 40.162 96.4664 39.952 95.7104 39.532C94.9664 39.1 94.3784 38.5 93.9464 37.732C93.5264 36.952 93.3164 36.052 93.3164 35.032C93.3164 34.012 93.5204 33.118 93.9284 32.35C94.3484 31.57 94.9304 30.97 95.6744 30.55C96.4304 30.13 97.2944 29.92 98.2664 29.92C99.2024 29.92 100.036 30.124 100.768 30.532C101.5 30.94 102.07 31.516 102.478 32.26C102.886 32.992 103.09 33.838 103.09 34.798ZM100.948 34.15C100.936 33.394 100.666 32.788 100.138 32.332C99.6104 31.876 98.9564 31.648 98.1764 31.648C97.4684 31.648 96.8624 31.876 96.3584 32.332C95.8544 32.776 95.5544 33.382 95.4584 34.15H100.948ZM104.426 34.996C104.426 34 104.63 33.118 105.038 32.35C105.458 31.582 106.022 30.988 106.73 30.568C107.45 30.136 108.248 29.92 109.124 29.92C109.892 29.92 110.57 30.076 111.158 30.388C111.758 30.7 112.22 31.078 112.544 31.522V30.082H114.614V44.716H112.544V38.56C112.22 39.004 111.752 39.382 111.14 39.694C110.528 40.006 109.832 40.162 109.052 40.162C108.2 40.162 107.42 39.946 106.712 39.514C106.016 39.07 105.458 38.458 105.038 37.678C104.63 36.886 104.426 35.992 104.426 34.996ZM112.544 35.032C112.544 34.348 112.4 33.754 112.112 33.25C111.836 32.746 111.47 32.362 111.014 32.098C110.558 31.834 110.066 31.702 109.538 31.702C109.01 31.702 108.518 31.834 108.062 32.098C107.606 32.35 107.234 32.728 106.946 33.232C106.67 33.724 106.532 34.312 106.532 34.996C106.532 35.68 106.67 36.28 106.946 36.796C107.234 37.312 107.606 37.708 108.062 37.984C108.53 38.248 109.022 38.38 109.538 38.38C110.066 38.38 110.558 38.248 111.014 37.984C111.47 37.72 111.836 37.336 112.112 36.832C112.4 36.316 112.544 35.716 112.544 35.032ZM126.291 30.082V40H124.239V38.83C123.915 39.238 123.489 39.562 122.961 39.802C122.445 40.03 121.893 40.144 121.305 40.144C120.525 40.144 119.823 39.982 119.199 39.658C118.587 39.334 118.101 38.854 117.741 38.218C117.393 37.582 117.219 36.814 117.219 35.914V30.082H119.253V35.608C119.253 36.496 119.475 37.18 119.919 37.66C120.363 38.128 120.969 38.362 121.737 38.362C122.505 38.362 123.111 38.128 123.555 37.66C124.011 37.18 124.239 36.496 124.239 35.608V30.082H126.291ZM138.088 34.798C138.088 35.17 138.064 35.506 138.016 35.806H130.438C130.498 36.598 130.792 37.234 131.32 37.714C131.848 38.194 132.496 38.434 133.264 38.434C134.368 38.434 135.148 37.972 135.604 37.048H137.818C137.518 37.96 136.972 38.71 136.18 39.298C135.4 39.874 134.428 40.162 133.264 40.162C132.316 40.162 131.464 39.952 130.708 39.532C129.964 39.1 129.376 38.5 128.944 37.732C128.524 36.952 128.314 36.052 128.314 35.032C128.314 34.012 128.518 33.118 128.926 32.35C129.346 31.57 129.928 30.97 130.672 30.55C131.428 30.13 132.292 29.92 133.264 29.92C134.2 29.92 135.034 30.124 135.766 30.532C136.498 30.94 137.068 31.516 137.476 32.26C137.884 32.992 138.088 33.838 138.088 34.798ZM135.946 34.15C135.934 33.394 135.664 32.788 135.136 32.332C134.608 31.876 133.954 31.648 133.174 31.648C132.466 31.648 131.86 31.876 131.356 32.332C130.852 32.776 130.552 33.382 130.456 34.15H135.946ZM143.708 40.162C142.928 40.162 142.226 40.024 141.602 39.748C140.99 39.46 140.504 39.076 140.144 38.596C139.784 38.104 139.592 37.558 139.568 36.958H141.692C141.728 37.378 141.926 37.732 142.286 38.02C142.658 38.296 143.12 38.434 143.672 38.434C144.248 38.434 144.692 38.326 145.004 38.11C145.328 37.882 145.49 37.594 145.49 37.246C145.49 36.874 145.31 36.598 144.95 36.418C144.602 36.238 144.044 36.04 143.276 35.824C142.532 35.62 141.926 35.422 141.458 35.23C140.99 35.038 140.582 34.744 140.234 34.348C139.898 33.952 139.73 33.43 139.73 32.782C139.73 32.254 139.886 31.774 140.198 31.342C140.51 30.898 140.954 30.55 141.53 30.298C142.118 30.046 142.79 29.92 143.546 29.92C144.674 29.92 145.58 30.208 146.264 30.784C146.96 31.348 147.332 32.122 147.38 33.106H145.328C145.292 32.662 145.112 32.308 144.788 32.044C144.464 31.78 144.026 31.648 143.474 31.648C142.934 31.648 142.52 31.75 142.232 31.954C141.944 32.158 141.8 32.428 141.8 32.764C141.8 33.028 141.896 33.25 142.088 33.43C142.28 33.61 142.514 33.754 142.79 33.862C143.066 33.958 143.474 34.084 144.014 34.24C144.734 34.432 145.322 34.63 145.778 34.834C146.246 35.026 146.648 35.314 146.984 35.698C147.32 36.082 147.494 36.592 147.506 37.228C147.506 37.792 147.35 38.296 147.038 38.74C146.726 39.184 146.282 39.532 145.706 39.784C145.142 40.036 144.476 40.162 143.708 40.162ZM152.117 31.756V37.246C152.117 37.618 152.201 37.888 152.369 38.056C152.549 38.212 152.849 38.29 153.269 38.29H154.529V40H152.909C151.985 40 151.277 39.784 150.785 39.352C150.293 38.92 150.047 38.218 150.047 37.246V31.756H148.877V30.082H150.047V27.616H152.117V30.082H154.529V31.756H152.117Z" fill="#161E54"/>
<path d="M29.432 27.49V29.164H26.102V40H24.05V29.164H20.702V27.49H29.432ZM30.8262 34.996C30.8262 34 31.0302 33.118 31.4382 32.35C31.8582 31.582 32.4222 30.988 33.1302 30.568C33.8502 30.136 34.6422 29.92 35.5062 29.92C36.2862 29.92 36.9642 30.076 37.5402 30.388C38.1282 30.688 38.5962 31.066 38.9442 31.522V30.082H41.0142V40H38.9442V38.524C38.5962 38.992 38.1222 39.382 37.5222 39.694C36.9222 40.006 36.2382 40.162 35.4702 40.162C34.6182 40.162 33.8382 39.946 33.1302 39.514C32.4222 39.07 31.8582 38.458 31.4382 37.678C31.0302 36.886 30.8262 35.992 30.8262 34.996ZM38.9442 35.032C38.9442 34.348 38.8002 33.754 38.5122 33.25C38.2362 32.746 37.8702 32.362 37.4142 32.098C36.9582 31.834 36.4662 31.702 35.9382 31.702C35.4102 31.702 34.9182 31.834 34.4622 32.098C34.0062 32.35 33.6342 32.728 33.3462 33.232C33.0702 33.724 32.9322 34.312 32.9322 34.996C32.9322 35.68 33.0702 36.28 33.3462 36.796C33.6342 37.312 34.0062 37.708 34.4622 37.984C34.9302 38.248 35.4222 38.38 35.9382 38.38C36.4662 38.38 36.9582 38.248 37.4142 37.984C37.8702 37.72 38.2362 37.336 38.5122 36.832C38.8002 36.316 38.9442 35.716 38.9442 35.032ZM45.7614 26.68V40H43.7094V26.68H45.7614ZM57.5455 34.798C57.5455 35.17 57.5215 35.506 57.4735 35.806H49.8955C49.9555 36.598 50.2495 37.234 50.7775 37.714C51.3055 38.194 51.9535 38.434 52.7215 38.434C53.8255 38.434 54.6055 37.972 55.0615 37.048H57.2755C56.9755 37.96 56.4295 38.71 55.6375 39.298C54.8575 39.874 53.8855 40.162 52.7215 40.162C51.7735 40.162 50.9215 39.952 50.1655 39.532C49.4215 39.1 48.8335 38.5 48.4015 37.732C47.9815 36.952 47.7715 36.052 47.7715 35.032C47.7715 34.012 47.9755 33.118 48.3835 32.35C48.8035 31.57 49.3855 30.97 50.1295 30.55C50.8855 30.13 51.7495 29.92 52.7215 29.92C53.6575 29.92 54.4915 30.124 55.2235 30.532C55.9555 30.94 56.5255 31.516 56.9335 32.26C57.3415 32.992 57.5455 33.838 57.5455 34.798ZM55.4035 34.15C55.3915 33.394 55.1215 32.788 54.5935 32.332C54.0655 31.876 53.4115 31.648 52.6315 31.648C51.9235 31.648 51.3175 31.876 50.8135 32.332C50.3095 32.776 50.0095 33.382 49.9135 34.15H55.4035ZM64.5688 29.92C65.3488 29.92 66.0448 30.082 66.6568 30.406C67.2808 30.73 67.7668 31.21 68.1148 31.846C68.4628 32.482 68.6368 33.25 68.6368 34.15V40H66.6028V34.456C66.6028 33.568 66.3808 32.89 65.9368 32.422C65.4928 31.942 64.8868 31.702 64.1188 31.702C63.3508 31.702 62.7388 31.942 62.2828 32.422C61.8388 32.89 61.6168 33.568 61.6168 34.456V40H59.5648V30.082H61.6168V31.216C61.9528 30.808 62.3788 30.49 62.8948 30.262C63.4228 30.034 63.9808 29.92 64.5688 29.92ZM73.6483 31.756V37.246C73.6483 37.618 73.7323 37.888 73.9003 38.056C74.0803 38.212 74.3803 38.29 74.8003 38.29H76.0603V40H74.4403C73.5163 40 72.8083 39.784 72.3163 39.352C71.8243 38.92 71.5783 38.218 71.5783 37.246V31.756H70.4083V30.082H71.5783V27.616H73.6483V30.082H76.0603V31.756H73.6483ZM89.1253 40L86.2453 34.996H84.6793V40H82.6273V27.49H86.9473C87.9073 27.49 88.7173 27.658 89.3773 27.994C90.0493 28.33 90.5473 28.78 90.8713 29.344C91.2073 29.908 91.3753 30.538 91.3753 31.234C91.3753 32.05 91.1353 32.794 90.6553 33.466C90.1873 34.126 89.4613 34.576 88.4773 34.816L91.5733 40H89.1253ZM84.6793 33.358H86.9473C87.7153 33.358 88.2913 33.166 88.6753 32.782C89.0713 32.398 89.2693 31.882 89.2693 31.234C89.2693 30.586 89.0773 30.082 88.6933 29.722C88.3093 29.35 87.7273 29.164 86.9473 29.164H84.6793V33.358ZM103.09 34.798C103.09 35.17 103.066 35.506 103.018 35.806H95.4404C95.5004 36.598 95.7944 37.234 96.3224 37.714C96.8504 38.194 97.4984 38.434 98.2664 38.434C99.3704 38.434 100.15 37.972 100.606 37.048H102.82C102.52 37.96 101.974 38.71 101.182 39.298C100.402 39.874 99.4304 40.162 98.2664 40.162C97.3184 40.162 96.4664 39.952 95.7104 39.532C94.9664 39.1 94.3784 38.5 93.9464 37.732C93.5264 36.952 93.3164 36.052 93.3164 35.032C93.3164 34.012 93.5204 33.118 93.9284 32.35C94.3484 31.57 94.9304 30.97 95.6744 30.55C96.4304 30.13 97.2944 29.92 98.2664 29.92C99.2024 29.92 100.036 30.124 100.768 30.532C101.5 30.94 102.07 31.516 102.478 32.26C102.886 32.992 103.09 33.838 103.09 34.798ZM100.948 34.15C100.936 33.394 100.666 32.788 100.138 32.332C99.6104 31.876 98.9564 31.648 98.1764 31.648C97.4684 31.648 96.8624 31.876 96.3584 32.332C95.8544 32.776 95.5544 33.382 95.4584 34.15H100.948ZM104.426 34.996C104.426 34 104.63 33.118 105.038 32.35C105.458 31.582 106.022 30.988 106.73 30.568C107.45 30.136 108.248 29.92 109.124 29.92C109.892 29.92 110.57 30.076 111.158 30.388C111.758 30.7 112.22 31.078 112.544 31.522V30.082H114.614V44.716H112.544V38.56C112.22 39.004 111.752 39.382 111.14 39.694C110.528 40.006 109.832 40.162 109.052 40.162C108.2 40.162 107.42 39.946 106.712 39.514C106.016 39.07 105.458 38.458 105.038 37.678C104.63 36.886 104.426 35.992 104.426 34.996ZM112.544 35.032C112.544 34.348 112.4 33.754 112.112 33.25C111.836 32.746 111.47 32.362 111.014 32.098C110.558 31.834 110.066 31.702 109.538 31.702C109.01 31.702 108.518 31.834 108.062 32.098C107.606 32.35 107.234 32.728 106.946 33.232C106.67 33.724 106.532 34.312 106.532 34.996C106.532 35.68 106.67 36.28 106.946 36.796C107.234 37.312 107.606 37.708 108.062 37.984C108.53 38.248 109.022 38.38 109.538 38.38C110.066 38.38 110.558 38.248 111.014 37.984C111.47 37.72 111.836 37.336 112.112 36.832C112.4 36.316 112.544 35.716 112.544 35.032ZM126.291 30.082V40H124.239V38.83C123.915 39.238 123.489 39.562 122.961 39.802C122.445 40.03 121.893 40.144 121.305 40.144C120.525 40.144 119.823 39.982 119.199 39.658C118.587 39.334 118.101 38.854 117.741 38.218C117.393 37.582 117.219 36.814 117.219 35.914V30.082H119.253V35.608C119.253 36.496 119.475 37.18 119.919 37.66C120.363 38.128 120.969 38.362 121.737 38.362C122.505 38.362 123.111 38.128 123.555 37.66C124.011 37.18 124.239 36.496 124.239 35.608V30.082H126.291ZM138.088 34.798C138.088 35.17 138.064 35.506 138.016 35.806H130.438C130.498 36.598 130.792 37.234 131.32 37.714C131.848 38.194 132.496 38.434 133.264 38.434C134.368 38.434 135.148 37.972 135.604 37.048H137.818C137.518 37.96 136.972 38.71 136.18 39.298C135.4 39.874 134.428 40.162 133.264 40.162C132.316 40.162 131.464 39.952 130.708 39.532C129.964 39.1 129.376 38.5 128.944 37.732C128.524 36.952 128.314 36.052 128.314 35.032C128.314 34.012 128.518 33.118 128.926 32.35C129.346 31.57 129.928 30.97 130.672 30.55C131.428 30.13 132.292 29.92 133.264 29.92C134.2 29.92 135.034 30.124 135.766 30.532C136.498 30.94 137.068 31.516 137.476 32.26C137.884 32.992 138.088 33.838 138.088 34.798ZM135.946 34.15C135.934 33.394 135.664 32.788 135.136 32.332C134.608 31.876 133.954 31.648 133.174 31.648C132.466 31.648 131.86 31.876 131.356 32.332C130.852 32.776 130.552 33.382 130.456 34.15H135.946ZM143.708 40.162C142.928 40.162 142.226 40.024 141.602 39.748C140.99 39.46 140.504 39.076 140.144 38.596C139.784 38.104 139.592 37.558 139.568 36.958H141.692C141.728 37.378 141.926 37.732 142.286 38.02C142.658 38.296 143.12 38.434 143.672 38.434C144.248 38.434 144.692 38.326 145.004 38.11C145.328 37.882 145.49 37.594 145.49 37.246C145.49 36.874 145.31 36.598 144.95 36.418C144.602 36.238 144.044 36.04 143.276 35.824C142.532 35.62 141.926 35.422 141.458 35.23C140.99 35.038 140.582 34.744 140.234 34.348C139.898 33.952 139.73 33.43 139.73 32.782C139.73 32.254 139.886 31.774 140.198 31.342C140.51 30.898 140.954 30.55 141.53 30.298C142.118 30.046 142.79 29.92 143.546 29.92C144.674 29.92 145.58 30.208 146.264 30.784C146.96 31.348 147.332 32.122 147.38 33.106H145.328C145.292 32.662 145.112 32.308 144.788 32.044C144.464 31.78 144.026 31.648 143.474 31.648C142.934 31.648 142.52 31.75 142.232 31.954C141.944 32.158 141.8 32.428 141.8 32.764C141.8 33.028 141.896 33.25 142.088 33.43C142.28 33.61 142.514 33.754 142.79 33.862C143.066 33.958 143.474 34.084 144.014 34.24C144.734 34.432 145.322 34.63 145.778 34.834C146.246 35.026 146.648 35.314 146.984 35.698C147.32 36.082 147.494 36.592 147.506 37.228C147.506 37.792 147.35 38.296 147.038 38.74C146.726 39.184 146.282 39.532 145.706 39.784C145.142 40.036 144.476 40.162 143.708 40.162ZM152.117 31.756V37.246C152.117 37.618 152.201 37.888 152.369 38.056C152.549 38.212 152.849 38.29 153.269 38.29H154.529V40H152.909C151.985 40 151.277 39.784 150.785 39.352C150.293 38.92 150.047 38.218 150.047 37.246V31.756H148.877V30.082H150.047V27.616H152.117V30.082H154.529V31.756H152.117Z" fill="black" fill-opacity="0.2"/>
<path d="M22.16 71V66.008H32.144V101H26.624V71H22.16ZM58.4773 74.12C58.1253 72.648 57.4853 71.544 56.5573 70.808C55.6293 70.072 54.3333 69.704 52.6693 69.704C50.1413 69.704 48.2533 70.68 47.0053 72.632C45.7573 74.552 45.1013 77.752 45.0373 82.232C45.8693 80.824 47.0853 79.736 48.6853 78.968C50.2853 78.2 52.0133 77.816 53.8693 77.816C55.9813 77.816 57.8373 78.28 59.4373 79.208C61.0693 80.104 62.3333 81.416 63.2292 83.144C64.1573 84.872 64.6213 86.936 64.6213 89.336C64.6213 91.576 64.1733 93.576 63.2773 95.336C62.4133 97.096 61.1173 98.488 59.3893 99.512C57.6613 100.504 55.5813 101 53.1493 101C49.8533 101 47.2613 100.28 45.3733 98.84C43.5173 97.368 42.2053 95.304 41.4373 92.648C40.7013 89.992 40.3333 86.68 40.3333 82.712C40.3333 71 44.4613 65.144 52.7173 65.144C55.9173 65.144 58.4293 66.008 60.2533 67.736C62.1093 69.464 63.1973 71.592 63.5173 74.12H58.4773ZM52.6693 82.424C50.7173 82.424 49.0533 83.016 47.6773 84.2C46.3333 85.352 45.6613 87.032 45.6613 89.24C45.6613 91.448 46.2853 93.208 47.5333 94.52C48.8133 95.8 50.5893 96.44 52.8613 96.44C54.8773 96.44 56.4613 95.816 57.6133 94.568C58.7973 93.32 59.3893 91.656 59.3893 89.576C59.3893 87.4 58.8133 85.672 57.6613 84.392C56.5413 83.08 54.8773 82.424 52.6693 82.424Z" fill="#161E54"/>
<path d="M22.16 71V66.008H32.144V101H26.624V71H22.16ZM58.4773 74.12C58.1253 72.648 57.4853 71.544 56.5573 70.808C55.6293 70.072 54.3333 69.704 52.6693 69.704C50.1413 69.704 48.2533 70.68 47.0053 72.632C45.7573 74.552 45.1013 77.752 45.0373 82.232C45.8693 80.824 47.0853 79.736 48.6853 78.968C50.2853 78.2 52.0133 77.816 53.8693 77.816C55.9813 77.816 57.8373 78.28 59.4373 79.208C61.0693 80.104 62.3333 81.416 63.2292 83.144C64.1573 84.872 64.6213 86.936 64.6213 89.336C64.6213 91.576 64.1733 93.576 63.2773 95.336C62.4133 97.096 61.1173 98.488 59.3893 99.512C57.6613 100.504 55.5813 101 53.1493 101C49.8533 101 47.2613 100.28 45.3733 98.84C43.5173 97.368 42.2053 95.304 41.4373 92.648C40.7013 89.992 40.3333 86.68 40.3333 82.712C40.3333 71 44.4613 65.144 52.7173 65.144C55.9173 65.144 58.4293 66.008 60.2533 67.736C62.1093 69.464 63.1973 71.592 63.5173 74.12H58.4773ZM52.6693 82.424C50.7173 82.424 49.0533 83.016 47.6773 84.2C46.3333 85.352 45.6613 87.032 45.6613 89.24C45.6613 91.448 46.2853 93.208 47.5333 94.52C48.8133 95.8 50.5893 96.44 52.8613 96.44C54.8773 96.44 56.4613 95.816 57.6133 94.568C58.7973 93.32 59.3893 91.656 59.3893 89.576C59.3893 87.4 58.8133 85.672 57.6613 84.392C56.5413 83.08 54.8773 82.424 52.6693 82.424Z" fill="black" fill-opacity="0.2"/>
<path d="M24.8691 134.457H24.9629V135.377H24.8691C24.2949 135.377 23.8145 135.471 23.4277 135.658C23.041 135.842 22.7344 136.09 22.5078 136.402C22.2812 136.711 22.1172 137.059 22.0156 137.445C21.918 137.832 21.8691 138.225 21.8691 138.623V139.877C21.8691 140.256 21.9141 140.592 22.0039 140.885C22.0938 141.174 22.2168 141.418 22.373 141.617C22.5293 141.816 22.7051 141.967 22.9004 142.068C23.0996 142.17 23.3066 142.221 23.5215 142.221C23.7715 142.221 23.9941 142.174 24.1895 142.08C24.3848 141.982 24.5488 141.848 24.6816 141.676C24.8184 141.5 24.9219 141.293 24.9922 141.055C25.0625 140.816 25.0977 140.555 25.0977 140.27C25.0977 140.016 25.0664 139.771 25.0039 139.537C24.9414 139.299 24.8457 139.088 24.7168 138.904C24.5879 138.717 24.4258 138.57 24.2305 138.465C24.0391 138.355 23.8105 138.301 23.5449 138.301C23.2441 138.301 22.9629 138.375 22.7012 138.523C22.4434 138.668 22.2305 138.859 22.0625 139.098C21.8984 139.332 21.8047 139.588 21.7812 139.865L21.207 139.859C21.2617 139.422 21.3633 139.049 21.5117 138.74C21.6641 138.428 21.8516 138.174 22.0742 137.979C22.3008 137.779 22.5527 137.635 22.8301 137.545C23.1113 137.451 23.4082 137.404 23.7207 137.404C24.1465 137.404 24.5137 137.484 24.8223 137.645C25.1309 137.805 25.3848 138.02 25.584 138.289C25.7832 138.555 25.9297 138.855 26.0234 139.191C26.1211 139.523 26.1699 139.865 26.1699 140.217C26.1699 140.619 26.1133 140.996 26 141.348C25.8867 141.699 25.7168 142.008 25.4902 142.273C25.2676 142.539 24.9922 142.746 24.6641 142.895C24.3359 143.043 23.9551 143.117 23.5215 143.117C23.0605 143.117 22.6582 143.023 22.3145 142.836C21.9707 142.645 21.6855 142.391 21.459 142.074C21.2324 141.758 21.0625 141.406 20.9492 141.02C20.8359 140.633 20.7793 140.24 20.7793 139.842V139.332C20.7793 138.73 20.8398 138.141 20.9609 137.562C21.082 136.984 21.291 136.461 21.5879 135.992C21.8887 135.523 22.3047 135.15 22.8359 134.873C23.3672 134.596 24.0449 134.457 24.8691 134.457ZM31.0742 134.469H32.1699L34.9648 141.424L37.7539 134.469H38.8555L35.3867 143H34.5312L31.0742 134.469ZM30.7168 134.469H31.6836L31.8418 139.672V143H30.7168V134.469ZM38.2402 134.469H39.207V143H38.082V139.672L38.2402 134.469ZM43.6602 143.117C43.2188 143.117 42.8184 143.043 42.459 142.895C42.1035 142.742 41.7969 142.529 41.5391 142.256C41.2852 141.982 41.0898 141.658 40.9531 141.283C40.8164 140.908 40.748 140.498 40.748 140.053V139.807C40.748 139.291 40.8242 138.832 40.9766 138.43C41.1289 138.023 41.3359 137.68 41.5977 137.398C41.8594 137.117 42.1562 136.904 42.4883 136.76C42.8203 136.615 43.1641 136.543 43.5195 136.543C43.9727 136.543 44.3633 136.621 44.6914 136.777C45.0234 136.934 45.2949 137.152 45.5059 137.434C45.7168 137.711 45.873 138.039 45.9746 138.418C46.0762 138.793 46.127 139.203 46.127 139.648V140.135H41.3926V139.25H45.043V139.168C45.0273 138.887 44.9688 138.613 44.8672 138.348C44.7695 138.082 44.6133 137.863 44.3984 137.691C44.1836 137.52 43.8906 137.434 43.5195 137.434C43.2734 137.434 43.0469 137.486 42.8398 137.592C42.6328 137.693 42.4551 137.846 42.3066 138.049C42.1582 138.252 42.043 138.5 41.9609 138.793C41.8789 139.086 41.8379 139.424 41.8379 139.807V140.053C41.8379 140.354 41.8789 140.637 41.9609 140.902C42.0469 141.164 42.1699 141.395 42.3301 141.594C42.4941 141.793 42.6914 141.949 42.9219 142.062C43.1562 142.176 43.4219 142.232 43.7188 142.232C44.1016 142.232 44.4258 142.154 44.6914 141.998C44.957 141.842 45.1895 141.633 45.3887 141.371L46.0449 141.893C45.9082 142.1 45.7344 142.297 45.5234 142.484C45.3125 142.672 45.0527 142.824 44.7441 142.941C44.4395 143.059 44.0781 143.117 43.6602 143.117ZM48.4766 138.014V143H47.3926V136.66H48.418L48.4766 138.014ZM48.2188 139.59L47.7676 139.572C47.7715 139.139 47.8359 138.738 47.9609 138.371C48.0859 138 48.2617 137.678 48.4883 137.404C48.7148 137.131 48.9844 136.92 49.2969 136.771C49.6133 136.619 49.9629 136.543 50.3457 136.543C50.6582 136.543 50.9395 136.586 51.1895 136.672C51.4395 136.754 51.6523 136.887 51.8281 137.07C52.0078 137.254 52.1445 137.492 52.2383 137.785C52.332 138.074 52.3789 138.428 52.3789 138.846V143H51.2891V138.834C51.2891 138.502 51.2402 138.236 51.1426 138.037C51.0449 137.834 50.9023 137.688 50.7148 137.598C50.5273 137.504 50.2969 137.457 50.0234 137.457C49.7539 137.457 49.5078 137.514 49.2852 137.627C49.0664 137.74 48.877 137.896 48.7168 138.096C48.5605 138.295 48.4375 138.523 48.3477 138.781C48.2617 139.035 48.2188 139.305 48.2188 139.59Z" fill="#686868"/>
<path d="M24.2715 156.422V165H23.1875V157.775L21.002 158.572V157.594L24.1016 156.422H24.2715ZM32.8145 160.055V161.355C32.8145 162.055 32.752 162.645 32.627 163.125C32.502 163.605 32.3223 163.992 32.0879 164.285C31.8535 164.578 31.5703 164.791 31.2383 164.924C30.9102 165.053 30.5391 165.117 30.125 165.117C29.7969 165.117 29.4941 165.076 29.2168 164.994C28.9395 164.912 28.6895 164.781 28.4668 164.602C28.248 164.418 28.0605 164.18 27.9043 163.887C27.748 163.594 27.6289 163.238 27.5469 162.82C27.4648 162.402 27.4238 161.914 27.4238 161.355V160.055C27.4238 159.355 27.4863 158.77 27.6113 158.297C27.7402 157.824 27.9219 157.445 28.1562 157.16C28.3906 156.871 28.6719 156.664 29 156.539C29.332 156.414 29.7031 156.352 30.1133 156.352C30.4453 156.352 30.75 156.393 31.0273 156.475C31.3086 156.553 31.5586 156.68 31.7773 156.855C31.9961 157.027 32.1816 157.258 32.334 157.547C32.4902 157.832 32.6094 158.182 32.6914 158.596C32.7734 159.01 32.8145 159.496 32.8145 160.055ZM31.7246 161.531V159.873C31.7246 159.49 31.7012 159.154 31.6543 158.865C31.6113 158.572 31.5469 158.322 31.4609 158.115C31.375 157.908 31.2656 157.74 31.1328 157.611C31.0039 157.482 30.8535 157.389 30.6816 157.33C30.5137 157.268 30.3242 157.236 30.1133 157.236C29.8555 157.236 29.627 157.285 29.4277 157.383C29.2285 157.477 29.0605 157.627 28.9238 157.834C28.791 158.041 28.6895 158.312 28.6191 158.648C28.5488 158.984 28.5137 159.393 28.5137 159.873V161.531C28.5137 161.914 28.5352 162.252 28.5781 162.545C28.625 162.838 28.6934 163.092 28.7832 163.307C28.873 163.518 28.9824 163.691 29.1113 163.828C29.2402 163.965 29.3887 164.066 29.5566 164.133C29.7285 164.195 29.918 164.227 30.125 164.227C30.3906 164.227 30.623 164.176 30.8223 164.074C31.0215 163.973 31.1875 163.814 31.3203 163.6C31.457 163.381 31.5586 163.102 31.625 162.762C31.6914 162.418 31.7246 162.008 31.7246 161.531ZM39.7109 162.422L41.4043 156.469H42.2246L41.75 158.783L39.9277 165H39.1133L39.7109 162.422ZM37.959 156.469L39.3066 162.305L39.7109 165H38.9023L36.834 156.469H37.959ZM44.416 162.299L45.7344 156.469H46.8652L44.8027 165H43.9941L44.416 162.299ZM42.3477 156.469L43.9941 162.422L44.5918 165H43.7773L42.0195 158.783L41.5391 156.469H42.3477ZM47.4805 161.9V161.766C47.4805 161.309 47.5469 160.885 47.6797 160.494C47.8125 160.1 48.0039 159.758 48.2539 159.469C48.5039 159.176 48.8066 158.949 49.1621 158.789C49.5176 158.625 49.916 158.543 50.3574 158.543C50.8027 158.543 51.2031 158.625 51.5586 158.789C51.918 158.949 52.2227 159.176 52.4727 159.469C52.7266 159.758 52.9199 160.1 53.0527 160.494C53.1855 160.885 53.252 161.309 53.252 161.766V161.9C53.252 162.357 53.1855 162.781 53.0527 163.172C52.9199 163.562 52.7266 163.904 52.4727 164.197C52.2227 164.486 51.9199 164.713 51.5645 164.877C51.2129 165.037 50.8145 165.117 50.3691 165.117C49.9238 165.117 49.5234 165.037 49.168 164.877C48.8125 164.713 48.5078 164.486 48.2539 164.197C48.0039 163.904 47.8125 163.562 47.6797 163.172C47.5469 162.781 47.4805 162.357 47.4805 161.9ZM48.5645 161.766V161.9C48.5645 162.217 48.6016 162.516 48.6758 162.797C48.75 163.074 48.8613 163.32 49.0098 163.535C49.1621 163.75 49.3516 163.92 49.5781 164.045C49.8047 164.166 50.0684 164.227 50.3691 164.227C50.666 164.227 50.9258 164.166 51.1484 164.045C51.375 163.92 51.5625 163.75 51.7109 163.535C51.8594 163.32 51.9707 163.074 52.0449 162.797C52.123 162.516 52.1621 162.217 52.1621 161.9V161.766C52.1621 161.453 52.123 161.158 52.0449 160.881C51.9707 160.6 51.8574 160.352 51.7051 160.137C51.5566 159.918 51.3691 159.746 51.1426 159.621C50.9199 159.496 50.6582 159.434 50.3574 159.434C50.0605 159.434 49.7988 159.496 49.5723 159.621C49.3496 159.746 49.1621 159.918 49.0098 160.137C48.8613 160.352 48.75 160.6 48.6758 160.881C48.6016 161.158 48.5645 161.453 48.5645 161.766ZM55.6895 159.92V165H54.5996V158.66H55.6309L55.6895 159.92ZM55.4668 161.59L54.9629 161.572C54.9668 161.139 55.0234 160.738 55.1328 160.371C55.2422 160 55.4043 159.678 55.6191 159.404C55.834 159.131 56.1016 158.92 56.4219 158.771C56.7422 158.619 57.1133 158.543 57.5352 158.543C57.832 158.543 58.1055 158.586 58.3555 158.672C58.6055 158.754 58.8223 158.885 59.0059 159.064C59.1895 159.244 59.332 159.475 59.4336 159.756C59.5352 160.037 59.5859 160.377 59.5859 160.775V165H58.502V160.828C58.502 160.496 58.4453 160.23 58.332 160.031C58.2227 159.832 58.0664 159.688 57.8633 159.598C57.6602 159.504 57.4219 159.457 57.1484 159.457C56.8281 159.457 56.5605 159.514 56.3457 159.627C56.1309 159.74 55.959 159.896 55.8301 160.096C55.7012 160.295 55.6074 160.523 55.5488 160.781C55.4941 161.035 55.4668 161.305 55.4668 161.59ZM59.5742 160.992L58.8477 161.215C58.8516 160.867 58.9082 160.533 59.0176 160.213C59.1309 159.893 59.293 159.607 59.5039 159.357C59.7188 159.107 59.9824 158.91 60.2949 158.766C60.6074 158.617 60.9648 158.543 61.3672 158.543C61.707 158.543 62.0078 158.588 62.2695 158.678C62.5352 158.768 62.7578 158.906 62.9375 159.094C63.1211 159.277 63.2598 159.514 63.3535 159.803C63.4473 160.092 63.4941 160.436 63.4941 160.834V165H62.4043V160.822C62.4043 160.467 62.3477 160.191 62.2344 159.996C62.125 159.797 61.9688 159.658 61.7656 159.58C61.5664 159.498 61.3281 159.457 61.0508 159.457C60.8125 159.457 60.6016 159.498 60.418 159.58C60.2344 159.662 60.0801 159.775 59.9551 159.92C59.8301 160.061 59.7344 160.223 59.668 160.406C59.6055 160.59 59.5742 160.785 59.5742 160.992ZM67.7656 165.117C67.3242 165.117 66.9238 165.043 66.5645 164.895C66.209 164.742 65.9023 164.529 65.6445 164.256C65.3906 163.982 65.1953 163.658 65.0586 163.283C64.9219 162.908 64.8535 162.498 64.8535 162.053V161.807C64.8535 161.291 64.9297 160.832 65.082 160.43C65.2344 160.023 65.4414 159.68 65.7031 159.398C65.9648 159.117 66.2617 158.904 66.5938 158.76C66.9258 158.615 67.2695 158.543 67.625 158.543C68.0781 158.543 68.4688 158.621 68.7969 158.777C69.1289 158.934 69.4004 159.152 69.6113 159.434C69.8223 159.711 69.9785 160.039 70.0801 160.418C70.1816 160.793 70.2324 161.203 70.2324 161.648V162.135H65.498V161.25H69.1484V161.168C69.1328 160.887 69.0742 160.613 68.9727 160.348C68.875 160.082 68.7188 159.863 68.5039 159.691C68.2891 159.52 67.9961 159.434 67.625 159.434C67.3789 159.434 67.1523 159.486 66.9453 159.592C66.7383 159.693 66.5605 159.846 66.4121 160.049C66.2637 160.252 66.1484 160.5 66.0664 160.793C65.9844 161.086 65.9434 161.424 65.9434 161.807V162.053C65.9434 162.354 65.9844 162.637 66.0664 162.902C66.1523 163.164 66.2754 163.395 66.4355 163.594C66.5996 163.793 66.7969 163.949 67.0273 164.062C67.2617 164.176 67.5273 164.232 67.8242 164.232C68.207 164.232 68.5312 164.154 68.7969 163.998C69.0625 163.842 69.2949 163.633 69.4941 163.371L70.1504 163.893C70.0137 164.1 69.8398 164.297 69.6289 164.484C69.418 164.672 69.1582 164.824 68.8496 164.941C68.5449 165.059 68.1836 165.117 67.7656 165.117ZM72.582 160.014V165H71.498V158.66H72.5234L72.582 160.014ZM72.3242 161.59L71.873 161.572C71.877 161.139 71.9414 160.738 72.0664 160.371C72.1914 160 72.3672 159.678 72.5938 159.404C72.8203 159.131 73.0898 158.92 73.4023 158.771C73.7188 158.619 74.0684 158.543 74.4512 158.543C74.7637 158.543 75.0449 158.586 75.2949 158.672C75.5449 158.754 75.7578 158.887 75.9336 159.07C76.1133 159.254 76.25 159.492 76.3438 159.785C76.4375 160.074 76.4844 160.428 76.4844 160.846V165H75.3945V160.834C75.3945 160.502 75.3457 160.236 75.248 160.037C75.1504 159.834 75.0078 159.688 74.8203 159.598C74.6328 159.504 74.4023 159.457 74.1289 159.457C73.8594 159.457 73.6133 159.514 73.3906 159.627C73.1719 159.74 72.9824 159.896 72.8223 160.096C72.666 160.295 72.543 160.523 72.4531 160.781C72.3672 161.035 72.3242 161.305 72.3242 161.59Z" fill="#686868"/>
<path d="M179 85.5C179 85.5 194.282 67.2086 208 64.5C218.431 62.4403 224.488 69.5924 235 68C251.278 65.5342 254.396 47.9209 270.5 44.5C279.477 42.5931 293.5 44.5 293.5 44.5" stroke="#FF5151" stroke-width="2" stroke-linecap="round"/>
<path d="M208.5 64.3475C194.782 67.0562 179.5 85.3475 179.5 85.3475V112.5H294V44.3475C294 44.3475 279.977 42.4406 271 44.3475C254.896 47.7685 251.778 65.3817 235.5 67.8475C224.988 69.4399 218.931 62.2878 208.5 64.3475Z" fill="url(#paint0_linear_1_122)"/>
<path d="M224.28 43.17C224.213 43.17 224.157 43.1467 224.11 43.1C224.063 43.0533 224.04 42.9967 224.04 42.93V40.98H222.12C222.053 40.98 221.997 40.9567 221.95 40.91C221.903 40.8633 221.88 40.8067 221.88 40.74V40.21C221.88 40.1367 221.903 40.08 221.95 40.04C221.997 39.9933 222.053 39.97 222.12 39.97H224.04V38.07C224.04 38.0033 224.063 37.9467 224.11 37.9C224.157 37.8533 224.213 37.83 224.28 37.83H224.86C224.933 37.83 224.99 37.8533 225.03 37.9C225.077 37.9467 225.1 38.0033 225.1 38.07V39.97H227.02C227.087 39.97 227.143 39.9933 227.19 40.04C227.237 40.08 227.26 40.1367 227.26 40.21V40.74C227.26 40.8067 227.237 40.8633 227.19 40.91C227.143 40.9567 227.087 40.98 227.02 40.98H225.1V42.93C225.1 42.9967 225.077 43.0533 225.03 43.1C224.99 43.1467 224.933 43.17 224.86 43.17H224.28ZM230.703 43.61C230.129 43.61 229.646 43.5167 229.253 43.33C228.859 43.1367 228.559 42.8867 228.353 42.58C228.153 42.2733 228.046 41.9467 228.033 41.6C228.026 41.54 228.043 41.4933 228.083 41.46C228.129 41.42 228.183 41.4 228.243 41.4H229.173C229.246 41.4 229.306 41.4167 229.353 41.45C229.406 41.4767 229.446 41.5267 229.473 41.6C229.539 41.8 229.633 41.9633 229.753 42.09C229.879 42.2167 230.023 42.31 230.183 42.37C230.349 42.43 230.523 42.46 230.703 42.46C230.943 42.46 231.159 42.4133 231.353 42.32C231.553 42.22 231.713 42.0733 231.833 41.88C231.953 41.6867 232.013 41.45 232.013 41.17C232.013 40.9233 231.956 40.71 231.843 40.53C231.729 40.35 231.573 40.21 231.373 40.11C231.179 40.0033 230.956 39.95 230.703 39.95C230.516 39.95 230.363 39.9733 230.243 40.02C230.123 40.0667 230.019 40.12 229.933 40.18C229.853 40.24 229.779 40.2933 229.713 40.34C229.653 40.3867 229.583 40.41 229.503 40.41H228.583C228.523 40.41 228.469 40.39 228.423 40.35C228.383 40.3033 228.363 40.25 228.363 40.19L228.713 36.77C228.719 36.6833 228.749 36.6167 228.803 36.57C228.856 36.5233 228.919 36.5 228.993 36.5H232.753C232.819 36.5 232.876 36.5233 232.923 36.57C232.969 36.6167 232.993 36.6733 232.993 36.74V37.41C232.993 37.4767 232.969 37.5333 232.923 37.58C232.876 37.6267 232.819 37.65 232.753 37.65H229.863L229.703 39.28C229.823 39.2 229.983 39.1233 230.183 39.05C230.383 38.9767 230.659 38.94 231.013 38.94C231.333 38.94 231.636 38.9933 231.923 39.1C232.216 39.2 232.476 39.35 232.703 39.55C232.929 39.7433 233.106 39.98 233.233 40.26C233.366 40.5333 233.433 40.8467 233.433 41.2C233.433 41.6867 233.319 42.11 233.093 42.47C232.866 42.83 232.549 43.11 232.143 43.31C231.736 43.51 231.256 43.61 230.703 43.61ZM234.944 43.5C234.804 43.5 234.734 43.4333 234.734 43.3C234.734 43.26 234.747 43.2233 234.774 43.19L239.704 36.69C239.75 36.63 239.797 36.5833 239.844 36.55C239.89 36.5167 239.957 36.5 240.044 36.5H240.574C240.714 36.5 240.784 36.5667 240.784 36.7C240.784 36.74 240.77 36.7767 240.744 36.81L235.814 43.31C235.767 43.37 235.72 43.4167 235.674 43.45C235.634 43.4833 235.567 43.5 235.474 43.5H234.944ZM239.754 43.56C239.307 43.56 238.954 43.4367 238.694 43.19C238.434 42.9433 238.29 42.62 238.264 42.22C238.257 42.0467 238.254 41.8967 238.254 41.77C238.254 41.6433 238.257 41.4867 238.264 41.3C238.29 40.9 238.427 40.5767 238.674 40.33C238.927 40.0833 239.287 39.96 239.754 39.96C240.227 39.96 240.587 40.0833 240.834 40.33C241.087 40.5767 241.224 40.9 241.244 41.3C241.257 41.4867 241.264 41.6433 241.264 41.77C241.264 41.8967 241.257 42.0467 241.244 42.22C241.224 42.62 241.08 42.9433 240.814 43.19C240.554 43.4367 240.2 43.56 239.754 43.56ZM239.754 42.78C239.9 42.78 240.014 42.75 240.094 42.69C240.18 42.63 240.244 42.5533 240.284 42.46C240.324 42.3667 240.344 42.2733 240.344 42.18C240.357 42.0133 240.364 41.8733 240.364 41.76C240.364 41.64 240.357 41.5033 240.344 41.35C240.337 41.1967 240.29 41.0567 240.204 40.93C240.117 40.7967 239.967 40.73 239.754 40.73C239.547 40.73 239.4 40.7967 239.314 40.93C239.227 41.0567 239.177 41.1967 239.164 41.35C239.157 41.5033 239.154 41.64 239.154 41.76C239.154 41.8733 239.157 42.0133 239.164 42.18C239.177 42.2733 239.2 42.3667 239.234 42.46C239.274 42.5533 239.334 42.63 239.414 42.69C239.5 42.75 239.614 42.78 239.754 42.78ZM235.764 40.02C235.317 40.02 234.964 39.9033 234.704 39.67C234.444 39.4367 234.3 39.12 234.274 38.72C234.267 38.5467 234.264 38.3967 234.264 38.27C234.264 38.1367 234.267 37.9767 234.274 37.79C234.3 37.39 234.437 37.0667 234.684 36.82C234.937 36.5733 235.297 36.45 235.764 36.45C236.237 36.45 236.597 36.5733 236.844 36.82C237.097 37.0667 237.234 37.39 237.254 37.79C237.267 37.9767 237.274 38.1367 237.274 38.27C237.274 38.3967 237.267 38.5467 237.254 38.72C237.234 39.12 237.09 39.4367 236.824 39.67C236.564 39.9033 236.21 40.02 235.764 40.02ZM235.764 39.28C235.91 39.28 236.024 39.25 236.104 39.19C236.19 39.13 236.254 39.0533 236.294 38.96C236.334 38.8667 236.354 38.77 236.354 38.67C236.367 38.5033 236.374 38.3633 236.374 38.25C236.374 38.13 236.367 37.9933 236.354 37.84C236.347 37.6867 236.3 37.5467 236.214 37.42C236.127 37.2933 235.977 37.23 235.764 37.23C235.557 37.23 235.41 37.2933 235.324 37.42C235.237 37.5467 235.19 37.6867 235.184 37.84C235.177 37.9933 235.174 38.13 235.174 38.25C235.174 38.3633 235.177 38.5033 235.184 38.67C235.19 38.77 235.21 38.8667 235.244 38.96C235.284 39.0533 235.344 39.13 235.424 39.19C235.51 39.25 235.624 39.28 235.764 39.28Z" fill="#FF5151"/>
<path d="M230.5 51.5L232.5 49.5M232.5 49.5L234.5 51.5M232.5 49.5V56.5" stroke="#FF5151" stroke-linecap="round" stroke-linejoin="round"/>
<rect x="187" y="132.5" width="107" height="24" rx="4" fill="#FFEFE7"/>
<path d="M203.305 143.924V144.943H197.457V143.924H203.305ZM200.926 141.434V147.645H199.842V141.434H200.926ZM205.889 144.439L205.021 144.217L205.449 139.969H209.826V140.971H206.369L206.111 143.291C206.268 143.201 206.465 143.117 206.703 143.039C206.945 142.961 207.223 142.922 207.535 142.922C207.93 142.922 208.283 142.99 208.596 143.127C208.908 143.26 209.174 143.451 209.393 143.701C209.615 143.951 209.785 144.252 209.902 144.604C210.02 144.955 210.078 145.348 210.078 145.781C210.078 146.191 210.021 146.568 209.908 146.912C209.799 147.256 209.633 147.557 209.41 147.814C209.188 148.068 208.906 148.266 208.566 148.406C208.23 148.547 207.834 148.617 207.377 148.617C207.033 148.617 206.707 148.57 206.398 148.477C206.094 148.379 205.82 148.232 205.578 148.037C205.34 147.838 205.145 147.592 204.992 147.299C204.844 147.002 204.75 146.654 204.711 146.256H205.742C205.789 146.576 205.883 146.846 206.023 147.064C206.164 147.283 206.348 147.449 206.574 147.562C206.805 147.672 207.072 147.727 207.377 147.727C207.635 147.727 207.863 147.682 208.062 147.592C208.262 147.502 208.43 147.373 208.566 147.205C208.703 147.037 208.807 146.834 208.877 146.596C208.951 146.357 208.988 146.09 208.988 145.793C208.988 145.523 208.951 145.273 208.877 145.043C208.803 144.812 208.691 144.611 208.543 144.439C208.398 144.268 208.221 144.135 208.01 144.041C207.799 143.943 207.557 143.895 207.283 143.895C206.92 143.895 206.645 143.943 206.457 144.041C206.273 144.139 206.084 144.271 205.889 144.439ZM211.174 142.061V141.609C211.174 141.285 211.244 140.99 211.385 140.725C211.525 140.459 211.727 140.246 211.988 140.086C212.25 139.926 212.561 139.846 212.92 139.846C213.287 139.846 213.6 139.926 213.857 140.086C214.119 140.246 214.32 140.459 214.461 140.725C214.602 140.99 214.672 141.285 214.672 141.609V142.061C214.672 142.377 214.602 142.668 214.461 142.934C214.324 143.199 214.125 143.412 213.863 143.572C213.605 143.732 213.295 143.812 212.932 143.812C212.568 143.812 212.254 143.732 211.988 143.572C211.727 143.412 211.525 143.199 211.385 142.934C211.244 142.668 211.174 142.377 211.174 142.061ZM211.988 141.609V142.061C211.988 142.24 212.021 142.41 212.088 142.57C212.158 142.73 212.264 142.861 212.404 142.963C212.545 143.061 212.721 143.109 212.932 143.109C213.143 143.109 213.316 143.061 213.453 142.963C213.59 142.861 213.691 142.73 213.758 142.57C213.824 142.41 213.857 142.24 213.857 142.061V141.609C213.857 141.426 213.822 141.254 213.752 141.094C213.686 140.93 213.582 140.799 213.441 140.701C213.305 140.6 213.131 140.549 212.92 140.549C212.713 140.549 212.539 140.6 212.398 140.701C212.262 140.799 212.158 140.93 212.088 141.094C212.021 141.254 211.988 141.426 211.988 141.609ZM215.328 146.865V146.408C215.328 146.088 215.398 145.795 215.539 145.529C215.68 145.264 215.881 145.051 216.143 144.891C216.404 144.73 216.715 144.65 217.074 144.65C217.441 144.65 217.754 144.73 218.012 144.891C218.273 145.051 218.475 145.264 218.615 145.529C218.756 145.795 218.826 146.088 218.826 146.408V146.865C218.826 147.186 218.756 147.479 218.615 147.744C218.479 148.01 218.279 148.223 218.018 148.383C217.76 148.543 217.449 148.623 217.086 148.623C216.723 148.623 216.41 148.543 216.148 148.383C215.887 148.223 215.684 148.01 215.539 147.744C215.398 147.479 215.328 147.186 215.328 146.865ZM216.143 146.408V146.865C216.143 147.045 216.176 147.217 216.242 147.381C216.312 147.541 216.418 147.672 216.559 147.773C216.699 147.871 216.875 147.92 217.086 147.92C217.297 147.92 217.471 147.871 217.607 147.773C217.748 147.672 217.852 147.541 217.918 147.381C217.984 147.221 218.018 147.049 218.018 146.865V146.408C218.018 146.225 217.982 146.053 217.912 145.893C217.846 145.732 217.742 145.604 217.602 145.506C217.465 145.404 217.289 145.354 217.074 145.354C216.867 145.354 216.693 145.404 216.553 145.506C216.416 145.604 216.312 145.732 216.242 145.893C216.176 146.053 216.143 146.225 216.143 146.408ZM217.344 141.182L213.178 147.85L212.568 147.463L216.734 140.795L217.344 141.182ZM226.461 145.154H224.182V144.234H226.461C226.902 144.234 227.26 144.164 227.533 144.023C227.807 143.883 228.006 143.688 228.131 143.438C228.26 143.188 228.324 142.902 228.324 142.582C228.324 142.289 228.26 142.014 228.131 141.756C228.006 141.498 227.807 141.291 227.533 141.135C227.26 140.975 226.902 140.895 226.461 140.895H224.445V148.5H223.314V139.969H226.461C227.105 139.969 227.65 140.08 228.096 140.303C228.541 140.525 228.879 140.834 229.109 141.229C229.34 141.619 229.455 142.066 229.455 142.57C229.455 143.117 229.34 143.584 229.109 143.971C228.879 144.357 228.541 144.652 228.096 144.855C227.65 145.055 227.105 145.154 226.461 145.154ZM234.389 147.416V144.152C234.389 143.902 234.338 143.686 234.236 143.502C234.139 143.314 233.99 143.17 233.791 143.068C233.592 142.967 233.346 142.916 233.053 142.916C232.779 142.916 232.539 142.963 232.332 143.057C232.129 143.15 231.969 143.273 231.852 143.426C231.738 143.578 231.682 143.742 231.682 143.918H230.598C230.598 143.691 230.656 143.467 230.773 143.244C230.891 143.021 231.059 142.82 231.277 142.641C231.5 142.457 231.766 142.312 232.074 142.207C232.387 142.098 232.734 142.043 233.117 142.043C233.578 142.043 233.984 142.121 234.336 142.277C234.691 142.434 234.969 142.67 235.168 142.986C235.371 143.299 235.473 143.691 235.473 144.164V147.117C235.473 147.328 235.49 147.553 235.525 147.791C235.564 148.029 235.621 148.234 235.695 148.406V148.5H234.564C234.51 148.375 234.467 148.209 234.436 148.002C234.404 147.791 234.389 147.596 234.389 147.416ZM234.576 144.656L234.588 145.418H233.492C233.184 145.418 232.908 145.443 232.666 145.494C232.424 145.541 232.221 145.613 232.057 145.711C231.893 145.809 231.768 145.932 231.682 146.08C231.596 146.225 231.553 146.395 231.553 146.59C231.553 146.789 231.598 146.971 231.688 147.135C231.777 147.299 231.912 147.43 232.092 147.527C232.275 147.621 232.5 147.668 232.766 147.668C233.098 147.668 233.391 147.598 233.645 147.457C233.898 147.316 234.1 147.145 234.248 146.941C234.4 146.738 234.482 146.541 234.494 146.35L234.957 146.871C234.93 147.035 234.855 147.217 234.734 147.416C234.613 147.615 234.451 147.807 234.248 147.99C234.049 148.17 233.811 148.32 233.533 148.441C233.26 148.559 232.951 148.617 232.607 148.617C232.178 148.617 231.801 148.533 231.477 148.365C231.156 148.197 230.906 147.973 230.727 147.691C230.551 147.406 230.463 147.088 230.463 146.736C230.463 146.396 230.529 146.098 230.662 145.84C230.795 145.578 230.986 145.361 231.236 145.189C231.486 145.014 231.787 144.881 232.139 144.791C232.49 144.701 232.883 144.656 233.316 144.656H234.576ZM240.869 146.818C240.869 146.662 240.834 146.518 240.764 146.385C240.697 146.248 240.559 146.125 240.348 146.016C240.141 145.902 239.828 145.805 239.41 145.723C239.059 145.648 238.74 145.561 238.455 145.459C238.174 145.357 237.934 145.234 237.734 145.09C237.539 144.945 237.389 144.775 237.283 144.58C237.178 144.385 237.125 144.156 237.125 143.895C237.125 143.645 237.18 143.408 237.289 143.186C237.402 142.963 237.561 142.766 237.764 142.594C237.971 142.422 238.219 142.287 238.508 142.189C238.797 142.092 239.119 142.043 239.475 142.043C239.982 142.043 240.416 142.133 240.775 142.312C241.135 142.492 241.41 142.732 241.602 143.033C241.793 143.33 241.889 143.66 241.889 144.023H240.805C240.805 143.848 240.752 143.678 240.646 143.514C240.545 143.346 240.395 143.207 240.195 143.098C240 142.988 239.76 142.934 239.475 142.934C239.174 142.934 238.93 142.98 238.742 143.074C238.559 143.164 238.424 143.279 238.338 143.42C238.256 143.561 238.215 143.709 238.215 143.865C238.215 143.982 238.234 144.088 238.273 144.182C238.316 144.271 238.391 144.355 238.496 144.434C238.602 144.508 238.75 144.578 238.941 144.645C239.133 144.711 239.377 144.777 239.674 144.844C240.193 144.961 240.621 145.102 240.957 145.266C241.293 145.43 241.543 145.631 241.707 145.869C241.871 146.107 241.953 146.396 241.953 146.736C241.953 147.014 241.895 147.268 241.777 147.498C241.664 147.729 241.498 147.928 241.279 148.096C241.064 148.26 240.807 148.389 240.506 148.482C240.209 148.572 239.875 148.617 239.504 148.617C238.945 148.617 238.473 148.518 238.086 148.318C237.699 148.119 237.406 147.861 237.207 147.545C237.008 147.229 236.908 146.895 236.908 146.543H237.998C238.014 146.84 238.1 147.076 238.256 147.252C238.412 147.424 238.604 147.547 238.83 147.621C239.057 147.691 239.281 147.727 239.504 147.727C239.801 147.727 240.049 147.688 240.248 147.609C240.451 147.531 240.605 147.424 240.711 147.287C240.816 147.15 240.869 146.994 240.869 146.818ZM246.031 142.16V142.992H242.604V142.16H246.031ZM243.764 140.619H244.848V146.93C244.848 147.145 244.881 147.307 244.947 147.416C245.014 147.525 245.1 147.598 245.205 147.633C245.311 147.668 245.424 147.686 245.545 147.686C245.635 147.686 245.729 147.678 245.826 147.662C245.928 147.643 246.004 147.627 246.055 147.615L246.061 148.5C245.975 148.527 245.861 148.553 245.721 148.576C245.584 148.604 245.418 148.617 245.223 148.617C244.957 148.617 244.713 148.564 244.49 148.459C244.268 148.354 244.09 148.178 243.957 147.932C243.828 147.682 243.764 147.346 243.764 146.924V140.619ZM251.357 143.42V148.5H250.268V142.16H251.299L251.357 143.42ZM251.135 145.09L250.631 145.072C250.635 144.639 250.691 144.238 250.801 143.871C250.91 143.5 251.072 143.178 251.287 142.904C251.502 142.631 251.77 142.42 252.09 142.271C252.41 142.119 252.781 142.043 253.203 142.043C253.5 142.043 253.773 142.086 254.023 142.172C254.273 142.254 254.49 142.385 254.674 142.564C254.857 142.744 255 142.975 255.102 143.256C255.203 143.537 255.254 143.877 255.254 144.275V148.5H254.17V144.328C254.17 143.996 254.113 143.73 254 143.531C253.891 143.332 253.734 143.188 253.531 143.098C253.328 143.004 253.09 142.957 252.816 142.957C252.496 142.957 252.229 143.014 252.014 143.127C251.799 143.24 251.627 143.396 251.498 143.596C251.369 143.795 251.275 144.023 251.217 144.281C251.162 144.535 251.135 144.805 251.135 145.09ZM255.242 144.492L254.516 144.715C254.52 144.367 254.576 144.033 254.686 143.713C254.799 143.393 254.961 143.107 255.172 142.857C255.387 142.607 255.65 142.41 255.963 142.266C256.275 142.117 256.633 142.043 257.035 142.043C257.375 142.043 257.676 142.088 257.938 142.178C258.203 142.268 258.426 142.406 258.605 142.594C258.789 142.777 258.928 143.014 259.021 143.303C259.115 143.592 259.162 143.936 259.162 144.334V148.5H258.072V144.322C258.072 143.967 258.016 143.691 257.902 143.496C257.793 143.297 257.637 143.158 257.434 143.08C257.234 142.998 256.996 142.957 256.719 142.957C256.48 142.957 256.27 142.998 256.086 143.08C255.902 143.162 255.748 143.275 255.623 143.42C255.498 143.561 255.402 143.723 255.336 143.906C255.273 144.09 255.242 144.285 255.242 144.492ZM260.516 145.4V145.266C260.516 144.809 260.582 144.385 260.715 143.994C260.848 143.6 261.039 143.258 261.289 142.969C261.539 142.676 261.842 142.449 262.197 142.289C262.553 142.125 262.951 142.043 263.393 142.043C263.838 142.043 264.238 142.125 264.594 142.289C264.953 142.449 265.258 142.676 265.508 142.969C265.762 143.258 265.955 143.6 266.088 143.994C266.221 144.385 266.287 144.809 266.287 145.266V145.4C266.287 145.857 266.221 146.281 266.088 146.672C265.955 147.062 265.762 147.404 265.508 147.697C265.258 147.986 264.955 148.213 264.6 148.377C264.248 148.537 263.85 148.617 263.404 148.617C262.959 148.617 262.559 148.537 262.203 148.377C261.848 148.213 261.543 147.986 261.289 147.697C261.039 147.404 260.848 147.062 260.715 146.672C260.582 146.281 260.516 145.857 260.516 145.4ZM261.6 145.266V145.4C261.6 145.717 261.637 146.016 261.711 146.297C261.785 146.574 261.896 146.82 262.045 147.035C262.197 147.25 262.387 147.42 262.613 147.545C262.84 147.666 263.104 147.727 263.404 147.727C263.701 147.727 263.961 147.666 264.184 147.545C264.41 147.42 264.598 147.25 264.746 147.035C264.895 146.82 265.006 146.574 265.08 146.297C265.158 146.016 265.197 145.717 265.197 145.4V145.266C265.197 144.953 265.158 144.658 265.08 144.381C265.006 144.1 264.893 143.852 264.74 143.637C264.592 143.418 264.404 143.246 264.178 143.121C263.955 142.996 263.693 142.934 263.393 142.934C263.096 142.934 262.834 142.996 262.607 143.121C262.385 143.246 262.197 143.418 262.045 143.637C261.896 143.852 261.785 144.1 261.711 144.381C261.637 144.658 261.6 144.953 261.6 145.266ZM268.73 143.514V148.5H267.646V142.16H268.672L268.73 143.514ZM268.473 145.09L268.021 145.072C268.025 144.639 268.09 144.238 268.215 143.871C268.34 143.5 268.516 143.178 268.742 142.904C268.969 142.631 269.238 142.42 269.551 142.271C269.867 142.119 270.217 142.043 270.6 142.043C270.912 142.043 271.193 142.086 271.443 142.172C271.693 142.254 271.906 142.387 272.082 142.57C272.262 142.754 272.398 142.992 272.492 143.285C272.586 143.574 272.633 143.928 272.633 144.346V148.5H271.543V144.334C271.543 144.002 271.494 143.736 271.396 143.537C271.299 143.334 271.156 143.188 270.969 143.098C270.781 143.004 270.551 142.957 270.277 142.957C270.008 142.957 269.762 143.014 269.539 143.127C269.32 143.24 269.131 143.396 268.971 143.596C268.814 143.795 268.691 144.023 268.602 144.281C268.516 144.535 268.473 144.805 268.473 145.09ZM276.934 142.16V142.992H273.506V142.16H276.934ZM274.666 140.619H275.75V146.93C275.75 147.145 275.783 147.307 275.85 147.416C275.916 147.525 276.002 147.598 276.107 147.633C276.213 147.668 276.326 147.686 276.447 147.686C276.537 147.686 276.631 147.678 276.729 147.662C276.83 147.643 276.906 147.627 276.957 147.615L276.963 148.5C276.877 148.527 276.764 148.553 276.623 148.576C276.486 148.604 276.32 148.617 276.125 148.617C275.859 148.617 275.615 148.564 275.393 148.459C275.17 148.354 274.992 148.178 274.859 147.932C274.73 147.682 274.666 147.346 274.666 146.924V140.619ZM279.289 139.5V148.5H278.205V139.5H279.289ZM279.031 145.09L278.58 145.072C278.584 144.639 278.648 144.238 278.773 143.871C278.898 143.5 279.074 143.178 279.301 142.904C279.527 142.631 279.797 142.42 280.109 142.271C280.426 142.119 280.775 142.043 281.158 142.043C281.471 142.043 281.752 142.086 282.002 142.172C282.252 142.254 282.465 142.387 282.641 142.57C282.82 142.754 282.957 142.992 283.051 143.285C283.145 143.574 283.191 143.928 283.191 144.346V148.5H282.102V144.334C282.102 144.002 282.053 143.736 281.955 143.537C281.857 143.334 281.715 143.188 281.527 143.098C281.34 143.004 281.109 142.957 280.836 142.957C280.566 142.957 280.32 143.014 280.098 143.127C279.879 143.24 279.689 143.396 279.529 143.596C279.373 143.795 279.25 144.023 279.16 144.281C279.074 144.535 279.031 144.805 279.031 145.09Z" fill="#303030"/>
<defs>
<linearGradient id="paint0_linear_1_122" x1="215" y1="23.5" x2="239.5" y2="86" gradientUnits="userSpaceOnUse">
<stop stop-color="#FF5151"/>
<stop offset="1" stop-color="white" stop-opacity="0"/>
</linearGradient>
</defs>
</svg>
