<svg width="312" height="190" viewBox="0 0 312 190" fill="none" xmlns="http://www.w3.org/2000/svg">
<rect x="0.5" y="0.5" width="311" height="189" rx="9.5" fill="white"/>
<rect x="0.5" y="0.5" width="311" height="189" rx="9.5" stroke="#E0E0E0"/>
<path d="M29.432 27.49V29.164H26.102V40H24.05V29.164H20.702V27.49H29.432ZM35.8122 40.162C34.8762 40.162 34.0302 39.952 33.2742 39.532C32.5182 39.1 31.9242 38.5 31.4922 37.732C31.0602 36.952 30.8442 36.052 30.8442 35.032C30.8442 34.024 31.0662 33.13 31.5102 32.35C31.9542 31.57 32.5602 30.97 33.3282 30.55C34.0962 30.13 34.9542 29.92 35.9022 29.92C36.8502 29.92 37.7082 30.13 38.4762 30.55C39.2442 30.97 39.8502 31.57 40.2942 32.35C40.7382 33.13 40.9602 34.024 40.9602 35.032C40.9602 36.04 40.7322 36.934 40.2762 37.714C39.8202 38.494 39.1962 39.1 38.4042 39.532C37.6242 39.952 36.7602 40.162 35.8122 40.162ZM35.8122 38.38C36.3402 38.38 36.8322 38.254 37.2882 38.002C37.7562 37.75 38.1342 37.372 38.4222 36.868C38.7102 36.364 38.8542 35.752 38.8542 35.032C38.8542 34.312 38.7162 33.706 38.4402 33.214C38.1642 32.71 37.7982 32.332 37.3422 32.08C36.8862 31.828 36.3942 31.702 35.8662 31.702C35.3382 31.702 34.8462 31.828 34.3902 32.08C33.9462 32.332 33.5922 32.71 33.3282 33.214C33.0642 33.706 32.9322 34.312 32.9322 35.032C32.9322 36.1 33.2022 36.928 33.7422 37.516C34.2942 38.092 34.9842 38.38 35.8122 38.38ZM45.3827 31.756V37.246C45.3827 37.618 45.4667 37.888 45.6347 38.056C45.8147 38.212 46.1147 38.29 46.5347 38.29H47.7947V40H46.1747C45.2507 40 44.5427 39.784 44.0507 39.352C43.5587 38.92 43.3127 38.218 43.3127 37.246V31.756H42.1427V30.082H43.3127V27.616H45.3827V30.082H47.7947V31.756H45.3827ZM49.0019 34.996C49.0019 34 49.2059 33.118 49.6139 32.35C50.0339 31.582 50.5979 30.988 51.3059 30.568C52.0259 30.136 52.8179 29.92 53.6819 29.92C54.4619 29.92 55.1399 30.076 55.7159 30.388C56.3039 30.688 56.7719 31.066 57.1199 31.522V30.082H59.1899V40H57.1199V38.524C56.7719 38.992 56.2979 39.382 55.6979 39.694C55.0979 40.006 54.4139 40.162 53.6459 40.162C52.7939 40.162 52.0139 39.946 51.3059 39.514C50.5979 39.07 50.0339 38.458 49.6139 37.678C49.2059 36.886 49.0019 35.992 49.0019 34.996ZM57.1199 35.032C57.1199 34.348 56.9759 33.754 56.6879 33.25C56.4119 32.746 56.0459 32.362 55.5899 32.098C55.1339 31.834 54.6419 31.702 54.1139 31.702C53.5859 31.702 53.0939 31.834 52.6379 32.098C52.1819 32.35 51.8099 32.728 51.5219 33.232C51.2459 33.724 51.1079 34.312 51.1079 34.996C51.1079 35.68 51.2459 36.28 51.5219 36.796C51.8099 37.312 52.1819 37.708 52.6379 37.984C53.1059 38.248 53.5979 38.38 54.1139 38.38C54.6419 38.38 55.1339 38.248 55.5899 37.984C56.0459 37.72 56.4119 37.336 56.6879 36.832C56.9759 36.316 57.1199 35.716 57.1199 35.032ZM63.9372 26.68V40H61.8852V26.68H63.9372ZM73.359 29.146V32.818H77.679V34.492H73.359V38.326H78.219V40H71.307V27.472H78.219V29.146H73.359ZM92.7525 29.92C93.5325 29.92 94.2285 30.082 94.8405 30.406C95.4645 30.73 95.9505 31.21 96.2985 31.846C96.6585 32.482 96.8385 33.25 96.8385 34.15V40H94.8045V34.456C94.8045 33.568 94.5825 32.89 94.1385 32.422C93.6945 31.942 93.0885 31.702 92.3205 31.702C91.5525 31.702 90.9405 31.942 90.4845 32.422C90.0405 32.89 89.8185 33.568 89.8185 34.456V40H87.7845V34.456C87.7845 33.568 87.5625 32.89 87.1185 32.422C86.6745 31.942 86.0685 31.702 85.3005 31.702C84.5325 31.702 83.9205 31.942 83.4645 32.422C83.0205 32.89 82.7985 33.568 82.7985 34.456V40H80.7465V30.082H82.7985V31.216C83.1345 30.808 83.5605 30.49 84.0765 30.262C84.5925 30.034 85.1445 29.92 85.7325 29.92C86.5245 29.92 87.2325 30.088 87.8565 30.424C88.4805 30.76 88.9605 31.246 89.2965 31.882C89.5965 31.282 90.0645 30.808 90.7005 30.46C91.3365 30.1 92.0205 29.92 92.7525 29.92ZM101.502 31.54C101.85 31.084 102.324 30.7 102.924 30.388C103.524 30.076 104.202 29.92 104.958 29.92C105.822 29.92 106.608 30.136 107.316 30.568C108.036 30.988 108.6 31.582 109.008 32.35C109.416 33.118 109.62 34 109.62 34.996C109.62 35.992 109.416 36.886 109.008 37.678C108.6 38.458 108.036 39.07 107.316 39.514C106.608 39.946 105.822 40.162 104.958 40.162C104.202 40.162 103.53 40.012 102.942 39.712C102.354 39.4 101.874 39.016 101.502 38.56V44.716H99.4496V30.082H101.502V31.54ZM107.532 34.996C107.532 34.312 107.388 33.724 107.1 33.232C106.824 32.728 106.452 32.35 105.984 32.098C105.528 31.834 105.036 31.702 104.508 31.702C103.992 31.702 103.5 31.834 103.032 32.098C102.576 32.362 102.204 32.746 101.916 33.25C101.64 33.754 101.502 34.348 101.502 35.032C101.502 35.716 101.64 36.316 101.916 36.832C102.204 37.336 102.576 37.72 103.032 37.984C103.5 38.248 103.992 38.38 104.508 38.38C105.036 38.38 105.528 38.248 105.984 37.984C106.452 37.708 106.824 37.312 107.1 36.796C107.388 36.28 107.532 35.68 107.532 34.996ZM113.701 26.68V40H111.649V26.68H113.701ZM120.697 40.162C119.761 40.162 118.915 39.952 118.159 39.532C117.403 39.1 116.809 38.5 116.377 37.732C115.945 36.952 115.729 36.052 115.729 35.032C115.729 34.024 115.951 33.13 116.395 32.35C116.839 31.57 117.445 30.97 118.213 30.55C118.981 30.13 119.839 29.92 120.787 29.92C121.735 29.92 122.593 30.13 123.361 30.55C124.129 30.97 124.735 31.57 125.179 32.35C125.623 33.13 125.845 34.024 125.845 35.032C125.845 36.04 125.617 36.934 125.161 37.714C124.705 38.494 124.081 39.1 123.289 39.532C122.509 39.952 121.645 40.162 120.697 40.162ZM120.697 38.38C121.225 38.38 121.717 38.254 122.173 38.002C122.641 37.75 123.019 37.372 123.307 36.868C123.595 36.364 123.739 35.752 123.739 35.032C123.739 34.312 123.601 33.706 123.325 33.214C123.049 32.71 122.683 32.332 122.227 32.08C121.771 31.828 121.279 31.702 120.751 31.702C120.223 31.702 119.731 31.828 119.275 32.08C118.831 32.332 118.477 32.71 118.213 33.214C117.949 33.706 117.817 34.312 117.817 35.032C117.817 36.1 118.087 36.928 118.627 37.516C119.179 38.092 119.869 38.38 120.697 38.38ZM136.801 30.082L130.717 44.662H128.593L130.609 39.838L126.703 30.082H128.989L131.779 37.642L134.677 30.082H136.801ZM147.44 34.798C147.44 35.17 147.416 35.506 147.368 35.806H139.79C139.85 36.598 140.144 37.234 140.672 37.714C141.2 38.194 141.848 38.434 142.616 38.434C143.72 38.434 144.5 37.972 144.956 37.048H147.17C146.87 37.96 146.324 38.71 145.532 39.298C144.752 39.874 143.78 40.162 142.616 40.162C141.668 40.162 140.816 39.952 140.06 39.532C139.316 39.1 138.728 38.5 138.296 37.732C137.876 36.952 137.666 36.052 137.666 35.032C137.666 34.012 137.87 33.118 138.278 32.35C138.698 31.57 139.28 30.97 140.024 30.55C140.78 30.13 141.644 29.92 142.616 29.92C143.552 29.92 144.386 30.124 145.118 30.532C145.85 30.94 146.42 31.516 146.828 32.26C147.236 32.992 147.44 33.838 147.44 34.798ZM145.298 34.15C145.286 33.394 145.016 32.788 144.488 32.332C143.96 31.876 143.306 31.648 142.526 31.648C141.818 31.648 141.212 31.876 140.708 32.332C140.204 32.776 139.904 33.382 139.808 34.15H145.298ZM158.549 34.798C158.549 35.17 158.525 35.506 158.477 35.806H150.899C150.959 36.598 151.253 37.234 151.781 37.714C152.309 38.194 152.957 38.434 153.725 38.434C154.829 38.434 155.609 37.972 156.065 37.048H158.279C157.979 37.96 157.433 38.71 156.641 39.298C155.861 39.874 154.889 40.162 153.725 40.162C152.777 40.162 151.925 39.952 151.169 39.532C150.425 39.1 149.837 38.5 149.405 37.732C148.985 36.952 148.775 36.052 148.775 35.032C148.775 34.012 148.979 33.118 149.387 32.35C149.807 31.57 150.389 30.97 151.133 30.55C151.889 30.13 152.753 29.92 153.725 29.92C154.661 29.92 155.495 30.124 156.227 30.532C156.959 30.94 157.529 31.516 157.937 32.26C158.345 32.992 158.549 33.838 158.549 34.798ZM156.407 34.15C156.395 33.394 156.125 32.788 155.597 32.332C155.069 31.876 154.415 31.648 153.635 31.648C152.927 31.648 152.321 31.876 151.817 32.332C151.313 32.776 151.013 33.382 150.917 34.15H156.407ZM164.169 40.162C163.389 40.162 162.687 40.024 162.063 39.748C161.451 39.46 160.965 39.076 160.605 38.596C160.245 38.104 160.053 37.558 160.029 36.958H162.153C162.189 37.378 162.387 37.732 162.747 38.02C163.119 38.296 163.581 38.434 164.133 38.434C164.709 38.434 165.153 38.326 165.465 38.11C165.789 37.882 165.951 37.594 165.951 37.246C165.951 36.874 165.771 36.598 165.411 36.418C165.063 36.238 164.505 36.04 163.737 35.824C162.993 35.62 162.387 35.422 161.919 35.23C161.451 35.038 161.043 34.744 160.695 34.348C160.359 33.952 160.191 33.43 160.191 32.782C160.191 32.254 160.347 31.774 160.659 31.342C160.971 30.898 161.415 30.55 161.991 30.298C162.579 30.046 163.251 29.92 164.007 29.92C165.135 29.92 166.041 30.208 166.725 30.784C167.421 31.348 167.793 32.122 167.841 33.106H165.789C165.753 32.662 165.573 32.308 165.249 32.044C164.925 31.78 164.487 31.648 163.935 31.648C163.395 31.648 162.981 31.75 162.693 31.954C162.405 32.158 162.261 32.428 162.261 32.764C162.261 33.028 162.357 33.25 162.549 33.43C162.741 33.61 162.975 33.754 163.251 33.862C163.527 33.958 163.935 34.084 164.475 34.24C165.195 34.432 165.783 34.63 166.239 34.834C166.707 35.026 167.109 35.314 167.445 35.698C167.781 36.082 167.955 36.592 167.967 37.228C167.967 37.792 167.811 38.296 167.499 38.74C167.187 39.184 166.743 39.532 166.167 39.784C165.603 40.036 164.937 40.162 164.169 40.162Z" fill="#161E54"/>
<path d="M29.432 27.49V29.164H26.102V40H24.05V29.164H20.702V27.49H29.432ZM35.8122 40.162C34.8762 40.162 34.0302 39.952 33.2742 39.532C32.5182 39.1 31.9242 38.5 31.4922 37.732C31.0602 36.952 30.8442 36.052 30.8442 35.032C30.8442 34.024 31.0662 33.13 31.5102 32.35C31.9542 31.57 32.5602 30.97 33.3282 30.55C34.0962 30.13 34.9542 29.92 35.9022 29.92C36.8502 29.92 37.7082 30.13 38.4762 30.55C39.2442 30.97 39.8502 31.57 40.2942 32.35C40.7382 33.13 40.9602 34.024 40.9602 35.032C40.9602 36.04 40.7322 36.934 40.2762 37.714C39.8202 38.494 39.1962 39.1 38.4042 39.532C37.6242 39.952 36.7602 40.162 35.8122 40.162ZM35.8122 38.38C36.3402 38.38 36.8322 38.254 37.2882 38.002C37.7562 37.75 38.1342 37.372 38.4222 36.868C38.7102 36.364 38.8542 35.752 38.8542 35.032C38.8542 34.312 38.7162 33.706 38.4402 33.214C38.1642 32.71 37.7982 32.332 37.3422 32.08C36.8862 31.828 36.3942 31.702 35.8662 31.702C35.3382 31.702 34.8462 31.828 34.3902 32.08C33.9462 32.332 33.5922 32.71 33.3282 33.214C33.0642 33.706 32.9322 34.312 32.9322 35.032C32.9322 36.1 33.2022 36.928 33.7422 37.516C34.2942 38.092 34.9842 38.38 35.8122 38.38ZM45.3827 31.756V37.246C45.3827 37.618 45.4667 37.888 45.6347 38.056C45.8147 38.212 46.1147 38.29 46.5347 38.29H47.7947V40H46.1747C45.2507 40 44.5427 39.784 44.0507 39.352C43.5587 38.92 43.3127 38.218 43.3127 37.246V31.756H42.1427V30.082H43.3127V27.616H45.3827V30.082H47.7947V31.756H45.3827ZM49.0019 34.996C49.0019 34 49.2059 33.118 49.6139 32.35C50.0339 31.582 50.5979 30.988 51.3059 30.568C52.0259 30.136 52.8179 29.92 53.6819 29.92C54.4619 29.92 55.1399 30.076 55.7159 30.388C56.3039 30.688 56.7719 31.066 57.1199 31.522V30.082H59.1899V40H57.1199V38.524C56.7719 38.992 56.2979 39.382 55.6979 39.694C55.0979 40.006 54.4139 40.162 53.6459 40.162C52.7939 40.162 52.0139 39.946 51.3059 39.514C50.5979 39.07 50.0339 38.458 49.6139 37.678C49.2059 36.886 49.0019 35.992 49.0019 34.996ZM57.1199 35.032C57.1199 34.348 56.9759 33.754 56.6879 33.25C56.4119 32.746 56.0459 32.362 55.5899 32.098C55.1339 31.834 54.6419 31.702 54.1139 31.702C53.5859 31.702 53.0939 31.834 52.6379 32.098C52.1819 32.35 51.8099 32.728 51.5219 33.232C51.2459 33.724 51.1079 34.312 51.1079 34.996C51.1079 35.68 51.2459 36.28 51.5219 36.796C51.8099 37.312 52.1819 37.708 52.6379 37.984C53.1059 38.248 53.5979 38.38 54.1139 38.38C54.6419 38.38 55.1339 38.248 55.5899 37.984C56.0459 37.72 56.4119 37.336 56.6879 36.832C56.9759 36.316 57.1199 35.716 57.1199 35.032ZM63.9372 26.68V40H61.8852V26.68H63.9372ZM73.359 29.146V32.818H77.679V34.492H73.359V38.326H78.219V40H71.307V27.472H78.219V29.146H73.359ZM92.7525 29.92C93.5325 29.92 94.2285 30.082 94.8405 30.406C95.4645 30.73 95.9505 31.21 96.2985 31.846C96.6585 32.482 96.8385 33.25 96.8385 34.15V40H94.8045V34.456C94.8045 33.568 94.5825 32.89 94.1385 32.422C93.6945 31.942 93.0885 31.702 92.3205 31.702C91.5525 31.702 90.9405 31.942 90.4845 32.422C90.0405 32.89 89.8185 33.568 89.8185 34.456V40H87.7845V34.456C87.7845 33.568 87.5625 32.89 87.1185 32.422C86.6745 31.942 86.0685 31.702 85.3005 31.702C84.5325 31.702 83.9205 31.942 83.4645 32.422C83.0205 32.89 82.7985 33.568 82.7985 34.456V40H80.7465V30.082H82.7985V31.216C83.1345 30.808 83.5605 30.49 84.0765 30.262C84.5925 30.034 85.1445 29.92 85.7325 29.92C86.5245 29.92 87.2325 30.088 87.8565 30.424C88.4805 30.76 88.9605 31.246 89.2965 31.882C89.5965 31.282 90.0645 30.808 90.7005 30.46C91.3365 30.1 92.0205 29.92 92.7525 29.92ZM101.502 31.54C101.85 31.084 102.324 30.7 102.924 30.388C103.524 30.076 104.202 29.92 104.958 29.92C105.822 29.92 106.608 30.136 107.316 30.568C108.036 30.988 108.6 31.582 109.008 32.35C109.416 33.118 109.62 34 109.62 34.996C109.62 35.992 109.416 36.886 109.008 37.678C108.6 38.458 108.036 39.07 107.316 39.514C106.608 39.946 105.822 40.162 104.958 40.162C104.202 40.162 103.53 40.012 102.942 39.712C102.354 39.4 101.874 39.016 101.502 38.56V44.716H99.4496V30.082H101.502V31.54ZM107.532 34.996C107.532 34.312 107.388 33.724 107.1 33.232C106.824 32.728 106.452 32.35 105.984 32.098C105.528 31.834 105.036 31.702 104.508 31.702C103.992 31.702 103.5 31.834 103.032 32.098C102.576 32.362 102.204 32.746 101.916 33.25C101.64 33.754 101.502 34.348 101.502 35.032C101.502 35.716 101.64 36.316 101.916 36.832C102.204 37.336 102.576 37.72 103.032 37.984C103.5 38.248 103.992 38.38 104.508 38.38C105.036 38.38 105.528 38.248 105.984 37.984C106.452 37.708 106.824 37.312 107.1 36.796C107.388 36.28 107.532 35.68 107.532 34.996ZM113.701 26.68V40H111.649V26.68H113.701ZM120.697 40.162C119.761 40.162 118.915 39.952 118.159 39.532C117.403 39.1 116.809 38.5 116.377 37.732C115.945 36.952 115.729 36.052 115.729 35.032C115.729 34.024 115.951 33.13 116.395 32.35C116.839 31.57 117.445 30.97 118.213 30.55C118.981 30.13 119.839 29.92 120.787 29.92C121.735 29.92 122.593 30.13 123.361 30.55C124.129 30.97 124.735 31.57 125.179 32.35C125.623 33.13 125.845 34.024 125.845 35.032C125.845 36.04 125.617 36.934 125.161 37.714C124.705 38.494 124.081 39.1 123.289 39.532C122.509 39.952 121.645 40.162 120.697 40.162ZM120.697 38.38C121.225 38.38 121.717 38.254 122.173 38.002C122.641 37.75 123.019 37.372 123.307 36.868C123.595 36.364 123.739 35.752 123.739 35.032C123.739 34.312 123.601 33.706 123.325 33.214C123.049 32.71 122.683 32.332 122.227 32.08C121.771 31.828 121.279 31.702 120.751 31.702C120.223 31.702 119.731 31.828 119.275 32.08C118.831 32.332 118.477 32.71 118.213 33.214C117.949 33.706 117.817 34.312 117.817 35.032C117.817 36.1 118.087 36.928 118.627 37.516C119.179 38.092 119.869 38.38 120.697 38.38ZM136.801 30.082L130.717 44.662H128.593L130.609 39.838L126.703 30.082H128.989L131.779 37.642L134.677 30.082H136.801ZM147.44 34.798C147.44 35.17 147.416 35.506 147.368 35.806H139.79C139.85 36.598 140.144 37.234 140.672 37.714C141.2 38.194 141.848 38.434 142.616 38.434C143.72 38.434 144.5 37.972 144.956 37.048H147.17C146.87 37.96 146.324 38.71 145.532 39.298C144.752 39.874 143.78 40.162 142.616 40.162C141.668 40.162 140.816 39.952 140.06 39.532C139.316 39.1 138.728 38.5 138.296 37.732C137.876 36.952 137.666 36.052 137.666 35.032C137.666 34.012 137.87 33.118 138.278 32.35C138.698 31.57 139.28 30.97 140.024 30.55C140.78 30.13 141.644 29.92 142.616 29.92C143.552 29.92 144.386 30.124 145.118 30.532C145.85 30.94 146.42 31.516 146.828 32.26C147.236 32.992 147.44 33.838 147.44 34.798ZM145.298 34.15C145.286 33.394 145.016 32.788 144.488 32.332C143.96 31.876 143.306 31.648 142.526 31.648C141.818 31.648 141.212 31.876 140.708 32.332C140.204 32.776 139.904 33.382 139.808 34.15H145.298ZM158.549 34.798C158.549 35.17 158.525 35.506 158.477 35.806H150.899C150.959 36.598 151.253 37.234 151.781 37.714C152.309 38.194 152.957 38.434 153.725 38.434C154.829 38.434 155.609 37.972 156.065 37.048H158.279C157.979 37.96 157.433 38.71 156.641 39.298C155.861 39.874 154.889 40.162 153.725 40.162C152.777 40.162 151.925 39.952 151.169 39.532C150.425 39.1 149.837 38.5 149.405 37.732C148.985 36.952 148.775 36.052 148.775 35.032C148.775 34.012 148.979 33.118 149.387 32.35C149.807 31.57 150.389 30.97 151.133 30.55C151.889 30.13 152.753 29.92 153.725 29.92C154.661 29.92 155.495 30.124 156.227 30.532C156.959 30.94 157.529 31.516 157.937 32.26C158.345 32.992 158.549 33.838 158.549 34.798ZM156.407 34.15C156.395 33.394 156.125 32.788 155.597 32.332C155.069 31.876 154.415 31.648 153.635 31.648C152.927 31.648 152.321 31.876 151.817 32.332C151.313 32.776 151.013 33.382 150.917 34.15H156.407ZM164.169 40.162C163.389 40.162 162.687 40.024 162.063 39.748C161.451 39.46 160.965 39.076 160.605 38.596C160.245 38.104 160.053 37.558 160.029 36.958H162.153C162.189 37.378 162.387 37.732 162.747 38.02C163.119 38.296 163.581 38.434 164.133 38.434C164.709 38.434 165.153 38.326 165.465 38.11C165.789 37.882 165.951 37.594 165.951 37.246C165.951 36.874 165.771 36.598 165.411 36.418C165.063 36.238 164.505 36.04 163.737 35.824C162.993 35.62 162.387 35.422 161.919 35.23C161.451 35.038 161.043 34.744 160.695 34.348C160.359 33.952 160.191 33.43 160.191 32.782C160.191 32.254 160.347 31.774 160.659 31.342C160.971 30.898 161.415 30.55 161.991 30.298C162.579 30.046 163.251 29.92 164.007 29.92C165.135 29.92 166.041 30.208 166.725 30.784C167.421 31.348 167.793 32.122 167.841 33.106H165.789C165.753 32.662 165.573 32.308 165.249 32.044C164.925 31.78 164.487 31.648 163.935 31.648C163.395 31.648 162.981 31.75 162.693 31.954C162.405 32.158 162.261 32.428 162.261 32.764C162.261 33.028 162.357 33.25 162.549 33.43C162.741 33.61 162.975 33.754 163.251 33.862C163.527 33.958 163.935 34.084 164.475 34.24C165.195 34.432 165.783 34.63 166.239 34.834C166.707 35.026 167.109 35.314 167.445 35.698C167.781 36.082 167.955 36.592 167.967 37.228C167.967 37.792 167.811 38.296 167.499 38.74C167.187 39.184 166.743 39.532 166.167 39.784C165.603 40.036 164.937 40.162 164.169 40.162Z" fill="black" fill-opacity="0.2"/>
<path d="M25.904 93.56C28.976 90.904 31.392 88.728 33.152 87.032C34.944 85.304 36.432 83.512 37.616 81.656C38.8 79.8 39.392 77.944 39.392 76.088C39.392 74.168 38.928 72.664 38 71.576C37.104 70.488 35.68 69.944 33.728 69.944C31.84 69.944 30.368 70.552 29.312 71.768C28.288 72.952 27.744 74.552 27.68 76.568H22.4C22.496 72.92 23.584 70.136 25.664 68.216C27.776 66.264 30.448 65.288 33.68 65.288C37.168 65.288 39.888 66.248 41.84 68.168C43.824 70.088 44.816 72.648 44.816 75.848C44.816 78.152 44.224 80.376 43.04 82.52C41.888 84.632 40.496 86.536 38.864 88.232C37.264 89.896 35.216 91.832 32.72 94.04L30.56 95.96H45.776V100.52H22.448V96.536L25.904 93.56ZM49.8631 71V66.008H59.8471V101H54.3271V71H49.8631ZM86.1804 74.12C85.8284 72.648 85.1884 71.544 84.2604 70.808C83.3324 70.072 82.0364 69.704 80.3724 69.704C77.8444 69.704 75.9564 70.68 74.7084 72.632C73.4604 74.552 72.8044 77.752 72.7404 82.232C73.5724 80.824 74.7884 79.736 76.3884 78.968C77.9884 78.2 79.7164 77.816 81.5724 77.816C83.6844 77.816 85.5404 78.28 87.1404 79.208C88.7724 80.104 90.0364 81.416 90.9324 83.144C91.8604 84.872 92.3244 86.936 92.3244 89.336C92.3244 91.576 91.8764 93.576 90.9804 95.336C90.1164 97.096 88.8204 98.488 87.0924 99.512C85.3644 100.504 83.2844 101 80.8524 101C77.5564 101 74.9644 100.28 73.0764 98.84C71.2204 97.368 69.9084 95.304 69.1404 92.648C68.4044 89.992 68.0364 86.68 68.0364 82.712C68.0364 71 72.1644 65.144 80.4204 65.144C83.6204 65.144 86.1324 66.008 87.9564 67.736C89.8124 69.464 90.9004 71.592 91.2204 74.12H86.1804ZM80.3724 82.424C78.4204 82.424 76.7564 83.016 75.3804 84.2C74.0364 85.352 73.3644 87.032 73.3644 89.24C73.3644 91.448 73.9884 93.208 75.2364 94.52C76.5164 95.8 78.2924 96.44 80.5644 96.44C82.5804 96.44 84.1644 95.816 85.3164 94.568C86.5004 93.32 87.0924 91.656 87.0924 89.576C87.0924 87.4 86.5164 85.672 85.3644 84.392C84.2444 83.08 82.5804 82.424 80.3724 82.424Z" fill="#161E54"/>
<path d="M25.904 93.56C28.976 90.904 31.392 88.728 33.152 87.032C34.944 85.304 36.432 83.512 37.616 81.656C38.8 79.8 39.392 77.944 39.392 76.088C39.392 74.168 38.928 72.664 38 71.576C37.104 70.488 35.68 69.944 33.728 69.944C31.84 69.944 30.368 70.552 29.312 71.768C28.288 72.952 27.744 74.552 27.68 76.568H22.4C22.496 72.92 23.584 70.136 25.664 68.216C27.776 66.264 30.448 65.288 33.68 65.288C37.168 65.288 39.888 66.248 41.84 68.168C43.824 70.088 44.816 72.648 44.816 75.848C44.816 78.152 44.224 80.376 43.04 82.52C41.888 84.632 40.496 86.536 38.864 88.232C37.264 89.896 35.216 91.832 32.72 94.04L30.56 95.96H45.776V100.52H22.448V96.536L25.904 93.56ZM49.8631 71V66.008H59.8471V101H54.3271V71H49.8631ZM86.1804 74.12C85.8284 72.648 85.1884 71.544 84.2604 70.808C83.3324 70.072 82.0364 69.704 80.3724 69.704C77.8444 69.704 75.9564 70.68 74.7084 72.632C73.4604 74.552 72.8044 77.752 72.7404 82.232C73.5724 80.824 74.7884 79.736 76.3884 78.968C77.9884 78.2 79.7164 77.816 81.5724 77.816C83.6844 77.816 85.5404 78.28 87.1404 79.208C88.7724 80.104 90.0364 81.416 90.9324 83.144C91.8604 84.872 92.3244 86.936 92.3244 89.336C92.3244 91.576 91.8764 93.576 90.9804 95.336C90.1164 97.096 88.8204 98.488 87.0924 99.512C85.3644 100.504 83.2844 101 80.8524 101C77.5564 101 74.9644 100.28 73.0764 98.84C71.2204 97.368 69.9084 95.304 69.1404 92.648C68.4044 89.992 68.0364 86.68 68.0364 82.712C68.0364 71 72.1644 65.144 80.4204 65.144C83.6204 65.144 86.1324 66.008 87.9564 67.736C89.8124 69.464 90.9004 71.592 91.2204 74.12H86.1804ZM80.3724 82.424C78.4204 82.424 76.7564 83.016 75.3804 84.2C74.0364 85.352 73.3644 87.032 73.3644 89.24C73.3644 91.448 73.9884 93.208 75.2364 94.52C76.5164 95.8 78.2924 96.44 80.5644 96.44C82.5804 96.44 84.1644 95.816 85.3164 94.568C86.5004 93.32 87.0924 91.656 87.0924 89.576C87.0924 87.4 86.5164 85.672 85.3644 84.392C84.2444 83.08 82.5804 82.424 80.3724 82.424Z" fill="black" fill-opacity="0.2"/>
<path d="M24.2715 134.422V143H23.1875V135.775L21.002 136.572V135.594L24.1016 134.422H24.2715ZM33.0488 142.109V143H27.4648V142.221L30.2598 139.109C30.6035 138.727 30.8691 138.402 31.0566 138.137C31.248 137.867 31.3809 137.627 31.4551 137.416C31.5332 137.201 31.5723 136.982 31.5723 136.76C31.5723 136.479 31.5137 136.225 31.3965 135.998C31.2832 135.768 31.1152 135.584 30.8926 135.447C30.6699 135.311 30.4004 135.242 30.084 135.242C29.7051 135.242 29.3887 135.316 29.1348 135.465C28.8848 135.609 28.6973 135.812 28.5723 136.074C28.4473 136.336 28.3848 136.637 28.3848 136.977H27.3008C27.3008 136.496 27.4062 136.057 27.6172 135.658C27.8281 135.26 28.1406 134.943 28.5547 134.709C28.9688 134.471 29.4785 134.352 30.084 134.352C30.623 134.352 31.084 134.447 31.4668 134.639C31.8496 134.826 32.1426 135.092 32.3457 135.436C32.5527 135.775 32.6562 136.174 32.6562 136.631C32.6562 136.881 32.6133 137.135 32.5273 137.393C32.4453 137.646 32.3301 137.9 32.1816 138.154C32.0371 138.408 31.8672 138.658 31.6719 138.904C31.4805 139.15 31.2754 139.393 31.0566 139.631L28.7715 142.109H33.0488ZM39.5645 138.055V139.355C39.5645 140.055 39.502 140.645 39.377 141.125C39.252 141.605 39.0723 141.992 38.8379 142.285C38.6035 142.578 38.3203 142.791 37.9883 142.924C37.6602 143.053 37.2891 143.117 36.875 143.117C36.5469 143.117 36.2441 143.076 35.9668 142.994C35.6895 142.912 35.4395 142.781 35.2168 142.602C34.998 142.418 34.8105 142.18 34.6543 141.887C34.498 141.594 34.3789 141.238 34.2969 140.82C34.2148 140.402 34.1738 139.914 34.1738 139.355V138.055C34.1738 137.355 34.2363 136.77 34.3613 136.297C34.4902 135.824 34.6719 135.445 34.9062 135.16C35.1406 134.871 35.4219 134.664 35.75 134.539C36.082 134.414 36.4531 134.352 36.8633 134.352C37.1953 134.352 37.5 134.393 37.7773 134.475C38.0586 134.553 38.3086 134.68 38.5273 134.855C38.7461 135.027 38.9316 135.258 39.084 135.547C39.2402 135.832 39.3594 136.182 39.4414 136.596C39.5234 137.01 39.5645 137.496 39.5645 138.055ZM38.4746 139.531V137.873C38.4746 137.49 38.4512 137.154 38.4043 136.865C38.3613 136.572 38.2969 136.322 38.2109 136.115C38.125 135.908 38.0156 135.74 37.8828 135.611C37.7539 135.482 37.6035 135.389 37.4316 135.33C37.2637 135.268 37.0742 135.236 36.8633 135.236C36.6055 135.236 36.377 135.285 36.1777 135.383C35.9785 135.477 35.8105 135.627 35.6738 135.834C35.541 136.041 35.4395 136.312 35.3691 136.648C35.2988 136.984 35.2637 137.393 35.2637 137.873V139.531C35.2637 139.914 35.2852 140.252 35.3281 140.545C35.375 140.838 35.4434 141.092 35.5332 141.307C35.623 141.518 35.7324 141.691 35.8613 141.828C35.9902 141.965 36.1387 142.066 36.3066 142.133C36.4785 142.195 36.668 142.227 36.875 142.227C37.1406 142.227 37.373 142.176 37.5723 142.074C37.7715 141.973 37.9375 141.814 38.0703 141.6C38.207 141.381 38.3086 141.102 38.375 140.762C38.4414 140.418 38.4746 140.008 38.4746 139.531ZM44.5742 134.469H45.6699L48.4648 141.424L51.2539 134.469H52.3555L48.8867 143H48.0312L44.5742 134.469ZM44.2168 134.469H45.1836L45.3418 139.672V143H44.2168V134.469ZM51.7402 134.469H52.707V143H51.582V139.672L51.7402 134.469ZM57.1602 143.117C56.7188 143.117 56.3184 143.043 55.959 142.895C55.6035 142.742 55.2969 142.529 55.0391 142.256C54.7852 141.982 54.5898 141.658 54.4531 141.283C54.3164 140.908 54.248 140.498 54.248 140.053V139.807C54.248 139.291 54.3242 138.832 54.4766 138.43C54.6289 138.023 54.8359 137.68 55.0977 137.398C55.3594 137.117 55.6562 136.904 55.9883 136.76C56.3203 136.615 56.6641 136.543 57.0195 136.543C57.4727 136.543 57.8633 136.621 58.1914 136.777C58.5234 136.934 58.7949 137.152 59.0059 137.434C59.2168 137.711 59.373 138.039 59.4746 138.418C59.5762 138.793 59.627 139.203 59.627 139.648V140.135H54.8926V139.25H58.543V139.168C58.5273 138.887 58.4688 138.613 58.3672 138.348C58.2695 138.082 58.1133 137.863 57.8984 137.691C57.6836 137.52 57.3906 137.434 57.0195 137.434C56.7734 137.434 56.5469 137.486 56.3398 137.592C56.1328 137.693 55.9551 137.846 55.8066 138.049C55.6582 138.252 55.543 138.5 55.4609 138.793C55.3789 139.086 55.3379 139.424 55.3379 139.807V140.053C55.3379 140.354 55.3789 140.637 55.4609 140.902C55.5469 141.164 55.6699 141.395 55.8301 141.594C55.9941 141.793 56.1914 141.949 56.4219 142.062C56.6562 142.176 56.9219 142.232 57.2188 142.232C57.6016 142.232 57.9258 142.154 58.1914 141.998C58.457 141.842 58.6895 141.633 58.8887 141.371L59.5449 141.893C59.4082 142.1 59.2344 142.297 59.0234 142.484C58.8125 142.672 58.5527 142.824 58.2441 142.941C57.9395 143.059 57.5781 143.117 57.1602 143.117ZM61.9766 138.014V143H60.8926V136.66H61.918L61.9766 138.014ZM61.7188 139.59L61.2676 139.572C61.2715 139.139 61.3359 138.738 61.4609 138.371C61.5859 138 61.7617 137.678 61.9883 137.404C62.2148 137.131 62.4844 136.92 62.7969 136.771C63.1133 136.619 63.4629 136.543 63.8457 136.543C64.1582 136.543 64.4395 136.586 64.6895 136.672C64.9395 136.754 65.1523 136.887 65.3281 137.07C65.5078 137.254 65.6445 137.492 65.7383 137.785C65.832 138.074 65.8789 138.428 65.8789 138.846V143H64.7891V138.834C64.7891 138.502 64.7402 138.236 64.6426 138.037C64.5449 137.834 64.4023 137.688 64.2148 137.598C64.0273 137.504 63.7969 137.457 63.5234 137.457C63.2539 137.457 63.0078 137.514 62.7852 137.627C62.5664 137.74 62.377 137.896 62.2168 138.096C62.0605 138.295 61.9375 138.523 61.8477 138.781C61.7617 139.035 61.7188 139.305 61.7188 139.59Z" fill="#686868"/>
<path d="M21.7871 164.092H21.8984C22.5234 164.092 23.0312 164.004 23.4219 163.828C23.8125 163.652 24.1133 163.416 24.3242 163.119C24.5352 162.822 24.6797 162.488 24.7578 162.117C24.8359 161.742 24.875 161.357 24.875 160.963V159.656C24.875 159.27 24.8301 158.926 24.7402 158.625C24.6543 158.324 24.5332 158.072 24.377 157.869C24.2246 157.666 24.0508 157.512 23.8555 157.406C23.6602 157.301 23.4531 157.248 23.2344 157.248C22.9844 157.248 22.7598 157.299 22.5605 157.4C22.3652 157.498 22.1992 157.637 22.0625 157.816C21.9297 157.996 21.8281 158.207 21.7578 158.449C21.6875 158.691 21.6523 158.955 21.6523 159.24C21.6523 159.494 21.6836 159.74 21.7461 159.979C21.8086 160.217 21.9043 160.432 22.0332 160.623C22.1621 160.814 22.3223 160.967 22.5137 161.08C22.709 161.189 22.9375 161.244 23.1992 161.244C23.4414 161.244 23.668 161.197 23.8789 161.104C24.0938 161.006 24.2832 160.875 24.4473 160.711C24.6152 160.543 24.748 160.354 24.8457 160.143C24.9473 159.932 25.0059 159.711 25.0215 159.48H25.5371C25.5371 159.805 25.4727 160.125 25.3438 160.441C25.2188 160.754 25.043 161.039 24.8164 161.297C24.5898 161.555 24.3242 161.762 24.0195 161.918C23.7148 162.07 23.3828 162.146 23.0234 162.146C22.6016 162.146 22.2363 162.064 21.9277 161.9C21.6191 161.736 21.3652 161.518 21.166 161.244C20.9707 160.971 20.8242 160.666 20.7266 160.33C20.6328 159.99 20.5859 159.646 20.5859 159.299C20.5859 158.893 20.6426 158.512 20.7559 158.156C20.8691 157.801 21.0371 157.488 21.2598 157.219C21.4824 156.945 21.7578 156.732 22.0859 156.58C22.418 156.428 22.8008 156.352 23.2344 156.352C23.7227 156.352 24.1387 156.449 24.4824 156.645C24.8262 156.84 25.1055 157.102 25.3203 157.43C25.5391 157.758 25.6992 158.127 25.8008 158.537C25.9023 158.947 25.9531 159.369 25.9531 159.803V160.195C25.9531 160.637 25.9238 161.086 25.8652 161.543C25.8105 161.996 25.7031 162.43 25.543 162.844C25.3867 163.258 25.1582 163.629 24.8574 163.957C24.5566 164.281 24.1641 164.539 23.6797 164.73C23.1992 164.918 22.6055 165.012 21.8984 165.012H21.7871V164.092ZM31.6191 156.457H31.7129V157.377H31.6191C31.0449 157.377 30.5645 157.471 30.1777 157.658C29.791 157.842 29.4844 158.09 29.2578 158.402C29.0312 158.711 28.8672 159.059 28.7656 159.445C28.668 159.832 28.6191 160.225 28.6191 160.623V161.877C28.6191 162.256 28.6641 162.592 28.7539 162.885C28.8438 163.174 28.9668 163.418 29.123 163.617C29.2793 163.816 29.4551 163.967 29.6504 164.068C29.8496 164.17 30.0566 164.221 30.2715 164.221C30.5215 164.221 30.7441 164.174 30.9395 164.08C31.1348 163.982 31.2988 163.848 31.4316 163.676C31.5684 163.5 31.6719 163.293 31.7422 163.055C31.8125 162.816 31.8477 162.555 31.8477 162.27C31.8477 162.016 31.8164 161.771 31.7539 161.537C31.6914 161.299 31.5957 161.088 31.4668 160.904C31.3379 160.717 31.1758 160.57 30.9805 160.465C30.7891 160.355 30.5605 160.301 30.2949 160.301C29.9941 160.301 29.7129 160.375 29.4512 160.523C29.1934 160.668 28.9805 160.859 28.8125 161.098C28.6484 161.332 28.5547 161.588 28.5312 161.865L27.957 161.859C28.0117 161.422 28.1133 161.049 28.2617 160.74C28.4141 160.428 28.6016 160.174 28.8242 159.979C29.0508 159.779 29.3027 159.635 29.5801 159.545C29.8613 159.451 30.1582 159.404 30.4707 159.404C30.8965 159.404 31.2637 159.484 31.5723 159.645C31.8809 159.805 32.1348 160.02 32.334 160.289C32.5332 160.555 32.6797 160.855 32.7734 161.191C32.8711 161.523 32.9199 161.865 32.9199 162.217C32.9199 162.619 32.8633 162.996 32.75 163.348C32.6367 163.699 32.4668 164.008 32.2402 164.273C32.0176 164.539 31.7422 164.746 31.4141 164.895C31.0859 165.043 30.7051 165.117 30.2715 165.117C29.8105 165.117 29.4082 165.023 29.0645 164.836C28.7207 164.645 28.4355 164.391 28.209 164.074C27.9824 163.758 27.8125 163.406 27.6992 163.02C27.5859 162.633 27.5293 162.24 27.5293 161.842V161.332C27.5293 160.73 27.5898 160.141 27.7109 159.562C27.832 158.984 28.041 158.461 28.3379 157.992C28.6387 157.523 29.0547 157.15 29.5859 156.873C30.1172 156.596 30.7949 156.457 31.6191 156.457ZM39.7109 162.422L41.4043 156.469H42.2246L41.75 158.783L39.9277 165H39.1133L39.7109 162.422ZM37.959 156.469L39.3066 162.305L39.7109 165H38.9023L36.834 156.469H37.959ZM44.416 162.299L45.7344 156.469H46.8652L44.8027 165H43.9941L44.416 162.299ZM42.3477 156.469L43.9941 162.422L44.5918 165H43.7773L42.0195 158.783L41.5391 156.469H42.3477ZM47.4805 161.9V161.766C47.4805 161.309 47.5469 160.885 47.6797 160.494C47.8125 160.1 48.0039 159.758 48.2539 159.469C48.5039 159.176 48.8066 158.949 49.1621 158.789C49.5176 158.625 49.916 158.543 50.3574 158.543C50.8027 158.543 51.2031 158.625 51.5586 158.789C51.918 158.949 52.2227 159.176 52.4727 159.469C52.7266 159.758 52.9199 160.1 53.0527 160.494C53.1855 160.885 53.252 161.309 53.252 161.766V161.9C53.252 162.357 53.1855 162.781 53.0527 163.172C52.9199 163.562 52.7266 163.904 52.4727 164.197C52.2227 164.486 51.9199 164.713 51.5645 164.877C51.2129 165.037 50.8145 165.117 50.3691 165.117C49.9238 165.117 49.5234 165.037 49.168 164.877C48.8125 164.713 48.5078 164.486 48.2539 164.197C48.0039 163.904 47.8125 163.562 47.6797 163.172C47.5469 162.781 47.4805 162.357 47.4805 161.9ZM48.5645 161.766V161.9C48.5645 162.217 48.6016 162.516 48.6758 162.797C48.75 163.074 48.8613 163.32 49.0098 163.535C49.1621 163.75 49.3516 163.92 49.5781 164.045C49.8047 164.166 50.0684 164.227 50.3691 164.227C50.666 164.227 50.9258 164.166 51.1484 164.045C51.375 163.92 51.5625 163.75 51.7109 163.535C51.8594 163.32 51.9707 163.074 52.0449 162.797C52.123 162.516 52.1621 162.217 52.1621 161.9V161.766C52.1621 161.453 52.123 161.158 52.0449 160.881C51.9707 160.6 51.8574 160.352 51.7051 160.137C51.5566 159.918 51.3691 159.746 51.1426 159.621C50.9199 159.496 50.6582 159.434 50.3574 159.434C50.0605 159.434 49.7988 159.496 49.5723 159.621C49.3496 159.746 49.1621 159.918 49.0098 160.137C48.8613 160.352 48.75 160.6 48.6758 160.881C48.6016 161.158 48.5645 161.453 48.5645 161.766ZM55.6895 159.92V165H54.5996V158.66H55.6309L55.6895 159.92ZM55.4668 161.59L54.9629 161.572C54.9668 161.139 55.0234 160.738 55.1328 160.371C55.2422 160 55.4043 159.678 55.6191 159.404C55.834 159.131 56.1016 158.92 56.4219 158.771C56.7422 158.619 57.1133 158.543 57.5352 158.543C57.832 158.543 58.1055 158.586 58.3555 158.672C58.6055 158.754 58.8223 158.885 59.0059 159.064C59.1895 159.244 59.332 159.475 59.4336 159.756C59.5352 160.037 59.5859 160.377 59.5859 160.775V165H58.502V160.828C58.502 160.496 58.4453 160.23 58.332 160.031C58.2227 159.832 58.0664 159.688 57.8633 159.598C57.6602 159.504 57.4219 159.457 57.1484 159.457C56.8281 159.457 56.5605 159.514 56.3457 159.627C56.1309 159.74 55.959 159.896 55.8301 160.096C55.7012 160.295 55.6074 160.523 55.5488 160.781C55.4941 161.035 55.4668 161.305 55.4668 161.59ZM59.5742 160.992L58.8477 161.215C58.8516 160.867 58.9082 160.533 59.0176 160.213C59.1309 159.893 59.293 159.607 59.5039 159.357C59.7188 159.107 59.9824 158.91 60.2949 158.766C60.6074 158.617 60.9648 158.543 61.3672 158.543C61.707 158.543 62.0078 158.588 62.2695 158.678C62.5352 158.768 62.7578 158.906 62.9375 159.094C63.1211 159.277 63.2598 159.514 63.3535 159.803C63.4473 160.092 63.4941 160.436 63.4941 160.834V165H62.4043V160.822C62.4043 160.467 62.3477 160.191 62.2344 159.996C62.125 159.797 61.9688 159.658 61.7656 159.58C61.5664 159.498 61.3281 159.457 61.0508 159.457C60.8125 159.457 60.6016 159.498 60.418 159.58C60.2344 159.662 60.0801 159.775 59.9551 159.92C59.8301 160.061 59.7344 160.223 59.668 160.406C59.6055 160.59 59.5742 160.785 59.5742 160.992ZM67.7656 165.117C67.3242 165.117 66.9238 165.043 66.5645 164.895C66.209 164.742 65.9023 164.529 65.6445 164.256C65.3906 163.982 65.1953 163.658 65.0586 163.283C64.9219 162.908 64.8535 162.498 64.8535 162.053V161.807C64.8535 161.291 64.9297 160.832 65.082 160.43C65.2344 160.023 65.4414 159.68 65.7031 159.398C65.9648 159.117 66.2617 158.904 66.5938 158.76C66.9258 158.615 67.2695 158.543 67.625 158.543C68.0781 158.543 68.4688 158.621 68.7969 158.777C69.1289 158.934 69.4004 159.152 69.6113 159.434C69.8223 159.711 69.9785 160.039 70.0801 160.418C70.1816 160.793 70.2324 161.203 70.2324 161.648V162.135H65.498V161.25H69.1484V161.168C69.1328 160.887 69.0742 160.613 68.9727 160.348C68.875 160.082 68.7188 159.863 68.5039 159.691C68.2891 159.52 67.9961 159.434 67.625 159.434C67.3789 159.434 67.1523 159.486 66.9453 159.592C66.7383 159.693 66.5605 159.846 66.4121 160.049C66.2637 160.252 66.1484 160.5 66.0664 160.793C65.9844 161.086 65.9434 161.424 65.9434 161.807V162.053C65.9434 162.354 65.9844 162.637 66.0664 162.902C66.1523 163.164 66.2754 163.395 66.4355 163.594C66.5996 163.793 66.7969 163.949 67.0273 164.062C67.2617 164.176 67.5273 164.232 67.8242 164.232C68.207 164.232 68.5312 164.154 68.7969 163.998C69.0625 163.842 69.2949 163.633 69.4941 163.371L70.1504 163.893C70.0137 164.1 69.8398 164.297 69.6289 164.484C69.418 164.672 69.1582 164.824 68.8496 164.941C68.5449 165.059 68.1836 165.117 67.7656 165.117ZM72.582 160.014V165H71.498V158.66H72.5234L72.582 160.014ZM72.3242 161.59L71.873 161.572C71.877 161.139 71.9414 160.738 72.0664 160.371C72.1914 160 72.3672 159.678 72.5938 159.404C72.8203 159.131 73.0898 158.92 73.4023 158.771C73.7188 158.619 74.0684 158.543 74.4512 158.543C74.7637 158.543 75.0449 158.586 75.2949 158.672C75.5449 158.754 75.7578 158.887 75.9336 159.07C76.1133 159.254 76.25 159.492 76.3438 159.785C76.4375 160.074 76.4844 160.428 76.4844 160.846V165H75.3945V160.834C75.3945 160.502 75.3457 160.236 75.248 160.037C75.1504 159.834 75.0078 159.688 74.8203 159.598C74.6328 159.504 74.4023 159.457 74.1289 159.457C73.8594 159.457 73.6133 159.514 73.3906 159.627C73.1719 159.74 72.9824 159.896 72.8223 160.096C72.666 160.295 72.543 160.523 72.4531 160.781C72.3672 161.035 72.3242 161.305 72.3242 161.59Z" fill="#686868"/>
<path d="M177 85.5C177 85.5 192.282 67.2086 206 64.5C216.431 62.4403 222.488 69.5924 233 68C249.278 65.5342 252.396 47.9209 268.5 44.5C277.477 42.5931 291.5 44.5 291.5 44.5" stroke="#FF5151" stroke-width="2" stroke-linecap="round"/>
<path d="M206.5 64.3475C192.782 67.0562 177.5 85.3475 177.5 85.3475V112.5H292V44.3475C292 44.3475 277.977 42.4406 269 44.3475C252.896 47.7685 249.778 65.3817 233.5 67.8475C222.988 69.4399 216.931 62.2878 206.5 64.3475Z" fill="url(#paint0_linear_1_121)"/>
<path d="M222.28 43.17C222.213 43.17 222.157 43.1467 222.11 43.1C222.063 43.0533 222.04 42.9967 222.04 42.93V40.98H220.12C220.053 40.98 219.997 40.9567 219.95 40.91C219.903 40.8633 219.88 40.8067 219.88 40.74V40.21C219.88 40.1367 219.903 40.08 219.95 40.04C219.997 39.9933 220.053 39.97 220.12 39.97H222.04V38.07C222.04 38.0033 222.063 37.9467 222.11 37.9C222.157 37.8533 222.213 37.83 222.28 37.83H222.86C222.933 37.83 222.99 37.8533 223.03 37.9C223.077 37.9467 223.1 38.0033 223.1 38.07V39.97H225.02C225.087 39.97 225.143 39.9933 225.19 40.04C225.237 40.08 225.26 40.1367 225.26 40.21V40.74C225.26 40.8067 225.237 40.8633 225.19 40.91C225.143 40.9567 225.087 40.98 225.02 40.98H223.1V42.93C223.1 42.9967 223.077 43.0533 223.03 43.1C222.99 43.1467 222.933 43.17 222.86 43.17H222.28ZM226.108 43.5C226.041 43.5 225.985 43.4767 225.938 43.43C225.891 43.3833 225.868 43.3267 225.868 43.26V42.75C225.868 42.69 225.881 42.62 225.908 42.54C225.941 42.4533 226.011 42.3667 226.118 42.28L227.698 40.71C228.138 40.3633 228.491 40.07 228.758 39.83C229.031 39.5833 229.228 39.36 229.348 39.16C229.475 38.9533 229.538 38.75 229.538 38.55C229.538 38.25 229.455 38.0067 229.288 37.82C229.128 37.6333 228.871 37.54 228.518 37.54C228.285 37.54 228.088 37.59 227.928 37.69C227.768 37.7833 227.641 37.91 227.548 38.07C227.461 38.23 227.401 38.4067 227.368 38.6C227.355 38.6867 227.318 38.7467 227.258 38.78C227.198 38.8133 227.138 38.83 227.078 38.83H226.188C226.128 38.83 226.078 38.81 226.038 38.77C225.998 38.73 225.978 38.6833 225.978 38.63C225.985 38.3433 226.045 38.0667 226.158 37.8C226.271 37.5267 226.435 37.2867 226.648 37.08C226.868 36.8667 227.135 36.6967 227.448 36.57C227.761 36.4433 228.115 36.38 228.508 36.38C229.061 36.38 229.518 36.4733 229.878 36.66C230.245 36.8467 230.518 37.1 230.698 37.42C230.885 37.74 230.978 38.1 230.978 38.5C230.978 38.8133 230.918 39.1033 230.798 39.37C230.678 39.63 230.505 39.8833 230.278 40.13C230.051 40.37 229.778 40.6167 229.458 40.87L228.038 42.31H230.888C230.961 42.31 231.018 42.3333 231.058 42.38C231.105 42.42 231.128 42.4767 231.128 42.55V43.26C231.128 43.3267 231.105 43.3833 231.058 43.43C231.018 43.4767 230.961 43.5 230.888 43.5H226.108ZM232.709 43.5C232.569 43.5 232.499 43.4333 232.499 43.3C232.499 43.26 232.513 43.2233 232.539 43.19L237.469 36.69C237.516 36.63 237.563 36.5833 237.609 36.55C237.656 36.5167 237.723 36.5 237.809 36.5H238.339C238.479 36.5 238.549 36.5667 238.549 36.7C238.549 36.74 238.536 36.7767 238.509 36.81L233.579 43.31C233.533 43.37 233.486 43.4167 233.439 43.45C233.399 43.4833 233.333 43.5 233.239 43.5H232.709ZM237.519 43.56C237.073 43.56 236.719 43.4367 236.459 43.19C236.199 42.9433 236.056 42.62 236.029 42.22C236.023 42.0467 236.019 41.8967 236.019 41.77C236.019 41.6433 236.023 41.4867 236.029 41.3C236.056 40.9 236.193 40.5767 236.439 40.33C236.693 40.0833 237.053 39.96 237.519 39.96C237.993 39.96 238.353 40.0833 238.599 40.33C238.853 40.5767 238.989 40.9 239.009 41.3C239.023 41.4867 239.029 41.6433 239.029 41.77C239.029 41.8967 239.023 42.0467 239.009 42.22C238.989 42.62 238.846 42.9433 238.579 43.19C238.319 43.4367 237.966 43.56 237.519 43.56ZM237.519 42.78C237.666 42.78 237.779 42.75 237.859 42.69C237.946 42.63 238.009 42.5533 238.049 42.46C238.089 42.3667 238.109 42.2733 238.109 42.18C238.123 42.0133 238.129 41.8733 238.129 41.76C238.129 41.64 238.123 41.5033 238.109 41.35C238.103 41.1967 238.056 41.0567 237.969 40.93C237.883 40.7967 237.733 40.73 237.519 40.73C237.313 40.73 237.166 40.7967 237.079 40.93C236.993 41.0567 236.943 41.1967 236.929 41.35C236.923 41.5033 236.919 41.64 236.919 41.76C236.919 41.8733 236.923 42.0133 236.929 42.18C236.943 42.2733 236.966 42.3667 236.999 42.46C237.039 42.5533 237.099 42.63 237.179 42.69C237.266 42.75 237.379 42.78 237.519 42.78ZM233.529 40.02C233.083 40.02 232.729 39.9033 232.469 39.67C232.209 39.4367 232.066 39.12 232.039 38.72C232.033 38.5467 232.029 38.3967 232.029 38.27C232.029 38.1367 232.033 37.9767 232.039 37.79C232.066 37.39 232.203 37.0667 232.449 36.82C232.703 36.5733 233.063 36.45 233.529 36.45C234.003 36.45 234.363 36.5733 234.609 36.82C234.863 37.0667 234.999 37.39 235.019 37.79C235.033 37.9767 235.039 38.1367 235.039 38.27C235.039 38.3967 235.033 38.5467 235.019 38.72C234.999 39.12 234.856 39.4367 234.589 39.67C234.329 39.9033 233.976 40.02 233.529 40.02ZM233.529 39.28C233.676 39.28 233.789 39.25 233.869 39.19C233.956 39.13 234.019 39.0533 234.059 38.96C234.099 38.8667 234.119 38.77 234.119 38.67C234.133 38.5033 234.139 38.3633 234.139 38.25C234.139 38.13 234.133 37.9933 234.119 37.84C234.113 37.6867 234.066 37.5467 233.979 37.42C233.893 37.2933 233.743 37.23 233.529 37.23C233.323 37.23 233.176 37.2933 233.089 37.42C233.003 37.5467 232.956 37.6867 232.949 37.84C232.943 37.9933 232.939 38.13 232.939 38.25C232.939 38.3633 232.943 38.5033 232.949 38.67C232.956 38.77 232.976 38.8667 233.009 38.96C233.049 39.0533 233.109 39.13 233.189 39.19C233.276 39.25 233.389 39.28 233.529 39.28Z" fill="#FF5151"/>
<path d="M228.5 51.5L230.5 49.5M230.5 49.5L232.5 51.5M230.5 49.5V56.5" stroke="#FF5151" stroke-linecap="round" stroke-linejoin="round"/>
<rect x="185" y="132.5" width="107" height="24" rx="4" fill="#FFEFE7"/>
<path d="M201.305 143.924V144.943H195.457V143.924H201.305ZM198.926 141.434V147.645H197.842V141.434H198.926ZM208.107 147.609V148.5H202.523V147.721L205.318 144.609C205.662 144.227 205.928 143.902 206.115 143.637C206.307 143.367 206.439 143.127 206.514 142.916C206.592 142.701 206.631 142.482 206.631 142.26C206.631 141.979 206.572 141.725 206.455 141.498C206.342 141.268 206.174 141.084 205.951 140.947C205.729 140.811 205.459 140.742 205.143 140.742C204.764 140.742 204.447 140.816 204.193 140.965C203.943 141.109 203.756 141.312 203.631 141.574C203.506 141.836 203.443 142.137 203.443 142.477H202.359C202.359 141.996 202.465 141.557 202.676 141.158C202.887 140.76 203.199 140.443 203.613 140.209C204.027 139.971 204.537 139.852 205.143 139.852C205.682 139.852 206.143 139.947 206.525 140.139C206.908 140.326 207.201 140.592 207.404 140.936C207.611 141.275 207.715 141.674 207.715 142.131C207.715 142.381 207.672 142.635 207.586 142.893C207.504 143.146 207.389 143.4 207.24 143.654C207.096 143.908 206.926 144.158 206.73 144.404C206.539 144.65 206.334 144.893 206.115 145.131L203.83 147.609H208.107ZM209.174 142.061V141.609C209.174 141.285 209.244 140.99 209.385 140.725C209.525 140.459 209.727 140.246 209.988 140.086C210.25 139.926 210.561 139.846 210.92 139.846C211.287 139.846 211.6 139.926 211.857 140.086C212.119 140.246 212.32 140.459 212.461 140.725C212.602 140.99 212.672 141.285 212.672 141.609V142.061C212.672 142.377 212.602 142.668 212.461 142.934C212.324 143.199 212.125 143.412 211.863 143.572C211.605 143.732 211.295 143.812 210.932 143.812C210.568 143.812 210.254 143.732 209.988 143.572C209.727 143.412 209.525 143.199 209.385 142.934C209.244 142.668 209.174 142.377 209.174 142.061ZM209.988 141.609V142.061C209.988 142.24 210.021 142.41 210.088 142.57C210.158 142.73 210.264 142.861 210.404 142.963C210.545 143.061 210.721 143.109 210.932 143.109C211.143 143.109 211.316 143.061 211.453 142.963C211.59 142.861 211.691 142.73 211.758 142.57C211.824 142.41 211.857 142.24 211.857 142.061V141.609C211.857 141.426 211.822 141.254 211.752 141.094C211.686 140.93 211.582 140.799 211.441 140.701C211.305 140.6 211.131 140.549 210.92 140.549C210.713 140.549 210.539 140.6 210.398 140.701C210.262 140.799 210.158 140.93 210.088 141.094C210.021 141.254 209.988 141.426 209.988 141.609ZM213.328 146.865V146.408C213.328 146.088 213.398 145.795 213.539 145.529C213.68 145.264 213.881 145.051 214.143 144.891C214.404 144.73 214.715 144.65 215.074 144.65C215.441 144.65 215.754 144.73 216.012 144.891C216.273 145.051 216.475 145.264 216.615 145.529C216.756 145.795 216.826 146.088 216.826 146.408V146.865C216.826 147.186 216.756 147.479 216.615 147.744C216.479 148.01 216.279 148.223 216.018 148.383C215.76 148.543 215.449 148.623 215.086 148.623C214.723 148.623 214.41 148.543 214.148 148.383C213.887 148.223 213.684 148.01 213.539 147.744C213.398 147.479 213.328 147.186 213.328 146.865ZM214.143 146.408V146.865C214.143 147.045 214.176 147.217 214.242 147.381C214.312 147.541 214.418 147.672 214.559 147.773C214.699 147.871 214.875 147.92 215.086 147.92C215.297 147.92 215.471 147.871 215.607 147.773C215.748 147.672 215.852 147.541 215.918 147.381C215.984 147.221 216.018 147.049 216.018 146.865V146.408C216.018 146.225 215.982 146.053 215.912 145.893C215.846 145.732 215.742 145.604 215.602 145.506C215.465 145.404 215.289 145.354 215.074 145.354C214.867 145.354 214.693 145.404 214.553 145.506C214.416 145.604 214.312 145.732 214.242 145.893C214.176 146.053 214.143 146.225 214.143 146.408ZM215.344 141.182L211.178 147.85L210.568 147.463L214.734 140.795L215.344 141.182ZM224.461 145.154H222.182V144.234H224.461C224.902 144.234 225.26 144.164 225.533 144.023C225.807 143.883 226.006 143.688 226.131 143.438C226.26 143.188 226.324 142.902 226.324 142.582C226.324 142.289 226.26 142.014 226.131 141.756C226.006 141.498 225.807 141.291 225.533 141.135C225.26 140.975 224.902 140.895 224.461 140.895H222.445V148.5H221.314V139.969H224.461C225.105 139.969 225.65 140.08 226.096 140.303C226.541 140.525 226.879 140.834 227.109 141.229C227.34 141.619 227.455 142.066 227.455 142.57C227.455 143.117 227.34 143.584 227.109 143.971C226.879 144.357 226.541 144.652 226.096 144.855C225.65 145.055 225.105 145.154 224.461 145.154ZM232.389 147.416V144.152C232.389 143.902 232.338 143.686 232.236 143.502C232.139 143.314 231.99 143.17 231.791 143.068C231.592 142.967 231.346 142.916 231.053 142.916C230.779 142.916 230.539 142.963 230.332 143.057C230.129 143.15 229.969 143.273 229.852 143.426C229.738 143.578 229.682 143.742 229.682 143.918H228.598C228.598 143.691 228.656 143.467 228.773 143.244C228.891 143.021 229.059 142.82 229.277 142.641C229.5 142.457 229.766 142.312 230.074 142.207C230.387 142.098 230.734 142.043 231.117 142.043C231.578 142.043 231.984 142.121 232.336 142.277C232.691 142.434 232.969 142.67 233.168 142.986C233.371 143.299 233.473 143.691 233.473 144.164V147.117C233.473 147.328 233.49 147.553 233.525 147.791C233.564 148.029 233.621 148.234 233.695 148.406V148.5H232.564C232.51 148.375 232.467 148.209 232.436 148.002C232.404 147.791 232.389 147.596 232.389 147.416ZM232.576 144.656L232.588 145.418H231.492C231.184 145.418 230.908 145.443 230.666 145.494C230.424 145.541 230.221 145.613 230.057 145.711C229.893 145.809 229.768 145.932 229.682 146.08C229.596 146.225 229.553 146.395 229.553 146.59C229.553 146.789 229.598 146.971 229.688 147.135C229.777 147.299 229.912 147.43 230.092 147.527C230.275 147.621 230.5 147.668 230.766 147.668C231.098 147.668 231.391 147.598 231.645 147.457C231.898 147.316 232.1 147.145 232.248 146.941C232.4 146.738 232.482 146.541 232.494 146.35L232.957 146.871C232.93 147.035 232.855 147.217 232.734 147.416C232.613 147.615 232.451 147.807 232.248 147.99C232.049 148.17 231.811 148.32 231.533 148.441C231.26 148.559 230.951 148.617 230.607 148.617C230.178 148.617 229.801 148.533 229.477 148.365C229.156 148.197 228.906 147.973 228.727 147.691C228.551 147.406 228.463 147.088 228.463 146.736C228.463 146.396 228.529 146.098 228.662 145.84C228.795 145.578 228.986 145.361 229.236 145.189C229.486 145.014 229.787 144.881 230.139 144.791C230.49 144.701 230.883 144.656 231.316 144.656H232.576ZM238.869 146.818C238.869 146.662 238.834 146.518 238.764 146.385C238.697 146.248 238.559 146.125 238.348 146.016C238.141 145.902 237.828 145.805 237.41 145.723C237.059 145.648 236.74 145.561 236.455 145.459C236.174 145.357 235.934 145.234 235.734 145.09C235.539 144.945 235.389 144.775 235.283 144.58C235.178 144.385 235.125 144.156 235.125 143.895C235.125 143.645 235.18 143.408 235.289 143.186C235.402 142.963 235.561 142.766 235.764 142.594C235.971 142.422 236.219 142.287 236.508 142.189C236.797 142.092 237.119 142.043 237.475 142.043C237.982 142.043 238.416 142.133 238.775 142.312C239.135 142.492 239.41 142.732 239.602 143.033C239.793 143.33 239.889 143.66 239.889 144.023H238.805C238.805 143.848 238.752 143.678 238.646 143.514C238.545 143.346 238.395 143.207 238.195 143.098C238 142.988 237.76 142.934 237.475 142.934C237.174 142.934 236.93 142.98 236.742 143.074C236.559 143.164 236.424 143.279 236.338 143.42C236.256 143.561 236.215 143.709 236.215 143.865C236.215 143.982 236.234 144.088 236.273 144.182C236.316 144.271 236.391 144.355 236.496 144.434C236.602 144.508 236.75 144.578 236.941 144.645C237.133 144.711 237.377 144.777 237.674 144.844C238.193 144.961 238.621 145.102 238.957 145.266C239.293 145.43 239.543 145.631 239.707 145.869C239.871 146.107 239.953 146.396 239.953 146.736C239.953 147.014 239.895 147.268 239.777 147.498C239.664 147.729 239.498 147.928 239.279 148.096C239.064 148.26 238.807 148.389 238.506 148.482C238.209 148.572 237.875 148.617 237.504 148.617C236.945 148.617 236.473 148.518 236.086 148.318C235.699 148.119 235.406 147.861 235.207 147.545C235.008 147.229 234.908 146.895 234.908 146.543H235.998C236.014 146.84 236.1 147.076 236.256 147.252C236.412 147.424 236.604 147.547 236.83 147.621C237.057 147.691 237.281 147.727 237.504 147.727C237.801 147.727 238.049 147.688 238.248 147.609C238.451 147.531 238.605 147.424 238.711 147.287C238.816 147.15 238.869 146.994 238.869 146.818ZM244.031 142.16V142.992H240.604V142.16H244.031ZM241.764 140.619H242.848V146.93C242.848 147.145 242.881 147.307 242.947 147.416C243.014 147.525 243.1 147.598 243.205 147.633C243.311 147.668 243.424 147.686 243.545 147.686C243.635 147.686 243.729 147.678 243.826 147.662C243.928 147.643 244.004 147.627 244.055 147.615L244.061 148.5C243.975 148.527 243.861 148.553 243.721 148.576C243.584 148.604 243.418 148.617 243.223 148.617C242.957 148.617 242.713 148.564 242.49 148.459C242.268 148.354 242.09 148.178 241.957 147.932C241.828 147.682 241.764 147.346 241.764 146.924V140.619ZM249.357 143.42V148.5H248.268V142.16H249.299L249.357 143.42ZM249.135 145.09L248.631 145.072C248.635 144.639 248.691 144.238 248.801 143.871C248.91 143.5 249.072 143.178 249.287 142.904C249.502 142.631 249.77 142.42 250.09 142.271C250.41 142.119 250.781 142.043 251.203 142.043C251.5 142.043 251.773 142.086 252.023 142.172C252.273 142.254 252.49 142.385 252.674 142.564C252.857 142.744 253 142.975 253.102 143.256C253.203 143.537 253.254 143.877 253.254 144.275V148.5H252.17V144.328C252.17 143.996 252.113 143.73 252 143.531C251.891 143.332 251.734 143.188 251.531 143.098C251.328 143.004 251.09 142.957 250.816 142.957C250.496 142.957 250.229 143.014 250.014 143.127C249.799 143.24 249.627 143.396 249.498 143.596C249.369 143.795 249.275 144.023 249.217 144.281C249.162 144.535 249.135 144.805 249.135 145.09ZM253.242 144.492L252.516 144.715C252.52 144.367 252.576 144.033 252.686 143.713C252.799 143.393 252.961 143.107 253.172 142.857C253.387 142.607 253.65 142.41 253.963 142.266C254.275 142.117 254.633 142.043 255.035 142.043C255.375 142.043 255.676 142.088 255.938 142.178C256.203 142.268 256.426 142.406 256.605 142.594C256.789 142.777 256.928 143.014 257.021 143.303C257.115 143.592 257.162 143.936 257.162 144.334V148.5H256.072V144.322C256.072 143.967 256.016 143.691 255.902 143.496C255.793 143.297 255.637 143.158 255.434 143.08C255.234 142.998 254.996 142.957 254.719 142.957C254.48 142.957 254.27 142.998 254.086 143.08C253.902 143.162 253.748 143.275 253.623 143.42C253.498 143.561 253.402 143.723 253.336 143.906C253.273 144.09 253.242 144.285 253.242 144.492ZM258.516 145.4V145.266C258.516 144.809 258.582 144.385 258.715 143.994C258.848 143.6 259.039 143.258 259.289 142.969C259.539 142.676 259.842 142.449 260.197 142.289C260.553 142.125 260.951 142.043 261.393 142.043C261.838 142.043 262.238 142.125 262.594 142.289C262.953 142.449 263.258 142.676 263.508 142.969C263.762 143.258 263.955 143.6 264.088 143.994C264.221 144.385 264.287 144.809 264.287 145.266V145.4C264.287 145.857 264.221 146.281 264.088 146.672C263.955 147.062 263.762 147.404 263.508 147.697C263.258 147.986 262.955 148.213 262.6 148.377C262.248 148.537 261.85 148.617 261.404 148.617C260.959 148.617 260.559 148.537 260.203 148.377C259.848 148.213 259.543 147.986 259.289 147.697C259.039 147.404 258.848 147.062 258.715 146.672C258.582 146.281 258.516 145.857 258.516 145.4ZM259.6 145.266V145.4C259.6 145.717 259.637 146.016 259.711 146.297C259.785 146.574 259.896 146.82 260.045 147.035C260.197 147.25 260.387 147.42 260.613 147.545C260.84 147.666 261.104 147.727 261.404 147.727C261.701 147.727 261.961 147.666 262.184 147.545C262.41 147.42 262.598 147.25 262.746 147.035C262.895 146.82 263.006 146.574 263.08 146.297C263.158 146.016 263.197 145.717 263.197 145.4V145.266C263.197 144.953 263.158 144.658 263.08 144.381C263.006 144.1 262.893 143.852 262.74 143.637C262.592 143.418 262.404 143.246 262.178 143.121C261.955 142.996 261.693 142.934 261.393 142.934C261.096 142.934 260.834 142.996 260.607 143.121C260.385 143.246 260.197 143.418 260.045 143.637C259.896 143.852 259.785 144.1 259.711 144.381C259.637 144.658 259.6 144.953 259.6 145.266ZM266.73 143.514V148.5H265.646V142.16H266.672L266.73 143.514ZM266.473 145.09L266.021 145.072C266.025 144.639 266.09 144.238 266.215 143.871C266.34 143.5 266.516 143.178 266.742 142.904C266.969 142.631 267.238 142.42 267.551 142.271C267.867 142.119 268.217 142.043 268.6 142.043C268.912 142.043 269.193 142.086 269.443 142.172C269.693 142.254 269.906 142.387 270.082 142.57C270.262 142.754 270.398 142.992 270.492 143.285C270.586 143.574 270.633 143.928 270.633 144.346V148.5H269.543V144.334C269.543 144.002 269.494 143.736 269.396 143.537C269.299 143.334 269.156 143.188 268.969 143.098C268.781 143.004 268.551 142.957 268.277 142.957C268.008 142.957 267.762 143.014 267.539 143.127C267.32 143.24 267.131 143.396 266.971 143.596C266.814 143.795 266.691 144.023 266.602 144.281C266.516 144.535 266.473 144.805 266.473 145.09ZM274.934 142.16V142.992H271.506V142.16H274.934ZM272.666 140.619H273.75V146.93C273.75 147.145 273.783 147.307 273.85 147.416C273.916 147.525 274.002 147.598 274.107 147.633C274.213 147.668 274.326 147.686 274.447 147.686C274.537 147.686 274.631 147.678 274.729 147.662C274.83 147.643 274.906 147.627 274.957 147.615L274.963 148.5C274.877 148.527 274.764 148.553 274.623 148.576C274.486 148.604 274.32 148.617 274.125 148.617C273.859 148.617 273.615 148.564 273.393 148.459C273.17 148.354 272.992 148.178 272.859 147.932C272.73 147.682 272.666 147.346 272.666 146.924V140.619ZM277.289 139.5V148.5H276.205V139.5H277.289ZM277.031 145.09L276.58 145.072C276.584 144.639 276.648 144.238 276.773 143.871C276.898 143.5 277.074 143.178 277.301 142.904C277.527 142.631 277.797 142.42 278.109 142.271C278.426 142.119 278.775 142.043 279.158 142.043C279.471 142.043 279.752 142.086 280.002 142.172C280.252 142.254 280.465 142.387 280.641 142.57C280.82 142.754 280.957 142.992 281.051 143.285C281.145 143.574 281.191 143.928 281.191 144.346V148.5H280.102V144.334C280.102 144.002 280.053 143.736 279.955 143.537C279.857 143.334 279.715 143.188 279.527 143.098C279.34 143.004 279.109 142.957 278.836 142.957C278.566 142.957 278.32 143.014 278.098 143.127C277.879 143.24 277.689 143.396 277.529 143.596C277.373 143.795 277.25 144.023 277.16 144.281C277.074 144.535 277.031 144.805 277.031 145.09Z" fill="#303030"/>
<defs>
<linearGradient id="paint0_linear_1_121" x1="235" y1="18.5" x2="257" y2="78" gradientUnits="userSpaceOnUse">
<stop stop-color="#FF5151"/>
<stop offset="1" stop-color="white" stop-opacity="0"/>
</linearGradient>
</defs>
</svg>
